<svg width="18" height="18" viewBox="0 0 18 18" fill="none" xmlns="http://www.w3.org/2000/svg">
<path fill-rule="evenodd" clip-rule="evenodd" d="M3.75 3C3.33579 3 3 3.33579 3 3.75V14.25C3 14.6642 3.33579 15 3.75 15H14.25C14.6642 15 15 14.6642 15 14.25V3.75C15 3.33579 14.6642 3 14.25 3H3.75ZM1.5 3.75C1.5 2.50736 2.50736 1.5 3.75 1.5H14.25C15.4926 1.5 16.5 2.50736 16.5 3.75V14.25C16.5 15.4926 15.4926 16.5 14.25 16.5H3.75C2.50736 16.5 1.5 15.4926 1.5 14.25V3.75Z" fill="#D1D1D6"/>
<path fill-rule="evenodd" clip-rule="evenodd" d="M3.75 6C3.55109 6 3.36032 6.07902 3.21967 6.21967C3.07902 6.36032 3 6.55109 3 6.75C3 7.16421 2.66421 7.5 2.25 7.5C1.83579 7.5 1.5 7.16421 1.5 6.75C1.5 6.15326 1.73705 5.58097 2.15901 5.15901C2.58097 4.73705 3.15326 4.5 3.75 4.5H14.25C14.8467 4.5 15.419 4.73705 15.841 5.15901C16.2629 5.58097 16.5 6.15326 16.5 6.75C16.5 7.16421 16.1642 7.5 15.75 7.5C15.3358 7.5 15 7.16421 15 6.75C15 6.55109 14.921 6.36032 14.7803 6.21967C14.6397 6.07902 14.4489 6 14.25 6H3.75Z" fill="#D1D1D6"/>
<path fill-rule="evenodd" clip-rule="evenodd" d="M1.5 8.25C1.5 7.83579 1.83579 7.5 2.25 7.5H4.5C5.24618 7.5 6.05212 7.76975 6.60015 8.38562L7.37493 9.01953C7.39422 9.03531 7.41271 9.05205 7.43033 9.06967C8.33744 9.97678 9.73756 9.97678 10.6447 9.06967C10.6623 9.05205 10.6808 9.03531 10.7001 9.01953L11.4985 8.36631C11.9928 7.88644 12.762 7.5 13.575 7.5H15.75C16.1642 7.5 16.5 7.83579 16.5 8.25C16.5 8.66421 16.1642 9 15.75 9H13.575C13.2039 9 12.7874 9.19824 12.5303 9.45533C12.5127 9.47295 12.4942 9.48968 12.4749 9.50547L11.6774 10.158C10.1926 11.614 7.8824 11.614 6.39762 10.158L5.60007 9.50547C5.56322 9.47531 5.52932 9.44172 5.49883 9.40514C5.29704 9.16299 4.93031 9 4.5 9H2.25C1.83579 9 1.5 8.66421 1.5 8.25Z" fill="#D1D1D6"/>
</svg>
