<svg width="20" height="20" viewBox="0 0 20 20" fill="none" xmlns="http://www.w3.org/2000/svg">
<path fill-rule="evenodd" clip-rule="evenodd" d="M0.833496 3.33317C0.833496 2.4127 1.57969 1.6665 2.50016 1.6665H17.5002C18.4206 1.6665 19.1668 2.4127 19.1668 3.33317V5.83317C19.1668 6.75365 18.4206 7.49984 17.5002 7.49984H2.50016C1.57969 7.49984 0.833496 6.75365 0.833496 5.83317V3.33317ZM17.5002 3.33317H2.50016V5.83317H17.5002V3.33317Z" fill="#D92D20"/>
<path fill-rule="evenodd" clip-rule="evenodd" d="M3.3335 5.83317C3.79373 5.83317 4.16683 6.20627 4.16683 6.6665V15.8332C4.16683 16.0542 4.25463 16.2661 4.41091 16.4224C4.56719 16.5787 4.77915 16.6665 5.00016 16.6665H15.0002C15.2212 16.6665 15.4331 16.5787 15.5894 16.4224C15.7457 16.2661 15.8335 16.0542 15.8335 15.8332V6.6665C15.8335 6.20627 16.2066 5.83317 16.6668 5.83317C17.1271 5.83317 17.5002 6.20627 17.5002 6.6665V15.8332C17.5002 16.4962 17.2368 17.1321 16.7679 17.6009C16.2991 18.0698 15.6632 18.3332 15.0002 18.3332H5.00016C4.33712 18.3332 3.70124 18.0698 3.2324 17.6009C2.76355 17.1321 2.50016 16.4962 2.50016 15.8332V6.6665C2.50016 6.20627 2.87326 5.83317 3.3335 5.83317Z" fill="#D92D20"/>
<path fill-rule="evenodd" clip-rule="evenodd" d="M7.50016 9.99984C7.50016 9.5396 7.87326 9.1665 8.3335 9.1665H11.6668C12.1271 9.1665 12.5002 9.5396 12.5002 9.99984C12.5002 10.4601 12.1271 10.8332 11.6668 10.8332H8.3335C7.87326 10.8332 7.50016 10.4601 7.50016 9.99984Z" fill="#D92D20"/>
</svg>
