<svg width="20" height="20" viewBox="0 0 20 20" fill="none" xmlns="http://www.w3.org/2000/svg">
<path fill-rule="evenodd" clip-rule="evenodd" d="M3.33334 10C3.33334 9.5398 3.70644 9.16671 4.16668 9.16671H15.8333C16.2936 9.16671 16.6667 9.5398 16.6667 10C16.6667 10.4603 16.2936 10.8334 15.8333 10.8334H4.16668C3.70644 10.8334 3.33334 10.4603 3.33334 10Z" fill="white"/>
<path fill-rule="evenodd" clip-rule="evenodd" d="M9.41075 3.57745C9.73619 3.25201 10.2638 3.25201 10.5893 3.57745L16.4226 9.41079C16.748 9.73622 16.748 10.2639 16.4226 10.5893L10.5893 16.4226C10.2638 16.7481 9.73619 16.7481 9.41075 16.4226C9.08532 16.0972 9.08532 15.5696 9.41075 15.2441L14.6548 10L9.41075 4.75596C9.08532 4.43053 9.08532 3.90289 9.41075 3.57745Z" fill="white"/>
</svg>
