<svg width="21" height="20" viewBox="0 0 21 20" fill="none" xmlns="http://www.w3.org/2000/svg">
<path fill-rule="evenodd" clip-rule="evenodd" d="M8.00008 3.33366C8.46032 3.33366 8.83342 3.70675 8.83342 4.16699V7.50033C8.83342 7.96056 8.46032 8.33366 8.00008 8.33366C7.53984 8.33366 7.16675 7.96056 7.16675 7.50033V4.16699C7.16675 3.70675 7.53984 3.33366 8.00008 3.33366Z" fill="#303136"/>
<path fill-rule="evenodd" clip-rule="evenodd" d="M5.50008 8.33366C5.50008 7.41318 6.24627 6.66699 7.16675 6.66699H8.83342C9.75389 6.66699 10.5001 7.41318 10.5001 8.33366V11.667C10.5001 12.5875 9.75389 13.3337 8.83342 13.3337H7.16675C6.24627 13.3337 5.50008 12.5875 5.50008 11.667V8.33366ZM8.83342 8.33366H7.16675V11.667H8.83342V8.33366Z" fill="#303136"/>
<path fill-rule="evenodd" clip-rule="evenodd" d="M8.00008 11.667C8.46032 11.667 8.83342 12.0401 8.83342 12.5003V14.167C8.83342 14.6272 8.46032 15.0003 8.00008 15.0003C7.53984 15.0003 7.16675 14.6272 7.16675 14.167V12.5003C7.16675 12.0401 7.53984 11.667 8.00008 11.667Z" fill="#303136"/>
<path fill-rule="evenodd" clip-rule="evenodd" d="M14.6667 1.66699C15.127 1.66699 15.5001 2.04009 15.5001 2.50033V4.16699C15.5001 4.62723 15.127 5.00033 14.6667 5.00033C14.2065 5.00033 13.8334 4.62723 13.8334 4.16699V2.50033C13.8334 2.04009 14.2065 1.66699 14.6667 1.66699Z" fill="#303136"/>
<path fill-rule="evenodd" clip-rule="evenodd" d="M12.1667 5.00033C12.1667 4.07985 12.9129 3.33366 13.8334 3.33366H15.5001C16.4206 3.33366 17.1667 4.07985 17.1667 5.00033V10.0003C17.1667 10.9208 16.4206 11.667 15.5001 11.667H13.8334C12.9129 11.667 12.1667 10.9208 12.1667 10.0003V5.00033ZM15.5001 5.00033H13.8334V10.0003H15.5001V5.00033Z" fill="#303136"/>
<path fill-rule="evenodd" clip-rule="evenodd" d="M14.6667 10.0003C15.127 10.0003 15.5001 10.3734 15.5001 10.8337V13.3337C15.5001 13.7939 15.127 14.167 14.6667 14.167C14.2065 14.167 13.8334 13.7939 13.8334 13.3337V10.8337C13.8334 10.3734 14.2065 10.0003 14.6667 10.0003Z" fill="#303136"/>
<path fill-rule="evenodd" clip-rule="evenodd" d="M3.00008 1.66699C3.46032 1.66699 3.83341 2.04009 3.83341 2.50033V16.667H18.0001C18.4603 16.667 18.8334 17.0401 18.8334 17.5003C18.8334 17.9606 18.4603 18.3337 18.0001 18.3337H3.00008C2.53984 18.3337 2.16675 17.9606 2.16675 17.5003V2.50033C2.16675 2.04009 2.53984 1.66699 3.00008 1.66699Z" fill="#303136"/>
</svg>
