<svg width="18" height="18" viewBox="0 0 18 18" fill="none" xmlns="http://www.w3.org/2000/svg">
<g clip-path="url(#clip0_2884_7241)">
<path fill-rule="evenodd" clip-rule="evenodd" d="M9 2.25C5.27208 2.25 2.25 5.27208 2.25 9C2.25 12.7279 5.27208 15.75 9 15.75C12.7279 15.75 15.75 12.7279 15.75 9C15.75 5.27208 12.7279 2.25 9 2.25ZM0.75 9C0.75 4.44365 4.44365 0.75 9 0.75C13.5563 0.75 17.25 4.44365 17.25 9C17.25 13.5563 13.5563 17.25 9 17.25C4.44365 17.25 0.75 13.5563 0.75 9Z" fill="#51525C"/>
<path fill-rule="evenodd" clip-rule="evenodd" d="M5.90901 5.90901C6.33097 5.48705 6.90326 5.25 7.5 5.25H12C12.4142 5.25 12.75 5.58579 12.75 6C12.75 6.41421 12.4142 6.75 12 6.75H7.5C7.30109 6.75 7.11032 6.82902 6.96967 6.96967C6.82902 7.11032 6.75 7.30109 6.75 7.5C6.75 7.69891 6.82902 7.88968 6.96967 8.03033C7.11032 8.17098 7.30109 8.25 7.5 8.25H10.5C11.0967 8.25 11.669 8.48705 12.091 8.90901C12.5129 9.33097 12.75 9.90326 12.75 10.5C12.75 11.0967 12.5129 11.669 12.091 12.091C11.669 12.5129 11.0967 12.75 10.5 12.75H6C5.58579 12.75 5.25 12.4142 5.25 12C5.25 11.5858 5.58579 11.25 6 11.25H10.5C10.6989 11.25 10.8897 11.171 11.0303 11.0303C11.171 10.8897 11.25 10.6989 11.25 10.5C11.25 10.3011 11.171 10.1103 11.0303 9.96967C10.8897 9.82902 10.6989 9.75 10.5 9.75H7.5C6.90326 9.75 6.33097 9.51295 5.90901 9.09099C5.48705 8.66903 5.25 8.09674 5.25 7.5C5.25 6.90326 5.48705 6.33097 5.90901 5.90901Z" fill="#51525C"/>
<path fill-rule="evenodd" clip-rule="evenodd" d="M9 3.75C9.41421 3.75 9.75 4.08579 9.75 4.5V13.5C9.75 13.9142 9.41421 14.25 9 14.25C8.58579 14.25 8.25 13.9142 8.25 13.5V4.5C8.25 4.08579 8.58579 3.75 9 3.75Z" fill="#51525C"/>
</g>
<defs>
<clipPath id="clip0_2884_7241">
<rect width="18" height="18" fill="white"/>
</clipPath>
</defs>
</svg>
