<svg width="140" height="48" viewBox="0 0 140 48" fill="none" xmlns="http://www.w3.org/2000/svg">
<mask id="mask0_2284_107375" style="mask-type:alpha" maskUnits="userSpaceOnUse" x="10" y="8" width="34" height="32">
<path d="M27.0547 39.6548C33.9872 39.6548 39.7937 26.8864 43.0851 17.6573C44.7468 12.9981 41.1822 8.34473 36.2355 8.34473H17.8739C12.9272 8.34473 9.36264 12.9981 11.0243 17.6573C14.3158 26.8864 20.1222 39.6548 27.0547 39.6548Z" fill="url(#paint0_linear_2284_107375)"/>
</mask>
<g mask="url(#mask0_2284_107375)">
<path d="M27.0547 39.6548C33.9872 39.6548 39.7937 26.8864 43.0851 17.6573C44.7468 12.9981 41.1822 8.34473 36.2355 8.34473H17.8739C12.9272 8.34473 9.36264 12.9981 11.0243 17.6573C14.3158 26.8864 20.1222 39.6548 27.0547 39.6548Z" fill="url(#paint1_linear_2284_107375)"/>
<path d="M32.7837 13.3766L27.0714 15.8659L27.0651 15.8684L27.0587 15.8659L21.4134 13.4058L21.3464 13.3766L27.0651 10.8848L32.7837 13.3766Z" fill="#1D57C3"/>
<path d="M20.9648 24.8986L20.2023 25.2307L14.4836 22.7389L20.2023 20.2471L20.9648 20.5792V24.8986Z" fill="#1D57C3"/>
<path d="M39.6467 22.3151L33.9281 24.8069L33.1655 24.4748V20.1554L33.9281 19.8232L39.6467 22.3151Z" fill="#1D57C3"/>
<path d="M20.9649 25.083V39.1426L20.2871 39.4375V25.3783L20.9649 25.083Z" fill="#1D57C3"/>
<path d="M33.8433 24.9545V39.0136L33.1655 38.7188V24.6592L33.8433 24.9545Z" fill="#8EC7F5"/>
<path d="M14.4613 22.9137L14.2715 22.8311V36.8957L20.1177 39.4376V25.3784L14.4613 22.9137ZM19.2704 37.6291L15.0751 35.8049V24.6527L19.2704 26.4769V37.6291Z" fill="#8EC7F5"/>
<path d="M27.1499 16.0161V42.3607L32.9961 39.8189V13.4688L27.1499 16.0161ZM32.0158 38.6962L28.1666 40.3696V17.0908L32.0158 15.4175V38.6962Z" fill="#1D57C3"/>
<path d="M21.1348 13.4688V39.8189L26.9809 42.3607V16.0161L21.1348 13.4688ZM26.0061 40.3696L22.1574 38.6962V15.4175L26.0061 17.0908V40.3696Z" fill="#8EC7F5"/>
<path d="M34.0129 24.9545V39.0137L39.8591 36.4719V22.4072L34.0129 24.9545ZM39.1826 35.254L34.9873 37.0781V25.9259L39.1826 24.1018V35.254Z" fill="#1D57C3"/>
<path d="M19.2705 26.4765V37.6287L15.0752 35.8045V24.6523L19.2705 26.4765Z" fill="url(#paint2_linear_2284_107375)"/>
<path d="M39.1826 24.1016V35.2538L34.9873 37.0779V25.9257L39.1826 24.1016Z" fill="url(#paint3_linear_2284_107375)"/>
<path d="M32.0169 15.417V38.6958L28.1677 40.3691V17.0904L32.0169 15.417Z" fill="url(#paint4_linear_2284_107375)"/>
<path d="M26.0062 17.0904V40.3691L22.1575 38.6958V15.417L26.0062 17.0904Z" fill="url(#paint5_linear_2284_107375)"/>
</g>
<path d="M49.4983 17.0333H54.2063L57.4447 24.9253H57.608L60.8464 17.0333H65.5544V30.9667H61.8533V22.9114H61.7445L58.6421 30.8579H56.4106L53.3082 22.857H53.1994V30.9667H49.4983V17.0333Z" fill="#1D57C3"/>
<path d="M71.8962 17.0333V30.9667H68.1135V17.0333H71.8962Z" fill="#1D57C3"/>
<path d="M83.5038 21.6324C83.4448 21.392 83.3519 21.1811 83.2249 20.9997C83.0979 20.8137 82.9391 20.6572 82.7486 20.5302C82.5627 20.3987 82.3449 20.3012 82.0955 20.2377C81.8506 20.1697 81.5807 20.1356 81.2859 20.1356C80.6509 20.1356 80.1089 20.2876 79.6598 20.5915C79.2154 20.8954 78.8752 21.333 78.6393 21.9045C78.408 22.476 78.2924 23.1654 78.2924 23.9728C78.2924 24.7892 78.4035 25.4877 78.6257 26.0682C78.848 26.6488 79.1791 27.0933 79.619 27.4017C80.059 27.7101 80.6055 27.8643 81.2587 27.8643C81.8347 27.8643 82.3132 27.7804 82.6942 27.6126C83.0797 27.4448 83.3677 27.2067 83.5582 26.8983C83.7487 26.5898 83.844 26.227 83.844 25.8097L84.4971 25.8777H81.3131V23.1836H87.4906V25.1158C87.4906 26.3857 87.2207 27.472 86.681 28.3746C86.1458 29.2727 85.4065 29.9621 84.4631 30.4429C83.5242 30.9191 82.447 31.1572 81.2314 31.1572C79.8753 31.1572 78.6847 30.8692 77.6596 30.2932C76.6346 29.7172 75.834 28.8962 75.258 27.8303C74.6865 26.7645 74.4008 25.4967 74.4008 24.0272C74.4008 22.8752 74.5754 21.8546 74.9247 20.9657C75.2784 20.0767 75.7683 19.326 76.3942 18.7137C77.0201 18.0969 77.7435 17.632 78.5645 17.319C79.3854 17.0015 80.2654 16.8428 81.2042 16.8428C82.0297 16.8428 82.7962 16.9607 83.5038 17.1966C84.2159 17.4279 84.8441 17.759 85.3883 18.1899C85.9372 18.6162 86.3794 19.1219 86.715 19.707C87.0507 20.2921 87.2548 20.9339 87.3273 21.6324H83.5038Z" fill="#1D57C3"/>
<path d="M95.3819 30.9667H90.0207V17.0333H95.3274C96.7607 17.0333 97.9989 17.3122 99.0421 17.8701C100.09 18.4234 100.897 19.2217 101.464 20.2649C102.036 21.3036 102.321 22.5486 102.321 24C102.321 25.4514 102.038 26.6987 101.471 27.7419C100.904 28.7805 100.101 29.5788 99.0625 30.1367C98.0239 30.69 96.797 30.9667 95.3819 30.9667ZM93.8035 27.7555H95.2458C95.9352 27.7555 96.5226 27.6444 97.0079 27.4221C97.4977 27.1999 97.8696 26.8166 98.1236 26.2723C98.3822 25.7281 98.5114 24.9706 98.5114 24C98.5114 23.0294 98.3799 22.2719 98.1168 21.7276C97.8583 21.1834 97.4773 20.8001 96.9739 20.5779C96.4749 20.3556 95.8626 20.2445 95.1369 20.2445H93.8035V27.7555Z" fill="#1D57C3"/>
<path d="M107.578 30.9667H103.496L108.095 17.0333H113.266L117.865 30.9667H113.783L110.735 20.8704H110.626L107.578 30.9667ZM106.816 25.4695H114.49V28.2998H106.816V25.4695Z" fill="#1D57C3"/>
<path d="M119.973 30.9667V17.0333H123.756V27.9188H129.389V30.9667H119.973Z" fill="#1D57C3"/>
<defs>
<linearGradient id="paint0_linear_2284_107375" x1="27.0547" y1="8.34473" x2="27.0547" y2="39.6548" gradientUnits="userSpaceOnUse">
<stop stop-color="#6DF0FF"/>
<stop offset="1" stop-color="#17A3C6"/>
</linearGradient>
<linearGradient id="paint1_linear_2284_107375" x1="27.0547" y1="8.34473" x2="27.0547" y2="39.6548" gradientUnits="userSpaceOnUse">
<stop offset="0.0355569" stop-color="#78A7FD"/>
<stop offset="1" stop-color="#5081DB"/>
</linearGradient>
<linearGradient id="paint2_linear_2284_107375" x1="17.1728" y1="24.6523" x2="17.1728" y2="37.6287" gradientUnits="userSpaceOnUse">
<stop stop-color="#0F54D6" stop-opacity="0"/>
<stop offset="1" stop-color="#0F54D6"/>
</linearGradient>
<linearGradient id="paint3_linear_2284_107375" x1="37.0849" y1="24.1016" x2="37.0849" y2="37.0779" gradientUnits="userSpaceOnUse">
<stop stop-color="#0F54D6" stop-opacity="0"/>
<stop offset="1" stop-color="#0F54D6"/>
</linearGradient>
<linearGradient id="paint4_linear_2284_107375" x1="30.0923" y1="15.417" x2="30.0923" y2="40.3691" gradientUnits="userSpaceOnUse">
<stop stop-color="#0F54D6" stop-opacity="0"/>
<stop offset="1" stop-color="#0F54D6"/>
</linearGradient>
<linearGradient id="paint5_linear_2284_107375" x1="24.0818" y1="15.417" x2="24.0818" y2="40.3691" gradientUnits="userSpaceOnUse">
<stop stop-color="#0F54D6" stop-opacity="0"/>
<stop offset="1" stop-color="#0F54D6"/>
</linearGradient>
</defs>
</svg>
