<svg width="20" height="22" viewBox="0 0 20 22" fill="none" xmlns="http://www.w3.org/2000/svg">
<g filter="url(#filter0_ii_391_12493)">
<path d="M16.305 21.3814C18.3463 21.3814 20.0632 19.6723 19.3258 17.7689C18.828 16.4838 18.0652 15.303 17.0718 14.3096C15.1963 12.4341 12.6524 11.3804 10 11.3804C7.34755 11.3804 4.80374 12.4341 2.92817 14.3096C1.93482 15.303 1.17202 16.4838 0.674186 17.7689C-0.0631741 19.6723 1.65371 21.3814 3.69498 21.3814L16.305 21.3814Z" fill="url(#paint0_linear_391_12493)"/>
<path d="M14.9461 5.56459C14.9461 8.29629 12.7316 10.5108 9.99989 10.5108C7.26819 10.5108 5.05371 8.29629 5.05371 5.56459C5.05371 2.83289 7.26819 0.618408 9.99989 0.618408C12.7316 0.618408 14.9461 2.83289 14.9461 5.56459Z" fill="url(#paint1_linear_391_12493)"/>
</g>
<defs>
<filter id="filter0_ii_391_12493" x="-0.330525" y="-0.212117" width="19.8305" height="21.5935" filterUnits="userSpaceOnUse" color-interpolation-filters="sRGB">
<feFlood flood-opacity="0" result="BackgroundImageFix"/>
<feBlend mode="normal" in="SourceGraphic" in2="BackgroundImageFix" result="shape"/>
<feColorMatrix in="SourceAlpha" type="matrix" values="0 0 0 0 0 0 0 0 0 0 0 0 0 0 0 0 0 0 127 0" result="hardAlpha"/>
<feOffset dx="-0.830525" dy="-0.830525"/>
<feGaussianBlur stdDeviation="0.830525"/>
<feComposite in2="hardAlpha" operator="arithmetic" k2="-1" k3="1"/>
<feColorMatrix type="matrix" values="0 0 0 0 0.0304345 0 0 0 0 0.0345348 0 0 0 0 0.276449 0 0 0 0.2 0"/>
<feBlend mode="normal" in2="shape" result="effect1_innerShadow_391_12493"/>
<feColorMatrix in="SourceAlpha" type="matrix" values="0 0 0 0 0 0 0 0 0 0 0 0 0 0 0 0 0 0 127 0" result="hardAlpha"/>
<feOffset dy="-0.830525"/>
<feGaussianBlur stdDeviation="1.24579"/>
<feComposite in2="hardAlpha" operator="arithmetic" k2="-1" k3="1"/>
<feColorMatrix type="matrix" values="0 0 0 0 0.273652 0 0 0 0 0.354653 0 0 0 0 0.494564 0 0 0 0.25 0"/>
<feBlend mode="normal" in2="effect1_innerShadow_391_12493" result="effect2_innerShadow_391_12493"/>
</filter>
<linearGradient id="paint0_linear_391_12493" x1="10" y1="11.3804" x2="10" y2="21.3814" gradientUnits="userSpaceOnUse">
<stop stop-color="#F6F6F6"/>
<stop offset="0.09" stop-color="white"/>
<stop offset="1" stop-color="#F4F4F4"/>
</linearGradient>
<linearGradient id="paint1_linear_391_12493" x1="9.99989" y1="0.618408" x2="9.99989" y2="10.5108" gradientUnits="userSpaceOnUse">
<stop stop-color="#F6F6F6"/>
<stop offset="0.09" stop-color="white"/>
<stop offset="1" stop-color="#F4F4F4"/>
</linearGradient>
</defs>
</svg>
