<svg width="20" height="22" viewBox="0 0 20 22" fill="none" xmlns="http://www.w3.org/2000/svg">
<g filter="url(#filter0_i_1738_54123)">
<path d="M16.305 21.381C18.3463 21.381 20.0632 19.6718 19.3258 17.7684C18.828 16.4833 18.0652 15.3025 17.0718 14.3091C15.1963 12.4336 12.6524 11.3799 10 11.3799C7.34755 11.3799 4.80374 12.4336 2.92817 14.3091C1.93482 15.3025 1.17202 16.4833 0.674186 17.7684C-0.0631741 19.6718 1.65371 21.381 3.69498 21.381L16.305 21.381Z" fill="url(#paint0_linear_1738_54123)"/>
<path d="M16.305 21.381C18.3463 21.381 20.0632 19.6718 19.3258 17.7684C18.828 16.4833 18.0652 15.3025 17.0718 14.3091C15.1963 12.4336 12.6524 11.3799 10 11.3799C7.34755 11.3799 4.80374 12.4336 2.92817 14.3091C1.93482 15.3025 1.17202 16.4833 0.674186 17.7684C-0.0631741 19.6718 1.65371 21.381 3.69498 21.381L16.305 21.381Z" fill="url(#paint1_linear_1738_54123)" fill-opacity="0.2"/>
<path d="M14.9463 5.56435C14.9463 8.29605 12.7318 10.5105 10.0001 10.5105C7.26844 10.5105 5.05396 8.29605 5.05396 5.56435C5.05396 2.83265 7.26844 0.618164 10.0001 0.618164C12.7318 0.618164 14.9463 2.83265 14.9463 5.56435Z" fill="url(#paint2_linear_1738_54123)"/>
<path d="M14.9463 5.56435C14.9463 8.29605 12.7318 10.5105 10.0001 10.5105C7.26844 10.5105 5.05396 8.29605 5.05396 5.56435C5.05396 2.83265 7.26844 0.618164 10.0001 0.618164C12.7318 0.618164 14.9463 2.83265 14.9463 5.56435Z" fill="url(#paint3_linear_1738_54123)" fill-opacity="0.2"/>
</g>
<defs>
<filter id="filter0_i_1738_54123" x="-0.330525" y="-0.212361" width="19.8305" height="21.5932" filterUnits="userSpaceOnUse" color-interpolation-filters="sRGB">
<feFlood flood-opacity="0" result="BackgroundImageFix"/>
<feBlend mode="normal" in="SourceGraphic" in2="BackgroundImageFix" result="shape"/>
<feColorMatrix in="SourceAlpha" type="matrix" values="0 0 0 0 0 0 0 0 0 0 0 0 0 0 0 0 0 0 127 0" result="hardAlpha"/>
<feOffset dx="-0.830525" dy="-0.830525"/>
<feGaussianBlur stdDeviation="0.830525"/>
<feComposite in2="hardAlpha" operator="arithmetic" k2="-1" k3="1"/>
<feColorMatrix type="matrix" values="0 0 0 0 0.0304345 0 0 0 0 0.0345348 0 0 0 0 0.276449 0 0 0 0.2 0"/>
<feBlend mode="normal" in2="shape" result="effect1_innerShadow_1738_54123"/>
</filter>
<linearGradient id="paint0_linear_1738_54123" x1="9" y1="13.4995" x2="9.99994" y2="20.9658" gradientUnits="userSpaceOnUse">
<stop stop-color="#316DFF"/>
<stop offset="0.423064" stop-color="#4279FF"/>
<stop offset="1" stop-color="#3E29FF"/>
</linearGradient>
<linearGradient id="paint1_linear_1738_54123" x1="15.8136" y1="11.83" x2="1.27943" y2="18.8895" gradientUnits="userSpaceOnUse">
<stop stop-color="#A483FA" stop-opacity="0"/>
<stop offset="1" stop-color="#5D22C9"/>
</linearGradient>
<linearGradient id="paint2_linear_1738_54123" x1="10.0001" y1="3.30628" x2="11.2456" y2="10.9997" gradientUnits="userSpaceOnUse">
<stop stop-color="#316DFF"/>
<stop offset="0.423064" stop-color="#4279FF"/>
<stop offset="1" stop-color="#3E29FF"/>
</linearGradient>
<linearGradient id="paint3_linear_1738_54123" x1="8.75401" y1="0.202901" x2="5.55301" y2="8.44145" gradientUnits="userSpaceOnUse">
<stop stop-color="#A483FA" stop-opacity="0"/>
<stop offset="1" stop-color="#5D22C9"/>
</linearGradient>
</defs>
</svg>
