<svg width="18" height="18" viewBox="0 0 18 18" fill="none" xmlns="http://www.w3.org/2000/svg">
	<g clip-path="url(#clip0_3586_16972)">
		<path fill-rule="evenodd" clip-rule="evenodd"
			d="M1.5 16.5C1.5 16.0858 1.83579 15.75 2.25 15.75H15.75C16.1642 15.75 16.5 16.0858 16.5 16.5C16.5 16.9142 16.1642 17.25 15.75 17.25H2.25C1.83579 17.25 1.5 16.9142 1.5 16.5Z"
			fill="#51525C" />
		<path fill-rule="evenodd" clip-rule="evenodd"
			d="M4.5 7.5C4.91421 7.5 5.25 7.83579 5.25 8.25V13.5C5.25 13.9142 4.91421 14.25 4.5 14.25C4.08579 14.25 3.75 13.9142 3.75 13.5V8.25C3.75 7.83579 4.08579 7.5 4.5 7.5Z"
			fill="#51525C" />
		<path fill-rule="evenodd" clip-rule="evenodd"
			d="M7.5 7.5C7.91421 7.5 8.25 7.83579 8.25 8.25V13.5C8.25 13.9142 7.91421 14.25 7.5 14.25C7.08579 14.25 6.75 13.9142 6.75 13.5V8.25C6.75 7.83579 7.08579 7.5 7.5 7.5Z"
			fill="#51525C" />
		<path fill-rule="evenodd" clip-rule="evenodd"
			d="M10.5 7.5C10.9142 7.5 11.25 7.83579 11.25 8.25V13.5C11.25 13.9142 10.9142 14.25 10.5 14.25C10.0858 14.25 9.75 13.9142 9.75 13.5V8.25C9.75 7.83579 10.0858 7.5 10.5 7.5Z"
			fill="#51525C" />
		<path fill-rule="evenodd" clip-rule="evenodd"
			d="M13.5 7.5C13.9142 7.5 14.25 7.83579 14.25 8.25V13.5C14.25 13.9142 13.9142 14.25 13.5 14.25C13.0858 14.25 12.75 13.9142 12.75 13.5V8.25C12.75 7.83579 13.0858 7.5 13.5 7.5Z"
			fill="#51525C" />
		<path fill-rule="evenodd" clip-rule="evenodd"
			d="M8.6025 0.864001C8.8457 0.712 9.15429 0.712 9.3975 0.864001L15.3975 4.614C15.6812 4.79133 15.8132 5.13514 15.7209 5.45676C15.6287 5.77838 15.3346 6 15 6H3C2.66542 6 2.3713 5.77838 2.27906 5.45676C2.18682 5.13514 2.31878 4.79133 2.6025 4.614L8.6025 0.864001ZM5.6151 4.5H12.3849L9 2.38444L5.6151 4.5Z"
			fill="#51525C" />
	</g>
	<defs>
		<clipPath id="clip0_3586_16972">
			<rect width="18" height="18" fill="white" />
		</clipPath>
	</defs>
</svg>