<svg width="18" height="18" viewBox="0 0 18 18" fill="none" xmlns="http://www.w3.org/2000/svg">
<g clip-path="url(#clip0_3631_12313)">
<path fill-rule="evenodd" clip-rule="evenodd" d="M3 5.25C2.58579 5.25 2.25 5.58579 2.25 6V12C2.25 12.4142 2.58579 12.75 3 12.75H15C15.4142 12.75 15.75 12.4142 15.75 12V6C15.75 5.58579 15.4142 5.25 15 5.25H3ZM0.75 6C0.75 4.75736 1.75736 3.75 3 3.75H15C16.2426 3.75 17.25 4.75736 17.25 6V12C17.25 13.2426 16.2426 14.25 15 14.25H3C1.75736 14.25 0.75 13.2426 0.75 12V6Z" fill="#2F6FE4"/>
<path fill-rule="evenodd" clip-rule="evenodd" d="M9 8.25C8.58579 8.25 8.25 8.58579 8.25 9C8.25 9.41421 8.58579 9.75 9 9.75C9.41421 9.75 9.75 9.41421 9.75 9C9.75 8.58579 9.41421 8.25 9 8.25ZM6.75 9C6.75 7.75736 7.75736 6.75 9 6.75C10.2426 6.75 11.25 7.75736 11.25 9C11.25 10.2426 10.2426 11.25 9 11.25C7.75736 11.25 6.75 10.2426 6.75 9Z" fill="#2F6FE4"/>
<path fill-rule="evenodd" clip-rule="evenodd" d="M3.75 9C3.75 8.58579 4.08579 8.25 4.5 8.25H4.5075C4.92171 8.25 5.2575 8.58579 5.2575 9C5.2575 9.41421 4.92171 9.75 4.5075 9.75H4.5C4.08579 9.75 3.75 9.41421 3.75 9ZM12.75 9C12.75 8.58579 13.0858 8.25 13.5 8.25H13.5075C13.9217 8.25 14.2575 8.58579 14.2575 9C14.2575 9.41421 13.9217 9.75 13.5075 9.75H13.5C13.0858 9.75 12.75 9.41421 12.75 9Z" fill="#2F6FE4"/>
</g>
<defs>
<clipPath id="clip0_3631_12313">
<rect width="18" height="18" fill="white"/>
</clipPath>
</defs>
</svg>
