<svg width="20" height="20" viewBox="0 0 20 20" fill="none" xmlns="http://www.w3.org/2000/svg">
<path fill-rule="evenodd" clip-rule="evenodd" d="M2.50002 1.66602C2.96026 1.66602 3.33335 2.03911 3.33335 2.49935V16.666H17.5C17.9603 16.666 18.3334 17.0391 18.3334 17.4993C18.3334 17.9596 17.9603 18.3327 17.5 18.3327H2.50002C2.03978 18.3327 1.66669 17.9596 1.66669 17.4993V2.49935C1.66669 2.03911 2.03978 1.66602 2.50002 1.66602Z" fill="#1D57C3"/>
<path fill-rule="evenodd" clip-rule="evenodd" d="M5.00002 13.3327C5.00002 12.8724 5.37312 12.4993 5.83335 12.4993H12.5C12.9603 12.4993 13.3334 12.8724 13.3334 13.3327C13.3334 13.7929 12.9603 14.166 12.5 14.166H5.83335C5.37312 14.166 5.00002 13.7929 5.00002 13.3327Z" fill="#1D57C3"/>
<path fill-rule="evenodd" clip-rule="evenodd" d="M5.00002 9.16602C5.00002 8.70578 5.37312 8.33268 5.83335 8.33268H15.8334C16.2936 8.33268 16.6667 8.70578 16.6667 9.16602C16.6667 9.62625 16.2936 9.99935 15.8334 9.99935H5.83335C5.37312 9.99935 5.00002 9.62625 5.00002 9.16602Z" fill="#1D57C3"/>
<path fill-rule="evenodd" clip-rule="evenodd" d="M5.00002 4.99935C5.00002 4.53911 5.37312 4.16602 5.83335 4.16602H8.33335C8.79359 4.16602 9.16669 4.53911 9.16669 4.99935C9.16669 5.45959 8.79359 5.83268 8.33335 5.83268H5.83335C5.37312 5.83268 5.00002 5.45959 5.00002 4.99935Z" fill="#1D57C3"/>
</svg>
