<svg width="19" height="18" viewBox="0 0 19 18" fill="none" xmlns="http://www.w3.org/2000/svg">
<path fill-rule="evenodd" clip-rule="evenodd" d="M8.75139 1.23906C9.15931 1.31099 9.43169 1.69999 9.35975 2.10791L9.22944 2.84691L10.707 3.10747L10.8376 2.36845C10.9096 1.96055 11.2987 1.68829 11.7066 1.76035C12.1145 1.8324 12.3868 2.22148 12.3147 2.62938L12.1733 3.43015C12.9189 3.70032 13.4923 4.15837 13.8758 4.73535C14.3683 5.47637 14.5132 6.362 14.3689 7.18006C14.2247 7.99811 13.7856 8.78075 13.0694 9.30862C12.949 9.3974 12.8221 9.47794 12.6892 9.54964C12.7893 9.66228 12.8808 9.78114 12.9634 9.90553C13.4557 10.6466 13.6005 11.5322 13.4562 12.3502C13.3119 13.1683 12.8729 13.9509 12.1567 14.4788C11.5993 14.8896 10.9043 15.124 10.1117 15.1231L9.97109 15.9239C9.89944 16.3319 9.51063 16.6045 9.10266 16.5329C8.69469 16.4612 8.42205 16.0724 8.4937 15.6644L8.62356 14.9251L7.14554 14.6643L7.01525 15.4032C6.94332 15.8111 6.55432 16.0835 6.1464 16.0115C5.73848 15.9396 5.46611 15.5506 5.53804 15.1427L5.66834 14.4038L4.93136 14.2738C4.52344 14.2018 4.2511 13.8128 4.32305 13.4049C4.39501 12.997 4.78402 12.7246 5.19194 12.7966L5.92884 12.9266L7.49174 4.06363L6.7539 3.93352C6.34598 3.86159 6.07361 3.47259 6.14554 3.06467C6.21748 2.65675 6.60648 2.38438 7.01439 2.45631L7.75223 2.58642L7.88254 1.84742C7.95448 1.4395 8.34348 1.16713 8.75139 1.23906ZM8.96894 4.32412L8.31773 8.01702L10.5348 8.40753C11.2747 8.53812 11.8124 8.37173 12.1795 8.10116C12.5575 7.82253 12.808 7.39406 12.8917 6.91958C12.9754 6.44511 12.8865 5.95678 12.6265 5.56561C12.3754 5.18782 11.9307 4.84914 11.1977 4.71716C11.1933 4.71647 11.189 4.71574 11.1847 4.71498C11.1801 4.71417 11.1756 4.71332 11.171 4.71244L8.96894 4.32412ZM8.05724 9.49423L7.40603 13.1871L9.6221 13.5781C9.62207 13.578 9.62213 13.5781 9.6221 13.5781C10.362 13.7085 10.8996 13.542 11.2667 13.2714C11.6448 12.9927 11.8954 12.5642 11.9791 12.0897C12.0628 11.6152 11.9739 11.1268 11.714 10.7356C11.4616 10.3557 11.0135 10.0153 10.2736 9.88475C10.269 9.88394 10.2644 9.8831 10.2599 9.88222L8.05724 9.49423Z" fill="#2F6FE4"/>
</svg>
