<svg width="21" height="20" viewBox="0 0 21 20" fill="none" xmlns="http://www.w3.org/2000/svg">
<path fill-rule="evenodd" clip-rule="evenodd" d="M3.83325 4.16667C3.37301 4.16667 2.99992 4.53976 2.99992 5V14.1667C2.99992 14.6269 3.37301 15 3.83325 15H17.1666C17.6268 15 17.9999 14.6269 17.9999 14.1667V5C17.9999 4.53976 17.6268 4.16667 17.1666 4.16667H3.83325ZM1.33325 5C1.33325 3.61929 2.45254 2.5 3.83325 2.5H17.1666C18.5473 2.5 19.6666 3.61929 19.6666 5V14.1667C19.6666 15.5474 18.5473 16.6667 17.1666 16.6667H3.83325C2.45254 16.6667 1.33325 15.5474 1.33325 14.1667V5Z" fill="#303136"/>
<path fill-rule="evenodd" clip-rule="evenodd" d="M4.66658 7.5C4.66658 6.57953 5.41278 5.83333 6.33325 5.83333H11.3333C12.2537 5.83333 12.9999 6.57953 12.9999 7.5V11.6667C12.9999 12.5871 12.2537 13.3333 11.3333 13.3333H6.33325C5.41278 13.3333 4.66658 12.5871 4.66658 11.6667V7.5ZM11.3333 7.5H6.33325V11.6667H11.3333V7.5Z" fill="#303136"/>
<path fill-rule="evenodd" clip-rule="evenodd" d="M15.4999 5.83333C15.9602 5.83333 16.3333 6.20643 16.3333 6.66667V12.5C16.3333 12.9602 15.9602 13.3333 15.4999 13.3333C15.0397 13.3333 14.6666 12.9602 14.6666 12.5V6.66667C14.6666 6.20643 15.0397 5.83333 15.4999 5.83333Z" fill="#303136"/>
<path fill-rule="evenodd" clip-rule="evenodd" d="M5.49992 15C5.96016 15 6.33325 15.3731 6.33325 15.8333V17.5C6.33325 17.9602 5.96016 18.3333 5.49992 18.3333C5.03968 18.3333 4.66658 17.9602 4.66658 17.5V15.8333C4.66658 15.3731 5.03968 15 5.49992 15Z" fill="#303136"/>
<path fill-rule="evenodd" clip-rule="evenodd" d="M15.4999 15C15.9602 15 16.3333 15.3731 16.3333 15.8333V17.5C16.3333 17.9602 15.9602 18.3333 15.4999 18.3333C15.0397 18.3333 14.6666 17.9602 14.6666 17.5V15.8333C14.6666 15.3731 15.0397 15 15.4999 15Z" fill="#303136"/>
</svg>
