<svg width="20" height="20" viewBox="0 0 20 20" fill="none" xmlns="http://www.w3.org/2000/svg">
<g clip-path="url(#clip0_2686_4847)">
<path fill-rule="evenodd" clip-rule="evenodd" d="M3.33325 6.6665C2.87301 6.6665 2.49992 7.0396 2.49992 7.49984V15.8332C2.49992 16.2934 2.87301 16.6665 3.33325 16.6665H16.6666C17.1268 16.6665 17.4999 16.2934 17.4999 15.8332V7.49984C17.4999 7.0396 17.1268 6.6665 16.6666 6.6665H3.33325ZM0.833252 7.49984C0.833252 6.11913 1.95254 4.99984 3.33325 4.99984H16.6666C18.0473 4.99984 19.1666 6.11913 19.1666 7.49984V15.8332C19.1666 17.2139 18.0473 18.3332 16.6666 18.3332H3.33325C1.95254 18.3332 0.833252 17.2139 0.833252 15.8332V7.49984Z" fill="#1D57C3"/>
<path fill-rule="evenodd" clip-rule="evenodd" d="M6.56548 2.39874C7.03433 1.9299 7.67021 1.6665 8.33325 1.6665H11.6666C12.3296 1.6665 12.9655 1.9299 13.4344 2.39874C13.9032 2.86758 14.1666 3.50346 14.1666 4.1665V17.4998C14.1666 17.9601 13.7935 18.3332 13.3333 18.3332C12.873 18.3332 12.4999 17.9601 12.4999 17.4998V4.1665C12.4999 3.94549 12.4121 3.73353 12.2558 3.57725C12.0996 3.42097 11.8876 3.33317 11.6666 3.33317H8.33325C8.11224 3.33317 7.90028 3.42097 7.744 3.57725C7.58771 3.73353 7.49992 3.94549 7.49992 4.1665V17.4998C7.49992 17.9601 7.12682 18.3332 6.66658 18.3332C6.20635 18.3332 5.83325 17.9601 5.83325 17.4998V4.1665C5.83325 3.50346 6.09664 2.86758 6.56548 2.39874Z" fill="#1D57C3"/>
</g>
<defs>
<clipPath id="clip0_2686_4847">
<rect width="20" height="20" fill="white"/>
</clipPath>
</defs>
</svg>
