<svg width="32" height="32" viewBox="0 0 32 32" fill="none" xmlns="http://www.w3.org/2000/svg">
<g filter="url(#filter0_i_1368_102939)">
<g filter="url(#filter1_i_1368_102939)">
<path d="M29.1523 9.60832L30.6946 12.2796C31.7251 14.0648 28.6715 17.7575 23.8736 20.5276C19.0759 23.2976 14.351 24.0958 13.3203 22.3106L11.7779 19.6393C10.7474 17.8542 13.801 14.1615 18.5989 11.3915C23.3965 8.6215 28.1215 7.82314 29.1523 9.60832Z" fill="url(#paint0_linear_1368_102939)"/>
</g>
<g filter="url(#filter2_i_1368_102939)">
<path d="M18.5985 11.3915C23.3961 8.6215 28.121 7.82314 29.1518 9.60832C30.1825 11.3936 27.1285 15.0863 22.3309 17.8563C17.533 20.6263 12.8081 21.4246 11.7774 19.6393C10.7469 17.8542 13.8005 14.1615 18.5985 11.3915Z" fill="#3A3CE7"/>
</g>
<g filter="url(#filter3_i_1368_102939)">
<path d="M19.1719 12.3849C23.1516 10.0873 26.9566 9.22698 27.6704 10.4636C28.3842 11.7001 25.737 14.5652 21.7573 16.8628C17.7776 19.1604 13.9728 20.0205 13.2588 18.784C12.545 17.5475 15.1924 14.6825 19.1719 12.3849Z" fill="url(#paint1_linear_1368_102939)"/>
</g>
<g filter="url(#filter4_i_1368_102939)">
<path d="M27.7757 11.0897C27.5959 12.5105 25.1653 14.8938 21.7574 16.8613C18.3498 18.8287 15.0705 19.7419 13.75 19.1875C13.9301 17.7667 16.3605 15.3833 19.7683 13.4158C23.1759 11.4485 26.4552 10.5352 27.7757 11.0897Z" fill="url(#paint2_linear_1368_102939)"/>
</g>
<g filter="url(#filter5_i_1368_102939)">
<path d="M25.1164 24.8637L23.5649 28.2924C22.5281 30.5838 16.6951 30.1822 10.537 27.3955C4.37885 24.6087 0.227352 20.4921 1.2642 18.2006L2.81574 14.772C3.85284 12.4806 9.68547 12.8823 15.8436 15.669C22.0018 18.4556 26.1532 22.5724 25.1164 24.8637Z" fill="url(#paint3_linear_1368_102939)"/>
</g>
<g filter="url(#filter6_i_1368_102939)">
<path d="M15.8434 15.6689C22.0015 18.4557 26.153 22.5723 25.1161 24.8638C24.0793 27.1551 18.2463 26.7536 12.0882 23.9669C5.93005 21.1801 1.77862 17.0635 2.81547 14.772C3.85258 12.4807 9.68527 12.8822 15.8434 15.6689Z" fill="#3A3CE7"/>
</g>
<g filter="url(#filter7_i_1368_102939)">
<path d="M15.2661 16.946C20.3744 19.2575 23.9329 22.418 23.2146 24.0052C22.4963 25.5923 17.7733 25.005 12.6654 22.6934C7.55745 20.382 3.99881 17.2214 4.71686 15.6343C5.43516 14.0471 10.1582 14.6344 15.2661 16.946Z" fill="url(#paint4_linear_1368_102939)"/>
</g>
<g filter="url(#filter8_i_1368_102939)">
<path d="M22.667 24.5545C21.1304 25.3864 17.0392 24.6715 12.6653 22.6922C8.29142 20.7129 5.05373 18.1112 4.66455 16.4077C6.20111 15.5758 10.2924 16.2905 14.6666 18.27C19.0405 20.2492 22.2779 22.851 22.667 24.5545Z" fill="url(#paint5_linear_1368_102939)"/>
</g>
<g filter="url(#filter9_i_1368_102939)">
<path d="M20.9883 3.94041L21.5636 6.47466C21.9482 8.16819 18.5702 10.3791 14.0184 11.4127C9.46688 12.4462 5.46505 11.9111 5.08047 10.2176L4.50518 7.68332C4.1206 5.98962 7.4986 3.77871 12.0504 2.74519C16.602 1.71164 20.6037 2.24672 20.9883 3.94041Z" fill="url(#paint6_linear_1368_102939)"/>
</g>
<g filter="url(#filter10_i_1368_102939)">
<path d="M12.0494 2.74519C16.601 1.71164 20.6028 2.24672 20.9874 3.94041C21.372 5.63406 17.9937 7.84486 13.4422 8.87841C8.89035 9.91208 4.88884 9.37685 4.5042 7.68332C4.11962 5.98962 7.49769 3.77871 12.0494 2.74519Z" fill="#3A3CE7"/>
</g>
<g filter="url(#filter11_i_1368_102939)">
<path d="M12.2632 3.68667C16.0389 2.82933 19.3155 3.08529 19.5818 4.25838C19.8482 5.4315 17.0036 7.07751 13.2279 7.93485C9.45252 8.79222 6.17592 8.53614 5.90936 7.36301C5.64305 6.1899 8.4878 4.54392 12.2632 3.68667Z" fill="url(#paint7_linear_1368_102939)"/>
</g>
<g filter="url(#filter12_i_1368_102939)">
<path d="M19.5106 4.79059C19.0115 5.88925 16.4615 7.20166 13.2284 7.9357C9.9955 8.66989 7.12853 8.5876 6.2041 7.81211C6.70323 6.71345 9.25322 5.4012 12.4863 4.667C15.7192 3.93297 18.5858 4.01526 19.5106 4.79059Z" fill="url(#paint8_linear_1368_102939)"/>
</g>
</g>
<defs>
<filter id="filter0_i_1368_102939" x="0" y="0" width="32" height="34" filterUnits="userSpaceOnUse" color-interpolation-filters="sRGB">
<feFlood flood-opacity="0" result="BackgroundImageFix"/>
<feBlend mode="normal" in="SourceGraphic" in2="BackgroundImageFix" result="shape"/>
<feColorMatrix in="SourceAlpha" type="matrix" values="0 0 0 0 0 0 0 0 0 0 0 0 0 0 0 0 0 0 127 0" result="hardAlpha"/>
<feOffset dy="2"/>
<feGaussianBlur stdDeviation="3"/>
<feComposite in2="hardAlpha" operator="arithmetic" k2="-1" k3="1"/>
<feColorMatrix type="matrix" values="0 0 0 0 0.0932688 0 0 0 0 0.153132 0 0 0 0 0.317757 0 0 0 0.1 0"/>
<feBlend mode="normal" in2="shape" result="effect1_innerShadow_1368_102939"/>
</filter>
<filter id="filter1_i_1368_102939" x="11.5779" y="7.30876" width="19.3167" height="15.953" filterUnits="userSpaceOnUse" color-interpolation-filters="sRGB">
<feFlood flood-opacity="0" result="BackgroundImageFix"/>
<feBlend mode="normal" in="SourceGraphic" in2="BackgroundImageFix" result="shape"/>
<feColorMatrix in="SourceAlpha" type="matrix" values="0 0 0 0 0 0 0 0 0 0 0 0 0 0 0 0 0 0 127 0" result="hardAlpha"/>
<feOffset dy="-1.34749"/>
<feGaussianBlur stdDeviation="1.34749"/>
<feComposite in2="hardAlpha" operator="arithmetic" k2="-1" k3="1"/>
<feColorMatrix type="matrix" values="0 0 0 0 0.0932688 0 0 0 0 0.153132 0 0 0 0 0.317757 0 0 0 0.46 0"/>
<feBlend mode="normal" in2="shape" result="effect1_innerShadow_1368_102939"/>
</filter>
<filter id="filter2_i_1368_102939" x="11.5774" y="7.65625" width="18.7744" height="12.9336" filterUnits="userSpaceOnUse" color-interpolation-filters="sRGB">
<feFlood flood-opacity="0" result="BackgroundImageFix"/>
<feBlend mode="normal" in="SourceGraphic" in2="BackgroundImageFix" result="shape"/>
<feColorMatrix in="SourceAlpha" type="matrix" values="0 0 0 0 0 0 0 0 0 0 0 0 0 0 0 0 0 0 127 0" result="hardAlpha"/>
<feOffset dx="1" dy="-1"/>
<feGaussianBlur stdDeviation="0.8"/>
<feComposite in2="hardAlpha" operator="arithmetic" k2="-1" k3="1"/>
<feColorMatrix type="matrix" values="0 0 0 0 0.0932688 0 0 0 0 0.153132 0 0 0 0 0.317757 0 0 0 0.5 0"/>
<feBlend mode="normal" in2="shape" result="effect1_innerShadow_1368_102939"/>
</filter>
<filter id="filter3_i_1368_102939" x="13.1426" y="8.89844" width="15.644" height="10.4492" filterUnits="userSpaceOnUse" color-interpolation-filters="sRGB">
<feFlood flood-opacity="0" result="BackgroundImageFix"/>
<feBlend mode="normal" in="SourceGraphic" in2="BackgroundImageFix" result="shape"/>
<feColorMatrix in="SourceAlpha" type="matrix" values="0 0 0 0 0 0 0 0 0 0 0 0 0 0 0 0 0 0 127 0" result="hardAlpha"/>
<feOffset dx="1" dy="-1"/>
<feGaussianBlur stdDeviation="0.8"/>
<feComposite in2="hardAlpha" operator="arithmetic" k2="-1" k3="1"/>
<feColorMatrix type="matrix" values="0 0 0 0 0.0932688 0 0 0 0 0.153132 0 0 0 0 0.317757 0 0 0 0.5 0"/>
<feBlend mode="normal" in2="shape" result="effect1_innerShadow_1368_102939"/>
</filter>
<filter id="filter4_i_1368_102939" x="13.75" y="10.5297" width="14.0256" height="8.81797" filterUnits="userSpaceOnUse" color-interpolation-filters="sRGB">
<feFlood flood-opacity="0" result="BackgroundImageFix"/>
<feBlend mode="normal" in="SourceGraphic" in2="BackgroundImageFix" result="shape"/>
<feColorMatrix in="SourceAlpha" type="matrix" values="0 0 0 0 0 0 0 0 0 0 0 0 0 0 0 0 0 0 127 0" result="hardAlpha"/>
<feOffset dy="-0.4"/>
<feGaussianBlur stdDeviation="0.45"/>
<feComposite in2="hardAlpha" operator="arithmetic" k2="-1" k3="1"/>
<feColorMatrix type="matrix" values="0 0 0 0 0.0932688 0 0 0 0 0.153132 0 0 0 0 0.317757 0 0 0 0.5 0"/>
<feBlend mode="normal" in2="shape" result="effect1_innerShadow_1368_102939"/>
</filter>
<filter id="filter5_i_1368_102939" x="1.10547" y="11.9377" width="24.1697" height="17.8397" filterUnits="userSpaceOnUse" color-interpolation-filters="sRGB">
<feFlood flood-opacity="0" result="BackgroundImageFix"/>
<feBlend mode="normal" in="SourceGraphic" in2="BackgroundImageFix" result="shape"/>
<feColorMatrix in="SourceAlpha" type="matrix" values="0 0 0 0 0 0 0 0 0 0 0 0 0 0 0 0 0 0 127 0" result="hardAlpha"/>
<feOffset dy="-1.34749"/>
<feGaussianBlur stdDeviation="1.34749"/>
<feComposite in2="hardAlpha" operator="arithmetic" k2="-1" k3="1"/>
<feColorMatrix type="matrix" values="0 0 0 0 0.0932688 0 0 0 0 0.153132 0 0 0 0 0.317757 0 0 0 0.46 0"/>
<feBlend mode="normal" in2="shape" result="effect1_innerShadow_1368_102939"/>
</filter>
<filter id="filter6_i_1368_102939" x="2.65674" y="12.2852" width="23.6182" height="14.0664" filterUnits="userSpaceOnUse" color-interpolation-filters="sRGB">
<feFlood flood-opacity="0" result="BackgroundImageFix"/>
<feBlend mode="normal" in="SourceGraphic" in2="BackgroundImageFix" result="shape"/>
<feColorMatrix in="SourceAlpha" type="matrix" values="0 0 0 0 0 0 0 0 0 0 0 0 0 0 0 0 0 0 127 0" result="hardAlpha"/>
<feOffset dx="1" dy="-1"/>
<feGaussianBlur stdDeviation="0.8"/>
<feComposite in2="hardAlpha" operator="arithmetic" k2="-1" k3="1"/>
<feColorMatrix type="matrix" values="0 0 0 0 0.0932688 0 0 0 0 0.153132 0 0 0 0 0.317757 0 0 0 0.5 0"/>
<feBlend mode="normal" in2="shape" result="effect1_innerShadow_1368_102939"/>
</filter>
<filter id="filter7_i_1368_102939" x="4.62476" y="13.7422" width="19.6821" height="11.1562" filterUnits="userSpaceOnUse" color-interpolation-filters="sRGB">
<feFlood flood-opacity="0" result="BackgroundImageFix"/>
<feBlend mode="normal" in="SourceGraphic" in2="BackgroundImageFix" result="shape"/>
<feColorMatrix in="SourceAlpha" type="matrix" values="0 0 0 0 0 0 0 0 0 0 0 0 0 0 0 0 0 0 127 0" result="hardAlpha"/>
<feOffset dx="1" dy="-1"/>
<feGaussianBlur stdDeviation="0.8"/>
<feComposite in2="hardAlpha" operator="arithmetic" k2="-1" k3="1"/>
<feColorMatrix type="matrix" values="0 0 0 0 0.0932688 0 0 0 0 0.153132 0 0 0 0 0.317757 0 0 0 0.5 0"/>
<feBlend mode="normal" in2="shape" result="effect1_innerShadow_1368_102939"/>
</filter>
<filter id="filter8_i_1368_102939" x="4.66455" y="16.0664" width="18.9024" height="8.82812" filterUnits="userSpaceOnUse" color-interpolation-filters="sRGB">
<feFlood flood-opacity="0" result="BackgroundImageFix"/>
<feBlend mode="normal" in="SourceGraphic" in2="BackgroundImageFix" result="shape"/>
<feColorMatrix in="SourceAlpha" type="matrix" values="0 0 0 0 0 0 0 0 0 0 0 0 0 0 0 0 0 0 127 0" result="hardAlpha"/>
<feOffset dx="1"/>
<feGaussianBlur stdDeviation="0.45"/>
<feComposite in2="hardAlpha" operator="arithmetic" k2="-1" k3="1"/>
<feColorMatrix type="matrix" values="0 0 0 0 0.0932688 0 0 0 0 0.153132 0 0 0 0 0.317757 0 0 0 0.5 0"/>
<feBlend mode="normal" in2="shape" result="effect1_innerShadow_1368_102939"/>
</filter>
<filter id="filter9_i_1368_102939" x="4.47534" y="0.871263" width="17.1182" height="11.0662" filterUnits="userSpaceOnUse" color-interpolation-filters="sRGB">
<feFlood flood-opacity="0" result="BackgroundImageFix"/>
<feBlend mode="normal" in="SourceGraphic" in2="BackgroundImageFix" result="shape"/>
<feColorMatrix in="SourceAlpha" type="matrix" values="0 0 0 0 0 0 0 0 0 0 0 0 0 0 0 0 0 0 127 0" result="hardAlpha"/>
<feOffset dy="-1.34749"/>
<feGaussianBlur stdDeviation="1.34749"/>
<feComposite in2="hardAlpha" operator="arithmetic" k2="-1" k3="1"/>
<feColorMatrix type="matrix" values="0 0 0 0 0.0932688 0 0 0 0 0.153132 0 0 0 0 0.317757 0 0 0 0.46 0"/>
<feBlend mode="normal" in2="shape" result="effect1_innerShadow_1368_102939"/>
</filter>
<filter id="filter10_i_1368_102939" x="4.47437" y="1.21875" width="17.543" height="8.1875" filterUnits="userSpaceOnUse" color-interpolation-filters="sRGB">
<feFlood flood-opacity="0" result="BackgroundImageFix"/>
<feBlend mode="normal" in="SourceGraphic" in2="BackgroundImageFix" result="shape"/>
<feColorMatrix in="SourceAlpha" type="matrix" values="0 0 0 0 0 0 0 0 0 0 0 0 0 0 0 0 0 0 127 0" result="hardAlpha"/>
<feOffset dx="1" dy="-1"/>
<feGaussianBlur stdDeviation="0.8"/>
<feComposite in2="hardAlpha" operator="arithmetic" k2="-1" k3="1"/>
<feColorMatrix type="matrix" values="0 0 0 0 0.0932688 0 0 0 0 0.153132 0 0 0 0 0.317757 0 0 0 0.5 0"/>
<feBlend mode="normal" in2="shape" result="effect1_innerShadow_1368_102939"/>
</filter>
<filter id="filter11_i_1368_102939" x="5.89209" y="2.17969" width="14.707" height="6.26172" filterUnits="userSpaceOnUse" color-interpolation-filters="sRGB">
<feFlood flood-opacity="0" result="BackgroundImageFix"/>
<feBlend mode="normal" in="SourceGraphic" in2="BackgroundImageFix" result="shape"/>
<feColorMatrix in="SourceAlpha" type="matrix" values="0 0 0 0 0 0 0 0 0 0 0 0 0 0 0 0 0 0 127 0" result="hardAlpha"/>
<feOffset dx="1" dy="-1"/>
<feGaussianBlur stdDeviation="0.8"/>
<feComposite in2="hardAlpha" operator="arithmetic" k2="-1" k3="1"/>
<feColorMatrix type="matrix" values="0 0 0 0 0.0932688 0 0 0 0 0.153132 0 0 0 0 0.317757 0 0 0 0.5 0"/>
<feBlend mode="normal" in2="shape" result="effect1_innerShadow_1368_102939"/>
</filter>
<filter id="filter12_i_1368_102939" x="6.2041" y="3.76016" width="13.3064" height="4.68125" filterUnits="userSpaceOnUse" color-interpolation-filters="sRGB">
<feFlood flood-opacity="0" result="BackgroundImageFix"/>
<feBlend mode="normal" in="SourceGraphic" in2="BackgroundImageFix" result="shape"/>
<feColorMatrix in="SourceAlpha" type="matrix" values="0 0 0 0 0 0 0 0 0 0 0 0 0 0 0 0 0 0 127 0" result="hardAlpha"/>
<feOffset dy="-0.4"/>
<feGaussianBlur stdDeviation="0.45"/>
<feComposite in2="hardAlpha" operator="arithmetic" k2="-1" k3="1"/>
<feColorMatrix type="matrix" values="0 0 0 0 0.0932688 0 0 0 0 0.153132 0 0 0 0 0.317757 0 0 0 0.5 0"/>
<feBlend mode="normal" in2="shape" result="effect1_innerShadow_1368_102939"/>
</filter>
<linearGradient id="paint0_linear_1368_102939" x1="24.0918" y1="12.3451" x2="25.1129" y2="30.9157" gradientUnits="userSpaceOnUse">
<stop stop-color="#5586FF"/>
<stop offset="0.557473" stop-color="#4279FF"/>
<stop offset="1" stop-color="#3E29FF"/>
</linearGradient>
<linearGradient id="paint1_linear_1368_102939" x1="12.159" y1="8.67825" x2="28.2813" y2="11.7073" gradientUnits="userSpaceOnUse">
<stop offset="0.062273" stop-color="#4279FF"/>
<stop offset="0.326255" stop-color="#4279FF"/>
<stop offset="0.514073" stop-color="#3E29FF"/>
<stop offset="0.742568" stop-color="#3E29FF"/>
<stop offset="0.831223" stop-color="#4279FF"/>
<stop offset="1" stop-color="#5586FF"/>
</linearGradient>
<linearGradient id="paint2_linear_1368_102939" x1="22.971" y1="11.8194" x2="21.6739" y2="28.5309" gradientUnits="userSpaceOnUse">
<stop stop-color="#4877E7"/>
<stop offset="0.45" stop-color="#4279FF"/>
<stop offset="1" stop-color="#3E29FF"/>
</linearGradient>
<linearGradient id="paint3_linear_1368_102939" x1="16.7633" y1="17.4507" x2="17.8045" y2="38.4331" gradientUnits="userSpaceOnUse">
<stop stop-color="#5586FF"/>
<stop offset="0.557473" stop-color="#4279FF"/>
<stop offset="1" stop-color="#3E29FF"/>
</linearGradient>
<linearGradient id="paint4_linear_1368_102939" x1="3.36991" y1="13.4311" x2="23.6546" y2="17.9557" gradientUnits="userSpaceOnUse">
<stop stop-color="#3E29FF"/>
<stop offset="0.165" stop-color="#4279FF"/>
<stop offset="0.41" stop-color="#3E29FF"/>
<stop offset="0.585" stop-color="#4279FF"/>
<stop offset="0.785" stop-color="#3E29FF"/>
<stop offset="1" stop-color="#5586FF"/>
</linearGradient>
<linearGradient id="paint5_linear_1368_102939" x1="16.5" y1="16.9996" x2="15.386" y2="34.5632" gradientUnits="userSpaceOnUse">
<stop stop-color="#4877E7"/>
<stop offset="0.45" stop-color="#4279FF"/>
<stop offset="1" stop-color="#3E29FF"/>
</linearGradient>
<linearGradient id="paint6_linear_1368_102939" x1="15.565" y1="4.6736" x2="16.0759" y2="17.0483" gradientUnits="userSpaceOnUse">
<stop stop-color="#5586FF"/>
<stop offset="0.557473" stop-color="#4279FF"/>
<stop offset="1" stop-color="#3E29FF"/>
</linearGradient>
<linearGradient id="paint7_linear_1368_102939" x1="4.97141" y1="2.50029" x2="19.1777" y2="6.98709" gradientUnits="userSpaceOnUse">
<stop offset="0.062273" stop-color="#4279FF"/>
<stop offset="0.326255" stop-color="#4279FF"/>
<stop offset="0.514073" stop-color="#3E29FF"/>
<stop offset="0.742568" stop-color="#3E29FF"/>
<stop offset="0.831223" stop-color="#4279FF"/>
<stop offset="1" stop-color="#5586FF"/>
</linearGradient>
<linearGradient id="paint8_linear_1368_102939" x1="14.9523" y1="4.61278" x2="14.5969" y2="13.1511" gradientUnits="userSpaceOnUse">
<stop stop-color="#4877E7"/>
<stop offset="0.45" stop-color="#4279FF"/>
<stop offset="1" stop-color="#3E29FF"/>
</linearGradient>
</defs>
</svg>
