<svg width="21" height="20" viewBox="0 0 21 20" fill="none" xmlns="http://www.w3.org/2000/svg">
<path fill-rule="evenodd" clip-rule="evenodd" d="M3.83325 5.83366C3.37301 5.83366 2.99992 6.20675 2.99992 6.66699V13.3337C2.99992 13.7939 3.37301 14.167 3.83325 14.167H17.1666C17.6268 14.167 17.9999 13.7939 17.9999 13.3337V6.66699C17.9999 6.20675 17.6268 5.83366 17.1666 5.83366H3.83325ZM1.33325 6.66699C1.33325 5.28628 2.45254 4.16699 3.83325 4.16699H17.1666C18.5473 4.16699 19.6666 5.28628 19.6666 6.66699V13.3337C19.6666 14.7144 18.5473 15.8337 17.1666 15.8337H3.83325C2.45254 15.8337 1.33325 14.7144 1.33325 13.3337V6.66699Z" fill="#303136"/>
<path fill-rule="evenodd" clip-rule="evenodd" d="M10.4999 9.16699C10.0397 9.16699 9.66658 9.54009 9.66658 10.0003C9.66658 10.4606 10.0397 10.8337 10.4999 10.8337C10.9602 10.8337 11.3333 10.4606 11.3333 10.0003C11.3333 9.54009 10.9602 9.16699 10.4999 9.16699ZM7.99992 10.0003C7.99992 8.61961 9.11921 7.50033 10.4999 7.50033C11.8806 7.50033 12.9999 8.61961 12.9999 10.0003C12.9999 11.381 11.8806 12.5003 10.4999 12.5003C9.11921 12.5003 7.99992 11.381 7.99992 10.0003Z" fill="#303136"/>
<path fill-rule="evenodd" clip-rule="evenodd" d="M4.66658 10.0003C4.66658 9.54009 5.03968 9.16699 5.49992 9.16699H5.50825C5.96849 9.16699 6.34159 9.54009 6.34159 10.0003C6.34159 10.4606 5.96849 10.8337 5.50825 10.8337H5.49992C5.03968 10.8337 4.66658 10.4606 4.66658 10.0003ZM14.6666 10.0003C14.6666 9.54009 15.0397 9.16699 15.4999 9.16699H15.5083C15.9685 9.16699 16.3416 9.54009 16.3416 10.0003C16.3416 10.4606 15.9685 10.8337 15.5083 10.8337H15.4999C15.0397 10.8337 14.6666 10.4606 14.6666 10.0003Z" fill="#303136"/>
</svg>
