<svg width="24" height="24" viewBox="0 0 24 24" fill="none" xmlns="http://www.w3.org/2000/svg">
<g filter="url(#filter0_ii_2297_53005)">
<path d="M12.0002 3.00488C11.4966 3.00488 11.0011 3.13165 10.5594 3.37351C10.1177 3.61536 9.74397 3.96452 9.47269 4.38879C9.24608 4.7432 8.8219 4.9179 8.41143 4.82587C7.91855 4.71537 7.40575 4.73111 6.92058 4.87162C6.43541 5.01213 5.99357 5.27287 5.63603 5.62967C5.27849 5.98646 5.01682 6.42775 4.87529 6.91263C4.73377 7.39751 4.71696 7.91027 4.82643 8.40337C4.9178 8.81496 4.74121 9.23964 4.38496 9.4651C3.95743 9.73567 3.60527 10.11 3.36125 10.5532C3.11722 10.9964 2.98926 11.4941 2.98926 12.0001C2.98926 12.5061 3.11722 13.0038 3.36125 13.447C3.60527 13.8902 3.95743 14.2645 4.38496 14.5351C4.74121 14.7606 4.9178 15.1852 4.82643 15.5968C4.71696 16.0899 4.73377 16.6027 4.87529 17.0876C5.01682 17.5724 5.27849 18.0137 5.63603 18.3705C5.99357 18.7273 6.43541 18.9881 6.92058 19.1286C7.40575 19.2691 7.91855 19.2848 8.41143 19.1743C8.82273 19.0821 9.2477 19.2577 9.47394 19.6134C9.74487 20.0393 10.1189 20.3899 10.5613 20.6329C11.0038 20.8758 11.5004 21.0032 12.0052 21.0032C12.51 21.0032 13.0066 20.8758 13.449 20.6329C13.8915 20.3899 14.2655 20.0393 14.5364 19.6134C14.7623 19.2584 15.1862 19.0827 15.5969 19.1739C16.09 19.2833 16.6028 19.2665 17.0877 19.125C17.5725 18.9835 18.0138 18.7218 18.3706 18.3643C18.7274 18.0067 18.9882 17.5649 19.1287 17.0797C19.2692 16.5945 19.2849 16.0817 19.1744 15.5889C19.0824 15.1784 19.2571 14.7542 19.6115 14.5276C20.0358 14.2563 20.3849 13.8826 20.6268 13.4409C20.8686 12.9992 20.9954 12.5037 20.9954 12.0001C20.9954 11.4965 20.8686 11.001 20.6268 10.5593C20.3849 10.1176 20.0358 9.74388 19.6115 9.4726C19.2569 9.24587 19.0822 8.82138 19.1745 8.41074C19.2855 7.91712 19.2699 7.40344 19.129 6.91749C18.9882 6.43155 18.7267 5.98912 18.3689 5.63136C18.0112 5.2736 17.5687 5.01213 17.0828 4.87128C16.5968 4.73042 16.0832 4.71476 15.5895 4.82574C15.1789 4.91807 14.7544 4.74339 14.5277 4.38879C14.2564 3.96452 13.8827 3.61536 13.441 3.37351C12.9993 3.13165 12.5038 3.00488 12.0002 3.00488Z" fill="url(#paint0_radial_2297_53005)"/>
</g>
<g filter="url(#filter1_i_2297_53005)">
<path fill-rule="evenodd" clip-rule="evenodd" d="M6.5 11.9999C6.5 11.3924 6.99249 10.8999 7.6 10.8999H16.4C17.0075 10.8999 17.5 11.3924 17.5 11.9999C17.5 12.6074 17.0075 13.0999 16.4 13.0999H7.6C6.99249 13.0999 6.5 12.6074 6.5 11.9999Z" fill="url(#paint1_linear_2297_53005)"/>
</g>
<defs>
<filter id="filter0_ii_2297_53005" x="2.15873" y="2.17436" width="18.8369" height="18.8286" filterUnits="userSpaceOnUse" color-interpolation-filters="sRGB">
<feFlood flood-opacity="0" result="BackgroundImageFix"/>
<feBlend mode="normal" in="SourceGraphic" in2="BackgroundImageFix" result="shape"/>
<feColorMatrix in="SourceAlpha" type="matrix" values="0 0 0 0 0 0 0 0 0 0 0 0 0 0 0 0 0 0 127 0" result="hardAlpha"/>
<feOffset dx="-0.830525" dy="-0.830525"/>
<feGaussianBlur stdDeviation="0.830525"/>
<feComposite in2="hardAlpha" operator="arithmetic" k2="-1" k3="1"/>
<feColorMatrix type="matrix" values="0 0 0 0 0.0304345 0 0 0 0 0.0345348 0 0 0 0 0.276449 0 0 0 0.2 0"/>
<feBlend mode="normal" in2="shape" result="effect1_innerShadow_2297_53005"/>
<feColorMatrix in="SourceAlpha" type="matrix" values="0 0 0 0 0 0 0 0 0 0 0 0 0 0 0 0 0 0 127 0" result="hardAlpha"/>
<feOffset dy="-0.830525"/>
<feGaussianBlur stdDeviation="1.24579"/>
<feComposite in2="hardAlpha" operator="arithmetic" k2="-1" k3="1"/>
<feColorMatrix type="matrix" values="0 0 0 0 0.273652 0 0 0 0 0.354653 0 0 0 0 0.494564 0 0 0 0.25 0"/>
<feBlend mode="normal" in2="effect1_innerShadow_2297_53005" result="effect2_innerShadow_2297_53005"/>
</filter>
<filter id="filter1_i_2297_53005" x="5.5" y="10.3999" width="12" height="2.7002" filterUnits="userSpaceOnUse" color-interpolation-filters="sRGB">
<feFlood flood-opacity="0" result="BackgroundImageFix"/>
<feBlend mode="normal" in="SourceGraphic" in2="BackgroundImageFix" result="shape"/>
<feColorMatrix in="SourceAlpha" type="matrix" values="0 0 0 0 0 0 0 0 0 0 0 0 0 0 0 0 0 0 127 0" result="hardAlpha"/>
<feOffset dx="-1" dy="-0.5"/>
<feGaussianBlur stdDeviation="0.5"/>
<feComposite in2="hardAlpha" operator="arithmetic" k2="-1" k3="1"/>
<feColorMatrix type="matrix" values="0 0 0 0 0.0304345 0 0 0 0 0.0345348 0 0 0 0 0.276449 0 0 0 0.2 0"/>
<feBlend mode="normal" in2="shape" result="effect1_innerShadow_2297_53005"/>
</filter>
<radialGradient id="paint0_radial_2297_53005" cx="0" cy="0" r="1" gradientUnits="userSpaceOnUse" gradientTransform="translate(8.5 7.5) rotate(57.4259) scale(21.36 21.3677)">
<stop stop-color="#FD6364"/>
<stop offset="1" stop-color="#D12A2B"/>
</radialGradient>
<linearGradient id="paint1_linear_2297_53005" x1="12" y1="10.8999" x2="12.0996" y2="13.5152" gradientUnits="userSpaceOnUse">
<stop stop-color="#F6F6F6"/>
<stop offset="0.320133" stop-color="white"/>
<stop offset="1" stop-color="#F4F4F4"/>
</linearGradient>
</defs>
</svg>
