<svg width="20" height="20" viewBox="0 0 20 20" fill="none" xmlns="http://www.w3.org/2000/svg">
<path fill-rule="evenodd" clip-rule="evenodd" d="M4.16667 3.33317C3.70643 3.33317 3.33333 3.70627 3.33333 4.1665V15.8332C3.33333 16.2934 3.70643 16.6665 4.16667 16.6665H15.8333C16.2936 16.6665 16.6667 16.2934 16.6667 15.8332V4.1665C16.6667 3.70627 16.2936 3.33317 15.8333 3.33317H4.16667ZM1.66667 4.1665C1.66667 2.78579 2.78595 1.6665 4.16667 1.6665H15.8333C17.214 1.6665 18.3333 2.78579 18.3333 4.1665V15.8332C18.3333 17.2139 17.214 18.3332 15.8333 18.3332H4.16667C2.78595 18.3332 1.66667 17.2139 1.66667 15.8332V4.1665Z" fill="#1D57C3"/>
<path fill-rule="evenodd" clip-rule="evenodd" d="M10 6.6665C9.07952 6.6665 8.33333 7.4127 8.33333 8.33317C8.33333 9.25365 9.07952 9.99984 10 9.99984C10.9205 9.99984 11.6667 9.25365 11.6667 8.33317C11.6667 7.4127 10.9205 6.6665 10 6.6665ZM6.66667 8.33317C6.66667 6.49222 8.15905 4.99984 10 4.99984C11.8409 4.99984 13.3333 6.49222 13.3333 8.33317C13.3333 10.1741 11.8409 11.6665 10 11.6665C8.15905 11.6665 6.66667 10.1741 6.66667 8.33317Z" fill="#1D57C3"/>
<path fill-rule="evenodd" clip-rule="evenodd" d="M7.5 14.9998C7.27899 14.9998 7.06702 15.0876 6.91074 15.2439C6.75446 15.4002 6.66667 15.6122 6.66667 15.8332V17.4998C6.66667 17.9601 6.29357 18.3332 5.83333 18.3332C5.3731 18.3332 5 17.9601 5 17.4998V15.8332C5 15.1701 5.26339 14.5342 5.73223 14.0654C6.20107 13.5966 6.83696 13.3332 7.5 13.3332H12.5C13.163 13.3332 13.7989 13.5966 14.2678 14.0654C14.7366 14.5342 15 15.1701 15 15.8332V17.4998C15 17.9601 14.6269 18.3332 14.1667 18.3332C13.7064 18.3332 13.3333 17.9601 13.3333 17.4998V15.8332C13.3333 15.6122 13.2455 15.4002 13.0893 15.2439C12.933 15.0876 12.721 14.9998 12.5 14.9998H7.5Z" fill="#1D57C3"/>
</svg>
