<svg width="20" height="20" viewBox="0 0 20 20" fill="none" xmlns="http://www.w3.org/2000/svg">
<path fill-rule="evenodd" clip-rule="evenodd" d="M2.54188 11.7087C3.63584 10.6147 5.11957 10.0002 6.66667 10.0002C8.21376 10.0002 9.6975 10.6147 10.7915 11.7087C11.8854 12.8027 12.5 14.2864 12.5 15.8335C12.5 16.2937 12.1269 16.6668 11.6667 16.6668C11.2064 16.6668 10.8333 16.2937 10.8333 15.8335C10.8333 14.7284 10.3943 13.6686 9.61295 12.8872C8.83154 12.1058 7.77174 11.6668 6.66667 11.6668C5.5616 11.6668 4.50179 12.1058 3.72039 12.8872C2.93899 13.6686 2.5 14.7284 2.5 15.8335C2.5 16.2937 2.12691 16.6668 1.66667 16.6668C1.20643 16.6668 0.833336 16.2937 0.833336 15.8335C0.833336 14.2864 1.44792 12.8027 2.54188 11.7087Z" fill="#51525C"/>
<path fill-rule="evenodd" clip-rule="evenodd" d="M6.66667 5.00016C5.28596 5.00016 4.16667 6.11945 4.16667 7.50016C4.16667 8.88087 5.28596 10.0002 6.66667 10.0002C8.04738 10.0002 9.16667 8.88087 9.16667 7.50016C9.16667 6.11945 8.04738 5.00016 6.66667 5.00016ZM2.5 7.50016C2.5 5.19898 4.36548 3.3335 6.66667 3.3335C8.96786 3.3335 10.8333 5.19898 10.8333 7.50016C10.8333 9.80135 8.96786 11.6668 6.66667 11.6668C4.36548 11.6668 2.5 9.80135 2.5 7.50016Z" fill="#51525C"/>
<path fill-rule="evenodd" clip-rule="evenodd" d="M12.5 4.16683C12.5 3.70659 12.8731 3.3335 13.3333 3.3335C14.4384 3.3335 15.4982 3.77248 16.2796 4.55388C17.061 5.33529 17.5 6.39509 17.5 7.50016C17.5 8.60523 17.061 9.66504 16.2796 10.4464C16.2028 10.5232 16.1233 10.5967 16.0414 10.6668C16.5589 10.9381 17.0373 11.2879 17.4581 11.7087C18.5521 12.8027 19.1667 14.2864 19.1667 15.8335C19.1667 16.2937 18.7936 16.6668 18.3333 16.6668C17.8731 16.6668 17.5 16.2937 17.5 15.8335C17.5 14.7284 17.061 13.6686 16.2796 12.8872C15.4982 12.1058 14.4384 11.6668 13.3333 11.6668C12.8731 11.6668 12.5 11.2937 12.5 10.8335C12.5 10.3733 12.8731 10.0002 13.3333 10.0002C13.9964 10.0002 14.6323 9.73677 15.1011 9.26793C15.5699 8.79909 15.8333 8.1632 15.8333 7.50016C15.8333 6.83712 15.5699 6.20124 15.1011 5.7324C14.6323 5.26355 13.9964 5.00016 13.3333 5.00016C12.8731 5.00016 12.5 4.62707 12.5 4.16683Z" fill="#51525C"/>
</svg>
