<svg width="20" height="20" viewBox="0 0 20 20" fill="none" xmlns="http://www.w3.org/2000/svg">
<path fill-rule="evenodd" clip-rule="evenodd" d="M15.5886 4.41058C15.914 4.73602 15.914 5.26366 15.5886 5.58909L5.5886 15.5891C5.26317 15.9145 4.73553 15.9145 4.41009 15.5891C4.08466 15.2637 4.08466 14.736 4.41009 14.4106L14.4101 4.41058C14.7355 4.08514 15.2632 4.08514 15.5886 4.41058Z" fill="currentColor"/>
<path fill-rule="evenodd" clip-rule="evenodd" d="M4.41009 4.41058C4.73553 4.08514 5.26317 4.08514 5.5886 4.41058L15.5886 14.4106C15.914 14.736 15.914 15.2637 15.5886 15.5891C15.2632 15.9145 14.7355 15.9145 14.4101 15.5891L4.41009 5.58909C4.08466 5.26366 4.08466 4.73602 4.41009 4.41058Z" fill="currentColor"/>
</svg>
