<svg width="20" height="20" viewBox="0 0 20 20" fill="none" xmlns="http://www.w3.org/2000/svg">
<path fill-rule="evenodd" clip-rule="evenodd" d="M9.32938 3.68147C8.62317 3.4042 7.86313 3.29128 7.10681 3.35126C6.3505 3.41125 5.61775 3.64256 4.96407 4.02767C4.3104 4.41279 3.75293 4.94161 3.3339 5.57409C2.91488 6.20657 2.64528 6.92611 2.54552 7.67821C2.44577 8.43031 2.51848 9.19525 2.75815 9.91509C2.99781 10.6349 3.39815 11.2908 3.92884 11.833C4.25076 12.1619 4.2451 12.6895 3.91619 13.0114C3.58728 13.3334 3.05967 13.3277 2.73774 12.9988C2.03016 12.2759 1.49638 11.4014 1.17682 10.4416C0.857269 9.4818 0.760321 8.46188 0.893325 7.45907C1.02633 6.45627 1.3858 5.49688 1.9445 4.65358C2.5032 3.81028 3.24649 3.10518 4.11806 2.59169C4.98963 2.0782 5.96663 1.76979 6.97505 1.68981C7.98346 1.60984 8.99686 1.7604 9.93847 2.13008C10.8801 2.49977 11.7252 3.07889 12.4099 3.82359C12.9519 4.41315 13.3821 5.09424 13.6814 5.83339H14.5832C14.5832 5.83339 14.5832 5.83339 14.5832 5.83339C15.5666 5.8333 16.524 6.14948 17.3138 6.73523C18.1037 7.321 18.6843 8.14529 18.9697 9.08634C19.2552 10.0274 19.2304 11.0353 18.899 11.9612C18.5676 12.8871 17.9472 13.6818 17.1295 14.228C16.7468 14.4837 16.2293 14.3806 15.9737 13.9979C15.718 13.6152 15.821 13.0977 16.2038 12.8421C16.7241 12.4945 17.1189 11.9888 17.3298 11.3996C17.5407 10.8104 17.5565 10.169 17.3748 9.57012C17.1932 8.97126 16.8237 8.44672 16.3211 8.07395C15.8184 7.70119 15.2092 7.49999 14.5834 7.50006H13.0916C12.7232 7.50006 12.3985 7.25815 12.2931 6.90514C12.0761 6.17816 11.6964 5.51011 11.1829 4.95159C10.6694 4.39307 10.0356 3.95873 9.32938 3.68147Z" fill="white"/>
<path fill-rule="evenodd" clip-rule="evenodd" d="M9.99996 9.16672C10.4602 9.16672 10.8333 9.53982 10.8333 10.0001V17.5001C10.8333 17.9603 10.4602 18.3334 9.99996 18.3334C9.53972 18.3334 9.16662 17.9603 9.16662 17.5001V10.0001C9.16662 9.53982 9.53972 9.16672 9.99996 9.16672Z" fill="white"/>
<path fill-rule="evenodd" clip-rule="evenodd" d="M9.4107 9.4108C9.73614 9.08536 10.2638 9.08536 10.5892 9.4108L13.9225 12.7441C14.248 13.0696 14.248 13.5972 13.9225 13.9226C13.5971 14.2481 13.0695 14.2481 12.744 13.9226L9.99996 11.1786L7.25588 13.9226C6.93044 14.2481 6.4028 14.2481 6.07737 13.9226C5.75193 13.5972 5.75193 13.0696 6.07737 12.7441L9.4107 9.4108Z" fill="white"/>
</svg>
