<svg width="21" height="20" viewBox="0 0 21 20" fill="none" xmlns="http://www.w3.org/2000/svg">
<path fill-rule="evenodd" clip-rule="evenodd" d="M3.83325 4.99967C3.61224 4.99967 3.40028 5.08747 3.244 5.24375C3.08772 5.40003 2.99992 5.61199 2.99992 5.83301V14.1663C2.99992 14.3874 3.08772 14.5993 3.244 14.7556C3.40028 14.9119 3.61224 14.9997 3.83325 14.9997H9.66658C10.1268 14.9997 10.4999 15.3728 10.4999 15.833C10.4999 16.2932 10.1268 16.6663 9.66658 16.6663H3.83325C3.17021 16.6663 2.53433 16.4029 2.06548 15.9341C1.59664 15.4653 1.33325 14.8294 1.33325 14.1663V5.83301C1.33325 5.16997 1.59664 4.53408 2.06548 4.06524C2.53433 3.5964 3.17021 3.33301 3.83325 3.33301H7.99992C8.46016 3.33301 8.83325 3.7061 8.83325 4.16634C8.83325 4.62658 8.46016 4.99967 7.99992 4.99967H3.83325Z" fill="#303136"/>
<path fill-rule="evenodd" clip-rule="evenodd" d="M10.4999 4.16634C10.4999 3.7061 10.873 3.33301 11.3333 3.33301H17.1666C17.8296 3.33301 18.4655 3.5964 18.9343 4.06524C19.4032 4.53408 19.6666 5.16997 19.6666 5.83301V14.1663C19.6666 14.8294 19.4032 15.4653 18.9343 15.9341C18.4655 16.4029 17.8296 16.6663 17.1666 16.6663H12.9999C12.5397 16.6663 12.1666 16.2932 12.1666 15.833C12.1666 15.3728 12.5397 14.9997 12.9999 14.9997H17.1666C17.3876 14.9997 17.5996 14.9119 17.7558 14.7556C17.9121 14.5993 17.9999 14.3874 17.9999 14.1663V5.83301C17.9999 5.61199 17.9121 5.40003 17.7558 5.24375C17.5996 5.08747 17.3876 4.99967 17.1666 4.99967H11.3333C10.873 4.99967 10.4999 4.62658 10.4999 4.16634Z" fill="#303136"/>
<path fill-rule="evenodd" clip-rule="evenodd" d="M10.4999 8.33301C9.57944 8.33301 8.83325 9.0792 8.83325 9.99967C8.83325 10.9201 9.57944 11.6663 10.4999 11.6663C11.4204 11.6663 12.1666 10.9201 12.1666 9.99967C12.1666 9.0792 11.4204 8.33301 10.4999 8.33301ZM7.16658 9.99967C7.16658 8.15872 8.65897 6.66634 10.4999 6.66634C12.3409 6.66634 13.8333 8.15872 13.8333 9.99967C13.8333 11.8406 12.3409 13.333 10.4999 13.333C8.65897 13.333 7.16658 11.8406 7.16658 9.99967Z" fill="#303136"/>
<path fill-rule="evenodd" clip-rule="evenodd" d="M16.0892 12.7438C16.4146 13.0692 16.4146 13.5968 16.0892 13.9223L14.1784 15.833L16.0892 17.7438C16.4146 18.0692 16.4146 18.5968 16.0892 18.9223C15.7637 19.2477 15.2361 19.2477 14.9107 18.9223L12.4107 16.4223C12.0852 16.0968 12.0852 15.5692 12.4107 15.2438L14.9107 12.7438C15.2361 12.4183 15.7637 12.4183 16.0892 12.7438Z" fill="#303136"/>
<path fill-rule="evenodd" clip-rule="evenodd" d="M4.91066 1.07709C5.2361 0.751649 5.76374 0.751649 6.08917 1.07709L8.58917 3.57709C8.91461 3.90252 8.91461 4.43016 8.58917 4.7556L6.08917 7.2556C5.76374 7.58103 5.2361 7.58103 4.91066 7.2556C4.58523 6.93016 4.58523 6.40252 4.91066 6.07709L6.82141 4.16634L4.91066 2.2556C4.58523 1.93016 4.58523 1.40252 4.91066 1.07709Z" fill="#303136"/>
</svg>
