<svg width="32" height="33" viewBox="0 0 32 33" fill="none" xmlns="http://www.w3.org/2000/svg">
<path fill-rule="evenodd" clip-rule="evenodd" d="M5.17157 3.00458C5.92172 2.25443 6.93913 1.83301 8 1.83301H19.3333C19.687 1.83301 20.0261 1.97348 20.2761 2.22353L27.6095 9.55687C27.8595 9.80691 28 10.1461 28 10.4997V27.1663C28 28.2272 27.5786 29.2446 26.8284 29.9948C26.0783 30.7449 25.0609 31.1663 24 31.1663H8C6.93913 31.1663 5.92172 30.7449 5.17157 29.9948C4.42143 29.2446 4 28.2272 4 27.1663V5.83301C4 4.77214 4.42143 3.75473 5.17157 3.00458ZM8 4.49967C7.64638 4.49967 7.30724 4.64015 7.05719 4.8902C6.80714 5.14025 6.66667 5.47939 6.66667 5.83301V27.1663C6.66667 27.52 6.80714 27.8591 7.05719 28.1091C7.30724 28.3592 7.64638 28.4997 8 28.4997H24C24.3536 28.4997 24.6928 28.3592 24.9428 28.1091C25.1929 27.8591 25.3333 27.52 25.3333 27.1663V11.052L18.781 4.49967H8Z" fill="#2F6FE4"/>
<path fill-rule="evenodd" clip-rule="evenodd" d="M18.6667 1.83301C19.403 1.83301 20 2.42996 20 3.16634V9.83301H26.6667C27.403 9.83301 28 10.43 28 11.1663C28 11.9027 27.403 12.4997 26.6667 12.4997H18.6667C17.9303 12.4997 17.3333 11.9027 17.3333 11.1663V3.16634C17.3333 2.42996 17.9303 1.83301 18.6667 1.83301Z" fill="#2F6FE4"/>
<path fill-rule="evenodd" clip-rule="evenodd" d="M9.33333 17.833C9.33333 17.0966 9.93029 16.4997 10.6667 16.4997H21.3333C22.0697 16.4997 22.6667 17.0966 22.6667 17.833C22.6667 18.5694 22.0697 19.1663 21.3333 19.1663H10.6667C9.93029 19.1663 9.33333 18.5694 9.33333 17.833Z" fill="#2F6FE4"/>
<path fill-rule="evenodd" clip-rule="evenodd" d="M9.33333 23.1663C9.33333 22.43 9.93029 21.833 10.6667 21.833H21.3333C22.0697 21.833 22.6667 22.43 22.6667 23.1663C22.6667 23.9027 22.0697 24.4997 21.3333 24.4997H10.6667C9.93029 24.4997 9.33333 23.9027 9.33333 23.1663Z" fill="#2F6FE4"/>
<path fill-rule="evenodd" clip-rule="evenodd" d="M9.33333 12.4997C9.33333 11.7633 9.93029 11.1663 10.6667 11.1663H13.3333C14.0697 11.1663 14.6667 11.7633 14.6667 12.4997C14.6667 13.2361 14.0697 13.833 13.3333 13.833H10.6667C9.93029 13.833 9.33333 13.2361 9.33333 12.4997Z" fill="#2F6FE4"/>
</svg>
