<svg width="164" height="165" viewBox="0 0 164 165" fill="none" xmlns="http://www.w3.org/2000/svg">
<rect y="0.5" width="164" height="164" rx="82" fill="#F2F2F2"/>
<g opacity="0.8">
<g filter="url(#filter0_i_1695_192521)">
<path d="M138.55 137.9C138.09 138.546 137.482 139.074 136.778 139.439C136.074 139.804 135.293 139.996 134.5 140H29.4997C28.7065 139.996 27.9255 139.804 27.2212 139.439C26.517 139.074 25.9098 138.546 25.4497 137.9C45.1997 93.975 41.0997 103.1 46.9997 90H117C123.35 104.125 118.65 93.7 138.55 137.9Z" fill="url(#paint0_linear_1695_192521)"/>
</g>
<g filter="url(#filter1_i_1695_192521)">
<path d="M46.9998 57.5V90C40.6498 104.125 45.3498 93.7 25.4498 137.9C24.8228 137.064 24.4888 136.045 24.4998 135V100L46.9998 57.5Z" fill="url(#paint1_linear_1695_192521)"/>
</g>
<g filter="url(#filter2_i_1695_192521)">
<path d="M139.5 100V135C139.511 136.045 139.177 137.064 138.55 137.9C118.8 93.975 122.9 103.1 117 90V57.5L139.5 100Z" fill="url(#paint2_linear_1695_192521)"/>
</g>
<g filter="url(#filter3_i_1695_192521)">
<path d="M139.5 100V135C139.5 136.326 138.973 137.598 138.036 138.536C137.098 139.473 135.826 140 134.5 140H29.5C28.1739 140 26.9021 139.473 25.9645 138.536C25.0268 137.598 24.5 136.326 24.5 135V100H67.225C67.8279 99.9933 68.413 100.205 68.8724 100.595C69.3318 100.986 69.6346 101.529 69.725 102.125C70.1105 104.387 71.1111 106.499 72.6172 108.23C74.1233 109.961 76.0768 111.244 78.2637 111.939C80.4505 112.633 82.7864 112.713 85.0153 112.168C87.2442 111.623 89.2801 110.475 90.9 108.85C92.7176 107.016 93.9303 104.669 94.375 102.125C94.4654 101.529 94.7682 100.986 95.2276 100.595C95.687 100.205 96.2721 99.9933 96.875 100H139.5Z" fill="url(#paint3_linear_1695_192521)"/>
</g>
<g filter="url(#filter4_i_1695_192521)">
<path d="M47 57.5H117V90H47V57.5Z" fill="url(#paint4_linear_1695_192521)"/>
</g>
<g filter="url(#filter5_i_1695_192521)">
<path d="M104.5 47.4997C104.506 43.2163 103.289 39.0201 100.992 35.4046C98.6947 31.789 95.4134 28.9042 91.5334 27.0893C87.6534 25.2743 83.336 24.6046 79.0885 25.1589C74.8411 25.7132 70.8401 27.4684 67.5558 30.2183C64.2715 32.9681 61.8404 36.5983 60.5482 40.6823C59.256 44.7662 59.1564 49.1342 60.2612 53.2727C61.366 57.4113 63.6291 61.1485 66.7847 64.0452C69.9403 66.9418 73.8572 68.8775 78.075 69.6247L80.875 75.2747C80.9837 75.4786 81.1458 75.6492 81.344 75.7681C81.5422 75.8869 81.7689 75.9497 82 75.9497C82.2311 75.9497 82.4578 75.8869 82.656 75.7681C82.8541 75.6492 83.0162 75.4786 83.125 75.2747L85.925 69.6247C91.1255 68.7034 95.8362 65.982 99.2322 61.937C102.628 57.892 104.493 52.7813 104.5 47.4997Z" fill="url(#paint5_linear_1695_192521)"/>
</g>
<g filter="url(#filter6_i_1695_192521)">
<path d="M85.525 47.4995L91.275 41.7745C91.7457 41.3037 92.0102 40.6652 92.0102 39.9995C92.0102 39.3337 91.7457 38.6952 91.275 38.2245C90.8042 37.7537 90.1657 37.4893 89.5 37.4893C88.8342 37.4893 88.1957 37.7537 87.725 38.2245L82 43.9745L76.275 38.2245C76.0419 37.9914 75.7652 37.8065 75.4606 37.6803C75.156 37.5542 74.8296 37.4893 74.5 37.4893C73.8342 37.4893 73.1957 37.7537 72.725 38.2245C72.2542 38.6952 71.9897 39.3337 71.9897 39.9995C71.9897 40.6652 72.2542 41.3037 72.725 41.7745L78.475 47.4995L72.725 53.2245C72.4919 53.4576 72.307 53.7343 72.1808 54.0389C72.0547 54.3434 71.9897 54.6698 71.9897 54.9995C71.9897 55.6652 72.2542 56.3037 72.725 56.7745C73.1957 57.2452 73.8342 57.5097 74.5 57.5097C74.8296 57.5097 75.156 57.4448 75.4606 57.3186C75.7652 57.1925 76.0419 57.0076 76.275 56.7745L82 51.0245L87.725 56.7745C88.1957 57.2452 88.8342 57.5097 89.5 57.5097C90.1657 57.5097 90.8042 57.2452 91.275 56.7745C91.7457 56.3037 92.0102 55.6652 92.0102 54.9995C92.0102 54.3337 91.7457 53.6952 91.275 53.2245L85.525 47.4995Z" fill="url(#paint6_linear_1695_192521)"/>
</g>
<g filter="url(#filter7_i_1695_192521)">
<path d="M49.5 117.5H34.5C33.1193 117.5 32 118.619 32 120V130C32 131.381 33.1193 132.5 34.5 132.5H49.5C50.8807 132.5 52 131.381 52 130V120C52 118.619 50.8807 117.5 49.5 117.5Z" fill="url(#paint7_linear_1695_192521)"/>
</g>
<g filter="url(#filter8_i_1695_192521)">
<path d="M44.5 127.5H39.5C38.837 127.5 38.2011 127.237 37.7322 126.768C37.2634 126.299 37 125.663 37 125C37 124.337 37.2634 123.701 37.7322 123.232C38.2011 122.763 38.837 122.5 39.5 122.5H44.5C45.163 122.5 45.7989 122.763 46.2678 123.232C46.7366 123.701 47 124.337 47 125C47 125.663 46.7366 126.299 46.2678 126.768C45.7989 127.237 45.163 127.5 44.5 127.5Z" fill="url(#paint8_linear_1695_192521)"/>
</g>
<g filter="url(#filter9_i_1695_192521)">
<path d="M64.5 132.5H59.5C58.837 132.5 58.2011 132.237 57.7322 131.768C57.2634 131.299 57 130.663 57 130C57 129.337 57.2634 128.701 57.7322 128.232C58.2011 127.763 58.837 127.5 59.5 127.5H64.5C65.163 127.5 65.7989 127.763 66.2678 128.232C66.7366 128.701 67 129.337 67 130C67 130.663 66.7366 131.299 66.2678 131.768C65.7989 132.237 65.163 132.5 64.5 132.5Z" fill="url(#paint9_linear_1695_192521)"/>
</g>
<g filter="url(#filter10_i_1695_192521)">
<path d="M69.5 122.5H59.5C58.837 122.5 58.2011 122.237 57.7322 121.768C57.2634 121.299 57 120.663 57 120C57 119.337 57.2634 118.701 57.7322 118.232C58.2011 117.763 58.837 117.5 59.5 117.5H69.5C70.163 117.5 70.7989 117.763 71.2678 118.232C71.7366 118.701 72 119.337 72 120C72 120.663 71.7366 121.299 71.2678 121.768C70.7989 122.237 70.163 122.5 69.5 122.5Z" fill="url(#paint10_linear_1695_192521)"/>
</g>
</g>
<defs>
<filter id="filter0_i_1695_192521" x="25.4497" y="86.25" width="116.85" height="53.75" filterUnits="userSpaceOnUse" color-interpolation-filters="sRGB">
<feFlood flood-opacity="0" result="BackgroundImageFix"/>
<feBlend mode="normal" in="SourceGraphic" in2="BackgroundImageFix" result="shape"/>
<feColorMatrix in="SourceAlpha" type="matrix" values="0 0 0 0 0 0 0 0 0 0 0 0 0 0 0 0 0 0 127 0" result="hardAlpha"/>
<feOffset dx="3.75" dy="-3.75"/>
<feGaussianBlur stdDeviation="3"/>
<feComposite in2="hardAlpha" operator="arithmetic" k2="-1" k3="1"/>
<feColorMatrix type="matrix" values="0 0 0 0 0.0932688 0 0 0 0 0.153132 0 0 0 0 0.317757 0 0 0 0.5 0"/>
<feBlend mode="normal" in2="shape" result="effect1_innerShadow_1695_192521"/>
</filter>
<filter id="filter1_i_1695_192521" x="24.4995" y="57.5" width="22.5005" height="80.4004" filterUnits="userSpaceOnUse" color-interpolation-filters="sRGB">
<feFlood flood-opacity="0" result="BackgroundImageFix"/>
<feBlend mode="normal" in="SourceGraphic" in2="BackgroundImageFix" result="shape"/>
<feColorMatrix in="SourceAlpha" type="matrix" values="0 0 0 0 0 0 0 0 0 0 0 0 0 0 0 0 0 0 127 0" result="hardAlpha"/>
<feOffset/>
<feGaussianBlur stdDeviation="3"/>
<feComposite in2="hardAlpha" operator="arithmetic" k2="-1" k3="1"/>
<feColorMatrix type="matrix" values="0 0 0 0 0.0932688 0 0 0 0 0.153132 0 0 0 0 0.317757 0 0 0 0.5 0"/>
<feBlend mode="normal" in2="shape" result="effect1_innerShadow_1695_192521"/>
</filter>
<filter id="filter2_i_1695_192521" x="117" y="57.5" width="22.5005" height="80.4004" filterUnits="userSpaceOnUse" color-interpolation-filters="sRGB">
<feFlood flood-opacity="0" result="BackgroundImageFix"/>
<feBlend mode="normal" in="SourceGraphic" in2="BackgroundImageFix" result="shape"/>
<feColorMatrix in="SourceAlpha" type="matrix" values="0 0 0 0 0 0 0 0 0 0 0 0 0 0 0 0 0 0 127 0" result="hardAlpha"/>
<feOffset/>
<feGaussianBlur stdDeviation="3"/>
<feComposite in2="hardAlpha" operator="arithmetic" k2="-1" k3="1"/>
<feColorMatrix type="matrix" values="0 0 0 0 0.0932688 0 0 0 0 0.153132 0 0 0 0 0.317757 0 0 0 0.5 0"/>
<feBlend mode="normal" in2="shape" result="effect1_innerShadow_1695_192521"/>
</filter>
<filter id="filter3_i_1695_192521" x="24.5" y="96.25" width="118.75" height="43.75" filterUnits="userSpaceOnUse" color-interpolation-filters="sRGB">
<feFlood flood-opacity="0" result="BackgroundImageFix"/>
<feBlend mode="normal" in="SourceGraphic" in2="BackgroundImageFix" result="shape"/>
<feColorMatrix in="SourceAlpha" type="matrix" values="0 0 0 0 0 0 0 0 0 0 0 0 0 0 0 0 0 0 127 0" result="hardAlpha"/>
<feOffset dx="3.75" dy="-3.75"/>
<feGaussianBlur stdDeviation="3"/>
<feComposite in2="hardAlpha" operator="arithmetic" k2="-1" k3="1"/>
<feColorMatrix type="matrix" values="0 0 0 0 0.0932688 0 0 0 0 0.153132 0 0 0 0 0.317757 0 0 0 0.5 0"/>
<feBlend mode="normal" in2="shape" result="effect1_innerShadow_1695_192521"/>
</filter>
<filter id="filter4_i_1695_192521" x="47" y="53.75" width="73.75" height="36.25" filterUnits="userSpaceOnUse" color-interpolation-filters="sRGB">
<feFlood flood-opacity="0" result="BackgroundImageFix"/>
<feBlend mode="normal" in="SourceGraphic" in2="BackgroundImageFix" result="shape"/>
<feColorMatrix in="SourceAlpha" type="matrix" values="0 0 0 0 0 0 0 0 0 0 0 0 0 0 0 0 0 0 127 0" result="hardAlpha"/>
<feOffset dx="3.75" dy="-3.75"/>
<feGaussianBlur stdDeviation="3"/>
<feComposite in2="hardAlpha" operator="arithmetic" k2="-1" k3="1"/>
<feColorMatrix type="matrix" values="0 0 0 0 0.0932688 0 0 0 0 0.153132 0 0 0 0 0.317757 0 0 0 0.5 0"/>
<feBlend mode="normal" in2="shape" result="effect1_innerShadow_1695_192521"/>
</filter>
<filter id="filter5_i_1695_192521" x="57.625" y="23.0947" width="46.875" height="52.8555" filterUnits="userSpaceOnUse" color-interpolation-filters="sRGB">
<feFlood flood-opacity="0" result="BackgroundImageFix"/>
<feBlend mode="normal" in="SourceGraphic" in2="BackgroundImageFix" result="shape"/>
<feColorMatrix in="SourceAlpha" type="matrix" values="0 0 0 0 0 0 0 0 0 0 0 0 0 0 0 0 0 0 127 0" result="hardAlpha"/>
<feOffset dx="-1.875" dy="-1.875"/>
<feGaussianBlur stdDeviation="1.875"/>
<feComposite in2="hardAlpha" operator="arithmetic" k2="-1" k3="1"/>
<feColorMatrix type="matrix" values="0 0 0 0 0.0304345 0 0 0 0 0.0345348 0 0 0 0 0.276449 0 0 0 0.28 0"/>
<feBlend mode="normal" in2="shape" result="effect1_innerShadow_1695_192521"/>
</filter>
<filter id="filter6_i_1695_192521" x="71.9897" y="33.7393" width="23.7705" height="23.7705" filterUnits="userSpaceOnUse" color-interpolation-filters="sRGB">
<feFlood flood-opacity="0" result="BackgroundImageFix"/>
<feBlend mode="normal" in="SourceGraphic" in2="BackgroundImageFix" result="shape"/>
<feColorMatrix in="SourceAlpha" type="matrix" values="0 0 0 0 0 0 0 0 0 0 0 0 0 0 0 0 0 0 127 0" result="hardAlpha"/>
<feOffset dx="3.75" dy="-3.75"/>
<feGaussianBlur stdDeviation="3"/>
<feComposite in2="hardAlpha" operator="arithmetic" k2="-1" k3="1"/>
<feColorMatrix type="matrix" values="0 0 0 0 0.0932688 0 0 0 0 0.153132 0 0 0 0 0.317757 0 0 0 0.5 0"/>
<feBlend mode="normal" in2="shape" result="effect1_innerShadow_1695_192521"/>
</filter>
<filter id="filter7_i_1695_192521" x="32" y="113.75" width="23.75" height="18.75" filterUnits="userSpaceOnUse" color-interpolation-filters="sRGB">
<feFlood flood-opacity="0" result="BackgroundImageFix"/>
<feBlend mode="normal" in="SourceGraphic" in2="BackgroundImageFix" result="shape"/>
<feColorMatrix in="SourceAlpha" type="matrix" values="0 0 0 0 0 0 0 0 0 0 0 0 0 0 0 0 0 0 127 0" result="hardAlpha"/>
<feOffset dx="3.75" dy="-3.75"/>
<feGaussianBlur stdDeviation="3"/>
<feComposite in2="hardAlpha" operator="arithmetic" k2="-1" k3="1"/>
<feColorMatrix type="matrix" values="0 0 0 0 0.0932688 0 0 0 0 0.153132 0 0 0 0 0.317757 0 0 0 0.5 0"/>
<feBlend mode="normal" in2="shape" result="effect1_innerShadow_1695_192521"/>
</filter>
<filter id="filter8_i_1695_192521" x="37" y="118.75" width="13.75" height="8.75" filterUnits="userSpaceOnUse" color-interpolation-filters="sRGB">
<feFlood flood-opacity="0" result="BackgroundImageFix"/>
<feBlend mode="normal" in="SourceGraphic" in2="BackgroundImageFix" result="shape"/>
<feColorMatrix in="SourceAlpha" type="matrix" values="0 0 0 0 0 0 0 0 0 0 0 0 0 0 0 0 0 0 127 0" result="hardAlpha"/>
<feOffset dx="3.75" dy="-3.75"/>
<feGaussianBlur stdDeviation="3"/>
<feComposite in2="hardAlpha" operator="arithmetic" k2="-1" k3="1"/>
<feColorMatrix type="matrix" values="0 0 0 0 0.0932688 0 0 0 0 0.153132 0 0 0 0 0.317757 0 0 0 0.5 0"/>
<feBlend mode="normal" in2="shape" result="effect1_innerShadow_1695_192521"/>
</filter>
<filter id="filter9_i_1695_192521" x="57" y="123.75" width="13.75" height="8.75" filterUnits="userSpaceOnUse" color-interpolation-filters="sRGB">
<feFlood flood-opacity="0" result="BackgroundImageFix"/>
<feBlend mode="normal" in="SourceGraphic" in2="BackgroundImageFix" result="shape"/>
<feColorMatrix in="SourceAlpha" type="matrix" values="0 0 0 0 0 0 0 0 0 0 0 0 0 0 0 0 0 0 127 0" result="hardAlpha"/>
<feOffset dx="3.75" dy="-3.75"/>
<feGaussianBlur stdDeviation="3"/>
<feComposite in2="hardAlpha" operator="arithmetic" k2="-1" k3="1"/>
<feColorMatrix type="matrix" values="0 0 0 0 0.0932688 0 0 0 0 0.153132 0 0 0 0 0.317757 0 0 0 0.5 0"/>
<feBlend mode="normal" in2="shape" result="effect1_innerShadow_1695_192521"/>
</filter>
<filter id="filter10_i_1695_192521" x="57" y="113.75" width="18.75" height="8.75" filterUnits="userSpaceOnUse" color-interpolation-filters="sRGB">
<feFlood flood-opacity="0" result="BackgroundImageFix"/>
<feBlend mode="normal" in="SourceGraphic" in2="BackgroundImageFix" result="shape"/>
<feColorMatrix in="SourceAlpha" type="matrix" values="0 0 0 0 0 0 0 0 0 0 0 0 0 0 0 0 0 0 127 0" result="hardAlpha"/>
<feOffset dx="3.75" dy="-3.75"/>
<feGaussianBlur stdDeviation="3"/>
<feComposite in2="hardAlpha" operator="arithmetic" k2="-1" k3="1"/>
<feColorMatrix type="matrix" values="0 0 0 0 0.0932688 0 0 0 0 0.153132 0 0 0 0 0.317757 0 0 0 0.5 0"/>
<feBlend mode="normal" in2="shape" result="effect1_innerShadow_1695_192521"/>
</filter>
<linearGradient id="paint0_linear_1695_192521" x1="120.724" y1="47.0316" x2="105.287" y2="108.123" gradientUnits="userSpaceOnUse">
<stop stop-color="#FBFBFB"/>
<stop offset="0.557473" stop-color="#CECECE"/>
<stop offset="1" stop-color="#999999"/>
</linearGradient>
<linearGradient id="paint1_linear_1695_192521" x1="43.4535" y1="-11.5932" x2="-0.700048" y2="158.255" gradientUnits="userSpaceOnUse">
<stop stop-color="#FBFBFB"/>
<stop offset="0.557473" stop-color="#CECECE"/>
</linearGradient>
<linearGradient id="paint2_linear_1695_192521" x1="135.954" y1="-11.5932" x2="91.8004" y2="158.255" gradientUnits="userSpaceOnUse">
<stop stop-color="#FBFBFB"/>
<stop offset="0.557473" stop-color="#CECECE"/>
</linearGradient>
<linearGradient id="paint3_linear_1695_192521" x1="113.875" y1="71.2502" x2="125.42" y2="128.477" gradientUnits="userSpaceOnUse">
<stop stop-color="#FBFBFB"/>
<stop offset="0.557473" stop-color="#CECECE"/>
<stop offset="1" stop-color="#999999"/>
</linearGradient>
<linearGradient id="paint4_linear_1695_192521" x1="87.625" y1="31.875" x2="100.149" y2="85.5828" gradientUnits="userSpaceOnUse">
<stop stop-color="#FBFBFB"/>
<stop offset="0.557473" stop-color="#CECECE"/>
<stop offset="1" stop-color="#999999"/>
</linearGradient>
<linearGradient id="paint5_linear_1695_192521" x1="59.5" y1="50.4597" x2="111.599" y2="41.7002" gradientUnits="userSpaceOnUse">
<stop stop-color="#F6F6F6"/>
<stop offset="0.320133" stop-color="white"/>
<stop offset="1" stop-color="#F4F4F4"/>
</linearGradient>
<linearGradient id="paint6_linear_1695_192521" x1="87.5491" y1="23.0997" x2="100.486" y2="45.4047" gradientUnits="userSpaceOnUse">
<stop stop-color="#FBFBFB"/>
<stop offset="0.557473" stop-color="#CECECE"/>
<stop offset="1" stop-color="#999999"/>
</linearGradient>
<linearGradient id="paint7_linear_1695_192521" x1="48.25" y1="121.875" x2="68.1449" y2="130.341" gradientUnits="userSpaceOnUse">
<stop stop-color="#FBFBFB"/>
<stop offset="0.557473" stop-color="#CECECE"/>
<stop offset="1" stop-color="#999999"/>
</linearGradient>
<linearGradient id="paint8_linear_1695_192521" x1="44.7717" y1="118.906" x2="46.7632" y2="125.773" gradientUnits="userSpaceOnUse">
<stop stop-color="#FBFBFB"/>
<stop offset="0.557473" stop-color="#CECECE"/>
<stop offset="1" stop-color="#999999"/>
</linearGradient>
<linearGradient id="paint9_linear_1695_192521" x1="64.7717" y1="123.906" x2="66.7632" y2="130.773" gradientUnits="userSpaceOnUse">
<stop stop-color="#FBFBFB"/>
<stop offset="0.557473" stop-color="#CECECE"/>
<stop offset="1" stop-color="#999999"/>
</linearGradient>
<linearGradient id="paint10_linear_1695_192521" x1="68.6576" y1="113.906" x2="70.045" y2="121.083" gradientUnits="userSpaceOnUse">
<stop stop-color="#FBFBFB"/>
<stop offset="0.557473" stop-color="#CECECE"/>
<stop offset="1" stop-color="#999999"/>
</linearGradient>
</defs>
</svg>
