<svg width="18" height="18" viewBox="0 0 18 18" fill="none" xmlns="http://www.w3.org/2000/svg">
<g clip-path="url(#clip0_3422_19632)">
<path fill-rule="evenodd" clip-rule="evenodd" d="M4.5 2.25C4.08579 2.25 3.75 2.58579 3.75 3V15C3.75 15.4142 4.08579 15.75 4.5 15.75H13.5C13.9142 15.75 14.25 15.4142 14.25 15V3C14.25 2.58579 13.9142 2.25 13.5 2.25H4.5ZM2.25 3C2.25 1.75736 3.25736 0.75 4.5 0.75H13.5C14.7426 0.75 15.75 1.75736 15.75 3V15C15.75 16.2426 14.7426 17.25 13.5 17.25H4.5C3.25736 17.25 2.25 16.2426 2.25 15V3Z" fill="#51525C"/>
<path fill-rule="evenodd" clip-rule="evenodd" d="M6 13.5C6 13.0858 6.33579 12.75 6.75 12.75H11.25C11.6642 12.75 12 13.0858 12 13.5V16.5C12 16.9142 11.6642 17.25 11.25 17.25C10.8358 17.25 10.5 16.9142 10.5 16.5V14.25H7.5V16.5C7.5 16.9142 7.16421 17.25 6.75 17.25C6.33579 17.25 6 16.9142 6 16.5V13.5Z" fill="#51525C"/>
<path fill-rule="evenodd" clip-rule="evenodd" d="M5.25 4.5C5.25 4.08579 5.58579 3.75 6 3.75H6.0075C6.42171 3.75 6.7575 4.08579 6.7575 4.5C6.7575 4.91421 6.42171 5.25 6.0075 5.25H6C5.58579 5.25 5.25 4.91421 5.25 4.5Z" fill="#51525C"/>
<path fill-rule="evenodd" clip-rule="evenodd" d="M11.25 4.5C11.25 4.08579 11.5858 3.75 12 3.75H12.0075C12.4217 3.75 12.7575 4.08579 12.7575 4.5C12.7575 4.91421 12.4217 5.25 12.0075 5.25H12C11.5858 5.25 11.25 4.91421 11.25 4.5Z" fill="#51525C"/>
<path fill-rule="evenodd" clip-rule="evenodd" d="M8.25 4.5C8.25 4.08579 8.58579 3.75 9 3.75H9.0075C9.42171 3.75 9.7575 4.08579 9.7575 4.5C9.7575 4.91421 9.42171 5.25 9.0075 5.25H9C8.58579 5.25 8.25 4.91421 8.25 4.5Z" fill="#51525C"/>
<path fill-rule="evenodd" clip-rule="evenodd" d="M8.25 7.5C8.25 7.08579 8.58579 6.75 9 6.75H9.0075C9.42171 6.75 9.7575 7.08579 9.7575 7.5C9.7575 7.91421 9.42171 8.25 9.0075 8.25H9C8.58579 8.25 8.25 7.91421 8.25 7.5Z" fill="#51525C"/>
<path fill-rule="evenodd" clip-rule="evenodd" d="M8.25 10.5C8.25 10.0858 8.58579 9.75 9 9.75H9.0075C9.42171 9.75 9.7575 10.0858 9.7575 10.5C9.7575 10.9142 9.42171 11.25 9.0075 11.25H9C8.58579 11.25 8.25 10.9142 8.25 10.5Z" fill="#51525C"/>
<path fill-rule="evenodd" clip-rule="evenodd" d="M11.25 7.5C11.25 7.08579 11.5858 6.75 12 6.75H12.0075C12.4217 6.75 12.7575 7.08579 12.7575 7.5C12.7575 7.91421 12.4217 8.25 12.0075 8.25H12C11.5858 8.25 11.25 7.91421 11.25 7.5Z" fill="#51525C"/>
<path fill-rule="evenodd" clip-rule="evenodd" d="M11.25 10.5C11.25 10.0858 11.5858 9.75 12 9.75H12.0075C12.4217 9.75 12.7575 10.0858 12.7575 10.5C12.7575 10.9142 12.4217 11.25 12.0075 11.25H12C11.5858 11.25 11.25 10.9142 11.25 10.5Z" fill="#51525C"/>
<path fill-rule="evenodd" clip-rule="evenodd" d="M5.25 7.5C5.25 7.08579 5.58579 6.75 6 6.75H6.0075C6.42171 6.75 6.7575 7.08579 6.7575 7.5C6.7575 7.91421 6.42171 8.25 6.0075 8.25H6C5.58579 8.25 5.25 7.91421 5.25 7.5Z" fill="#51525C"/>
<path fill-rule="evenodd" clip-rule="evenodd" d="M5.25 10.5C5.25 10.0858 5.58579 9.75 6 9.75H6.0075C6.42171 9.75 6.7575 10.0858 6.7575 10.5C6.7575 10.9142 6.42171 11.25 6.0075 11.25H6C5.58579 11.25 5.25 10.9142 5.25 10.5Z" fill="#51525C"/>
</g>
<defs>
<clipPath id="clip0_3422_19632">
<rect width="18" height="18" fill="white"/>
</clipPath>
</defs>
</svg>
