<svg width="21" height="20" viewBox="0 0 21 20" fill="none" xmlns="http://www.w3.org/2000/svg">
<path fill-rule="evenodd" clip-rule="evenodd" d="M3.00008 1.66699C3.46032 1.66699 3.83341 2.04009 3.83341 2.50033V16.667H18.0001C18.4603 16.667 18.8334 17.0401 18.8334 17.5003C18.8334 17.9606 18.4603 18.3337 18.0001 18.3337H3.00008C2.53984 18.3337 2.16675 17.9606 2.16675 17.5003V2.50033C2.16675 2.04009 2.53984 1.66699 3.00008 1.66699Z" fill="#303136"/>
<path fill-rule="evenodd" clip-rule="evenodd" d="M15.7442 6.91107C16.0696 6.58563 16.5972 6.58563 16.9227 6.91107C17.2481 7.23651 17.2481 7.76414 16.9227 8.08958L12.756 12.2562C12.4306 12.5817 11.9029 12.5817 11.5775 12.2562L8.83342 9.51217L6.92267 11.4229C6.59723 11.7484 6.0696 11.7484 5.74416 11.4229C5.41872 11.0975 5.41872 10.5698 5.74416 10.2444L8.24416 7.7444C8.5696 7.41897 9.09723 7.41897 9.42267 7.7444L12.1667 10.4885L15.7442 6.91107Z" fill="#303136"/>
</svg>
