<svg width="20" height="20" viewBox="0 0 20 20" fill="none" xmlns="http://www.w3.org/2000/svg">
<g clip-path="url(#clip0_6934_54823)">
<path d="M10.2932 0.834021C10.1676 0.829697 10.0394 0.839151 9.91064 0.863623L2.57863 2.25941C1.5682 2.45207 0.833496 3.30498 0.833496 4.28582V15.7141C0.833496 16.6946 1.56828 17.5481 2.57863 17.7405L9.91064 19.1363C10.8487 19.3148 11.7161 18.6762 11.8697 17.8078H16.5133C17.9702 17.8078 19.1668 16.6686 19.1668 15.2817V5.17748C19.1668 3.79055 17.9702 2.65142 16.5133 2.65142H11.93V2.43972C11.93 1.56476 11.1726 0.864286 10.2932 0.834021ZM10.1943 2.21456C10.3579 2.18345 10.4826 2.28045 10.4826 2.43972V17.5602C10.4826 17.7195 10.3578 17.8166 10.1943 17.7853V17.7844L2.8632 16.3887H2.86226C2.51929 16.3235 2.28086 16.0468 2.28086 15.7141V4.28582C2.28086 3.95311 2.51987 3.67582 2.8632 3.61035L10.1943 2.21456ZM11.93 4.02927H16.5133C17.1879 4.02927 17.7195 4.5353 17.7195 5.17748V15.2817C17.7195 15.9239 17.1879 16.4299 16.5133 16.4299H11.93V4.02927ZM13.6186 5.8664C13.5227 5.86511 13.4275 5.88198 13.3385 5.91602C13.2495 5.95006 13.1685 6.0006 13.1002 6.0647C13.0319 6.1288 12.9777 6.20519 12.9407 6.28941C12.9037 6.37364 12.8846 6.46403 12.8846 6.55533C12.8846 6.64663 12.9037 6.73702 12.9407 6.82124C12.9777 6.90547 13.0319 6.98185 13.1002 7.04595C13.1685 7.11005 13.2495 7.16059 13.3385 7.19464C13.4275 7.22868 13.5227 7.24554 13.6186 7.24425H15.5484C15.6443 7.24554 15.7395 7.22868 15.8285 7.19464C15.9175 7.16059 15.9985 7.11005 16.0668 7.04595C16.1351 6.98185 16.1893 6.90547 16.2263 6.82124C16.2633 6.73702 16.2824 6.64663 16.2824 6.55533C16.2824 6.46403 16.2633 6.37364 16.2263 6.28941C16.1893 6.20519 16.1351 6.1288 16.0668 6.0647C15.9985 6.0006 15.9175 5.95006 15.8285 5.91602C15.7395 5.88198 15.6443 5.86511 15.5484 5.8664H13.6186ZM4.6922 6.85763C4.55285 6.85409 4.41047 6.88898 4.28419 6.96527C3.94743 7.16966 3.84854 7.5951 4.06275 7.91613L5.50446 10.0726L4.06275 12.2291C3.84854 12.5501 3.94743 12.9756 4.28419 13.18C4.4048 13.2525 4.53926 13.2876 4.67241 13.2876C4.91123 13.2876 5.14598 13.1754 5.28397 12.9691L6.36195 11.3563L7.43994 12.9683C7.57841 13.1745 7.81268 13.2876 8.05149 13.2876C8.18465 13.2876 8.31816 13.2534 8.43878 13.18C8.77553 12.9756 8.87537 12.5492 8.66116 12.2282L7.22039 10.0726L8.66116 7.91703C8.87537 7.59599 8.77553 7.16966 8.43878 6.96527C8.1025 6.76135 7.65512 6.85548 7.43994 7.17698L6.36195 8.78895L5.28397 7.17608C5.14978 6.97514 4.92446 6.86353 4.6922 6.85763ZM13.6186 9.54067C13.5227 9.53938 13.4275 9.55624 13.3385 9.59029C13.2495 9.62433 13.1685 9.67487 13.1002 9.73897C13.0319 9.80307 12.9777 9.87945 12.9407 9.96368C12.9037 10.0479 12.8846 10.1383 12.8846 10.2296C12.8846 10.3209 12.9037 10.4113 12.9407 10.4955C12.9777 10.5797 13.0319 10.6561 13.1002 10.7202C13.1685 10.7843 13.2495 10.8349 13.3385 10.8689C13.4275 10.9029 13.5227 10.9198 13.6186 10.9185H15.5484C15.6443 10.9198 15.7395 10.9029 15.8285 10.8689C15.9175 10.8349 15.9985 10.7843 16.0668 10.7202C16.1351 10.6561 16.1893 10.5797 16.2263 10.4955C16.2633 10.4113 16.2824 10.3209 16.2824 10.2296C16.2824 10.1383 16.2633 10.0479 16.2263 9.96368C16.1893 9.87945 16.1351 9.80307 16.0668 9.73897C15.9985 9.67487 15.9175 9.62433 15.8285 9.59029C15.7395 9.55624 15.6443 9.53938 15.5484 9.54067H13.6186ZM13.6186 13.2149C13.5227 13.2136 13.4275 13.2305 13.3385 13.2646C13.2495 13.2986 13.1685 13.3491 13.1002 13.4132C13.0319 13.4773 12.9777 13.5537 12.9407 13.6379C12.9037 13.7222 12.8846 13.8126 12.8846 13.9039C12.8846 13.9952 12.9037 14.0856 12.9407 14.1698C12.9777 14.254 13.0319 14.3304 13.1002 14.3945C13.1685 14.4586 13.2495 14.5091 13.3385 14.5432C13.4275 14.5772 13.5227 14.5941 13.6186 14.5928H15.5484C15.6443 14.5941 15.7395 14.5772 15.8285 14.5432C15.9175 14.5091 15.9985 14.4586 16.0668 14.3945C16.1351 14.3304 16.1893 14.254 16.2263 14.1698C16.2633 14.0856 16.2824 13.9952 16.2824 13.9039C16.2824 13.8126 16.2633 13.7222 16.2263 13.6379C16.1893 13.5537 16.1351 13.4773 16.0668 13.4132C15.9985 13.3491 15.9175 13.2986 15.8285 13.2646C15.7395 13.2305 15.6443 13.2136 15.5484 13.2149H13.6186Z" fill="#1D57C3"/>
</g>
<defs>
<clipPath id="clip0_6934_54823">
<rect width="20" height="20" fill="white"/>
</clipPath>
</defs>
</svg>
