<svg width="18" height="18" viewBox="0 0 18 18" fill="none" xmlns="http://www.w3.org/2000/svg">
<g clip-path="url(#clip0_2209_20382)">
<path fill-rule="evenodd" clip-rule="evenodd" d="M3.37771 1.17864C3.94461 0.951879 4.79046 0.75 6 0.75C7.27009 0.75 8.32253 1.17111 9.23676 1.53693C9.25072 1.54251 9.26465 1.54808 9.27854 1.55364C10.2296 1.93407 11.0395 2.25 12 2.25C13.0405 2.25 13.6946 2.07688 14.0652 1.92864C14.2512 1.85426 14.3692 1.78479 14.4316 1.74315C14.4627 1.72241 14.4805 1.70827 14.4865 1.7034C14.7008 1.50199 15.014 1.44399 15.287 1.55709C15.5673 1.67318 15.75 1.94665 15.75 2.25V11.25C15.75 11.4489 15.671 11.6397 15.5303 11.7803L15 11.25C15.5303 11.7803 15.5299 11.7807 15.5295 11.7811L15.5271 11.7836C15.5259 11.7847 15.5247 11.7859 15.5235 11.7871C15.521 11.7895 15.5183 11.7921 15.5154 11.7949C15.5096 11.8004 15.503 11.8066 15.4955 11.8134C15.4806 11.827 15.4622 11.8431 15.4402 11.8612C15.3961 11.8974 15.3378 11.9418 15.2637 11.9912C15.1152 12.0902 14.9051 12.2082 14.6223 12.3214C14.0554 12.5481 13.2095 12.75 12 12.75C10.7299 12.75 9.67748 12.3289 8.76324 11.9631L8.72146 11.9464C7.77038 11.5659 6.96052 11.25 6 11.25C4.95954 11.25 4.30538 11.4231 3.93479 11.5714C3.74883 11.6457 3.63082 11.7152 3.56837 11.7568C3.53726 11.7776 3.51947 11.7917 3.51355 11.7966C3.29925 11.998 2.98603 12.056 2.71299 11.9429C2.43273 11.8268 2.25 11.5533 2.25 11.25V2.25C2.25 2.05109 2.32902 1.86032 2.46967 1.71967L3 2.25C2.46967 1.71967 2.47006 1.71928 2.47046 1.71888L2.47126 1.71808C2.47181 1.71754 2.47236 1.71699 2.47293 1.71643C2.47407 1.7153 2.47526 1.71414 2.4765 1.71292C2.47898 1.7105 2.48167 1.7079 2.48456 1.70514C2.49035 1.69962 2.49698 1.69343 2.50447 1.68662C2.51944 1.67301 2.53784 1.65695 2.55984 1.63883C2.60387 1.60256 2.66221 1.55818 2.73632 1.50877C2.8848 1.40979 3.09492 1.29176 3.37771 1.17864ZM3.75 2.65354V10.0476C4.2957 9.87952 5.03118 9.75 6 9.75C7.27008 9.75 8.32252 10.1711 9.23676 10.5369L9.27854 10.5536C10.2296 10.9341 11.0395 11.25 12 11.25C13.0405 11.25 13.6946 11.0769 14.0652 10.9286C14.1366 10.9001 14.1979 10.8723 14.25 10.8465V3.4524C13.7043 3.62048 12.9688 3.75 12 3.75C10.7299 3.75 9.67747 3.32889 8.76324 2.96307C8.74928 2.95749 8.73535 2.95192 8.72146 2.94636C7.77038 2.56593 6.96052 2.25 6 2.25C4.95954 2.25 4.30538 2.42312 3.93479 2.57136C3.86342 2.59991 3.80205 2.62773 3.75 2.65354ZM3.52878 11.7819C3.52874 11.7819 3.52881 11.7818 3.52878 11.7819V11.7819Z" fill="#51525C"/>
<path fill-rule="evenodd" clip-rule="evenodd" d="M3 10.5C3.41421 10.5 3.75 10.8358 3.75 11.25V16.5C3.75 16.9142 3.41421 17.25 3 17.25C2.58579 17.25 2.25 16.9142 2.25 16.5V11.25C2.25 10.8358 2.58579 10.5 3 10.5Z" fill="#51525C"/>
</g>
<defs>
<clipPath id="clip0_2209_20382">
<rect width="18" height="18" fill="white"/>
</clipPath>
</defs>
</svg>
