<svg width="20" height="20" viewBox="0 0 20 20" fill="none" xmlns="http://www.w3.org/2000/svg">
<path fill-rule="evenodd" clip-rule="evenodd" d="M4.16663 3.33268C3.70639 3.33268 3.33329 3.70578 3.33329 4.16602V15.8327C3.33329 16.2929 3.70639 16.666 4.16663 16.666H15.8333C16.2935 16.666 16.6666 16.2929 16.6666 15.8327V4.16602C16.6666 3.70578 16.2935 3.33268 15.8333 3.33268H4.16663ZM1.66663 4.16602C1.66663 2.7853 2.78591 1.66602 4.16663 1.66602H15.8333C17.214 1.66602 18.3333 2.7853 18.3333 4.16602V15.8327C18.3333 17.2134 17.214 18.3327 15.8333 18.3327H4.16663C2.78591 18.3327 1.66663 17.2134 1.66663 15.8327V4.16602Z" fill="#1D57C3"/>
<path fill-rule="evenodd" clip-rule="evenodd" d="M7.49996 6.66602C7.03972 6.66602 6.66663 7.03911 6.66663 7.49935C6.66663 7.95959 7.03972 8.33268 7.49996 8.33268C7.9602 8.33268 8.33329 7.95959 8.33329 7.49935C8.33329 7.03911 7.9602 6.66602 7.49996 6.66602ZM4.99996 7.49935C4.99996 6.11864 6.11925 4.99935 7.49996 4.99935C8.88067 4.99935 9.99996 6.11864 9.99996 7.49935C9.99996 8.88006 8.88067 9.99935 7.49996 9.99935C6.11925 9.99935 4.99996 8.88006 4.99996 7.49935Z" fill="#1D57C3"/>
<path fill-rule="evenodd" clip-rule="evenodd" d="M11.9825 9.33834C12.4513 8.86966 13.0871 8.60637 13.75 8.60637C14.4129 8.60637 15.0486 8.86966 15.5175 9.33834L18.0892 11.9101C18.4147 12.2355 18.4147 12.7632 18.0892 13.0886C17.7638 13.414 17.2361 13.414 16.9107 13.0886L14.3391 10.517C14.3391 10.517 14.3392 10.5171 14.3391 10.517C14.1829 10.3609 13.9709 10.273 13.75 10.273C13.529 10.273 13.3171 10.3608 13.1609 10.5169C13.1609 10.517 13.1609 10.5169 13.1609 10.5169L5.58922 18.0886C5.26378 18.414 4.73614 18.414 4.4107 18.0886C4.08527 17.7632 4.08527 17.2355 4.4107 16.9101L11.9825 9.33834Z" fill="#1D57C3"/>
</svg>
