<svg width="18" height="19" viewBox="0 0 18 19" fill="none" xmlns="http://www.w3.org/2000/svg">
<g clip-path="url(#clip0_10666_10482)">
<path fill-rule="evenodd" clip-rule="evenodd" d="M0.75 2C0.75 1.58579 1.08579 1.25 1.5 1.25H9C9.19891 1.25 9.38968 1.32902 9.53033 1.46967L16.4978 8.43717C17.4957 9.43506 17.4957 11.0649 16.4978 12.0628L11.5628 16.9978C10.5649 17.9957 8.93506 17.9957 7.93717 16.9978L0.96967 10.0303C0.829018 9.88968 0.75 9.69891 0.75 9.5V2ZM2.25 2.75V9.18934L8.99783 15.9372C9.40994 16.3493 10.0901 16.3493 10.5022 15.9372L15.4372 11.0022C15.8493 10.5901 15.8493 9.90994 15.4372 9.49783L8.68934 2.75H2.25Z" fill="#51525C"/>
<path fill-rule="evenodd" clip-rule="evenodd" d="M4.5 5.75C4.5 5.33579 4.83579 5 5.25 5H5.2575C5.67171 5 6.0075 5.33579 6.0075 5.75C6.0075 6.16421 5.67171 6.5 5.2575 6.5H5.25C4.83579 6.5 4.5 6.16421 4.5 5.75Z" fill="#51525C"/>
</g>
<defs>
<clipPath id="clip0_10666_10482">
<rect width="18" height="18" fill="white" transform="translate(0 0.5)"/>
</clipPath>
</defs>
</svg>
