<svg width="20" height="20" viewBox="0 0 20 20" fill="none" xmlns="http://www.w3.org/2000/svg">
<g clip-path="url(#clip0_10466_67848)">
<path fill-rule="evenodd" clip-rule="evenodd" d="M10.6461 2.29418C11.5891 1.38339 12.8521 0.879422 14.1631 0.890814C15.4741 0.902206 16.7281 1.42805 17.6552 2.35509C18.5822 3.28213 19.1081 4.53619 19.1194 5.84718C19.1308 7.15816 18.6269 8.42117 17.7161 9.36418L17.7059 9.37451L15.206 11.8744C14.6991 12.3815 14.0891 12.7736 13.4174 13.0242C12.7456 13.2748 12.0278 13.378 11.3127 13.3267C10.5975 13.2755 9.90177 13.0711 9.27258 12.7273C8.64339 12.3836 8.09548 11.9085 7.66603 11.3344C7.39036 10.9659 7.46565 10.4436 7.83419 10.168C8.20273 9.89228 8.72497 9.96757 9.00064 10.3361C9.28694 10.7189 9.65221 11.0356 10.0717 11.2647C10.4911 11.4939 10.955 11.6302 11.4317 11.6643C11.9085 11.6985 12.387 11.6297 12.8349 11.4626C13.2827 11.2956 13.6894 11.0342 14.0273 10.6961L16.522 8.20141C17.1262 7.57326 17.4604 6.73337 17.4528 5.86166C17.4452 4.98767 17.0947 4.15163 16.4767 3.5336C15.8586 2.91558 15.0226 2.56501 14.1486 2.55742C13.2765 2.54984 12.4363 2.88434 11.808 3.48904L10.3792 4.90956C10.0528 5.23405 9.52518 5.23251 9.2007 4.90613C8.87621 4.57974 8.87775 4.05211 9.20413 3.72762L10.6375 2.30262L10.6461 2.29418Z" fill="#1D57C3"/>
<path fill-rule="evenodd" clip-rule="evenodd" d="M6.58263 6.97966C7.25439 6.72907 7.97218 6.62589 8.68732 6.67711C9.40247 6.72833 10.0982 6.93274 10.7274 7.2765C11.3566 7.62026 11.9045 8.09531 12.334 8.66944C12.6096 9.03798 12.5344 9.56022 12.1658 9.83589C11.7973 10.1116 11.275 10.0363 10.9994 9.66774C10.7131 9.28499 10.3478 8.96828 9.92833 8.73911C9.50887 8.50994 9.04503 8.37366 8.56826 8.33952C8.0915 8.30537 7.61297 8.37416 7.16513 8.54122C6.7173 8.70828 6.31062 8.96969 5.9727 9.30774L3.478 11.8024C2.8738 12.4306 2.53959 13.2705 2.54716 14.1422C2.55476 15.0162 2.90532 15.8522 3.52335 16.4702C4.14138 17.0883 4.97742 17.4388 5.85141 17.4464C6.72311 17.454 7.563 17.1198 8.19114 16.5156L9.61075 15.096C9.93618 14.7706 10.4638 14.7706 10.7893 15.096C11.1147 15.4214 11.1147 15.9491 10.7893 16.2745L9.36426 17.6995L9.35393 17.7097C8.41092 18.6205 7.14791 19.1244 5.83692 19.113C4.52594 19.1016 3.27188 18.5758 2.34484 17.6488C1.4178 16.7217 0.891952 15.4677 0.88056 14.1567C0.869168 12.8457 1.37314 11.5827 2.28393 10.6397L2.29408 10.6293L4.79397 8.12944C4.79394 8.12948 4.79401 8.12941 4.79397 8.12944C5.30084 7.62242 5.91092 7.23023 6.58263 6.97966Z" fill="#1D57C3"/>
</g>
<defs>
<clipPath id="clip0_10466_67848">
<rect width="20" height="20" fill="white"/>
</clipPath>
</defs>
</svg>
