<svg width="20" height="20" viewBox="0 0 20 20" fill="none" xmlns="http://www.w3.org/2000/svg">
<path fill-rule="evenodd" clip-rule="evenodd" d="M1.66675 10.0003C1.66675 9.54009 2.03984 9.16699 2.50008 9.16699H9.16675C9.62699 9.16699 10.0001 9.54009 10.0001 10.0003C10.0001 10.4606 9.62699 10.8337 9.16675 10.8337H2.50008C2.03984 10.8337 1.66675 10.4606 1.66675 10.0003Z" fill="#1D57C3"/>
<path fill-rule="evenodd" clip-rule="evenodd" d="M1.66675 5.00033C1.66675 4.54009 2.03984 4.16699 2.50008 4.16699H13.3334C13.7937 4.16699 14.1667 4.54009 14.1667 5.00033C14.1667 5.46056 13.7937 5.83366 13.3334 5.83366H2.50008C2.03984 5.83366 1.66675 5.46056 1.66675 5.00033Z" fill="#1D57C3"/>
<path fill-rule="evenodd" clip-rule="evenodd" d="M1.66675 15.0003C1.66675 14.5401 2.03984 14.167 2.50008 14.167H13.3334C13.7937 14.167 14.1667 14.5401 14.1667 15.0003C14.1667 15.4606 13.7937 15.8337 13.3334 15.8337H2.50008C2.03984 15.8337 1.66675 15.4606 1.66675 15.0003Z" fill="#1D57C3"/>
<path fill-rule="evenodd" clip-rule="evenodd" d="M15.0001 6.66699C15.4603 6.66699 15.8334 7.04009 15.8334 7.50033V12.5003C15.8334 12.9606 15.4603 13.3337 15.0001 13.3337C14.5398 13.3337 14.1667 12.9606 14.1667 12.5003V7.50033C14.1667 7.04009 14.5398 6.66699 15.0001 6.66699Z" fill="#1D57C3"/>
<path fill-rule="evenodd" clip-rule="evenodd" d="M11.6667 10.0003C11.6667 9.54009 12.0398 9.16699 12.5001 9.16699H17.5001C17.9603 9.16699 18.3334 9.54009 18.3334 10.0003C18.3334 10.4606 17.9603 10.8337 17.5001 10.8337H12.5001C12.0398 10.8337 11.6667 10.4606 11.6667 10.0003Z" fill="#1D57C3"/>
</svg>
