<svg width="21" height="20" viewBox="0 0 21 20" fill="none" xmlns="http://www.w3.org/2000/svg">
<path fill-rule="evenodd" clip-rule="evenodd" d="M2.16669 10C2.16669 9.53976 2.53978 9.16667 3.00002 9.16667H13.8334C14.2936 9.16667 14.6667 9.53976 14.6667 10C14.6667 10.4602 14.2936 10.8333 13.8334 10.8333H3.00002C2.53978 10.8333 2.16669 10.4602 2.16669 10Z" fill="#1D57C3"/>
<path fill-rule="evenodd" clip-rule="evenodd" d="M2.16669 15C2.16669 14.5398 2.53978 14.1667 3.00002 14.1667H13.8334C14.2936 14.1667 14.6667 14.5398 14.6667 15C14.6667 15.4602 14.2936 15.8333 13.8334 15.8333H3.00002C2.53978 15.8333 2.16669 15.4602 2.16669 15Z" fill="#1D57C3"/>
<path fill-rule="evenodd" clip-rule="evenodd" d="M2.16669 5C2.16669 4.53976 2.53978 4.16667 3.00002 4.16667H8.83335C9.29359 4.16667 9.66669 4.53976 9.66669 5C9.66669 5.46024 9.29359 5.83333 8.83335 5.83333H3.00002C2.53978 5.83333 2.16669 5.46024 2.16669 5Z" fill="#1D57C3"/>
<path fill-rule="evenodd" clip-rule="evenodd" d="M11.3334 5C11.3334 4.53976 11.7065 4.16667 12.1667 4.16667H16.3334C16.9964 4.16667 17.6323 4.43006 18.1011 4.8989C18.57 5.36774 18.8334 6.00362 18.8334 6.66667V15C18.8334 15.4602 18.4603 15.8333 18 15.8333C17.5398 15.8333 17.1667 15.4602 17.1667 15V6.66667C17.1667 6.44565 17.0789 6.23369 16.9226 6.07741C16.7663 5.92113 16.5544 5.83333 16.3334 5.83333H12.1667C11.7065 5.83333 11.3334 5.46024 11.3334 5Z" fill="#1D57C3"/>
<path fill-rule="evenodd" clip-rule="evenodd" d="M14.4226 2.74408C14.748 3.06951 14.748 3.59715 14.4226 3.92259L13.3452 5L14.4226 6.07741C14.748 6.40285 14.748 6.93049 14.4226 7.25592C14.0972 7.58136 13.5695 7.58136 13.2441 7.25592L11.5774 5.58926C11.252 5.26382 11.252 4.73618 11.5774 4.41074L13.2441 2.74408C13.5695 2.41864 14.0972 2.41864 14.4226 2.74408Z" fill="#1D57C3"/>
</svg>
