<svg width="21" height="20" viewBox="0 0 21 20" fill="none" xmlns="http://www.w3.org/2000/svg">
<path fill-rule="evenodd" clip-rule="evenodd" d="M16.9226 3.57741C17.248 3.90285 17.248 4.43049 16.9226 4.75592L5.25592 16.4226C4.93049 16.748 4.40285 16.748 4.07741 16.4226C3.75197 16.0972 3.75197 15.5695 4.07741 15.2441L15.7441 3.57741C16.0695 3.25197 16.5972 3.25197 16.9226 3.57741Z" fill="#303136"/>
<path fill-rule="evenodd" clip-rule="evenodd" d="M5.91667 4.16667C5.22631 4.16667 4.66667 4.72631 4.66667 5.41667C4.66667 6.10702 5.22631 6.66667 5.91667 6.66667C6.60702 6.66667 7.16667 6.10702 7.16667 5.41667C7.16667 4.72631 6.60702 4.16667 5.91667 4.16667ZM3 5.41667C3 3.80584 4.30584 2.5 5.91667 2.5C7.5275 2.5 8.83333 3.80584 8.83333 5.41667C8.83333 7.0275 7.5275 8.33333 5.91667 8.33333C4.30584 8.33333 3 7.0275 3 5.41667Z" fill="#303136"/>
<path fill-rule="evenodd" clip-rule="evenodd" d="M15.0833 13.3333C14.393 13.3333 13.8333 13.893 13.8333 14.5833C13.8333 15.2737 14.393 15.8333 15.0833 15.8333C15.7737 15.8333 16.3333 15.2737 16.3333 14.5833C16.3333 13.893 15.7737 13.3333 15.0833 13.3333ZM12.1667 14.5833C12.1667 12.9725 13.4725 11.6667 15.0833 11.6667C16.6942 11.6667 18 12.9725 18 14.5833C18 16.1942 16.6942 17.5 15.0833 17.5C13.4725 17.5 12.1667 16.1942 12.1667 14.5833Z" fill="#303136"/>
</svg>
