<svg width="20" height="20" viewBox="0 0 20 20" fill="none" xmlns="http://www.w3.org/2000/svg">
<path fill-rule="evenodd" clip-rule="evenodd" d="M4.16675 3.33366C3.94573 3.33366 3.73377 3.42146 3.57749 3.57774C3.42121 3.73402 3.33341 3.94598 3.33341 4.16699V15.8337C3.33341 16.0547 3.42121 16.2666 3.57749 16.4229C3.73377 16.5792 3.94573 16.667 4.16675 16.667H7.50008C7.96032 16.667 8.33342 17.0401 8.33342 17.5003C8.33342 17.9606 7.96032 18.3337 7.50008 18.3337H4.16675C3.50371 18.3337 2.86782 18.0703 2.39898 17.6014C1.93014 17.1326 1.66675 16.4967 1.66675 15.8337V4.16699C1.66675 3.50395 1.93014 2.86807 2.39898 2.39923C2.86782 1.93038 3.50371 1.66699 4.16675 1.66699H7.50008C7.96032 1.66699 8.33342 2.04009 8.33342 2.50033C8.33342 2.96056 7.96032 3.33366 7.50008 3.33366H4.16675Z" fill="#51525C"/>
<path fill-rule="evenodd" clip-rule="evenodd" d="M12.7442 5.2444C13.0696 4.91897 13.5972 4.91897 13.9227 5.2444L18.0893 9.41107C18.4148 9.73651 18.4148 10.2641 18.0893 10.5896L13.9227 14.7562C13.5972 15.0817 13.0696 15.0817 12.7442 14.7562C12.4187 14.4308 12.4187 13.9032 12.7442 13.5777L16.3216 10.0003L12.7442 6.42291C12.4187 6.09748 12.4187 5.56984 12.7442 5.2444Z" fill="#51525C"/>
<path fill-rule="evenodd" clip-rule="evenodd" d="M6.66675 10.0003C6.66675 9.54009 7.03984 9.16699 7.50008 9.16699H17.5001C17.9603 9.16699 18.3334 9.54009 18.3334 10.0003C18.3334 10.4606 17.9603 10.8337 17.5001 10.8337H7.50008C7.03984 10.8337 6.66675 10.4606 6.66675 10.0003Z" fill="#51525C"/>
</svg>
