<svg width="18" height="18" viewBox="0 0 18 18" fill="none" xmlns="http://www.w3.org/2000/svg">
<g clip-path="url(#clip0_1903_7678)">
<path fill-rule="evenodd" clip-rule="evenodd" d="M2.99997 3.75C2.58576 3.75 2.24997 4.08579 2.24997 4.5V13.5C2.24997 13.9142 2.58576 14.25 2.99997 14.25H15C15.4142 14.25 15.75 13.9142 15.75 13.5V4.5C15.75 4.08579 15.4142 3.75 15 3.75H2.99997ZM0.749973 4.5C0.749973 3.25736 1.75733 2.25 2.99997 2.25H15C16.2426 2.25 17.25 3.25736 17.25 4.5V13.5C17.25 14.7426 16.2426 15.75 15 15.75H2.99997C1.75733 15.75 0.749973 14.7426 0.749973 13.5V4.5Z" fill="#70707B"/>
<path fill-rule="evenodd" clip-rule="evenodd" d="M0.866966 4.84775C1.08912 4.49815 1.55262 4.39484 1.90222 4.61699L8.62734 8.89048C8.73915 8.9601 8.86824 8.99701 8.99997 8.99701C9.13171 8.99701 9.2608 8.9601 9.3726 8.89048L9.37428 8.88944L16.0977 4.61699C16.4473 4.39484 16.9108 4.49815 17.133 4.84775C17.3551 5.19735 17.2518 5.66085 16.9022 5.88301L10.1707 10.1606C9.81978 10.3804 9.41405 10.497 8.99997 10.497C8.58589 10.497 8.18018 10.3804 7.82928 10.1606L7.82522 10.158L1.09773 5.88301C0.748127 5.66085 0.644811 5.19735 0.866966 4.84775Z" fill="#70707B"/>
</g>
<defs>
<clipPath id="clip0_1903_7678">
<rect width="18" height="18" fill="white"/>
</clipPath>
</defs>
</svg>
