<svg width="20" height="20" viewBox="0 0 20 20" fill="none" xmlns="http://www.w3.org/2000/svg">
<path fill-rule="evenodd" clip-rule="evenodd" d="M4.16675 3.33317C3.94573 3.33317 3.73377 3.42097 3.57749 3.57725C3.42121 3.73353 3.33341 3.94549 3.33341 4.1665V15.488L5.24416 13.5772C5.40044 13.421 5.6124 13.3332 5.83341 13.3332H15.8334C16.0544 13.3332 16.2664 13.2454 16.4227 13.0891C16.579 12.9328 16.6667 12.7208 16.6667 12.4998V4.1665C16.6667 3.94549 16.579 3.73353 16.4227 3.57725C16.2664 3.42097 16.0544 3.33317 15.8334 3.33317H4.16675ZM2.39898 2.39874C2.86782 1.9299 3.50371 1.6665 4.16675 1.6665H15.8334C16.4965 1.6665 17.1323 1.9299 17.6012 2.39874C18.07 2.86758 18.3334 3.50346 18.3334 4.1665V12.4998C18.3334 13.1629 18.07 13.7988 17.6012 14.2676C17.1323 14.7364 16.4965 14.9998 15.8334 14.9998H6.17859L3.08934 18.0891C2.85101 18.3274 2.49257 18.3987 2.18118 18.2697C1.86978 18.1408 1.66675 17.8369 1.66675 17.4998V4.1665C1.66675 3.50346 1.93014 2.86758 2.39898 2.39874Z" fill="#1D57C3"/>
<path fill-rule="evenodd" clip-rule="evenodd" d="M6.66675 8.33317C6.66675 7.87293 7.03984 7.49984 7.50008 7.49984H12.5001C12.9603 7.49984 13.3334 7.87293 13.3334 8.33317C13.3334 8.79341 12.9603 9.1665 12.5001 9.1665H7.50008C7.03984 9.1665 6.66675 8.79341 6.66675 8.33317Z" fill="#1D57C3"/>
<path fill-rule="evenodd" clip-rule="evenodd" d="M10.0001 4.99984C10.4603 4.99984 10.8334 5.37293 10.8334 5.83317V10.8332C10.8334 11.2934 10.4603 11.6665 10.0001 11.6665C9.53984 11.6665 9.16675 11.2934 9.16675 10.8332V5.83317C9.16675 5.37293 9.53984 4.99984 10.0001 4.99984Z" fill="#1D57C3"/>
</svg>
