<svg width="21" height="20" viewBox="0 0 21 20" fill="none" xmlns="http://www.w3.org/2000/svg">
<path fill-rule="evenodd" clip-rule="evenodd" d="M11.0882 1.19261C11.4296 0.998527 11.8156 0.896484 12.2084 0.896484C12.6011 0.896484 12.9871 0.998527 13.3285 1.19261C13.3376 1.19775 13.3465 1.20305 13.3553 1.20852L18.6053 4.45852C18.6264 4.47156 18.6469 4.48554 18.6667 4.50041C19.1517 4.86415 19.6667 5.58969 19.6667 6.41707V11.8337C19.6667 12.2386 19.5149 12.6357 19.3321 12.9452C19.1457 13.2606 18.8685 13.5845 18.5121 13.7983L18.5029 13.8039L9.91189 18.8082C9.57046 19.0023 9.18444 19.1043 8.79171 19.1043C8.39897 19.1043 8.01298 19.0023 7.67155 18.8082C7.66252 18.8031 7.65358 18.7978 7.64474 18.7923L2.39474 15.5423C2.37368 15.5293 2.3532 15.5153 2.33337 15.5004C2.04427 15.2836 1.80689 14.9699 1.64346 14.6703C1.48311 14.3763 1.33337 13.985 1.33337 13.5837V8.08374C1.33337 7.29228 1.82137 6.49374 2.54172 6.1711L11.0882 1.19261ZM11.9149 2.63984L3.33616 7.63714C3.30087 7.6577 3.26412 7.67564 3.2262 7.69081C3.20669 7.69861 3.14467 7.73648 3.08416 7.82957C3.02545 7.91989 3.00004 8.01429 3.00004 8.08374V13.5837C3.00002 13.5835 3.00004 13.5836 3.00004 13.5837C3.00025 13.5868 3.00226 13.616 3.01971 13.6721C3.03778 13.7302 3.06691 13.7994 3.10662 13.8722C3.18255 14.0114 3.26569 14.1077 3.31482 14.1517L8.50591 17.3652C8.59361 17.4127 8.69183 17.4377 8.79171 17.4377C8.89453 17.4377 8.9956 17.4112 9.08524 17.361L17.6577 12.3673C17.7182 12.3299 17.8141 12.2378 17.8972 12.0973C17.9364 12.031 17.9644 11.9674 17.9816 11.9141C17.9996 11.8583 18 11.8314 18 11.8337V6.41707C18 6.34754 17.9745 6.23944 17.9015 6.11177C17.8363 5.99762 17.7549 5.90643 17.6891 5.85147L12.4942 2.63559C12.4065 2.58808 12.3082 2.56315 12.2084 2.56315C12.1056 2.56315 12.0045 2.58957 11.9149 2.63984Z" fill="#303136"/>
<path fill-rule="evenodd" clip-rule="evenodd" d="M1.54187 7.1445C1.78446 6.75338 2.29817 6.63298 2.68929 6.87557L9.27262 10.9589C9.51765 11.1109 9.66671 11.3787 9.66671 11.6671V18.2504C9.66671 18.7106 9.29361 19.0837 8.83337 19.0837C8.37314 19.0837 8.00004 18.7106 8.00004 18.2504V12.1308L1.81079 8.29191C1.41968 8.04932 1.29928 7.53561 1.54187 7.1445Z" fill="#303136"/>
<path fill-rule="evenodd" clip-rule="evenodd" d="M19.471 5.49907C19.7018 5.89722 19.5662 6.40713 19.168 6.63799L9.25138 12.388C8.85323 12.6188 8.34332 12.4832 8.11246 12.0851C7.8816 11.6869 8.01722 11.177 8.41537 10.9462L18.332 5.19616C18.7302 4.9653 19.2401 5.10092 19.471 5.49907Z" fill="#303136"/>
<path fill-rule="evenodd" clip-rule="evenodd" d="M12.1667 8.91708C12.6269 8.91708 13 9.29017 13 9.75041V16.5004C13 16.9606 12.6269 17.3337 12.1667 17.3337C11.7065 17.3337 11.3334 16.9606 11.3334 16.5004V9.75041C11.3334 9.29017 11.7065 8.91708 12.1667 8.91708Z" fill="#303136"/>
<path fill-rule="evenodd" clip-rule="evenodd" d="M15.5 7.00041C15.9603 7.00041 16.3334 7.3735 16.3334 7.83374V14.5837C16.3334 15.044 15.9603 15.4171 15.5 15.4171C15.0398 15.4171 14.6667 15.044 14.6667 14.5837V7.83374C14.6667 7.3735 15.0398 7.00041 15.5 7.00041Z" fill="#303136"/>
</svg>
