<svg width="19" height="18" viewBox="0 0 19 18" fill="none" xmlns="http://www.w3.org/2000/svg">
<path fill-rule="evenodd" clip-rule="evenodd" d="M3.3335 3.75C2.91928 3.75 2.5835 4.08579 2.5835 4.5V12.75C2.5835 13.1642 2.91928 13.5 3.3335 13.5H15.3335C15.7477 13.5 16.0835 13.1642 16.0835 12.75V4.5C16.0835 4.08579 15.7477 3.75 15.3335 3.75H3.3335ZM1.0835 4.5C1.0835 3.25736 2.09086 2.25 3.3335 2.25H15.3335C16.5761 2.25 17.5835 3.25736 17.5835 4.5V12.75C17.5835 13.9926 16.5761 15 15.3335 15H3.3335C2.09086 15 1.0835 13.9926 1.0835 12.75V4.5Z" fill="#2F6FE4"/>
<path fill-rule="evenodd" clip-rule="evenodd" d="M4.0835 6.75C4.0835 5.92157 4.75507 5.25 5.5835 5.25H10.0835C10.9119 5.25 11.5835 5.92157 11.5835 6.75V10.5C11.5835 11.3284 10.9119 12 10.0835 12H5.5835C4.75507 12 4.0835 11.3284 4.0835 10.5V6.75ZM10.0835 6.75H5.5835V10.5H10.0835V6.75Z" fill="#2F6FE4"/>
<path fill-rule="evenodd" clip-rule="evenodd" d="M13.8335 5.25C14.2477 5.25 14.5835 5.58579 14.5835 6V11.25C14.5835 11.6642 14.2477 12 13.8335 12C13.4193 12 13.0835 11.6642 13.0835 11.25V6C13.0835 5.58579 13.4193 5.25 13.8335 5.25Z" fill="#2F6FE4"/>
<path fill-rule="evenodd" clip-rule="evenodd" d="M4.8335 13.5C5.24771 13.5 5.5835 13.8358 5.5835 14.25V15.75C5.5835 16.1642 5.24771 16.5 4.8335 16.5C4.41928 16.5 4.0835 16.1642 4.0835 15.75V14.25C4.0835 13.8358 4.41928 13.5 4.8335 13.5Z" fill="#2F6FE4"/>
<path fill-rule="evenodd" clip-rule="evenodd" d="M13.8335 13.5C14.2477 13.5 14.5835 13.8358 14.5835 14.25V15.75C14.5835 16.1642 14.2477 16.5 13.8335 16.5C13.4193 16.5 13.0835 16.1642 13.0835 15.75V14.25C13.0835 13.8358 13.4193 13.5 13.8335 13.5Z" fill="#2F6FE4"/>
</svg>
