<svg width="20" height="20" viewBox="0 0 20 20" fill="none" xmlns="http://www.w3.org/2000/svg">
<g clip-path="url(#clip0_4274_35439)">
<path fill-rule="evenodd" clip-rule="evenodd" d="M5.83333 2.50016C5.83333 1.57969 6.57952 0.833496 7.5 0.833496H12.5C13.4205 0.833496 14.1667 1.57969 14.1667 2.50016V4.16683C14.1667 5.0873 13.4205 5.8335 12.5 5.8335H7.5C6.57952 5.8335 5.83333 5.0873 5.83333 4.16683V2.50016ZM12.5 2.50016H7.5V4.16683H12.5V2.50016Z" fill="#1D57C3"/>
<path fill-rule="evenodd" clip-rule="evenodd" d="M5 4.16683C4.77899 4.16683 4.56702 4.25463 4.41074 4.41091C4.25446 4.56719 4.16667 4.77915 4.16667 5.00016V16.6668C4.16667 16.8878 4.25446 17.0998 4.41074 17.2561C4.56702 17.4124 4.77899 17.5002 5 17.5002H15C15.221 17.5002 15.433 17.4124 15.5893 17.2561C15.7455 17.0998 15.8333 16.8878 15.8333 16.6668V5.00016C15.8333 4.77915 15.7455 4.56719 15.5893 4.41091C15.433 4.25463 15.221 4.16683 15 4.16683H13.3333C12.8731 4.16683 12.5 3.79373 12.5 3.3335C12.5 2.87326 12.8731 2.50016 13.3333 2.50016H15C15.663 2.50016 16.2989 2.76355 16.7678 3.2324C17.2366 3.70124 17.5 4.33712 17.5 5.00016V16.6668C17.5 17.3299 17.2366 17.9658 16.7678 18.4346C16.2989 18.9034 15.663 19.1668 15 19.1668H5C4.33696 19.1668 3.70107 18.9034 3.23223 18.4346C2.76339 17.9658 2.5 17.3299 2.5 16.6668V5.00016C2.5 4.33712 2.76339 3.70124 3.23223 3.2324C3.70107 2.76355 4.33696 2.50016 5 2.50016H6.66667C7.1269 2.50016 7.5 2.87326 7.5 3.3335C7.5 3.79373 7.1269 4.16683 6.66667 4.16683H5Z" fill="#1D57C3"/>
</g>
<defs>
<clipPath id="clip0_4274_35439">
<rect width="20" height="20" fill="white"/>
</clipPath>
</defs>
</svg>
