<svg width="21" height="20" viewBox="0 0 21 20" fill="none" xmlns="http://www.w3.org/2000/svg">
<path fill-rule="evenodd" clip-rule="evenodd" d="M2.16675 3.33366C2.16675 2.41318 2.91294 1.66699 3.83341 1.66699H8.00008C8.92056 1.66699 9.66675 2.41318 9.66675 3.33366V9.16699C9.66675 10.0875 8.92056 10.8337 8.00008 10.8337H3.83341C2.91294 10.8337 2.16675 10.0875 2.16675 9.16699V3.33366ZM8.00008 3.33366H3.83341V9.16699H8.00008V3.33366Z" fill="white"/>
<path fill-rule="evenodd" clip-rule="evenodd" d="M11.3334 3.33366C11.3334 2.41318 12.0796 1.66699 13.0001 1.66699H17.1667C18.0872 1.66699 18.8334 2.41318 18.8334 3.33366V5.83366C18.8334 6.75413 18.0872 7.50033 17.1667 7.50033H13.0001C12.0796 7.50033 11.3334 6.75413 11.3334 5.83366V3.33366ZM17.1667 3.33366H13.0001V5.83366H17.1667V3.33366Z" fill="white"/>
<path fill-rule="evenodd" clip-rule="evenodd" d="M11.3334 10.8337C11.3334 9.91318 12.0796 9.16699 13.0001 9.16699H17.1667C18.0872 9.16699 18.8334 9.91318 18.8334 10.8337V16.667C18.8334 17.5875 18.0872 18.3337 17.1667 18.3337H13.0001C12.0796 18.3337 11.3334 17.5875 11.3334 16.667V10.8337ZM17.1667 10.8337H13.0001V16.667H17.1667V10.8337Z" fill="white"/>
<path fill-rule="evenodd" clip-rule="evenodd" d="M2.16675 14.167C2.16675 13.2465 2.91294 12.5003 3.83341 12.5003H8.00008C8.92056 12.5003 9.66675 13.2465 9.66675 14.167V16.667C9.66675 17.5875 8.92056 18.3337 8.00008 18.3337H3.83341C2.91294 18.3337 2.16675 17.5875 2.16675 16.667V14.167ZM8.00008 14.167H3.83341V16.667H8.00008V14.167Z" fill="white"/>
</svg>
