<svg width="20" height="20" viewBox="0 0 20 20" fill="none" xmlns="http://www.w3.org/2000/svg">
<path fill-rule="evenodd" clip-rule="evenodd" d="M4.16699 3.33366C3.70675 3.33366 3.33366 3.70675 3.33366 4.16699V15.8337C3.33366 16.2939 3.70675 16.667 4.16699 16.667H15.8337C16.2939 16.667 16.667 16.2939 16.667 15.8337V4.16699C16.667 3.70675 16.2939 3.33366 15.8337 3.33366H4.16699ZM1.66699 4.16699C1.66699 2.78628 2.78628 1.66699 4.16699 1.66699H15.8337C17.2144 1.66699 18.3337 2.78628 18.3337 4.16699V15.8337C18.3337 17.2144 17.2144 18.3337 15.8337 18.3337H4.16699C2.78628 18.3337 1.66699 17.2144 1.66699 15.8337V4.16699Z" fill="#1D57C3"/>
<path fill-rule="evenodd" clip-rule="evenodd" d="M12.5003 1.66699C12.9606 1.66699 13.3337 2.04009 13.3337 2.50033V17.5003C13.3337 17.9606 12.9606 18.3337 12.5003 18.3337C12.0401 18.3337 11.667 17.9606 11.667 17.5003V2.50033C11.667 2.04009 12.0401 1.66699 12.5003 1.66699Z" fill="#1D57C3"/>
<path fill-rule="evenodd" clip-rule="evenodd" d="M8.92292 6.91107C9.24835 7.23651 9.24835 7.76414 8.92292 8.08958L7.01217 10.0003L8.92292 11.9111C9.24835 12.2365 9.24835 12.7641 8.92292 13.0896C8.59748 13.415 8.06984 13.415 7.7444 13.0896L5.2444 10.5896C4.91897 10.2641 4.91897 9.73651 5.2444 9.41107L7.7444 6.91107C8.06984 6.58563 8.59748 6.58563 8.92292 6.91107Z" fill="#1D57C3"/>
</svg>
