<svg width="20" height="20" viewBox="0 0 20 20" fill="none" xmlns="http://www.w3.org/2000/svg">
<path fill-rule="evenodd" clip-rule="evenodd" d="M1.66675 3.33464C1.66675 2.41416 2.41294 1.66797 3.33341 1.66797H16.6667C17.5872 1.66797 18.3334 2.41416 18.3334 3.33464V7.5013C18.3334 8.42178 17.5872 9.16797 16.6667 9.16797H3.33341C2.41294 9.16797 1.66675 8.42178 1.66675 7.5013V3.33464ZM16.6667 3.33464H3.33341V7.5013H16.6667V3.33464Z" fill="#1D57C3"/>
<path fill-rule="evenodd" clip-rule="evenodd" d="M1.66675 12.5013C1.66675 11.5808 2.41294 10.8346 3.33341 10.8346H7.50008C8.42056 10.8346 9.16675 11.5808 9.16675 12.5013V16.668C9.16675 17.5884 8.42056 18.3346 7.50008 18.3346H3.33341C2.41294 18.3346 1.66675 17.5884 1.66675 16.668V12.5013ZM7.50008 12.5013H3.33341V16.668H7.50008V12.5013Z" fill="#1D57C3"/>
<path fill-rule="evenodd" clip-rule="evenodd" d="M10.8334 12.5013C10.8334 11.5808 11.5796 10.8346 12.5001 10.8346H16.6667C17.5872 10.8346 18.3334 11.5808 18.3334 12.5013V16.668C18.3334 17.5884 17.5872 18.3346 16.6667 18.3346H12.5001C11.5796 18.3346 10.8334 17.5884 10.8334 16.668V12.5013ZM16.6667 12.5013H12.5001V16.668H16.6667V12.5013Z" fill="#1D57C3"/>
</svg>
