<svg width="20" height="20" viewBox="0 0 20 20" fill="none" xmlns="http://www.w3.org/2000/svg">
<g clip-path="url(#clip0_8651_35059)">
<path fill-rule="evenodd" clip-rule="evenodd" d="M1.56622 3.23242C2.03506 2.76358 2.67094 2.50019 3.33398 2.50019H9.16732C9.62755 2.50019 10.0007 2.87328 10.0007 3.33352C10.0007 3.79376 9.62755 4.16686 9.16732 4.16686H3.33398C3.11297 4.16686 2.90101 4.25465 2.74473 4.41093C2.58845 4.56721 2.50065 4.77917 2.50065 5.00019V16.6669C2.50065 16.8879 2.58845 17.0998 2.74473 17.2561C2.90101 17.4124 3.11297 17.5002 3.33398 17.5002H15.0007C15.2217 17.5002 15.4336 17.4124 15.5899 17.2561C15.7462 17.0998 15.834 16.8879 15.834 16.6669V10.8335C15.834 10.3733 16.2071 10.0002 16.6673 10.0002C17.1276 10.0002 17.5007 10.3733 17.5007 10.8335V16.6669C17.5007 17.3299 17.2373 17.9658 16.7684 18.4346C16.2996 18.9035 15.6637 19.1669 15.0007 19.1669H3.33398C2.67094 19.1669 2.03506 18.9035 1.56622 18.4346C1.09738 17.9658 0.833984 17.3299 0.833984 16.6669V5.00019C0.833984 4.33715 1.09738 3.70126 1.56622 3.23242Z" fill="#51525C"/>
<path fill-rule="evenodd" clip-rule="evenodd" d="M16.6673 2.39909C16.4195 2.39909 16.1818 2.49754 16.0066 2.67278L8.25312 10.4262L7.81262 12.1882L9.57461 11.7477L17.3281 3.99427C17.5033 3.81903 17.6018 3.58135 17.6018 3.33352C17.6018 3.0857 17.5033 2.84802 17.3281 2.67278C17.1528 2.49754 16.9151 2.39909 16.6673 2.39909ZM14.8281 1.49427C15.3159 1.00647 15.9775 0.732422 16.6673 0.732422C17.3572 0.732422 18.0188 1.00647 18.5066 1.49427C18.9944 1.98207 19.2684 2.64367 19.2684 3.33352C19.2684 4.02338 18.9944 4.68498 18.5066 5.17278L10.5899 13.0894C10.4831 13.1962 10.3493 13.272 10.2028 13.3086L6.86943 14.142C6.58545 14.213 6.28505 14.1298 6.07806 13.9228C5.87108 13.7158 5.78787 13.4154 5.85887 13.1314L6.6922 9.79808C6.72883 9.65155 6.8046 9.51773 6.9114 9.41093L14.8281 1.49427Z" fill="#51525C"/>
</g>
<defs>
<clipPath id="clip0_8651_35059">
<rect width="20" height="20" fill="white"/>
</clipPath>
</defs>
</svg>
