<svg width="18" height="18" viewBox="0 0 18 18" fill="none" xmlns="http://www.w3.org/2000/svg">
<g clip-path="url(#clip0_2766_13540)">
<path fill-rule="evenodd" clip-rule="evenodd" d="M0.75 1.5C0.75 1.08579 1.08579 0.75 1.5 0.75H9C9.19891 0.75 9.38968 0.829018 9.53033 0.96967L16.4978 7.93717C17.4957 8.93506 17.4957 10.5649 16.4978 11.5628L11.5628 16.4978C10.5649 17.4957 8.93506 17.4957 7.93717 16.4978L0.96967 9.53033C0.829018 9.38968 0.75 9.19891 0.75 9V1.5ZM2.25 2.25V8.68934L8.99783 15.4372C9.40994 15.8493 10.0901 15.8493 10.5022 15.4372L15.4372 10.5022C15.8493 10.0901 15.8493 9.40994 15.4372 8.99783L8.68934 2.25H2.25Z" fill="#51525C"/>
<path fill-rule="evenodd" clip-rule="evenodd" d="M4.5 5.25C4.5 4.83579 4.83579 4.5 5.25 4.5H5.2575C5.67171 4.5 6.0075 4.83579 6.0075 5.25C6.0075 5.66421 5.67171 6 5.2575 6H5.25C4.83579 6 4.5 5.66421 4.5 5.25Z" fill="#51525C"/>
</g>
<defs>
<clipPath id="clip0_2766_13540">
<rect width="18" height="18" fill="white"/>
</clipPath>
</defs>
</svg>
