<svg width="16" height="16" viewBox="0 0 16 16" fill="none" xmlns="http://www.w3.org/2000/svg">
<path fill-rule="evenodd" clip-rule="evenodd" d="M2.66602 5.33301C2.29783 5.33301 1.99935 5.63148 1.99935 5.99967V12.6663C1.99935 13.0345 2.29783 13.333 2.66602 13.333H13.3327C13.7009 13.333 13.9993 13.0345 13.9993 12.6663V5.99967C13.9993 5.63148 13.7009 5.33301 13.3327 5.33301H2.66602ZM0.666016 5.99967C0.666016 4.89511 1.56145 3.99967 2.66602 3.99967H13.3327C14.4373 3.99967 15.3327 4.89511 15.3327 5.99967V12.6663C15.3327 13.7709 14.4373 14.6663 13.3327 14.6663H2.66602C1.56145 14.6663 0.666016 13.7709 0.666016 12.6663V5.99967Z" fill="#A0A0AB"/>
<path fill-rule="evenodd" clip-rule="evenodd" d="M5.2518 1.91879C5.62688 1.54372 6.13558 1.33301 6.66602 1.33301H9.33268C9.86312 1.33301 10.3718 1.54372 10.7469 1.91879C11.122 2.29387 11.3327 2.80257 11.3327 3.33301V13.9997C11.3327 14.3679 11.0342 14.6663 10.666 14.6663C10.2978 14.6663 9.99935 14.3679 9.99935 13.9997V3.33301C9.99935 3.1562 9.92911 2.98663 9.80409 2.8616C9.67906 2.73658 9.50949 2.66634 9.33268 2.66634H6.66602C6.4892 2.66634 6.31964 2.73658 6.19461 2.8616C6.06959 2.98663 5.99935 3.1562 5.99935 3.33301V13.9997C5.99935 14.3679 5.70087 14.6663 5.33268 14.6663C4.96449 14.6663 4.66602 14.3679 4.66602 13.9997V3.33301C4.66602 2.80257 4.87673 2.29387 5.2518 1.91879Z" fill="#A0A0AB"/>
</svg>
