<svg width="20" height="20" viewBox="0 0 20 20" fill="none" xmlns="http://www.w3.org/2000/svg">
<path fill-rule="evenodd" clip-rule="evenodd" d="M11.9107 2.74408C12.2362 2.41864 12.7638 2.41864 13.0893 2.74408L17.2559 6.91074C17.5814 7.23618 17.5814 7.76382 17.2559 8.08925L13.0893 12.2559C12.7638 12.5814 12.2362 12.5814 11.9107 12.2559C11.5853 11.9305 11.5853 11.4028 11.9107 11.0774L15.4882 7.5L11.9107 3.92259C11.5853 3.59715 11.5853 3.06951 11.9107 2.74408Z" fill="#1D57C3"/>
<path fill-rule="evenodd" clip-rule="evenodd" d="M4.0865 8.25317C5.10233 7.23735 6.48008 6.66667 7.91667 6.66667H16.6667C17.1269 6.66667 17.5 7.03976 17.5 7.5C17.5 7.96024 17.1269 8.33333 16.6667 8.33333H7.91667C6.9221 8.33333 5.96828 8.72842 5.26502 9.43168C4.56175 10.1349 4.16667 11.0888 4.16667 12.0833C4.16667 12.5758 4.26366 13.0634 4.45212 13.5184C4.64057 13.9734 4.9168 14.3868 5.26502 14.735C5.96828 15.4382 6.9221 15.8333 7.91667 15.8333H10.8333C11.2936 15.8333 11.6667 16.2064 11.6667 16.6667C11.6667 17.1269 11.2936 17.5 10.8333 17.5H7.91667C6.48008 17.5 5.10233 16.9293 4.0865 15.9135C3.58352 15.4105 3.18453 14.8134 2.91232 14.1562C2.64011 13.499 2.5 12.7947 2.5 12.0833C2.5 10.6467 3.07068 9.26899 4.0865 8.25317Z" fill="#1D57C3"/>
</svg>
