<svg width="20" height="20" viewBox="0 0 20 20" fill="none" xmlns="http://www.w3.org/2000/svg">
<path fill-rule="evenodd" clip-rule="evenodd" d="M17.5 5C17.9603 5 18.3334 5.3731 18.3334 5.83333V10.8333C18.3334 11.2936 17.9603 11.6667 17.5 11.6667H12.5C12.0398 11.6667 11.6667 11.2936 11.6667 10.8333C11.6667 10.3731 12.0398 10 12.5 10H16.6667V5.83333C16.6667 5.3731 17.0398 5 17.5 5Z" fill="#D1D1D6"/>
<path fill-rule="evenodd" clip-rule="evenodd" d="M9.99961 7.5C8.23165 7.50011 6.53612 8.20248 5.28597 9.45262C4.03573 10.7029 3.33335 12.3986 3.33335 14.1667C3.33335 14.6269 2.96026 15 2.50002 15C2.03978 15 1.66669 14.6269 1.66669 14.1667C1.66669 11.9565 2.54466 9.83691 4.10746 8.27411C5.67027 6.71131 7.78988 5.83333 10 5.83333H10.0009C12.0517 5.83542 14.0297 6.59367 15.5564 7.96296L15.5575 7.96392L18.0575 10.2139C18.3996 10.5218 18.4273 11.0487 18.1194 11.3908C17.8116 11.7329 17.2846 11.7606 16.9426 11.4527L14.4436 9.2037C14.4434 9.20353 14.4438 9.20387 14.4436 9.2037C13.2224 8.10868 11.6399 7.50178 9.99961 7.5Z" fill="#D1D1D6"/>
</svg>
