<svg width="20" height="20" viewBox="0 0 20 20" fill="none" xmlns="http://www.w3.org/2000/svg">
<path fill-rule="evenodd" clip-rule="evenodd" d="M9.99876 3.33329C8.23122 3.33371 6.53615 4.03604 5.28628 5.28591C4.03604 6.53616 3.33366 8.23185 3.33366 9.99996C3.33366 10.4602 2.96056 10.8333 2.50033 10.8333C2.04009 10.8333 1.66699 10.4602 1.66699 9.99996C1.66699 7.78982 2.54497 5.67021 4.10777 4.1074C5.67057 2.5446 7.79019 1.66663 10.0003 1.66663H10.0035C12.3152 1.67533 14.5341 2.57737 16.1962 4.18415L16.2062 4.19404L18.0896 6.07737C18.415 6.40281 18.415 6.93045 18.0896 7.25588C17.7641 7.58132 17.2365 7.58132 16.9111 7.25588L15.0328 5.37766C13.6809 4.07317 11.8776 3.34077 9.99876 3.33329Z" fill="#D1D1D6"/>
<path fill-rule="evenodd" clip-rule="evenodd" d="M17.5003 1.66663C17.9606 1.66663 18.3337 2.03972 18.3337 2.49996V6.66663C18.3337 7.12686 17.9606 7.49996 17.5003 7.49996H13.3337C12.8734 7.49996 12.5003 7.12686 12.5003 6.66663C12.5003 6.20639 12.8734 5.83329 13.3337 5.83329H16.667V2.49996C16.667 2.03972 17.0401 1.66663 17.5003 1.66663Z" fill="#D1D1D6"/>
<path fill-rule="evenodd" clip-rule="evenodd" d="M17.5003 9.16663C17.9606 9.16663 18.3337 9.53972 18.3337 9.99996C18.3337 12.2101 17.4557 14.3297 15.8929 15.8925C14.3301 17.4553 12.2105 18.3333 10.0003 18.3333L9.99719 18.3333C7.68544 18.3246 5.46654 17.4225 3.80446 15.8158L3.7944 15.8059L1.91107 13.9225C1.58563 13.5971 1.58563 13.0695 1.91107 12.744C2.23651 12.4186 2.76414 12.4186 3.08958 12.744L4.96779 14.6222C6.31975 15.9268 8.12313 16.6592 10.002 16.6666C11.7695 16.6662 13.4645 15.9639 14.7144 14.714C15.9646 13.4638 16.667 11.7681 16.667 9.99996C16.667 9.53972 17.0401 9.16663 17.5003 9.16663Z" fill="#D1D1D6"/>
<path fill-rule="evenodd" clip-rule="evenodd" d="M1.66699 13.3333C1.66699 12.8731 2.04009 12.5 2.50033 12.5H6.66699C7.12723 12.5 7.50033 12.8731 7.50033 13.3333C7.50033 13.7935 7.12723 14.1666 6.66699 14.1666H3.33366V17.5C3.33366 17.9602 2.96056 18.3333 2.50033 18.3333C2.04009 18.3333 1.66699 17.9602 1.66699 17.5V13.3333Z" fill="#D1D1D6"/>
</svg>
