<svg width="20" height="20" viewBox="0 0 20 20" fill="none" xmlns="http://www.w3.org/2000/svg">
<path fill-rule="evenodd" clip-rule="evenodd" d="M1.66675 3.33317C1.66675 2.4127 2.41294 1.6665 3.33341 1.6665H7.50008C8.42056 1.6665 9.16675 2.4127 9.16675 3.33317V7.49984C9.16675 8.42031 8.42056 9.1665 7.50008 9.1665H3.33341C2.41294 9.1665 1.66675 8.42031 1.66675 7.49984V3.33317ZM7.50008 3.33317H3.33341V7.49984H7.50008V3.33317Z" fill="white"/>
<path fill-rule="evenodd" clip-rule="evenodd" d="M1.66675 12.4998C1.66675 11.5794 2.41294 10.8332 3.33341 10.8332H7.50008C8.42056 10.8332 9.16675 11.5794 9.16675 12.4998V16.6665C9.16675 17.587 8.42056 18.3332 7.50008 18.3332H3.33341C2.41294 18.3332 1.66675 17.587 1.66675 16.6665V12.4998ZM7.50008 12.4998H3.33341V16.6665H7.50008V12.4998Z" fill="white"/>
<path fill-rule="evenodd" clip-rule="evenodd" d="M10.8334 3.33317C10.8334 2.87293 11.2065 2.49984 11.6667 2.49984H17.5001C17.9603 2.49984 18.3334 2.87293 18.3334 3.33317C18.3334 3.79341 17.9603 4.1665 17.5001 4.1665H11.6667C11.2065 4.1665 10.8334 3.79341 10.8334 3.33317Z" fill="white"/>
<path fill-rule="evenodd" clip-rule="evenodd" d="M10.8334 7.49984C10.8334 7.0396 11.2065 6.6665 11.6667 6.6665H17.5001C17.9603 6.6665 18.3334 7.0396 18.3334 7.49984C18.3334 7.96007 17.9603 8.33317 17.5001 8.33317H11.6667C11.2065 8.33317 10.8334 7.96007 10.8334 7.49984Z" fill="white"/>
<path fill-rule="evenodd" clip-rule="evenodd" d="M10.8334 12.4998C10.8334 12.0396 11.2065 11.6665 11.6667 11.6665H17.5001C17.9603 11.6665 18.3334 12.0396 18.3334 12.4998C18.3334 12.9601 17.9603 13.3332 17.5001 13.3332H11.6667C11.2065 13.3332 10.8334 12.9601 10.8334 12.4998Z" fill="white"/>
<path fill-rule="evenodd" clip-rule="evenodd" d="M10.8334 16.6665C10.8334 16.2063 11.2065 15.8332 11.6667 15.8332H17.5001C17.9603 15.8332 18.3334 16.2063 18.3334 16.6665C18.3334 17.1267 17.9603 17.4998 17.5001 17.4998H11.6667C11.2065 17.4998 10.8334 17.1267 10.8334 16.6665Z" fill="white"/>
</svg>
