<svg width="20" height="21" viewBox="0 0 20 21" fill="none" xmlns="http://www.w3.org/2000/svg">
<path fill-rule="evenodd" clip-rule="evenodd" d="M4.16666 3.83464C3.94564 3.83464 3.73368 3.92243 3.5774 4.07871C3.42112 4.23499 3.33332 4.44695 3.33332 4.66797V16.3346C3.33332 16.5556 3.42112 16.7676 3.5774 16.9239C3.73368 17.0802 3.94564 17.168 4.16666 17.168H15.8333C16.0543 17.168 16.2663 17.0802 16.4226 16.9239C16.5789 16.7676 16.6667 16.5556 16.6667 16.3346V7.51315L12.9881 3.83464H4.16666ZM2.39889 2.9002C2.86773 2.43136 3.50362 2.16797 4.16666 2.16797H13.3333C13.5543 2.16797 13.7663 2.25577 13.9226 2.41205L18.0892 6.57871C18.2455 6.73499 18.3333 6.94696 18.3333 7.16797V16.3346C18.3333 16.9977 18.0699 17.6336 17.6011 18.1024C17.1323 18.5712 16.4964 18.8346 15.8333 18.8346H4.16666C3.50361 18.8346 2.86773 18.5712 2.39889 18.1024C1.93005 17.6336 1.66666 16.9977 1.66666 16.3346V4.66797C1.66666 4.00493 1.93005 3.36904 2.39889 2.9002Z" fill="#1D57C3"/>
<path fill-rule="evenodd" clip-rule="evenodd" d="M4.99999 11.3346C4.99999 10.8744 5.37309 10.5013 5.83332 10.5013H14.1667C14.6269 10.5013 15 10.8744 15 11.3346V18.0013C15 18.4615 14.6269 18.8346 14.1667 18.8346C13.7064 18.8346 13.3333 18.4615 13.3333 18.0013V12.168H6.66666V18.0013C6.66666 18.4615 6.29356 18.8346 5.83332 18.8346C5.37309 18.8346 4.99999 18.4615 4.99999 18.0013V11.3346Z" fill="#1D57C3"/>
<path fill-rule="evenodd" clip-rule="evenodd" d="M5.83332 2.16797C6.29356 2.16797 6.66666 2.54106 6.66666 3.0013V6.33464H12.5C12.9602 6.33464 13.3333 6.70773 13.3333 7.16797C13.3333 7.62821 12.9602 8.0013 12.5 8.0013H5.83332C5.37309 8.0013 4.99999 7.62821 4.99999 7.16797V3.0013C4.99999 2.54106 5.37309 2.16797 5.83332 2.16797Z" fill="#1D57C3"/>
</svg>
