<svg width="20" height="20" viewBox="0 0 20 20" fill="none" xmlns="http://www.w3.org/2000/svg">
<path fill-rule="evenodd" clip-rule="evenodd" d="M6.25002 6.66602C6.48014 6.66602 6.66669 6.47947 6.66669 6.24935C6.66669 6.01923 6.48014 5.83268 6.25002 5.83268C6.0199 5.83268 5.83335 6.01923 5.83335 6.24935C5.83335 6.47947 6.0199 6.66602 6.25002 6.66602ZM5.00002 6.24935C5.00002 5.55899 5.55966 4.99935 6.25002 4.99935C6.94038 4.99935 7.50002 5.55899 7.50002 6.24935C7.50002 6.9397 6.94038 7.49935 6.25002 7.49935C5.55966 7.49935 5.00002 6.9397 5.00002 6.24935Z" fill="#1D57C3"/>
<path fill-rule="evenodd" clip-rule="evenodd" d="M15.4167 4.99935C15.6468 4.99935 15.8334 4.8128 15.8334 4.58268C15.8334 4.35256 15.6468 4.16602 15.4167 4.16602C15.1866 4.16602 15 4.35256 15 4.58268C15 4.8128 15.1866 4.99935 15.4167 4.99935ZM14.1667 4.58268C14.1667 3.89233 14.7263 3.33268 15.4167 3.33268C16.107 3.33268 16.6667 3.89233 16.6667 4.58268C16.6667 5.27304 16.107 5.83268 15.4167 5.83268C14.7263 5.83268 14.1667 5.27304 14.1667 4.58268Z" fill="#1D57C3"/>
<path fill-rule="evenodd" clip-rule="evenodd" d="M9.58335 9.99935C9.81347 9.99935 10 9.8128 10 9.58268C10 9.35256 9.81347 9.16602 9.58335 9.16602C9.35323 9.16602 9.16669 9.35256 9.16669 9.58268C9.16669 9.8128 9.35323 9.99935 9.58335 9.99935ZM8.33335 9.58268C8.33335 8.89233 8.893 8.33268 9.58335 8.33268C10.2737 8.33268 10.8334 8.89233 10.8334 9.58268C10.8334 10.273 10.2737 10.8327 9.58335 10.8327C8.893 10.8327 8.33335 10.273 8.33335 9.58268Z" fill="#1D57C3"/>
<path fill-rule="evenodd" clip-rule="evenodd" d="M6.25002 14.166C6.48014 14.166 6.66669 13.9795 6.66669 13.7493C6.66669 13.5192 6.48014 13.3327 6.25002 13.3327C6.0199 13.3327 5.83335 13.5192 5.83335 13.7493C5.83335 13.9795 6.0199 14.166 6.25002 14.166ZM5.00002 13.7493C5.00002 13.059 5.55966 12.4993 6.25002 12.4993C6.94038 12.4993 7.50002 13.059 7.50002 13.7493C7.50002 14.4397 6.94038 14.9993 6.25002 14.9993C5.55966 14.9993 5.00002 14.4397 5.00002 13.7493Z" fill="#1D57C3"/>
<path fill-rule="evenodd" clip-rule="evenodd" d="M14.5834 12.4993C14.8135 12.4993 15 12.3128 15 12.0827C15 11.8526 14.8135 11.666 14.5834 11.666C14.3532 11.666 14.1667 11.8526 14.1667 12.0827C14.1667 12.3128 14.3532 12.4993 14.5834 12.4993ZM13.3334 12.0827C13.3334 11.3923 13.893 10.8327 14.5834 10.8327C15.2737 10.8327 15.8334 11.3923 15.8334 12.0827C15.8334 12.773 15.2737 13.3327 14.5834 13.3327C13.893 13.3327 13.3334 12.773 13.3334 12.0827Z" fill="#1D57C3"/>
<path fill-rule="evenodd" clip-rule="evenodd" d="M2.50002 1.66602C2.96026 1.66602 3.33335 2.03911 3.33335 2.49935V16.666H17.5C17.9603 16.666 18.3334 17.0391 18.3334 17.4993C18.3334 17.9596 17.9603 18.3327 17.5 18.3327H2.50002C2.03978 18.3327 1.66669 17.9596 1.66669 17.4993V2.49935C1.66669 2.03911 2.03978 1.66602 2.50002 1.66602Z" fill="#1D57C3"/>
</svg>
