<svg width="164" height="165" viewBox="0 0 164 165" fill="none" xmlns="http://www.w3.org/2000/svg">
<rect y="0.5" width="164" height="164" rx="82" fill="#F2F2F2"/>
<g filter="url(#filter0_i_1695_192622)">
<path d="M123.25 118.475C123.246 119.522 122.932 120.544 122.348 121.413C121.764 122.281 120.935 122.957 119.967 123.356C118.999 123.754 117.935 123.857 116.909 123.651C115.882 123.446 114.94 122.941 114.2 122.2L97 105L104.5 97.5L121.7 114.7C122.198 115.193 122.592 115.781 122.859 116.43C123.125 117.078 123.258 117.774 123.25 118.475Z" fill="url(#paint0_linear_1695_192622)"/>
</g>
<g filter="url(#filter1_i_1695_192622)">
<path d="M98.25 86.25L106.475 94.475C106.709 94.7074 106.895 94.9839 107.022 95.2886C107.149 95.5932 107.215 95.92 107.215 96.25C107.215 96.58 107.149 96.9068 107.022 97.2114C106.895 97.5161 106.709 97.7926 106.475 98.025L97.525 106.975C97.2926 107.209 97.0161 107.395 96.7114 107.522C96.4068 107.649 96.08 107.715 95.75 107.715C95.42 107.715 95.0932 107.649 94.7886 107.522C94.4839 107.395 94.2074 107.209 93.975 106.975L85.75 98.75L98.25 86.25Z" fill="url(#paint1_linear_1695_192622)"/>
</g>
<g filter="url(#filter2_i_1695_192622)">
<path d="M73.25 106.25C91.1993 106.25 105.75 91.6993 105.75 73.75C105.75 55.8007 91.1993 41.25 73.25 41.25C55.3007 41.25 40.75 55.8007 40.75 73.75C40.75 91.6993 55.3007 106.25 73.25 106.25Z" fill="url(#paint2_linear_1695_192622)"/>
</g>
<g filter="url(#filter3_i_1695_192622)">
<path d="M73.25 98.75C87.0571 98.75 98.25 87.5571 98.25 73.75C98.25 59.9429 87.0571 48.75 73.25 48.75C59.4429 48.75 48.25 59.9429 48.25 73.75C48.25 87.5571 59.4429 98.75 73.25 98.75Z" fill="url(#paint3_linear_1695_192622)"/>
</g>
<g filter="url(#filter4_i_1695_192622)">
<path d="M70.7498 78.525C70.7824 76.8771 71.2657 75.2697 72.1471 73.877C73.0285 72.4844 74.2745 71.3597 75.7498 70.625C76.6712 70.1169 77.4088 69.3312 77.8576 68.3796C78.3065 67.428 78.4437 66.3591 78.2498 65.325C78.1271 63.9989 77.4827 62.7758 76.4583 61.9249C75.4339 61.0739 74.1134 60.6648 72.7873 60.7875C71.4612 60.9101 70.2382 61.5545 69.3872 62.579C68.5363 63.6034 68.1271 64.9239 68.2498 66.25C68.2498 66.913 67.9864 67.5489 67.5176 68.0177C67.0487 68.4866 66.4128 68.75 65.7498 68.75C65.0868 68.75 64.4509 68.4866 63.982 68.0177C63.5132 67.5489 63.2498 66.913 63.2498 66.25C63.2307 63.7411 64.1554 61.3167 65.8404 59.4578C67.5255 57.5989 69.8477 56.4413 72.3464 56.2147C74.8451 55.9881 77.3377 56.7091 79.3296 58.2346C81.3216 59.7601 82.6673 61.9786 83.0998 64.45C83.482 66.5144 83.2047 68.6467 82.3073 70.5448C81.4099 72.4428 79.9378 74.0103 78.0998 75.025C77.4326 75.3443 76.8642 75.8383 76.4549 76.4545C76.0455 77.0707 75.8106 77.7861 75.7748 78.525C75.7748 79.1913 75.5101 79.8304 75.0389 80.3016C74.5677 80.7727 73.9287 81.0375 73.2623 81.0375C72.5959 81.0375 71.9569 80.7727 71.4857 80.3016C71.0145 79.8304 70.7498 79.1913 70.7498 78.525Z" fill="url(#paint4_linear_1695_192622)"/>
</g>
<g filter="url(#filter5_i_1695_192622)">
<path d="M73.25 91.25C72.7555 91.25 72.2722 91.1034 71.8611 90.8287C71.45 90.554 71.1295 90.1635 70.9403 89.7067C70.7511 89.2499 70.7016 88.7472 70.798 88.2623C70.8945 87.7773 71.1326 87.3319 71.4822 86.9822C71.8319 86.6326 72.2773 86.3945 72.7623 86.298C73.2472 86.2016 73.7499 86.2511 74.2067 86.4403C74.6635 86.6295 75.054 86.95 75.3287 87.3611C75.6034 87.7722 75.75 88.2555 75.75 88.75C75.75 89.413 75.4866 90.0489 75.0178 90.5178C74.5489 90.9866 73.913 91.25 73.25 91.25Z" fill="url(#paint5_linear_1695_192622)"/>
</g>
<g filter="url(#filter6_i_1695_192622)">
<path d="M58.25 113.75H48.25C47.587 113.75 46.9511 113.487 46.4822 113.018C46.0134 112.549 45.75 111.913 45.75 111.25C45.75 110.587 46.0134 109.951 46.4822 109.482C46.9511 109.013 47.587 108.75 48.25 108.75H58.25C58.913 108.75 59.5489 109.013 60.0178 109.482C60.4866 109.951 60.75 110.587 60.75 111.25C60.75 111.913 60.4866 112.549 60.0178 113.018C59.5489 113.487 58.913 113.75 58.25 113.75Z" fill="url(#paint6_linear_1695_192622)"/>
</g>
<g filter="url(#filter7_i_1695_192622)">
<path d="M58.25 123.75H48.25C47.587 123.75 46.9511 123.487 46.4822 123.018C46.0134 122.549 45.75 121.913 45.75 121.25C45.75 120.587 46.0134 119.951 46.4822 119.482C46.9511 119.013 47.587 118.75 48.25 118.75H58.25C58.913 118.75 59.5489 119.013 60.0178 119.482C60.4866 119.951 60.75 120.587 60.75 121.25C60.75 121.913 60.4866 122.549 60.0178 123.018C59.5489 123.487 58.913 123.75 58.25 123.75Z" fill="url(#paint7_linear_1695_192622)"/>
</g>
<defs>
<filter id="filter0_i_1695_192622" x="97" y="93.75" width="30.0005" height="30.0049" filterUnits="userSpaceOnUse" color-interpolation-filters="sRGB">
<feFlood flood-opacity="0" result="BackgroundImageFix"/>
<feBlend mode="normal" in="SourceGraphic" in2="BackgroundImageFix" result="shape"/>
<feColorMatrix in="SourceAlpha" type="matrix" values="0 0 0 0 0 0 0 0 0 0 0 0 0 0 0 0 0 0 127 0" result="hardAlpha"/>
<feOffset dx="3.75" dy="-3.75"/>
<feGaussianBlur stdDeviation="3"/>
<feComposite in2="hardAlpha" operator="arithmetic" k2="-1" k3="1"/>
<feColorMatrix type="matrix" values="0 0 0 0 0.0932688 0 0 0 0 0.153132 0 0 0 0 0.317757 0 0 0 0.5 0"/>
<feBlend mode="normal" in2="shape" result="effect1_innerShadow_1695_192622"/>
</filter>
<filter id="filter1_i_1695_192622" x="85.75" y="82.5" width="25.2144" height="25.2148" filterUnits="userSpaceOnUse" color-interpolation-filters="sRGB">
<feFlood flood-opacity="0" result="BackgroundImageFix"/>
<feBlend mode="normal" in="SourceGraphic" in2="BackgroundImageFix" result="shape"/>
<feColorMatrix in="SourceAlpha" type="matrix" values="0 0 0 0 0 0 0 0 0 0 0 0 0 0 0 0 0 0 127 0" result="hardAlpha"/>
<feOffset dx="3.75" dy="-3.75"/>
<feGaussianBlur stdDeviation="3"/>
<feComposite in2="hardAlpha" operator="arithmetic" k2="-1" k3="1"/>
<feColorMatrix type="matrix" values="0 0 0 0 0.0932688 0 0 0 0 0.153132 0 0 0 0 0.317757 0 0 0 0.5 0"/>
<feBlend mode="normal" in2="shape" result="effect1_innerShadow_1695_192622"/>
</filter>
<filter id="filter2_i_1695_192622" x="40.75" y="37.5" width="68.75" height="68.75" filterUnits="userSpaceOnUse" color-interpolation-filters="sRGB">
<feFlood flood-opacity="0" result="BackgroundImageFix"/>
<feBlend mode="normal" in="SourceGraphic" in2="BackgroundImageFix" result="shape"/>
<feColorMatrix in="SourceAlpha" type="matrix" values="0 0 0 0 0 0 0 0 0 0 0 0 0 0 0 0 0 0 127 0" result="hardAlpha"/>
<feOffset dx="3.75" dy="-3.75"/>
<feGaussianBlur stdDeviation="3"/>
<feComposite in2="hardAlpha" operator="arithmetic" k2="-1" k3="1"/>
<feColorMatrix type="matrix" values="0 0 0 0 0.0932688 0 0 0 0 0.153132 0 0 0 0 0.317757 0 0 0 0.5 0"/>
<feBlend mode="normal" in2="shape" result="effect1_innerShadow_1695_192622"/>
</filter>
<filter id="filter3_i_1695_192622" x="46.375" y="46.875" width="51.875" height="51.875" filterUnits="userSpaceOnUse" color-interpolation-filters="sRGB">
<feFlood flood-opacity="0" result="BackgroundImageFix"/>
<feBlend mode="normal" in="SourceGraphic" in2="BackgroundImageFix" result="shape"/>
<feColorMatrix in="SourceAlpha" type="matrix" values="0 0 0 0 0 0 0 0 0 0 0 0 0 0 0 0 0 0 127 0" result="hardAlpha"/>
<feOffset dx="-1.875" dy="-1.875"/>
<feGaussianBlur stdDeviation="1.875"/>
<feComposite in2="hardAlpha" operator="arithmetic" k2="-1" k3="1"/>
<feColorMatrix type="matrix" values="0 0 0 0 0.0304345 0 0 0 0 0.0345348 0 0 0 0 0.276449 0 0 0 0.28 0"/>
<feBlend mode="normal" in2="shape" result="effect1_innerShadow_1695_192622"/>
</filter>
<filter id="filter4_i_1695_192622" x="63.2495" y="52.4238" width="23.7676" height="28.6133" filterUnits="userSpaceOnUse" color-interpolation-filters="sRGB">
<feFlood flood-opacity="0" result="BackgroundImageFix"/>
<feBlend mode="normal" in="SourceGraphic" in2="BackgroundImageFix" result="shape"/>
<feColorMatrix in="SourceAlpha" type="matrix" values="0 0 0 0 0 0 0 0 0 0 0 0 0 0 0 0 0 0 127 0" result="hardAlpha"/>
<feOffset dx="3.75" dy="-3.75"/>
<feGaussianBlur stdDeviation="3"/>
<feComposite in2="hardAlpha" operator="arithmetic" k2="-1" k3="1"/>
<feColorMatrix type="matrix" values="0 0 0 0 0.0932688 0 0 0 0 0.153132 0 0 0 0 0.317757 0 0 0 0.5 0"/>
<feBlend mode="normal" in2="shape" result="effect1_innerShadow_1695_192622"/>
</filter>
<filter id="filter5_i_1695_192622" x="70.75" y="82.5" width="8.75" height="8.75" filterUnits="userSpaceOnUse" color-interpolation-filters="sRGB">
<feFlood flood-opacity="0" result="BackgroundImageFix"/>
<feBlend mode="normal" in="SourceGraphic" in2="BackgroundImageFix" result="shape"/>
<feColorMatrix in="SourceAlpha" type="matrix" values="0 0 0 0 0 0 0 0 0 0 0 0 0 0 0 0 0 0 127 0" result="hardAlpha"/>
<feOffset dx="3.75" dy="-3.75"/>
<feGaussianBlur stdDeviation="3"/>
<feComposite in2="hardAlpha" operator="arithmetic" k2="-1" k3="1"/>
<feColorMatrix type="matrix" values="0 0 0 0 0.0932688 0 0 0 0 0.153132 0 0 0 0 0.317757 0 0 0 0.5 0"/>
<feBlend mode="normal" in2="shape" result="effect1_innerShadow_1695_192622"/>
</filter>
<filter id="filter6_i_1695_192622" x="45.75" y="105" width="18.75" height="8.75" filterUnits="userSpaceOnUse" color-interpolation-filters="sRGB">
<feFlood flood-opacity="0" result="BackgroundImageFix"/>
<feBlend mode="normal" in="SourceGraphic" in2="BackgroundImageFix" result="shape"/>
<feColorMatrix in="SourceAlpha" type="matrix" values="0 0 0 0 0 0 0 0 0 0 0 0 0 0 0 0 0 0 127 0" result="hardAlpha"/>
<feOffset dx="3.75" dy="-3.75"/>
<feGaussianBlur stdDeviation="3"/>
<feComposite in2="hardAlpha" operator="arithmetic" k2="-1" k3="1"/>
<feColorMatrix type="matrix" values="0 0 0 0 0.0932688 0 0 0 0 0.153132 0 0 0 0 0.317757 0 0 0 0.5 0"/>
<feBlend mode="normal" in2="shape" result="effect1_innerShadow_1695_192622"/>
</filter>
<filter id="filter7_i_1695_192622" x="45.75" y="115" width="18.75" height="8.75" filterUnits="userSpaceOnUse" color-interpolation-filters="sRGB">
<feFlood flood-opacity="0" result="BackgroundImageFix"/>
<feBlend mode="normal" in="SourceGraphic" in2="BackgroundImageFix" result="shape"/>
<feColorMatrix in="SourceAlpha" type="matrix" values="0 0 0 0 0 0 0 0 0 0 0 0 0 0 0 0 0 0 127 0" result="hardAlpha"/>
<feOffset dx="3.75" dy="-3.75"/>
<feGaussianBlur stdDeviation="3"/>
<feComposite in2="hardAlpha" operator="arithmetic" k2="-1" k3="1"/>
<feColorMatrix type="matrix" values="0 0 0 0 0.0932688 0 0 0 0 0.153132 0 0 0 0 0.317757 0 0 0 0.5 0"/>
<feBlend mode="normal" in2="shape" result="effect1_innerShadow_1695_192622"/>
</filter>
<linearGradient id="paint0_linear_1695_192622" x1="117.401" y1="78.6296" x2="141.198" y2="115.758" gradientUnits="userSpaceOnUse">
<stop stop-color="#FBFBFB"/>
<stop offset="0.557473" stop-color="#CECECE"/>
<stop offset="1" stop-color="#999999"/>
</linearGradient>
<linearGradient id="paint1_linear_1695_192622" x1="102.432" y1="70.8225" x2="121.552" y2="102.1" gradientUnits="userSpaceOnUse">
<stop stop-color="#FBFBFB"/>
<stop offset="0.557473" stop-color="#CECECE"/>
<stop offset="1" stop-color="#999999"/>
</linearGradient>
<linearGradient id="paint2_linear_1695_192622" x1="91.2663" y1="-5.46831" x2="149.168" y2="89.247" gradientUnits="userSpaceOnUse">
<stop stop-color="#FBFBFB"/>
<stop offset="0.557473" stop-color="#CECECE"/>
<stop offset="1" stop-color="#999999"/>
</linearGradient>
<linearGradient id="paint3_linear_1695_192622" x1="48.25" y1="73.75" x2="105.69" y2="62.8091" gradientUnits="userSpaceOnUse">
<stop stop-color="#F6F6F6"/>
<stop offset="0.320133" stop-color="white"/>
<stop offset="1" stop-color="#F4F4F4"/>
</linearGradient>
<linearGradient id="paint4_linear_1695_192622" x1="78.8065" y1="38.3033" x2="102.511" y2="73.7561" gradientUnits="userSpaceOnUse">
<stop stop-color="#FBFBFB"/>
<stop offset="0.557473" stop-color="#CECECE"/>
<stop offset="1" stop-color="#999999"/>
</linearGradient>
<linearGradient id="paint5_linear_1695_192622" x1="74.6359" y1="82.6563" x2="77.8668" y2="88.2268" gradientUnits="userSpaceOnUse">
<stop stop-color="#FBFBFB"/>
<stop offset="0.557473" stop-color="#CECECE"/>
<stop offset="1" stop-color="#999999"/>
</linearGradient>
<linearGradient id="paint6_linear_1695_192622" x1="57.4076" y1="105.156" x2="58.795" y2="112.333" gradientUnits="userSpaceOnUse">
<stop stop-color="#FBFBFB"/>
<stop offset="0.557473" stop-color="#CECECE"/>
<stop offset="1" stop-color="#999999"/>
</linearGradient>
<linearGradient id="paint7_linear_1695_192622" x1="57.4076" y1="115.156" x2="58.795" y2="122.333" gradientUnits="userSpaceOnUse">
<stop stop-color="#FBFBFB"/>
<stop offset="0.557473" stop-color="#CECECE"/>
<stop offset="1" stop-color="#999999"/>
</linearGradient>
</defs>
</svg>
