<svg width="20" height="20" viewBox="0 0 20 20" fill="none" xmlns="http://www.w3.org/2000/svg">
<g clip-path="url(#clip0_10310_26711)">
<path fill-rule="evenodd" clip-rule="evenodd" d="M8.04898 1.56426C8.51783 1.09542 9.15371 0.832031 9.81675 0.832031H10.1834C10.8465 0.832031 11.4823 1.09542 11.9512 1.56426C12.42 2.0331 12.6834 2.66899 12.6834 3.33203L12.6834 3.48118C12.6834 3.48094 12.6834 3.48141 12.6834 3.48118C12.6837 3.62707 12.7223 3.77104 12.7953 3.89736C12.8684 4.02388 12.9735 4.12894 13.1001 4.20201C13.1008 4.20243 13.1015 4.20285 13.1023 4.20327L13.4584 4.41034C13.4587 4.41051 13.459 4.41068 13.4593 4.41086C13.5858 4.48366 13.7291 4.52199 13.8751 4.52199C14.0214 4.52199 14.1651 4.48348 14.2917 4.41034C14.2998 4.40567 14.308 4.40113 14.3163 4.39674L14.4303 4.33593C15.0012 4.01123 15.6771 3.92414 16.312 4.09391C16.9518 4.26499 17.4976 4.68294 17.8295 5.25602L18.0136 5.57397C18.3445 6.14764 18.4343 6.82917 18.2632 7.46897C18.0927 8.10648 17.6772 8.65063 17.1072 8.9829L16.9872 9.05494C16.9832 9.05735 16.9791 9.05972 16.9751 9.06205C16.8479 9.13548 16.7424 9.2412 16.6692 9.36851C16.5961 9.49582 16.5578 9.64021 16.5584 9.78706C16.5584 9.78816 16.5584 9.78926 16.5584 9.79036V10.207C16.5584 10.2081 16.5584 10.2092 16.5584 10.2103C16.5578 10.3572 16.5961 10.5016 16.6692 10.6289C16.7405 10.7528 16.8424 10.8563 16.9651 10.9295L17.0756 10.9884C17.0842 10.993 17.0927 10.9977 17.1011 11.0026C17.6742 11.3345 18.0921 11.8803 18.2632 12.5201C18.4339 13.1585 18.3449 13.8384 18.0158 14.4113L17.8342 14.7331C17.8327 14.7359 17.8311 14.7386 17.8295 14.7414C17.4976 15.3145 16.9518 15.7324 16.312 15.9035C15.6771 16.0733 15.0012 15.9862 14.4303 15.6615L14.3163 15.6007C14.308 15.5963 14.2998 15.5917 14.2917 15.587C14.1651 15.5139 14.0214 15.4754 13.8751 15.4754C13.7291 15.4754 13.5858 15.5137 13.4593 15.5865C13.459 15.5867 13.4587 15.5869 13.4584 15.587L13.1013 15.7947L13.1001 15.7954C12.9735 15.8685 12.8684 15.9735 12.7953 16.1C12.7223 16.2264 12.6837 16.3696 12.6834 16.5155C12.6834 16.5153 12.6834 16.5157 12.6834 16.5155V16.6654C12.6834 17.3284 12.42 17.9643 11.9512 18.4331C11.4823 18.902 10.8465 19.1654 10.1834 19.1654H9.81675C9.15371 19.1654 8.51782 18.902 8.04898 18.4331C7.58014 17.9643 7.31675 17.3284 7.31675 16.6654L7.31675 16.5162C7.31675 16.5161 7.31675 16.5164 7.31675 16.5162C7.31653 16.3702 7.27796 16.2264 7.20489 16.1C7.13176 15.9735 7.02664 15.8685 6.90008 15.7954C6.89936 15.795 6.89863 15.7945 6.8979 15.7941L6.54175 15.587C6.54146 15.5869 6.54116 15.5867 6.54086 15.5865C6.4144 15.5137 6.27102 15.4754 6.12508 15.4754C5.97881 15.4754 5.8351 15.5139 5.70842 15.587C5.70032 15.5917 5.69215 15.5963 5.68391 15.6007L5.56989 15.6615C4.999 15.9862 4.32302 16.0733 3.68815 15.9035C3.04836 15.7324 2.50259 15.3145 2.17065 14.7414L1.98657 14.4234C1.65565 13.8498 1.56588 13.1682 1.73696 12.5284C1.90743 11.8909 2.32303 11.3467 2.89298 11.0145L3.013 10.9425C3.01701 10.94 3.02104 10.9377 3.02509 10.9353C3.15226 10.8619 3.25777 10.7562 3.33094 10.6289C3.40411 10.5016 3.44234 10.3572 3.44176 10.2103C3.44175 10.2092 3.44175 10.2081 3.44175 10.207V9.78497C3.44052 9.64027 3.40162 9.49836 3.32887 9.37324C3.25577 9.24751 3.15105 9.14311 3.0251 9.07039C3.0096 9.06144 2.99439 9.052 2.9795 9.04207L2.87414 8.97183C2.31388 8.63861 1.90555 8.09944 1.73696 7.46897C1.56588 6.82917 1.65565 6.14764 1.98657 5.57397L2.17065 5.25602C2.50259 4.68294 3.04836 4.26499 3.68815 4.09391C4.32303 3.92414 4.99901 4.01123 5.56991 4.33593L5.68391 4.39674C5.69215 4.40113 5.70032 4.40567 5.70842 4.41034C5.8351 4.48348 5.9788 4.52199 6.12508 4.52199C6.27102 4.52199 6.4144 4.48366 6.54086 4.41086C6.54116 4.41069 6.54145 4.41051 6.54175 4.41034L6.8979 4.20327C6.89863 4.20285 6.89936 4.20243 6.90008 4.20201C7.02664 4.12894 7.13176 4.02388 7.20489 3.89736C7.27796 3.77095 7.31653 3.62757 7.31675 3.48158C7.31675 3.48144 7.31675 3.48171 7.31675 3.48158V3.33203C7.31675 2.66899 7.58014 2.0331 8.04898 1.56426ZM9.81675 2.4987C9.59574 2.4987 9.38378 2.58649 9.2275 2.74278C9.07121 2.89906 8.98342 3.11102 8.98342 3.33203L8.98342 3.48289C8.98297 3.92129 8.86724 4.35187 8.64784 4.73143C8.42867 5.1106 8.11375 5.42552 7.73461 5.6447C7.73421 5.64493 7.73381 5.64516 7.73342 5.64538L7.37727 5.85245C7.37654 5.85288 7.37581 5.8533 7.37508 5.85372C6.99504 6.07314 6.56393 6.18865 6.12508 6.18865C5.69139 6.18865 5.26524 6.07583 4.88848 5.86139L4.77459 5.80066C4.76644 5.79631 4.75836 5.79182 4.75035 5.78721C4.55913 5.6769 4.33195 5.64698 4.11869 5.704C3.90548 5.76101 3.72359 5.90028 3.61294 6.09123C3.61291 6.09128 3.61297 6.09118 3.61294 6.09123L3.43026 6.40676C3.43017 6.40692 3.43035 6.4066 3.43026 6.40676C3.32018 6.59788 3.29008 6.82534 3.34706 7.03843C3.40408 7.25169 3.5434 7.43361 3.73443 7.54426C3.74957 7.55303 3.76444 7.56228 3.779 7.57199L3.88391 7.64193C4.25039 7.85932 4.55538 8.16688 4.76972 8.53554C4.98901 8.91272 5.10577 9.34072 5.1084 9.777C5.10841 9.77868 5.10842 9.78035 5.10842 9.78203V10.2056C5.10984 10.6454 4.99517 11.0779 4.77597 11.4594C4.55774 11.8391 4.24361 12.1548 3.86507 12.3749L3.7455 12.4466C3.74183 12.4488 3.73814 12.451 3.73443 12.4531C3.5434 12.5638 3.40408 12.7457 3.34706 12.959C3.29008 13.172 3.3199 13.399 3.42996 13.5901C3.42986 13.5899 3.43006 13.5903 3.42996 13.5901L3.61285 13.906C3.61283 13.906 3.61288 13.9061 3.61285 13.906C3.72351 14.097 3.90548 14.2364 4.11869 14.2934C4.33195 14.3504 4.55913 14.3205 4.75035 14.2102C4.75836 14.2056 4.76644 14.2011 4.77459 14.1967L4.88848 14.136C5.26525 13.9216 5.69139 13.8087 6.12508 13.8087C6.56393 13.8087 6.99504 13.9243 7.37508 14.1437L7.37615 14.1443L7.73342 14.352C7.73384 14.3523 7.73426 14.3525 7.73468 14.3527C8.11379 14.5719 8.42869 14.8868 8.64784 15.266C8.86724 15.6455 8.98297 16.0761 8.98342 16.5145L8.98342 16.6654C8.98342 16.8864 9.07121 17.0983 9.2275 17.2546C9.38378 17.4109 9.59574 17.4987 9.81675 17.4987H10.1834C10.4044 17.4987 10.6164 17.4109 10.7727 17.2546C10.929 17.0983 11.0168 16.8864 11.0168 16.6654V16.5145C11.0172 16.0761 11.1329 15.6455 11.3523 15.266C11.5715 14.8868 11.8864 14.5719 12.2656 14.3527C12.266 14.3525 12.2664 14.3522 12.2668 14.352L12.6229 14.1449C12.6234 14.1446 12.624 14.1443 12.6245 14.144C13.0046 13.9246 13.4362 13.8087 13.8751 13.8087C14.3088 13.8087 14.7349 13.9216 15.1117 14.136L15.2256 14.1967C15.2337 14.2011 15.2418 14.2056 15.2498 14.2102C15.441 14.3205 15.6682 14.3504 15.8815 14.2934C16.0935 14.2367 16.2745 14.0987 16.3853 13.9095L16.5659 13.5893C16.5672 13.5869 16.5686 13.5846 16.5699 13.5823C16.6802 13.3911 16.7101 13.1639 16.6531 12.9506C16.5971 12.7413 16.4618 12.5621 16.2762 12.4509L16.1663 12.3923C16.158 12.3879 16.1498 12.3834 16.1418 12.3787C15.7602 12.1585 15.4437 11.8413 15.2242 11.4594C15.005 11.078 14.8904 10.6455 14.8918 10.2057V9.79168C14.8904 9.35184 15.005 8.91941 15.2242 8.53804C15.4424 8.15832 15.7566 7.84264 16.1351 7.62254L16.2547 7.55079C16.2583 7.54858 16.262 7.54641 16.2657 7.54426C16.4568 7.43361 16.5961 7.25169 16.6531 7.03843C16.7101 6.82527 16.6802 6.59821 16.5701 6.40704C16.57 6.40695 16.5701 6.40714 16.5701 6.40704L16.3873 6.09137C16.3873 6.09132 16.3873 6.09142 16.3873 6.09137C16.2767 5.90042 16.0947 5.76101 15.8815 5.704C15.6682 5.64698 15.441 5.6769 15.2498 5.78721C15.2418 5.79182 15.2337 5.79631 15.2256 5.80066L15.1117 5.8614C14.7349 6.07583 14.3088 6.18865 13.8751 6.18865C13.4362 6.18865 13.0051 6.07314 12.6251 5.85372C12.6244 5.8533 12.6236 5.85288 12.6229 5.85245L12.2668 5.64538C12.2664 5.64517 12.266 5.64496 12.2657 5.64475C11.8865 5.42557 11.5715 5.11062 11.3523 4.73143C11.1329 4.35187 11.0172 3.92129 11.0168 3.48289V3.33203C11.0168 3.11102 10.929 2.89906 10.7727 2.74278C10.6164 2.58649 10.4044 2.4987 10.1834 2.4987H9.81675Z" fill="#1D57C3"/>
<path fill-rule="evenodd" clip-rule="evenodd" d="M10.0001 8.33203C9.07961 8.33203 8.33341 9.07822 8.33341 9.9987C8.33341 10.9192 9.07961 11.6654 10.0001 11.6654C10.9206 11.6654 11.6667 10.9192 11.6667 9.9987C11.6667 9.07822 10.9206 8.33203 10.0001 8.33203ZM6.66675 9.9987C6.66675 8.15775 8.15913 6.66536 10.0001 6.66536C11.841 6.66536 13.3334 8.15775 13.3334 9.9987C13.3334 11.8396 11.841 13.332 10.0001 13.332C8.15913 13.332 6.66675 11.8396 6.66675 9.9987Z" fill="#1D57C3"/>
</g>
<defs>
<clipPath id="clip0_10310_26711">
<rect width="20" height="20" fill="white"/>
</clipPath>
</defs>
</svg>
