<svg width="20" height="20" viewBox="0 0 20 20" fill="none" xmlns="http://www.w3.org/2000/svg">
<g clip-path="url(#clip0_3938_28571)">
<path fill-rule="evenodd" clip-rule="evenodd" d="M15.0003 2.49992C14.0799 2.49992 13.3337 3.24611 13.3337 4.16658C13.3337 5.08706 14.0799 5.83325 15.0003 5.83325C15.9208 5.83325 16.667 5.08706 16.667 4.16658C16.667 3.24611 15.9208 2.49992 15.0003 2.49992ZM11.667 4.16658C11.667 2.32564 13.1594 0.833252 15.0003 0.833252C16.8413 0.833252 18.3337 2.32564 18.3337 4.16658C18.3337 6.00753 16.8413 7.49992 15.0003 7.49992C13.1594 7.49992 11.667 6.00753 11.667 4.16658Z" fill="#1D57C3"/>
<path fill-rule="evenodd" clip-rule="evenodd" d="M5.00033 8.33325C4.07985 8.33325 3.33366 9.07944 3.33366 9.99992C3.33366 10.9204 4.07985 11.6666 5.00033 11.6666C5.9208 11.6666 6.66699 10.9204 6.66699 9.99992C6.66699 9.07944 5.9208 8.33325 5.00033 8.33325ZM1.66699 9.99992C1.66699 8.15897 3.15938 6.66658 5.00033 6.66658C6.84127 6.66658 8.33366 8.15897 8.33366 9.99992C8.33366 11.8409 6.84127 13.3333 5.00033 13.3333C3.15938 13.3333 1.66699 11.8409 1.66699 9.99992Z" fill="#1D57C3"/>
<path fill-rule="evenodd" clip-rule="evenodd" d="M15.0003 14.1666C14.0799 14.1666 13.3337 14.9128 13.3337 15.8332C13.3337 16.7537 14.0799 17.4999 15.0003 17.4999C15.9208 17.4999 16.667 16.7537 16.667 15.8332C16.667 14.9128 15.9208 14.1666 15.0003 14.1666ZM11.667 15.8332C11.667 13.9923 13.1594 12.4999 15.0003 12.4999C16.8413 12.4999 18.3337 13.9923 18.3337 15.8332C18.3337 17.6742 16.8413 19.1666 15.0003 19.1666C13.1594 19.1666 11.667 17.6742 11.667 15.8332Z" fill="#1D57C3"/>
<path fill-rule="evenodd" clip-rule="evenodd" d="M6.43865 10.8387C6.67037 10.441 7.18057 10.3065 7.57822 10.5382L13.2699 13.8549C13.6675 14.0866 13.8021 14.5968 13.5703 14.9945C13.3386 15.3921 12.8284 15.5266 12.4308 15.2949L6.73909 11.9783C6.34145 11.7465 6.20693 11.2363 6.43865 10.8387Z" fill="#1D57C3"/>
<path fill-rule="evenodd" clip-rule="evenodd" d="M13.5617 5.00489C13.7937 5.4024 13.6595 5.91268 13.262 6.14466L7.57868 9.46132C7.18118 9.6933 6.67089 9.55911 6.43892 9.16161C6.20695 8.76411 6.34113 8.25382 6.73864 8.02184L12.422 4.70518C12.8195 4.47321 13.3298 4.60739 13.5617 5.00489Z" fill="#1D57C3"/>
</g>
<defs>
<clipPath id="clip0_3938_28571">
<rect width="20" height="20" fill="white"/>
</clipPath>
</defs>
</svg>
