<svg width="21" height="20" viewBox="0 0 21 20" fill="none" xmlns="http://www.w3.org/2000/svg">
<path fill-rule="evenodd" clip-rule="evenodd" d="M2.89886 2.39825C3.3677 1.92941 4.00358 1.66602 4.66663 1.66602H16.3333C16.9963 1.66602 17.6322 1.92941 18.1011 2.39825C18.5699 2.86709 18.8333 3.50297 18.8333 4.16602V15.8327C18.8333 16.4957 18.5699 17.1316 18.1011 17.6005C17.6322 18.0693 16.9963 18.3327 16.3333 18.3327H4.66663C4.00358 18.3327 3.3677 18.0693 2.89886 17.6005C2.43002 17.1316 2.16663 16.4957 2.16663 15.8327V4.16602C2.16663 3.50297 2.43002 2.86709 2.89886 2.39825ZM4.66663 3.33268C4.44561 3.33268 4.23365 3.42048 4.07737 3.57676C3.92109 3.73304 3.83329 3.945 3.83329 4.16602V6.66602H7.16663V3.33268H4.66663ZM8.83329 3.33268V6.66602H17.1666V4.16602C17.1666 3.945 17.0788 3.73304 16.9225 3.57676C16.7663 3.42048 16.5543 3.33268 16.3333 3.33268H8.83329ZM17.1666 8.33268H8.83329V16.666H16.3333C16.5543 16.666 16.7663 16.5782 16.9225 16.4219C17.0788 16.2657 17.1666 16.0537 17.1666 15.8327V8.33268ZM7.16663 16.666V8.33268H3.83329V15.8327C3.83329 16.0537 3.92109 16.2657 4.07737 16.4219C4.23365 16.5782 4.44561 16.666 4.66663 16.666H7.16663Z" fill="#1D57C3"/>
</svg>
