<svg width="42" height="43" viewBox="0 0 42 43" fill="none" xmlns="http://www.w3.org/2000/svg">
<g filter="url(#filter0_i_1038_58709)">
<path d="M24.8303 9.39118C24.7444 8.17765 23.7296 7.21655 22.4946 7.21655H19.3634C18.1284 7.21655 17.1137 8.17765 17.0278 9.39118L15.8671 10.0602L14.6793 9.39118C14.7996 6.87642 16.85 4.875 19.3618 4.875H22.4962C25.008 4.875 27.0584 6.87642 27.1787 9.39118L26.0133 10.0602L24.8303 9.39118Z" fill="url(#paint0_linear_1038_58709)"/>
<path d="M27.2274 38.125H14.7755C12.6702 38.125 10.9207 36.5109 10.7628 34.4227L9.19336 14.5999L20.9291 13.0092L32.8096 14.5999L31.2402 34.4227C31.0823 36.5109 29.3328 38.125 27.2274 38.125Z" fill="url(#paint1_linear_1038_58709)"/>
</g>
<g filter="url(#filter1_i_1038_58709)">
<path d="M34.3188 17.3559H7.68116C7.30498 17.3559 7 17.0069 7 16.5765V16.5643C7 13.6541 9.06199 9.25 11.6056 9.25H30.3944C32.9379 9.25 35 13.654 35 16.5643V16.5765C34.9999 17.007 34.6949 17.3559 34.3188 17.3559Z" fill="url(#paint2_linear_1038_58709)"/>
</g>
<g filter="url(#filter2_i_1038_58709)">
<path d="M20.9979 34.5107C20.3281 34.5107 19.7852 33.9678 19.7852 33.298V19.4257C19.7852 18.7559 20.3281 18.2129 20.9979 18.2129C21.6678 18.2129 22.2107 18.7559 22.2107 19.4257V33.298C22.2107 33.9678 21.6678 34.5107 20.9979 34.5107Z" fill="url(#paint3_linear_1038_58709)"/>
</g>
<g filter="url(#filter3_i_1038_58709)">
<path d="M26.7708 34.5109C26.7386 34.5109 26.7061 34.5096 26.6736 34.507C26.0059 34.454 25.5075 33.8698 25.5605 33.2021L26.6612 19.3298C26.7142 18.6621 27.2981 18.1637 27.9662 18.2168C28.6338 18.2698 29.1322 18.854 29.0792 19.5217L27.9785 33.394C27.928 34.029 27.397 34.5109 26.7708 34.5109Z" fill="url(#paint4_linear_1038_58709)"/>
</g>
<g filter="url(#filter4_i_1038_58709)">
<path d="M15.2264 34.511C14.6 34.511 14.069 34.0292 14.0187 33.3941L12.9179 19.5218C12.8649 18.8541 13.3633 18.2699 14.031 18.2169C14.6985 18.163 15.2829 18.6622 15.3359 19.3299L16.4366 33.2022C16.4896 33.8699 15.9912 34.4541 15.3236 34.5071C15.291 34.5098 15.2585 34.511 15.2264 34.511Z" fill="url(#paint5_linear_1038_58709)"/>
</g>
<defs>
<filter id="filter0_i_1038_58709" x="9.19336" y="3.125" width="25.3652" height="35" filterUnits="userSpaceOnUse" color-interpolation-filters="sRGB">
<feFlood flood-opacity="0" result="BackgroundImageFix"/>
<feBlend mode="normal" in="SourceGraphic" in2="BackgroundImageFix" result="shape"/>
<feColorMatrix in="SourceAlpha" type="matrix" values="0 0 0 0 0 0 0 0 0 0 0 0 0 0 0 0 0 0 127 0" result="hardAlpha"/>
<feOffset dx="1.75" dy="-1.75"/>
<feGaussianBlur stdDeviation="1.4"/>
<feComposite in2="hardAlpha" operator="arithmetic" k2="-1" k3="1"/>
<feColorMatrix type="matrix" values="0 0 0 0 0.0932688 0 0 0 0 0.153132 0 0 0 0 0.317757 0 0 0 0.5 0"/>
<feBlend mode="normal" in2="shape" result="effect1_innerShadow_1038_58709"/>
</filter>
<filter id="filter1_i_1038_58709" x="7" y="7.5" width="29.75" height="9.85547" filterUnits="userSpaceOnUse" color-interpolation-filters="sRGB">
<feFlood flood-opacity="0" result="BackgroundImageFix"/>
<feBlend mode="normal" in="SourceGraphic" in2="BackgroundImageFix" result="shape"/>
<feColorMatrix in="SourceAlpha" type="matrix" values="0 0 0 0 0 0 0 0 0 0 0 0 0 0 0 0 0 0 127 0" result="hardAlpha"/>
<feOffset dx="1.75" dy="-1.75"/>
<feGaussianBlur stdDeviation="1.4"/>
<feComposite in2="hardAlpha" operator="arithmetic" k2="-1" k3="1"/>
<feColorMatrix type="matrix" values="0 0 0 0 0.0932688 0 0 0 0 0.153132 0 0 0 0 0.317757 0 0 0 0.5 0"/>
<feBlend mode="normal" in2="shape" result="effect1_innerShadow_1038_58709"/>
</filter>
<filter id="filter2_i_1038_58709" x="18.9977" y="17.4254" width="3.21328" height="17.0854" filterUnits="userSpaceOnUse" color-interpolation-filters="sRGB">
<feFlood flood-opacity="0" result="BackgroundImageFix"/>
<feBlend mode="normal" in="SourceGraphic" in2="BackgroundImageFix" result="shape"/>
<feColorMatrix in="SourceAlpha" type="matrix" values="0 0 0 0 0 0 0 0 0 0 0 0 0 0 0 0 0 0 127 0" result="hardAlpha"/>
<feOffset dx="-0.7875" dy="-0.7875"/>
<feGaussianBlur stdDeviation="0.7875"/>
<feComposite in2="hardAlpha" operator="arithmetic" k2="-1" k3="1"/>
<feColorMatrix type="matrix" values="0 0 0 0 0.0304345 0 0 0 0 0.0345348 0 0 0 0 0.276449 0 0 0 0.28 0"/>
<feBlend mode="normal" in2="shape" result="effect1_innerShadow_1038_58709"/>
</filter>
<filter id="filter3_i_1038_58709" x="24.7691" y="17.4254" width="4.31484" height="17.0854" filterUnits="userSpaceOnUse" color-interpolation-filters="sRGB">
<feFlood flood-opacity="0" result="BackgroundImageFix"/>
<feBlend mode="normal" in="SourceGraphic" in2="BackgroundImageFix" result="shape"/>
<feColorMatrix in="SourceAlpha" type="matrix" values="0 0 0 0 0 0 0 0 0 0 0 0 0 0 0 0 0 0 127 0" result="hardAlpha"/>
<feOffset dx="-0.7875" dy="-0.7875"/>
<feGaussianBlur stdDeviation="0.7875"/>
<feComposite in2="hardAlpha" operator="arithmetic" k2="-1" k3="1"/>
<feColorMatrix type="matrix" values="0 0 0 0 0.0304345 0 0 0 0 0.0345348 0 0 0 0 0.276449 0 0 0 0.28 0"/>
<feBlend mode="normal" in2="shape" result="effect1_innerShadow_1038_58709"/>
</filter>
<filter id="filter4_i_1038_58709" x="12.1266" y="17.4254" width="4.31484" height="17.0854" filterUnits="userSpaceOnUse" color-interpolation-filters="sRGB">
<feFlood flood-opacity="0" result="BackgroundImageFix"/>
<feBlend mode="normal" in="SourceGraphic" in2="BackgroundImageFix" result="shape"/>
<feColorMatrix in="SourceAlpha" type="matrix" values="0 0 0 0 0 0 0 0 0 0 0 0 0 0 0 0 0 0 127 0" result="hardAlpha"/>
<feOffset dx="-0.7875" dy="-0.7875"/>
<feGaussianBlur stdDeviation="0.7875"/>
<feComposite in2="hardAlpha" operator="arithmetic" k2="-1" k3="1"/>
<feColorMatrix type="matrix" values="0 0 0 0 0.0304345 0 0 0 0 0.0345348 0 0 0 0 0.276449 0 0 0 0.28 0"/>
<feBlend mode="normal" in2="shape" result="effect1_innerShadow_1038_58709"/>
</filter>
<linearGradient id="paint0_linear_1038_58709" x1="22.968" y1="7.42637" x2="4.1884" y2="36.4422" gradientUnits="userSpaceOnUse">
<stop stop-color="#5586FF"/>
<stop offset="0.557473" stop-color="#4279FF"/>
<stop offset="1" stop-color="#3E29FF"/>
</linearGradient>
<linearGradient id="paint1_linear_1038_58709" x1="22.968" y1="7.42637" x2="4.1884" y2="36.4422" gradientUnits="userSpaceOnUse">
<stop stop-color="#5586FF"/>
<stop offset="0.557473" stop-color="#4279FF"/>
<stop offset="1" stop-color="#3E29FF"/>
</linearGradient>
<linearGradient id="paint2_linear_1038_58709" x1="32.375" y1="0.499947" x2="30.7908" y2="21.5412" gradientUnits="userSpaceOnUse">
<stop stop-color="#5586FF"/>
<stop offset="0.557473" stop-color="#4279FF"/>
<stop offset="1" stop-color="#3E29FF"/>
</linearGradient>
<linearGradient id="paint3_linear_1038_58709" x1="17.3394" y1="40.9704" x2="23.0954" y2="40.6375" gradientUnits="userSpaceOnUse">
<stop stop-color="#F6F6F6"/>
<stop offset="0.320133" stop-color="white"/>
<stop offset="1" stop-color="#F4F4F4"/>
</linearGradient>
<linearGradient id="paint4_linear_1038_58709" x1="22.0009" y1="40.9706" x2="30.3382" y2="40.2696" gradientUnits="userSpaceOnUse">
<stop stop-color="#F6F6F6"/>
<stop offset="0.320133" stop-color="white"/>
<stop offset="1" stop-color="#F4F4F4"/>
</linearGradient>
<linearGradient id="paint5_linear_1038_58709" x1="9.35835" y1="40.9707" x2="17.6956" y2="40.2697" gradientUnits="userSpaceOnUse">
<stop stop-color="#F6F6F6"/>
<stop offset="0.320133" stop-color="white"/>
<stop offset="1" stop-color="#F4F4F4"/>
</linearGradient>
</defs>
</svg>
