<svg width="20" height="20" viewBox="0 0 20 20" fill="none" xmlns="http://www.w3.org/2000/svg">
<path fill-rule="evenodd" clip-rule="evenodd" d="M2.50003 5C2.96026 5 3.33336 5.3731 3.33336 5.83333V10H7.50003C7.96026 10 8.33336 10.3731 8.33336 10.8333C8.33336 11.2936 7.96026 11.6667 7.50003 11.6667H2.50003C2.03979 11.6667 1.66669 11.2936 1.66669 10.8333V5.83333C1.66669 5.3731 2.03979 5 2.50003 5Z" fill="#D1D1D6"/>
<path fill-rule="evenodd" clip-rule="evenodd" d="M9.99918 5.83333L10 5.83333C12.2102 5.83333 14.3298 6.71131 15.8926 8.27411C17.4554 9.83691 18.3334 11.9565 18.3334 14.1667C18.3334 14.6269 17.9603 15 17.5 15C17.0398 15 16.6667 14.6269 16.6667 14.1667C16.6667 12.3986 15.9643 10.7029 14.7141 9.45262C13.4639 8.20248 11.7684 7.50011 10.0004 7.5C8.36018 7.50178 6.77814 8.10819 5.55695 9.20324C5.55677 9.2034 5.55712 9.20309 5.55695 9.20324L3.0575 11.4527C2.71541 11.7606 2.1885 11.7329 1.88062 11.3908C1.57273 11.0487 1.60047 10.5218 1.94256 10.2139L4.44362 7.96296C5.97034 6.59367 7.94837 5.83542 9.99918 5.83333Z" fill="#D1D1D6"/>
</svg>
