<svg width="20" height="20" viewBox="0 0 20 20" fill="none" xmlns="http://www.w3.org/2000/svg">
<g clip-path="url(#clip0_1738_54142)">
<path fill-rule="evenodd" clip-rule="evenodd" d="M2.05364 12.8874C2.83504 12.106 3.89485 11.667 4.99992 11.667H9.99992C11.105 11.667 12.1648 12.106 12.9462 12.8874C13.7276 13.6688 14.1666 14.7286 14.1666 15.8337V17.5003C14.1666 17.9606 13.7935 18.3337 13.3333 18.3337C12.873 18.3337 12.4999 17.9606 12.4999 17.5003V15.8337C12.4999 15.1706 12.2365 14.5347 11.7677 14.0659C11.2988 13.5971 10.663 13.3337 9.99992 13.3337H4.99992C4.33688 13.3337 3.70099 13.5971 3.23215 14.0659C2.76331 14.5347 2.49992 15.1706 2.49992 15.8337V17.5003C2.49992 17.9606 2.12682 18.3337 1.66659 18.3337C1.20635 18.3337 0.833252 17.9606 0.833252 17.5003V15.8337C0.833252 14.7286 1.27224 13.6688 2.05364 12.8874Z" fill="#1D57C3"/>
<path fill-rule="evenodd" clip-rule="evenodd" d="M7.49992 3.33366C6.11921 3.33366 4.99992 4.45295 4.99992 5.83366C4.99992 7.21437 6.11921 8.33366 7.49992 8.33366C8.88063 8.33366 9.99992 7.21437 9.99992 5.83366C9.99992 4.45295 8.88063 3.33366 7.49992 3.33366ZM3.33325 5.83366C3.33325 3.53247 5.19873 1.66699 7.49992 1.66699C9.8011 1.66699 11.6666 3.53247 11.6666 5.83366C11.6666 8.13485 9.8011 10.0003 7.49992 10.0003C5.19873 10.0003 3.33325 8.13485 3.33325 5.83366Z" fill="#1D57C3"/>
<path fill-rule="evenodd" clip-rule="evenodd" d="M15.0264 12.4003C15.1414 11.9547 15.596 11.6867 16.0416 11.8018C16.9355 12.0326 17.7274 12.5537 18.293 13.2834C18.8586 14.013 19.1659 14.9098 19.1666 15.833V17.5003C19.1666 17.9606 18.7935 18.3337 18.3332 18.3337C17.873 18.3337 17.4999 17.9606 17.4999 17.5003V15.8343C17.4994 15.2804 17.3151 14.7422 16.9758 14.3045C16.6364 13.8667 16.1612 13.554 15.6249 13.4155C15.1793 13.3005 14.9113 12.8459 15.0264 12.4003Z" fill="#1D57C3"/>
<path fill-rule="evenodd" clip-rule="evenodd" d="M12.526 2.40196C12.6401 1.9561 13.0941 1.68721 13.5399 1.80137C14.4362 2.03085 15.2306 2.5521 15.7979 3.28294C16.3652 4.01378 16.6731 4.91265 16.6731 5.83783C16.6731 6.763 16.3652 7.66187 15.7979 8.39271C15.2306 9.12355 14.4362 9.6448 13.5399 9.87428C13.0941 9.98844 12.6401 9.71955 12.526 9.27369C12.4118 8.82784 12.6807 8.37386 13.1266 8.2597C13.6643 8.12201 14.1409 7.80926 14.4813 7.37076C14.8217 6.93225 15.0065 6.39293 15.0065 5.83783C15.0065 5.28272 14.8217 4.7434 14.4813 4.30489C14.1409 3.86639 13.6643 3.55364 13.1266 3.41595C12.6807 3.30179 12.4118 2.84781 12.526 2.40196Z" fill="#1D57C3"/>
</g>
<defs>
<clipPath id="clip0_1738_54142">
<rect width="20" height="20" fill="white"/>
</clipPath>
</defs>
</svg>
