<svg width="20" height="20" viewBox="0 0 20 20" fill="none" xmlns="http://www.w3.org/2000/svg">
<g clip-path="url(#clip0_1738_54155)">
<path fill-rule="evenodd" clip-rule="evenodd" d="M4.16675 3.33366C3.94573 3.33366 3.73377 3.42146 3.57749 3.57774C3.42121 3.73402 3.33341 3.94598 3.33341 4.16699C3.33341 4.38801 3.42121 4.59997 3.57749 4.75625C3.73377 4.91253 3.94573 5.00033 4.16675 5.00033H15.0001V3.33366H4.16675ZM16.6667 5.00033V2.50033C16.6667 2.04009 16.2937 1.66699 15.8334 1.66699H4.16675C3.50371 1.66699 2.86782 1.93038 2.39898 2.39923C1.93014 2.86807 1.66675 3.50395 1.66675 4.16699C1.66675 4.83003 1.93014 5.46592 2.39898 5.93476C2.86782 6.4036 3.50371 6.66699 4.16675 6.66699H16.6667V10.0003C16.6667 10.4606 17.0398 10.8337 17.5001 10.8337C17.9603 10.8337 18.3334 10.4606 18.3334 10.0003V5.83366C18.3334 5.37342 17.9603 5.00033 17.5001 5.00033H16.6667Z" fill="#1D57C3"/>
<path fill-rule="evenodd" clip-rule="evenodd" d="M2.50008 3.33366C2.96032 3.33366 3.33341 3.70675 3.33341 4.16699V15.8337C3.33341 16.0547 3.42121 16.2666 3.57749 16.4229C3.73377 16.5792 3.94573 16.667 4.16675 16.667H16.6667V13.3337C16.6667 12.8734 17.0398 12.5003 17.5001 12.5003C17.9603 12.5003 18.3334 12.8734 18.3334 13.3337V17.5003C18.3334 17.9606 17.9603 18.3337 17.5001 18.3337H4.16675C3.50371 18.3337 2.86782 18.0703 2.39898 17.6014C1.93014 17.1326 1.66675 16.4967 1.66675 15.8337V4.16699C1.66675 3.70675 2.03984 3.33366 2.50008 3.33366Z" fill="#1D57C3"/>
<path fill-rule="evenodd" clip-rule="evenodd" d="M13.2323 9.89923C13.7012 9.43039 14.337 9.16699 15.0001 9.16699H18.3334C18.7936 9.16699 19.1667 9.54009 19.1667 10.0003V13.3337C19.1667 13.7939 18.7936 14.167 18.3334 14.167H15.0001C14.337 14.167 13.7012 13.9036 13.2323 13.4348C12.7635 12.9659 12.5001 12.33 12.5001 11.667C12.5001 11.004 12.7635 10.3681 13.2323 9.89923ZM15.0001 10.8337C14.7791 10.8337 14.5671 10.9215 14.4108 11.0777C14.2545 11.234 14.1667 11.446 14.1667 11.667C14.1667 11.888 14.2545 12.1 14.4108 12.2562C14.5671 12.4125 14.7791 12.5003 15.0001 12.5003H17.5001V10.8337H15.0001Z" fill="#1D57C3"/>
</g>
<defs>
<clipPath id="clip0_1738_54155">
<rect width="20" height="20" fill="white"/>
</clipPath>
</defs>
</svg>
