<svg width="36" height="36" viewBox="0 0 36 36" fill="none" xmlns="http://www.w3.org/2000/svg">
<path fill-rule="evenodd" clip-rule="evenodd" d="M23.5892 12.4107C23.9147 12.7361 23.9147 13.2638 23.5892 13.5892L13.5892 23.5892C13.2638 23.9147 12.7362 23.9147 12.4107 23.5892C12.0853 23.2638 12.0853 22.7361 12.4107 22.4107L22.4107 12.4107C22.7362 12.0853 23.2638 12.0853 23.5892 12.4107Z" fill="#51525C"/>
<path fill-rule="evenodd" clip-rule="evenodd" d="M12.4107 12.4107C12.7362 12.0853 13.2638 12.0853 13.5892 12.4107L23.5892 22.4107C23.9147 22.7361 23.9147 23.2638 23.5892 23.5892C23.2638 23.9147 22.7362 23.9147 22.4107 23.5892L12.4107 13.5892C12.0853 13.2638 12.0853 12.7361 12.4107 12.4107Z" fill="#51525C"/>
</svg>
