<svg width="42" height="42" viewBox="0 0 42 42" fill="none" xmlns="http://www.w3.org/2000/svg">
<g filter="url(#filter0_i_659_23812)">
<g filter="url(#filter1_i_659_23812)">
<path fill-rule="evenodd" clip-rule="evenodd" d="M9.05625 34.65C8.11391 34.65 7.35 33.8861 7.35 32.9438V9.05625C7.35 8.11392 8.11391 7.35 9.05625 7.35H10.7625H14.175H27.825H31.2375H32.9438C33.8861 7.35 34.65 8.11392 34.65 9.05625V32.9438C34.65 33.8861 33.8861 34.65 32.9438 34.65H9.05625ZM3.9375 32.9438C3.9375 35.7708 6.22924 38.0625 9.05625 38.0625H32.9438C35.7708 38.0625 38.0625 35.7708 38.0625 32.9438V9.05625C38.0625 6.22924 35.7708 3.9375 32.9438 3.9375H9.05625C6.22924 3.9375 3.9375 6.22924 3.9375 9.05625V32.9438Z" fill="url(#paint0_linear_659_23812)"/>
<path d="M15.8813 10.7625C15.4287 10.7625 14.9947 10.5827 14.6748 10.2627C14.3548 9.94277 14.175 9.50878 14.175 9.05625V7.35H27.825V9.05625C27.825 9.50878 27.6452 9.94276 27.3253 10.2627C27.0053 10.5827 26.5713 10.7625 26.1188 10.7625H15.8813Z" fill="url(#paint1_linear_659_23812)"/>
<path d="M14.6748 10.2627C14.9947 10.5827 15.4287 10.7625 15.8813 10.7625H26.1188C26.5713 10.7625 27.0053 10.5827 27.3253 10.2627C27.6452 9.94276 27.825 9.50878 27.825 9.05625V7.35H31.2375V9.05625C31.2375 10.4138 30.6982 11.7158 29.7383 12.6758C28.7783 13.6357 27.4763 14.175 26.1188 14.175H15.8813C14.5237 14.175 13.2217 13.6357 12.2617 12.6758C11.3018 11.7158 10.7625 10.4138 10.7625 9.05625V7.35H14.175V9.05625C14.175 9.50878 14.3548 9.94277 14.6748 10.2627Z" fill="url(#paint2_linear_659_23812)"/>
<path fill-rule="evenodd" clip-rule="evenodd" d="M9.05625 34.65C8.11391 34.65 7.35 33.8861 7.35 32.9438V9.05625C7.35 8.11392 8.11391 7.35 9.05625 7.35H10.7625V9.05625C10.7625 10.4138 11.3018 11.7158 12.2617 12.6758C13.2217 13.6357 14.5237 14.175 15.8813 14.175H26.1188C27.4763 14.175 28.7783 13.6357 29.7383 12.6758C30.6982 11.7158 31.2375 10.4138 31.2375 9.05625V7.35H32.9438C33.8861 7.35 34.65 8.11392 34.65 9.05625V32.9438C34.65 33.8861 33.8861 34.65 32.9438 34.65H9.05625ZM21 31.2375C17.2307 31.2375 14.175 28.1818 14.175 24.4125C14.175 20.6432 17.2307 17.5875 21 17.5875C24.7693 17.5875 27.825 20.6432 27.825 24.4125C27.825 28.1818 24.7693 31.2375 21 31.2375Z" fill="url(#paint3_linear_659_23812)"/>
<path fill-rule="evenodd" clip-rule="evenodd" d="M14.175 24.4125C14.175 28.1818 17.2307 31.2375 21 31.2375C24.7693 31.2375 27.825 28.1818 27.825 24.4125C27.825 20.6432 24.7693 17.5875 21 17.5875C17.2307 17.5875 14.175 20.6432 14.175 24.4125ZM17.5875 24.4125C17.5875 26.2972 19.1153 27.825 21 27.825C22.8847 27.825 24.4125 26.2972 24.4125 24.4125C24.4125 22.5278 22.8847 21 21 21C19.1153 21 17.5875 22.5278 17.5875 24.4125Z" fill="url(#paint4_linear_659_23812)"/>
<path d="M21 27.825C19.1153 27.825 17.5875 26.2972 17.5875 24.4125C17.5875 22.5278 19.1153 21 21 21C22.8847 21 24.4125 22.5278 24.4125 24.4125C24.4125 26.2972 22.8847 27.825 21 27.825Z" fill="url(#paint5_linear_659_23812)"/>
</g>
<g clip-path="url(#clip0_659_23812)">
<g filter="url(#filter2_ii_659_23812)">
<g filter="url(#filter3_i_659_23812)">
<path d="M33.8845 36.6983C33.1967 34.9228 32.1428 33.2914 30.7705 31.919C28.1792 29.3278 24.6647 27.8721 21.0002 27.8721C17.3356 27.8721 13.8211 29.3278 11.2299 31.919C9.85749 33.2914 8.80361 34.9228 8.11582 36.6983C7.95361 37.117 7.87737 37.5289 7.87522 37.9256C8.25435 38.0151 8.64977 38.0625 9.05625 38.0625H32.9438C33.3504 38.0625 33.7459 38.0151 34.1251 37.9255C34.123 37.5289 34.0467 37.117 33.8845 36.6983Z" fill="url(#paint6_linear_659_23812)"/>
</g>
<g filter="url(#filter4_i_659_23812)">
<path d="M27.8336 19.8367C27.8336 23.6108 24.7741 26.6703 21 26.6703C17.226 26.6703 14.1665 23.6108 14.1665 19.8367C14.1665 16.0627 17.226 13.0032 21 13.0032C24.7741 13.0032 27.8336 16.0627 27.8336 19.8367Z" fill="url(#paint7_linear_659_23812)"/>
</g>
</g>
</g>
</g>
<defs>
<filter id="filter0_i_659_23812" x="0" y="0" width="42" height="45.5" filterUnits="userSpaceOnUse" color-interpolation-filters="sRGB">
<feFlood flood-opacity="0" result="BackgroundImageFix"/>
<feBlend mode="normal" in="SourceGraphic" in2="BackgroundImageFix" result="shape"/>
<feColorMatrix in="SourceAlpha" type="matrix" values="0 0 0 0 0 0 0 0 0 0 0 0 0 0 0 0 0 0 127 0" result="hardAlpha"/>
<feOffset dy="3.5"/>
<feGaussianBlur stdDeviation="5.25"/>
<feComposite in2="hardAlpha" operator="arithmetic" k2="-1" k3="1"/>
<feColorMatrix type="matrix" values="0 0 0 0 0.0932688 0 0 0 0 0.153132 0 0 0 0 0.317757 0 0 0 0.1 0"/>
<feBlend mode="normal" in2="shape" result="effect1_innerShadow_659_23812"/>
</filter>
<filter id="filter1_i_659_23812" x="3.9375" y="2.625" width="35.4375" height="35.4375" filterUnits="userSpaceOnUse" color-interpolation-filters="sRGB">
<feFlood flood-opacity="0" result="BackgroundImageFix"/>
<feBlend mode="normal" in="SourceGraphic" in2="BackgroundImageFix" result="shape"/>
<feColorMatrix in="SourceAlpha" type="matrix" values="0 0 0 0 0 0 0 0 0 0 0 0 0 0 0 0 0 0 127 0" result="hardAlpha"/>
<feOffset dx="1.3125" dy="-1.3125"/>
<feGaussianBlur stdDeviation="1.05"/>
<feComposite in2="hardAlpha" operator="arithmetic" k2="-1" k3="1"/>
<feColorMatrix type="matrix" values="0 0 0 0 0.0932688 0 0 0 0 0.153132 0 0 0 0 0.317757 0 0 0 0.5 0"/>
<feBlend mode="normal" in2="shape" result="effect1_innerShadow_659_23812"/>
</filter>
<filter id="filter2_ii_659_23812" x="2.79006" y="11.8558" width="35.2724" height="29.8336" filterUnits="userSpaceOnUse" color-interpolation-filters="sRGB">
<feFlood flood-opacity="0" result="BackgroundImageFix"/>
<feBlend mode="normal" in="SourceGraphic" in2="BackgroundImageFix" result="shape"/>
<feColorMatrix in="SourceAlpha" type="matrix" values="0 0 0 0 0 0 0 0 0 0 0 0 0 0 0 0 0 0 127 0" result="hardAlpha"/>
<feOffset dx="-1.14744" dy="-1.14744"/>
<feGaussianBlur stdDeviation="1.14744"/>
<feComposite in2="hardAlpha" operator="arithmetic" k2="-1" k3="1"/>
<feColorMatrix type="matrix" values="0 0 0 0 0.0304345 0 0 0 0 0.0345348 0 0 0 0 0.276449 0 0 0 0.2 0"/>
<feBlend mode="normal" in2="shape" result="effect1_innerShadow_659_23812"/>
<feColorMatrix in="SourceAlpha" type="matrix" values="0 0 0 0 0 0 0 0 0 0 0 0 0 0 0 0 0 0 127 0" result="hardAlpha"/>
<feOffset dy="-1.14744"/>
<feGaussianBlur stdDeviation="1.72115"/>
<feComposite in2="hardAlpha" operator="arithmetic" k2="-1" k3="1"/>
<feColorMatrix type="matrix" values="0 0 0 0 0.273652 0 0 0 0 0.354653 0 0 0 0 0.494564 0 0 0 0.25 0"/>
<feBlend mode="normal" in2="effect1_innerShadow_659_23812" result="effect2_innerShadow_659_23812"/>
</filter>
<filter id="filter3_i_659_23812" x="3.28125" y="27.2158" width="34.7813" height="14.4735" filterUnits="userSpaceOnUse" color-interpolation-filters="sRGB">
<feFlood flood-opacity="0" result="BackgroundImageFix"/>
<feBlend mode="normal" in="SourceGraphic" in2="BackgroundImageFix" result="shape"/>
<feColorMatrix in="SourceAlpha" type="matrix" values="0 0 0 0 0 0 0 0 0 0 0 0 0 0 0 0 0 0 127 0" result="hardAlpha"/>
<feOffset dx="-0.65625" dy="-0.65625"/>
<feGaussianBlur stdDeviation="0.65625"/>
<feComposite in2="hardAlpha" operator="arithmetic" k2="-1" k3="1"/>
<feColorMatrix type="matrix" values="0 0 0 0 0.0304345 0 0 0 0 0.0345348 0 0 0 0 0.276449 0 0 0 0.28 0"/>
<feBlend mode="normal" in2="shape" result="effect1_innerShadow_659_23812"/>
</filter>
<filter id="filter4_i_659_23812" x="13.5103" y="12.347" width="14.3232" height="14.3233" filterUnits="userSpaceOnUse" color-interpolation-filters="sRGB">
<feFlood flood-opacity="0" result="BackgroundImageFix"/>
<feBlend mode="normal" in="SourceGraphic" in2="BackgroundImageFix" result="shape"/>
<feColorMatrix in="SourceAlpha" type="matrix" values="0 0 0 0 0 0 0 0 0 0 0 0 0 0 0 0 0 0 127 0" result="hardAlpha"/>
<feOffset dx="-0.65625" dy="-0.65625"/>
<feGaussianBlur stdDeviation="0.65625"/>
<feComposite in2="hardAlpha" operator="arithmetic" k2="-1" k3="1"/>
<feColorMatrix type="matrix" values="0 0 0 0 0.0304345 0 0 0 0 0.0345348 0 0 0 0 0.276449 0 0 0 0.28 0"/>
<feBlend mode="normal" in2="shape" result="effect1_innerShadow_659_23812"/>
</filter>
<linearGradient id="paint0_linear_659_23812" x1="23.8416" y1="45.648" x2="-7.64922" y2="-4.99931" gradientUnits="userSpaceOnUse">
<stop stop-color="#5586FF"/>
<stop offset="0.557473" stop-color="#4279FF"/>
<stop offset="1" stop-color="#3E29FF"/>
</linearGradient>
<linearGradient id="paint1_linear_659_23812" x1="23.8416" y1="45.648" x2="-7.64922" y2="-4.99931" gradientUnits="userSpaceOnUse">
<stop stop-color="#5586FF"/>
<stop offset="0.557473" stop-color="#4279FF"/>
<stop offset="1" stop-color="#3E29FF"/>
</linearGradient>
<linearGradient id="paint2_linear_659_23812" x1="23.8416" y1="45.648" x2="-7.64922" y2="-4.99931" gradientUnits="userSpaceOnUse">
<stop stop-color="#5586FF"/>
<stop offset="0.557473" stop-color="#4279FF"/>
<stop offset="1" stop-color="#3E29FF"/>
</linearGradient>
<linearGradient id="paint3_linear_659_23812" x1="23.8416" y1="45.648" x2="-7.64922" y2="-4.99931" gradientUnits="userSpaceOnUse">
<stop stop-color="#5586FF"/>
<stop offset="0.557473" stop-color="#4279FF"/>
<stop offset="1" stop-color="#3E29FF"/>
</linearGradient>
<linearGradient id="paint4_linear_659_23812" x1="23.8416" y1="45.648" x2="-7.64922" y2="-4.99931" gradientUnits="userSpaceOnUse">
<stop stop-color="#5586FF"/>
<stop offset="0.557473" stop-color="#4279FF"/>
<stop offset="1" stop-color="#3E29FF"/>
</linearGradient>
<linearGradient id="paint5_linear_659_23812" x1="23.8416" y1="45.648" x2="-7.64922" y2="-4.99931" gradientUnits="userSpaceOnUse">
<stop stop-color="#5586FF"/>
<stop offset="0.557473" stop-color="#4279FF"/>
<stop offset="1" stop-color="#3E29FF"/>
</linearGradient>
<linearGradient id="paint6_linear_659_23812" x1="3.9375" y1="34.7807" x2="37.2012" y2="19.1326" gradientUnits="userSpaceOnUse">
<stop stop-color="#F6F6F6"/>
<stop offset="0.320133" stop-color="white"/>
<stop offset="1" stop-color="#F4F4F4"/>
</linearGradient>
<linearGradient id="paint7_linear_659_23812" x1="14.1665" y1="19.8367" x2="29.8672" y2="16.8461" gradientUnits="userSpaceOnUse">
<stop stop-color="#F6F6F6"/>
<stop offset="0.320133" stop-color="white"/>
<stop offset="1" stop-color="#F4F4F4"/>
</linearGradient>
<clipPath id="clip0_659_23812">
<rect width="26.25" height="24.9375" fill="white" transform="translate(7.875 13.125)"/>
</clipPath>
</defs>
</svg>
