<svg width="20" height="20" viewBox="0 0 20 20" fill="none" xmlns="http://www.w3.org/2000/svg">
<g clip-path="url(#clip0_2074_28578)">
<path fill-rule="evenodd" clip-rule="evenodd" d="M0.833252 3.33317C0.833252 2.4127 1.57944 1.6665 2.49992 1.6665H17.4999C18.4204 1.6665 19.1666 2.4127 19.1666 3.33317V5.83317C19.1666 6.75364 18.4204 7.49984 17.4999 7.49984H2.49992C1.57944 7.49984 0.833252 6.75364 0.833252 5.83317V3.33317ZM17.4999 3.33317H2.49992V5.83317H17.4999V3.33317Z" fill="#D92D20"/>
<path fill-rule="evenodd" clip-rule="evenodd" d="M3.33325 5.83317C3.79349 5.83317 4.16658 6.20627 4.16658 6.6665V15.8332C4.16658 16.0542 4.25438 16.2661 4.41066 16.4224C4.56694 16.5787 4.7789 16.6665 4.99992 16.6665H14.9999C15.2209 16.6665 15.4329 16.5787 15.5892 16.4224C15.7455 16.2661 15.8332 16.0542 15.8332 15.8332V6.6665C15.8332 6.20627 16.2063 5.83317 16.6666 5.83317C17.1268 5.83317 17.4999 6.20627 17.4999 6.6665V15.8332C17.4999 16.4962 17.2365 17.1321 16.7677 17.6009C16.2988 18.0698 15.663 18.3332 14.9999 18.3332H4.99992C4.33688 18.3332 3.70099 18.0698 3.23215 17.6009C2.76331 17.1321 2.49992 16.4962 2.49992 15.8332V6.6665C2.49992 6.20627 2.87301 5.83317 3.33325 5.83317Z" fill="#D92D20"/>
<path fill-rule="evenodd" clip-rule="evenodd" d="M7.49992 9.99984C7.49992 9.5396 7.87301 9.1665 8.33325 9.1665H11.6666C12.1268 9.1665 12.4999 9.5396 12.4999 9.99984C12.4999 10.4601 12.1268 10.8332 11.6666 10.8332H8.33325C7.87301 10.8332 7.49992 10.4601 7.49992 9.99984Z" fill="#D92D20"/>
</g>
<defs>
<clipPath id="clip0_2074_28578">
<rect width="20" height="20" fill="white"/>
</clipPath>
</defs>
</svg>
