<svg width="20" height="20" viewBox="0 0 20 20" fill="none" xmlns="http://www.w3.org/2000/svg">
<g clip-path="url(#clip0_2067_30723)">
<path fill-rule="evenodd" clip-rule="evenodd" d="M0.833252 3.33317C0.833252 2.4127 1.57944 1.6665 2.49992 1.6665H17.4999C18.4204 1.6665 19.1666 2.4127 19.1666 3.33317V5.83317C19.1666 6.75364 18.4204 7.49984 17.4999 7.49984H2.49992C1.57944 7.49984 0.833252 6.75364 0.833252 5.83317V3.33317ZM17.4999 3.33317H2.49992V5.83317H17.4999V3.33317Z" fill="#099250"/>
<path fill-rule="evenodd" clip-rule="evenodd" d="M3.33325 5.83317C3.79349 5.83317 4.16658 6.20627 4.16658 6.6665V15.8332C4.16658 16.0542 4.25438 16.2661 4.41066 16.4224C4.56694 16.5787 4.7789 16.6665 4.99992 16.6665H6.66658C7.12682 16.6665 7.49992 17.0396 7.49992 17.4998C7.49992 17.9601 7.12682 18.3332 6.66658 18.3332H4.99992C4.33688 18.3332 3.70099 18.0698 3.23215 17.6009C2.76331 17.1321 2.49992 16.4962 2.49992 15.8332V6.6665C2.49992 6.20627 2.87301 5.83317 3.33325 5.83317Z" fill="#099250"/>
<path fill-rule="evenodd" clip-rule="evenodd" d="M16.6666 5.83317C17.1268 5.83317 17.4999 6.20627 17.4999 6.6665V15.8332C17.4999 16.4962 17.2365 17.1321 16.7677 17.6009C16.2988 18.0698 15.663 18.3332 14.9999 18.3332H13.3333C12.873 18.3332 12.4999 17.9601 12.4999 17.4998C12.4999 17.0396 12.873 16.6665 13.3333 16.6665H14.9999C15.2209 16.6665 15.4329 16.5787 15.5892 16.4224C15.7455 16.2661 15.8332 16.0542 15.8332 15.8332V6.6665C15.8332 6.20627 16.2063 5.83317 16.6666 5.83317Z" fill="#099250"/>
<path fill-rule="evenodd" clip-rule="evenodd" d="M9.41066 9.41058C9.7361 9.08514 10.2637 9.08514 10.5892 9.41058L13.0892 11.9106C13.4146 12.236 13.4146 12.7637 13.0892 13.0891C12.7637 13.4145 12.2361 13.4145 11.9107 13.0891L9.99992 11.1783L8.08917 13.0891C7.76374 13.4145 7.2361 13.4145 6.91066 13.0891C6.58523 12.7637 6.58523 12.236 6.91066 11.9106L9.41066 9.41058Z" fill="#099250"/>
<path fill-rule="evenodd" clip-rule="evenodd" d="M9.99992 9.1665C10.4602 9.1665 10.8333 9.5396 10.8333 9.99984V17.4998C10.8333 17.9601 10.4602 18.3332 9.99992 18.3332C9.53968 18.3332 9.16658 17.9601 9.16658 17.4998V9.99984C9.16658 9.5396 9.53968 9.1665 9.99992 9.1665Z" fill="#099250"/>
</g>
<defs>
<clipPath id="clip0_2067_30723">
<rect width="20" height="20" fill="white"/>
</clipPath>
</defs>
</svg>
