<svg width="16" height="16" viewBox="0 0 16 16" fill="none" xmlns="http://www.w3.org/2000/svg">
<path fill-rule="evenodd" clip-rule="evenodd" d="M10.8618 2.19526C11.1222 1.93491 11.5443 1.93491 11.8046 2.19526L14.4713 4.86193C14.7316 5.12228 14.7316 5.54439 14.4713 5.80474C14.2109 6.06509 13.7888 6.06509 13.5285 5.80474L11.3332 3.60948L9.13795 5.80474C8.8776 6.06509 8.45549 6.06509 8.19514 5.80474C7.93479 5.54439 7.93479 5.12228 8.19514 4.86193L10.8618 2.19526Z" fill="#989DC0"/>
<path fill-rule="evenodd" clip-rule="evenodd" d="M11.3332 2C11.7014 2 11.9999 2.29848 11.9999 2.66667V13.3333C11.9999 13.7015 11.7014 14 11.3332 14C10.965 14 10.6665 13.7015 10.6665 13.3333V2.66667C10.6665 2.29848 10.965 2 11.3332 2Z" fill="#989DC0"/>
<path fill-rule="evenodd" clip-rule="evenodd" d="M4.66659 2C5.03477 2 5.33325 2.29848 5.33325 2.66667V11.7239V13.3333C5.33325 13.6114 5.16299 13.8497 4.92103 13.9497C4.84263 13.9821 4.75669 14 4.66659 14C4.57642 14 4.49043 13.9821 4.41198 13.9497C4.1701 13.8496 3.99992 13.6114 3.99992 13.3333V11.7239V2.66667C3.99992 2.29848 4.2984 2 4.66659 2Z" fill="#1D57C3"/>
<path d="M7.80466 10.1953C7.54431 9.93491 7.1222 9.93491 6.86185 10.1953L5.33325 11.7239V13.3333C5.33325 13.6114 5.16299 13.8497 4.92103 13.9497C4.99994 13.9172 5.07387 13.8689 5.13799 13.8047L7.80466 11.1381C8.06501 10.8777 8.06501 10.4556 7.80466 10.1953Z" fill="#1D57C3"/>
<path d="M2.47132 10.1953C2.21097 9.93491 1.78886 9.93491 1.52851 10.1953C1.26816 10.4556 1.26816 10.8777 1.52851 11.1381L2.86185 12.4714L4.19518 13.8047C4.25926 13.8688 4.33313 13.9171 4.41198 13.9497C4.1701 13.8496 3.99992 13.6114 3.99992 13.3333V11.7239L2.47132 10.1953Z" fill="#1D57C3"/>
</svg>
