<svg width="16" height="16" viewBox="0 0 16 16" fill="none" xmlns="http://www.w3.org/2000/svg">
<path class="left_arrow" fill-rule="evenodd" clip-rule="evenodd" d="M1.52861 10.1953C1.78896 9.93491 2.21107 9.93491 2.47141 10.1953L4.66668 12.3905L6.86194 10.1953C7.12229 9.93491 7.5444 9.93491 7.80475 10.1953C8.0651 10.4556 8.0651 10.8777 7.80475 11.1381L5.13808 13.8047C4.87773 14.0651 4.45562 14.0651 4.19527 13.8047L1.52861 11.1381C1.26826 10.8777 1.26826 10.4556 1.52861 10.1953Z" fill="#CDDEFE"/>
<path class="left_arrow" fill-rule="evenodd" clip-rule="evenodd" d="M4.66668 2C5.03487 2 5.33334 2.29848 5.33334 2.66667V13.3333C5.33334 13.7015 5.03487 14 4.66668 14C4.29849 14 4.00001 13.7015 4.00001 13.3333V2.66667C4.00001 2.29848 4.29849 2 4.66668 2Z" fill="#CDDEFE"/>
<path class="right_arrow" fill-rule="evenodd" clip-rule="evenodd" d="M10.8619 2.19526C11.1223 1.93491 11.5444 1.93491 11.8047 2.19526L14.4714 4.86193C14.7318 5.12228 14.7318 5.54439 14.4714 5.80474C14.2111 6.06509 13.789 6.06509 13.5286 5.80474L11.3333 3.60948L9.13808 5.80474C8.87773 6.06509 8.45562 6.06509 8.19527 5.80474C7.93492 5.54439 7.93492 5.12228 8.19527 4.86193L10.8619 2.19526Z" fill="#CDDEFE"/>
<path class="right_arrow" fill-rule="evenodd" clip-rule="evenodd" d="M11.3333 2C11.7015 2 12 2.29848 12 2.66667V13.3333C12 13.7015 11.7015 14 11.3333 14C10.9652 14 10.6667 13.7015 10.6667 13.3333V2.66667C10.6667 2.29848 10.9652 2 11.3333 2Z" fill="#CDDEFE"/>
</svg>
