<svg width="20" height="20" viewBox="0 0 20 20" fill="none" xmlns="http://www.w3.org/2000/svg">
<path fill-rule="evenodd" clip-rule="evenodd" d="M2.50002 1.66602C2.96026 1.66602 3.33335 2.03911 3.33335 2.49935V16.666H17.5C17.9603 16.666 18.3334 17.0391 18.3334 17.4993C18.3334 17.9596 17.9603 18.3327 17.5 18.3327H2.50002C2.03978 18.3327 1.66669 17.9596 1.66669 17.4993V2.49935C1.66669 2.03911 2.03978 1.66602 2.50002 1.66602Z" fill="#1D57C3"/>
<path fill-rule="evenodd" clip-rule="evenodd" d="M10.8334 6.66602C11.2936 6.66602 11.6667 7.03911 11.6667 7.49935V14.166C11.6667 14.6263 11.2936 14.9993 10.8334 14.9993C10.3731 14.9993 10 14.6263 10 14.166V7.49935C10 7.03911 10.3731 6.66602 10.8334 6.66602Z" fill="#1D57C3"/>
<path fill-rule="evenodd" clip-rule="evenodd" d="M15 3.33268C15.4603 3.33268 15.8334 3.70578 15.8334 4.16602V14.166C15.8334 14.6263 15.4603 14.9993 15 14.9993C14.5398 14.9993 14.1667 14.6263 14.1667 14.166V4.16602C14.1667 3.70578 14.5398 3.33268 15 3.33268Z" fill="#1D57C3"/>
<path fill-rule="evenodd" clip-rule="evenodd" d="M6.66669 10.8327C7.12692 10.8327 7.50002 11.2058 7.50002 11.666V14.166C7.50002 14.6263 7.12692 14.9993 6.66669 14.9993C6.20645 14.9993 5.83335 14.6263 5.83335 14.166V11.666C5.83335 11.2058 6.20645 10.8327 6.66669 10.8327Z" fill="#1D57C3"/>
</svg>
