<svg width="20" height="20" viewBox="0 0 20 20" fill="none" xmlns="http://www.w3.org/2000/svg">
<g clip-path="url(#clip0_1738_54135)">
<path fill-rule="evenodd" clip-rule="evenodd" d="M9.9999 2.49967C8.89483 2.49967 7.83502 2.93866 7.05362 3.72006C6.27222 4.50146 5.83323 5.56127 5.83323 6.66634C5.83323 9.70579 5.18079 11.7208 4.48148 13.0029C4.41807 13.1191 4.35441 13.2291 4.291 13.333H15.7088C15.6454 13.2291 15.5817 13.1191 15.5183 13.0029C14.819 11.7208 14.1666 9.70579 14.1666 6.66634C14.1666 5.56127 13.7276 4.50146 12.9462 3.72006C12.1648 2.93866 11.105 2.49967 9.9999 2.49967ZM17.9718 13.4795C17.9712 13.4791 17.9704 13.4785 17.9694 13.4778C17.963 13.473 17.9482 13.4616 17.926 13.4431C17.8816 13.4062 17.808 13.3406 17.7142 13.2417C17.5272 13.0442 17.258 12.7117 16.9815 12.2048C16.4308 11.1952 15.8332 9.46022 15.8332 6.66634C15.8332 5.11924 15.2187 3.63551 14.1247 2.54155C13.0307 1.44759 11.547 0.833008 9.9999 0.833008C8.45281 0.833008 6.96907 1.44759 5.87511 2.54155C4.78115 3.63551 4.16657 5.11924 4.16657 6.66634C4.16657 9.46022 3.56901 11.1952 3.01832 12.2048C2.74183 12.7117 2.47259 13.0442 2.28557 13.2417C2.19184 13.3406 2.11818 13.4062 2.07384 13.4431C2.05165 13.4616 2.03677 13.473 2.03036 13.4778C2.02936 13.4785 2.02856 13.4791 2.02798 13.4795C1.72924 13.6847 1.59704 14.0601 1.70233 14.4078C1.80874 14.7593 2.13268 14.9997 2.4999 14.9997H17.4999C17.8671 14.9997 18.1911 14.7593 18.2975 14.4078C18.4028 14.0601 18.2706 13.6847 17.9718 13.4795Z" fill="#1D57C3"/>
<path fill-rule="evenodd" clip-rule="evenodd" d="M8.18175 16.7694C8.58505 16.5477 9.09174 16.6949 9.31348 17.0982C9.38106 17.2211 9.48042 17.3236 9.60117 17.395C9.72192 17.4664 9.85962 17.5041 9.9999 17.5041C10.1402 17.5041 10.2779 17.4664 10.3986 17.395C10.5194 17.3236 10.6187 17.2211 10.6863 17.0982C10.9081 16.6949 11.4148 16.5477 11.8181 16.7694C12.2214 16.9912 12.3685 17.4979 12.1468 17.9012C11.9354 18.2856 11.6247 18.6063 11.247 18.8296C10.8694 19.053 10.4387 19.1708 9.9999 19.1708C9.56115 19.1708 9.13044 19.053 8.75279 18.8296C8.37513 18.6063 8.06438 18.2856 7.85299 17.9012C7.63126 17.4979 7.77845 16.9912 8.18175 16.7694Z" fill="#1D57C3"/>
</g>
<defs>
<clipPath id="clip0_1738_54135">
<rect width="20" height="20" fill="white"/>
</clipPath>
</defs>
</svg>
