<svg width="33" height="32" viewBox="0 0 33 32" fill="none" xmlns="http://www.w3.org/2000/svg">
<g filter="url(#filter0_i_10178_158564)">
<g filter="url(#filter1_i_10178_158564)">
<path d="M12.5875 24.7608L16.7935 20.5548L14.184 17.9453L12.5875 24.7608Z" fill="url(#paint0_linear_10178_158564)"/>
</g>
<g filter="url(#filter2_i_10178_158564)">
<path d="M22.1174 27.6881L11.8507 17.4215L4.25122 14.1827C3.55465 13.8859 3.58579 12.8881 4.29954 12.6352L28.5119 4.05851C29.2405 3.86112 29.9084 4.52901 29.711 5.2576L23.7521 27.2526C23.5557 27.9777 22.6487 28.2194 22.1174 27.6881Z" fill="url(#paint1_linear_10178_158564)"/>
</g>
<g filter="url(#filter3_i_10178_158564)">
<path d="M29.4578 4.31386L29.4569 4.31291C29.4305 4.28651 29.3875 4.2867 29.3594 4.31127L11.8507 17.4227V24.4359C11.8507 24.9333 12.5483 25.0454 12.7042 24.5731L13.9671 20.7467C14.1643 20.1494 14.4963 19.6057 14.9376 19.1576L29.4595 4.41138C29.484 4.38327 29.4842 4.34026 29.4578 4.31386Z" fill="url(#paint2_linear_10178_158564)"/>
</g>
<g filter="url(#filter4_i_10178_158564)">
<path fill-rule="evenodd" clip-rule="evenodd" d="M6.71826 11.1461C6.71826 12.0427 7.44508 12.7695 8.34167 12.7695H15.9176C16.8141 12.7695 17.541 12.0427 17.541 11.1461V3.57024C17.541 2.67366 16.8141 1.94684 15.9176 1.94684H8.34167C7.44508 1.94684 6.71826 2.67366 6.71826 3.57024V11.1461Z" fill="url(#paint3_linear_10178_158564)"/>
</g>
<g filter="url(#filter5_i_10178_158564)">
<path fill-rule="evenodd" clip-rule="evenodd" d="M5.99023 10.6618C5.99023 11.5583 6.71706 12.2852 7.61364 12.2852H15.1895C16.0861 12.2852 16.8129 11.5583 16.8129 10.6618V3.08587C16.8129 2.18929 16.0861 1.46246 15.1895 1.46246H7.61364C6.71706 1.46246 5.99023 2.18929 5.99023 3.08587V10.6618Z" fill="url(#paint4_linear_10178_158564)"/>
</g>
<g filter="url(#filter6_i_10178_158564)">
<path fill-rule="evenodd" clip-rule="evenodd" d="M10.5177 4.86549C10.5177 4.6214 10.7155 4.42353 10.9596 4.42353H14.9373C15.1813 4.42353 15.3792 4.6214 15.3792 4.86549C15.3792 5.10958 15.1813 5.30745 14.9373 5.30745H10.9596C10.7155 5.30745 10.5177 5.10958 10.5177 4.86549Z" fill="url(#paint5_linear_10178_158564)"/>
<path fill-rule="evenodd" clip-rule="evenodd" d="M7.86591 9.28508C7.86591 9.04099 8.06378 8.84312 8.30787 8.84312H12.2855C12.5296 8.84312 12.7275 9.04099 12.7275 9.28508C12.7275 9.52917 12.5296 9.72704 12.2855 9.72704H8.30787C8.06378 9.72704 7.86591 9.52917 7.86591 9.28508Z" fill="url(#paint6_linear_10178_158564)"/>
<path fill-rule="evenodd" clip-rule="evenodd" d="M13.6114 8.40116C13.1232 8.40116 12.7275 8.79691 12.7275 9.28508C12.7275 9.77326 13.1232 10.169 13.6114 10.169C14.0996 10.169 14.4953 9.77326 14.4953 9.28508C14.4953 8.79691 14.0996 8.40116 13.6114 8.40116ZM11.8435 9.28508C11.8435 8.30873 12.635 7.51725 13.6114 7.51725C14.5877 7.51725 15.3792 8.30873 15.3792 9.28508C15.3792 10.2614 14.5877 11.0529 13.6114 11.0529C12.635 11.0529 11.8435 10.2614 11.8435 9.28508Z" fill="url(#paint7_linear_10178_158564)"/>
<path fill-rule="evenodd" clip-rule="evenodd" d="M9.19179 3.98157C8.70361 3.98157 8.30787 4.37732 8.30787 4.86549C8.30787 5.35367 8.70361 5.74941 9.19179 5.74941C9.67996 5.74941 10.0757 5.35367 10.0757 4.86549C10.0757 4.37732 9.67996 3.98157 9.19179 3.98157ZM7.42395 4.86549C7.42395 3.88914 8.21544 3.09766 9.19179 3.09766C10.1681 3.09766 10.9596 3.88914 10.9596 4.86549C10.9596 5.84184 10.1681 6.63333 9.19179 6.63333C8.21544 6.63333 7.42395 5.84184 7.42395 4.86549Z" fill="url(#paint8_linear_10178_158564)"/>
</g>
</g>
<defs>
<filter id="filter0_i_10178_158564" x="0.746094" y="0" width="32" height="34.6667" filterUnits="userSpaceOnUse" color-interpolation-filters="sRGB">
<feFlood flood-opacity="0" result="BackgroundImageFix"/>
<feBlend mode="normal" in="SourceGraphic" in2="BackgroundImageFix" result="shape"/>
<feColorMatrix in="SourceAlpha" type="matrix" values="0 0 0 0 0 0 0 0 0 0 0 0 0 0 0 0 0 0 127 0" result="hardAlpha"/>
<feOffset dy="2.66667"/>
<feGaussianBlur stdDeviation="4"/>
<feComposite in2="hardAlpha" operator="arithmetic" k2="-1" k3="1"/>
<feColorMatrix type="matrix" values="0 0 0 0 0.0932688 0 0 0 0 0.153132 0 0 0 0 0.317757 0 0 0 0.1 0"/>
<feBlend mode="normal" in2="shape" result="effect1_innerShadow_10178_158564"/>
</filter>
<filter id="filter1_i_10178_158564" x="12.5875" y="16.5978" width="5.55342" height="8.16389" filterUnits="userSpaceOnUse" color-interpolation-filters="sRGB">
<feFlood flood-opacity="0" result="BackgroundImageFix"/>
<feBlend mode="normal" in="SourceGraphic" in2="BackgroundImageFix" result="shape"/>
<feColorMatrix in="SourceAlpha" type="matrix" values="0 0 0 0 0 0 0 0 0 0 0 0 0 0 0 0 0 0 127 0" result="hardAlpha"/>
<feOffset dx="1.34749" dy="-1.34749"/>
<feGaussianBlur stdDeviation="1.07799"/>
<feComposite in2="hardAlpha" operator="arithmetic" k2="-1" k3="1"/>
<feColorMatrix type="matrix" values="0 0 0 0 0.0932688 0 0 0 0 0.153132 0 0 0 0 0.317757 0 0 0 0.5 0"/>
<feBlend mode="normal" in2="shape" result="effect1_innerShadow_10178_158564"/>
</filter>
<filter id="filter2_i_10178_158564" x="3.74609" y="2.67595" width="26" height="25.3006" filterUnits="userSpaceOnUse" color-interpolation-filters="sRGB">
<feFlood flood-opacity="0" result="BackgroundImageFix"/>
<feBlend mode="normal" in="SourceGraphic" in2="BackgroundImageFix" result="shape"/>
<feColorMatrix in="SourceAlpha" type="matrix" values="0 0 0 0 0 0 0 0 0 0 0 0 0 0 0 0 0 0 127 0" result="hardAlpha"/>
<feOffset dy="-1.34749"/>
<feGaussianBlur stdDeviation="1.34749"/>
<feComposite in2="hardAlpha" operator="arithmetic" k2="-1" k3="1"/>
<feColorMatrix type="matrix" values="0 0 0 0 0.0932688 0 0 0 0 0.153132 0 0 0 0 0.317757 0 0 0 0.46 0"/>
<feBlend mode="normal" in2="shape" result="effect1_innerShadow_10178_158564"/>
</filter>
<filter id="filter3_i_10178_158564" x="11.2903" y="3.79297" width="18.1875" height="21.082" filterUnits="userSpaceOnUse" color-interpolation-filters="sRGB">
<feFlood flood-opacity="0" result="BackgroundImageFix"/>
<feBlend mode="normal" in="SourceGraphic" in2="BackgroundImageFix" result="shape"/>
<feColorMatrix in="SourceAlpha" type="matrix" values="0 0 0 0 0 0 0 0 0 0 0 0 0 0 0 0 0 0 127 0" result="hardAlpha"/>
<feOffset dx="-0.560414" dy="-0.5"/>
<feGaussianBlur stdDeviation="0.7"/>
<feComposite in2="hardAlpha" operator="arithmetic" k2="-1" k3="1"/>
<feColorMatrix type="matrix" values="0 0 0 0 0.0304345 0 0 0 0 0.0345348 0 0 0 0 0.276449 0 0 0 0.21 0"/>
<feBlend mode="normal" in2="shape" result="effect1_innerShadow_10178_158564"/>
</filter>
<filter id="filter4_i_10178_158564" x="6.15785" y="1.44531" width="11.3832" height="11.3242" filterUnits="userSpaceOnUse" color-interpolation-filters="sRGB">
<feFlood flood-opacity="0" result="BackgroundImageFix"/>
<feBlend mode="normal" in="SourceGraphic" in2="BackgroundImageFix" result="shape"/>
<feColorMatrix in="SourceAlpha" type="matrix" values="0 0 0 0 0 0 0 0 0 0 0 0 0 0 0 0 0 0 127 0" result="hardAlpha"/>
<feOffset dx="-0.560414" dy="-0.5"/>
<feGaussianBlur stdDeviation="0.7"/>
<feComposite in2="hardAlpha" operator="arithmetic" k2="-1" k3="1"/>
<feColorMatrix type="matrix" values="0 0 0 0 0.0304345 0 0 0 0 0.0345348 0 0 0 0 0.276449 0 0 0 0.21 0"/>
<feBlend mode="normal" in2="shape" result="effect1_innerShadow_10178_158564"/>
</filter>
<filter id="filter5_i_10178_158564" x="5.99023" y="0.294271" width="11.9894" height="11.9909" filterUnits="userSpaceOnUse" color-interpolation-filters="sRGB">
<feFlood flood-opacity="0" result="BackgroundImageFix"/>
<feBlend mode="normal" in="SourceGraphic" in2="BackgroundImageFix" result="shape"/>
<feColorMatrix in="SourceAlpha" type="matrix" values="0 0 0 0 0 0 0 0 0 0 0 0 0 0 0 0 0 0 127 0" result="hardAlpha"/>
<feOffset dx="1.16667" dy="-1.16667"/>
<feGaussianBlur stdDeviation="0.933333"/>
<feComposite in2="hardAlpha" operator="arithmetic" k2="-1" k3="1"/>
<feColorMatrix type="matrix" values="0 0 0 0 0.0932688 0 0 0 0 0.153132 0 0 0 0 0.317757 0 0 0 0.5 0"/>
<feBlend mode="normal" in2="shape" result="effect1_innerShadow_10178_158564"/>
</filter>
<filter id="filter6_i_10178_158564" x="7.15414" y="2.82785" width="8.22501" height="8.22684" filterUnits="userSpaceOnUse" color-interpolation-filters="sRGB">
<feFlood flood-opacity="0" result="BackgroundImageFix"/>
<feBlend mode="normal" in="SourceGraphic" in2="BackgroundImageFix" result="shape"/>
<feColorMatrix in="SourceAlpha" type="matrix" values="0 0 0 0 0 0 0 0 0 0 0 0 0 0 0 0 0 0 127 0" result="hardAlpha"/>
<feOffset dx="-0.269805" dy="-0.269805"/>
<feGaussianBlur stdDeviation="0.269805"/>
<feComposite in2="hardAlpha" operator="arithmetic" k2="-1" k3="1"/>
<feColorMatrix type="matrix" values="0 0 0 0 0.0304345 0 0 0 0 0.0345348 0 0 0 0 0.276449 0 0 0 0.28 0"/>
<feBlend mode="normal" in2="shape" result="effect1_innerShadow_10178_158564"/>
</filter>
<linearGradient id="paint0_linear_10178_158564" x1="23.9584" y1="12.769" x2="11.6374" y2="16.8315" gradientUnits="userSpaceOnUse">
<stop stop-color="#5586FF"/>
<stop offset="0.557473" stop-color="#4279FF"/>
<stop offset="1" stop-color="#3E29FF"/>
</linearGradient>
<linearGradient id="paint1_linear_10178_158564" x1="20.5897" y1="10.0724" x2="22.6265" y2="40.48" gradientUnits="userSpaceOnUse">
<stop stop-color="#5586FF"/>
<stop offset="0.557473" stop-color="#4279FF"/>
<stop offset="1" stop-color="#3E29FF"/>
</linearGradient>
<linearGradient id="paint2_linear_10178_158564" x1="11.8507" y1="14.5571" x2="36.658" y2="14.311" gradientUnits="userSpaceOnUse">
<stop stop-color="#F6F6F6"/>
<stop offset="0.320133" stop-color="white"/>
<stop offset="1" stop-color="#F4F4F4"/>
</linearGradient>
<linearGradient id="paint3_linear_10178_158564" x1="6.71826" y1="7.3721" x2="21.949" y2="7.5485" gradientUnits="userSpaceOnUse">
<stop stop-color="#F6F6F6"/>
<stop offset="0.320133" stop-color="white"/>
<stop offset="1" stop-color="#F4F4F4"/>
</linearGradient>
<linearGradient id="paint4_linear_10178_158564" x1="11.4016" y1="-5.82081" x2="14.03" y2="17.6147" gradientUnits="userSpaceOnUse">
<stop stop-color="#5586FF"/>
<stop offset="0.522277" stop-color="#4279FF"/>
<stop offset="1" stop-color="#3E29FF"/>
</linearGradient>
<linearGradient id="paint5_linear_10178_158564" x1="7.42395" y1="7.07529" x2="16.5629" y2="5.33453" gradientUnits="userSpaceOnUse">
<stop stop-color="#F6F6F6"/>
<stop offset="0.320133" stop-color="white"/>
<stop offset="1" stop-color="#F4F4F4"/>
</linearGradient>
<linearGradient id="paint6_linear_10178_158564" x1="7.42395" y1="7.07529" x2="16.5629" y2="5.33453" gradientUnits="userSpaceOnUse">
<stop stop-color="#F6F6F6"/>
<stop offset="0.320133" stop-color="white"/>
<stop offset="1" stop-color="#F4F4F4"/>
</linearGradient>
<linearGradient id="paint7_linear_10178_158564" x1="7.42395" y1="7.07529" x2="16.5629" y2="5.33453" gradientUnits="userSpaceOnUse">
<stop stop-color="#F6F6F6"/>
<stop offset="0.320133" stop-color="white"/>
<stop offset="1" stop-color="#F4F4F4"/>
</linearGradient>
<linearGradient id="paint8_linear_10178_158564" x1="7.42395" y1="7.07529" x2="16.5629" y2="5.33453" gradientUnits="userSpaceOnUse">
<stop stop-color="#F6F6F6"/>
<stop offset="0.320133" stop-color="white"/>
<stop offset="1" stop-color="#F4F4F4"/>
</linearGradient>
</defs>
</svg>
