<svg width="20" height="20" viewBox="0 0 20 20" fill="none" xmlns="http://www.w3.org/2000/svg">
<g clip-path="url(#clip0_1738_54160)">
<path fill-rule="evenodd" clip-rule="evenodd" d="M0.833252 2.50033C0.833252 2.04009 1.20635 1.66699 1.66659 1.66699H6.66658C7.77165 1.66699 8.83146 2.10598 9.61286 2.88738C10.3943 3.66878 10.8333 4.72859 10.8333 5.83366V17.5003C10.8333 17.9606 10.4602 18.3337 9.99992 18.3337C9.53968 18.3337 9.16658 17.9606 9.16658 17.5003C9.16658 17.0583 8.99099 16.6344 8.67843 16.3218C8.36587 16.0093 7.94195 15.8337 7.49992 15.8337H1.66659C1.20635 15.8337 0.833252 15.4606 0.833252 15.0003V2.50033ZM9.16658 14.6136V5.83366C9.16658 5.17062 8.90319 4.53473 8.43435 4.06589C7.96551 3.59705 7.32963 3.33366 6.66658 3.33366H2.49992V14.167H7.49992C8.09011 14.167 8.66416 14.3235 9.16658 14.6136Z" fill="#1D57C3"/>
<path fill-rule="evenodd" clip-rule="evenodd" d="M10.387 2.88738C11.1684 2.10598 12.2282 1.66699 13.3333 1.66699H18.3332C18.7935 1.66699 19.1666 2.04009 19.1666 2.50033V15.0003C19.1666 15.4606 18.7935 15.8337 18.3332 15.8337H12.4999C12.0579 15.8337 11.634 16.0093 11.3214 16.3218C11.0088 16.6344 10.8333 17.0583 10.8333 17.5003C10.8333 17.9606 10.4602 18.3337 9.99992 18.3337C9.53968 18.3337 9.16658 17.9606 9.16658 17.5003V5.83366C9.16658 4.72859 9.60557 3.66878 10.387 2.88738ZM10.8333 14.6136C11.3357 14.3235 11.9097 14.167 12.4999 14.167H17.4999V3.33366H13.3333C12.6702 3.33366 12.0343 3.59705 11.5655 4.06589C11.0966 4.53473 10.8333 5.17062 10.8333 5.83366V14.6136Z" fill="#1D57C3"/>
</g>
<defs>
<clipPath id="clip0_1738_54160">
<rect width="20" height="20" fill="white"/>
</clipPath>
</defs>
</svg>
