<svg width="20" height="20" viewBox="0 0 20 20" fill="none" xmlns="http://www.w3.org/2000/svg">
<path fill-rule="evenodd" clip-rule="evenodd" d="M18.9224 2.74391C19.2479 3.06935 19.2479 3.59699 18.9224 3.92243L10.5891 12.2558C10.2637 12.5812 9.73602 12.5812 9.41058 12.2558L6.91058 9.75576C6.58514 9.43032 6.58514 8.90269 6.91058 8.57725C7.23602 8.25181 7.76366 8.25181 8.08909 8.57725L9.99984 10.488L17.7439 2.74391C18.0694 2.41848 18.597 2.41848 18.9224 2.74391Z" fill="#1D57C3"/>
<path fill-rule="evenodd" clip-rule="evenodd" d="M4.1665 3.33317C3.94549 3.33317 3.73353 3.42097 3.57725 3.57725C3.42097 3.73353 3.33317 3.94549 3.33317 4.1665V15.8332C3.33317 16.0542 3.42097 16.2661 3.57725 16.4224C3.73353 16.5787 3.94549 16.6665 4.1665 16.6665H15.8332C16.0542 16.6665 16.2661 16.5787 16.4224 16.4224C16.5787 16.2661 16.6665 16.0542 16.6665 15.8332V9.99984C16.6665 9.5396 17.0396 9.1665 17.4998 9.1665C17.9601 9.1665 18.3332 9.5396 18.3332 9.99984V15.8332C18.3332 16.4962 18.0698 17.1321 17.6009 17.6009C17.1321 18.0698 16.4962 18.3332 15.8332 18.3332H4.1665C3.50346 18.3332 2.86758 18.0698 2.39874 17.6009C1.9299 17.1321 1.6665 16.4962 1.6665 15.8332V4.1665C1.6665 3.50346 1.9299 2.86758 2.39874 2.39874C2.86758 1.9299 3.50346 1.6665 4.1665 1.6665H13.3332C13.7934 1.6665 14.1665 2.0396 14.1665 2.49984C14.1665 2.96007 13.7934 3.33317 13.3332 3.33317H4.1665Z" fill="#1D57C3"/>
</svg>
