<svg width="20" height="20" viewBox="0 0 20 20" fill="none" xmlns="http://www.w3.org/2000/svg">
<g clip-path="url(#clip0_3830_32493)">
<path fill-rule="evenodd" clip-rule="evenodd" d="M0.833984 10.0002C0.833984 4.93743 4.93791 0.833496 10.0006 0.833496C15.0634 0.833496 19.1673 4.93743 19.1673 10.0002C19.1673 15.0629 15.0634 19.1668 10.0006 19.1668C4.93791 19.1668 0.833984 15.0629 0.833984 10.0002ZM10.0006 2.50016C5.85839 2.50016 2.50065 5.8579 2.50065 10.0002C2.50065 14.1424 5.85839 17.5002 10.0006 17.5002C14.1429 17.5002 17.5006 14.1424 17.5006 10.0002C17.5006 5.8579 14.1429 2.50016 10.0006 2.50016Z" fill="#099250"/>
<path fill-rule="evenodd" clip-rule="evenodd" d="M13.0899 7.74424C13.4153 8.06968 13.4153 8.59731 13.0899 8.92275L9.75657 12.2561C9.43114 12.5815 8.9035 12.5815 8.57806 12.2561L6.91139 10.5894C6.58596 10.264 6.58596 9.73634 6.91139 9.41091C7.23683 9.08547 7.76447 9.08547 8.08991 9.41091L9.16732 10.4883L11.9114 7.74424C12.2368 7.4188 12.7645 7.4188 13.0899 7.74424Z" fill="#099250"/>
</g>
<defs>
<clipPath id="clip0_3830_32493">
<rect width="20" height="20" fill="white"/>
</clipPath>
</defs>
</svg>
