<svg width="20" height="20" viewBox="0 0 20 20" fill="none" xmlns="http://www.w3.org/2000/svg">
<g clip-path="url(#clip0_1738_54172)">
<path fill-rule="evenodd" clip-rule="evenodd" d="M6.66658 2.49967C4.3654 2.49967 2.49992 4.36515 2.49992 6.66634C2.49992 8.96753 4.3654 10.833 6.66658 10.833C8.96777 10.833 10.8333 8.96753 10.8333 6.66634C10.8333 4.36515 8.96777 2.49967 6.66658 2.49967ZM0.833252 6.66634C0.833252 3.44468 3.44492 0.833008 6.66658 0.833008C9.88825 0.833008 12.4999 3.44468 12.4999 6.66634C12.4999 9.888 9.88825 12.4997 6.66658 12.4997C3.44492 12.4997 0.833252 9.888 0.833252 6.66634Z" fill="#1D57C3"/>
<path fill-rule="evenodd" clip-rule="evenodd" d="M14.2941 8.35023C14.4549 7.91899 14.9348 7.69973 15.366 7.86051C16.2851 8.20315 17.1029 8.772 17.7438 9.51445C18.3848 10.2569 18.8282 11.149 19.033 12.1082C19.2378 13.0674 19.1975 14.0628 18.9157 15.0023C18.6339 15.9418 18.1197 16.7951 17.4207 17.4832C16.7218 18.1713 15.8606 18.6721 14.9168 18.9392C13.9731 19.2063 12.9772 19.2311 12.0213 19.0114C11.0654 18.7916 10.1803 18.3344 9.44794 17.6819C8.71558 17.0294 8.15956 16.2028 7.8313 15.2786C7.67728 14.8449 7.904 14.3684 8.3377 14.2144C8.77139 14.0604 9.24784 14.2871 9.40187 14.7208C9.63633 15.381 10.0335 15.9714 10.5566 16.4374C11.0797 16.9035 11.7119 17.2301 12.3947 17.3871C13.0775 17.544 13.7888 17.5263 14.463 17.3355C15.1371 17.1447 15.7522 16.787 16.2515 16.2955C16.7507 15.804 17.118 15.1945 17.3193 14.5235C17.5205 13.8524 17.5494 13.1414 17.4031 12.4562C17.2568 11.7711 16.9401 11.1339 16.4822 10.6036C16.0244 10.0732 15.4403 9.66692 14.7838 9.42217C14.3526 9.2614 14.1333 8.78147 14.2941 8.35023Z" fill="#1D57C3"/>
<path fill-rule="evenodd" clip-rule="evenodd" d="M4.99992 4.99967C4.99992 4.53944 5.37301 4.16634 5.83325 4.16634H6.66658C7.12682 4.16634 7.49992 4.53944 7.49992 4.99967V8.33301C7.49992 8.79324 7.12682 9.16634 6.66658 9.16634C6.20635 9.16634 5.83325 8.79324 5.83325 8.33301V5.83301C5.37301 5.83301 4.99992 5.45991 4.99992 4.99967Z" fill="#1D57C3"/>
<path fill-rule="evenodd" clip-rule="evenodd" d="M13.3399 10.9729C13.6676 10.6498 14.1952 10.6535 14.5183 10.9813L15.1017 11.5729C15.4232 11.899 15.4213 12.4235 15.0975 12.7473L12.7475 15.0973C12.4221 15.4227 11.8944 15.4227 11.569 15.0973C11.2436 14.7718 11.2436 14.2442 11.569 13.9188L13.3339 12.1538L13.3315 12.1514C13.0084 11.8237 13.0121 11.296 13.3399 10.9729Z" fill="#1D57C3"/>
</g>
<defs>
<clipPath id="clip0_1738_54172">
<rect width="20" height="20" fill="white"/>
</clipPath>
</defs>
</svg>
