<svg width="18" height="18" viewBox="0 0 18 18" fill="none" xmlns="http://www.w3.org/2000/svg">
<g clip-path="url(#clip0_3631_6328)">
<path fill-rule="evenodd" clip-rule="evenodd" d="M9.52936 1.07291C9.83664 0.898235 10.184 0.806396 10.5375 0.806396C10.891 0.806396 11.2384 0.898235 11.5456 1.07291C11.5538 1.07753 11.5618 1.08231 11.5698 1.08723L16.2948 4.01223C16.3137 4.02397 16.3322 4.03655 16.35 4.04993C16.7865 4.37729 17.25 5.03028 17.25 5.77493V10.6499C17.25 11.0143 17.1134 11.3717 16.9488 11.6502C16.7811 11.9341 16.5316 12.2256 16.2109 12.418L16.2025 12.423L8.47066 16.927C8.16338 17.1017 7.81596 17.1935 7.4625 17.1935C7.10904 17.1935 6.76164 17.1016 6.45436 16.9269C6.44623 16.9223 6.43819 16.9175 6.43023 16.9126L1.70523 13.9876C1.68627 13.9759 1.66784 13.9633 1.65 13.9499C1.3898 13.7548 1.17616 13.4725 1.02908 13.2028C0.88476 12.9382 0.75 12.586 0.75 12.2249V7.27493C0.75 6.56261 1.1892 5.84392 1.83751 5.55355L9.52936 1.07291ZM10.2733 2.37542L2.55251 6.87299C2.52075 6.89149 2.48767 6.90763 2.45354 6.92128C2.43599 6.92831 2.38016 6.96239 2.32571 7.04617C2.27287 7.12746 2.25 7.21242 2.25 7.27493V12.2249C2.24998 12.2247 2.25 12.2248 2.25 12.2249C2.25019 12.2276 2.25199 12.254 2.2677 12.3045C2.28397 12.3567 2.31018 12.419 2.34592 12.4845C2.41426 12.6098 2.48908 12.6965 2.5333 12.7361L7.20528 15.6283C7.28421 15.671 7.37261 15.6935 7.4625 15.6935C7.55504 15.6935 7.646 15.6697 7.72668 15.6244L15.4419 11.1301C15.4963 11.0965 15.5827 11.0136 15.6574 10.8871C15.6927 10.8274 15.718 10.7702 15.7334 10.7222C15.7496 10.6721 15.75 10.6478 15.75 10.6499V5.77493C15.75 5.71234 15.727 5.61506 15.6613 5.50016C15.6026 5.39741 15.5294 5.31535 15.4701 5.26588L10.7947 2.37159C10.7158 2.32883 10.6274 2.3064 10.5375 2.3064C10.445 2.3064 10.354 2.33017 10.2733 2.37542Z" fill="#2F6FE4"/>
<path fill-rule="evenodd" clip-rule="evenodd" d="M0.937645 6.42961C1.15598 6.0776 1.61832 5.96924 1.97032 6.18757L7.89532 9.86257C8.11585 9.99936 8.25 10.2404 8.25 10.4999V16.4249C8.25 16.8391 7.91421 17.1749 7.5 17.1749C7.08579 17.1749 6.75 16.8391 6.75 16.4249V10.9173L1.17968 7.46228C0.827677 7.24395 0.719315 6.78161 0.937645 6.42961Z" fill="#2F6FE4"/>
<path fill-rule="evenodd" clip-rule="evenodd" d="M17.0738 4.94872C17.2816 5.30705 17.1595 5.76597 16.8012 5.97375L7.87621 11.1487C7.51787 11.3565 7.05895 11.2345 6.85118 10.8761C6.64341 10.5178 6.76546 10.0589 7.12379 9.85111L16.0488 4.67611C16.4071 4.46833 16.866 4.59039 17.0738 4.94872Z" fill="#2F6FE4"/>
<path fill-rule="evenodd" clip-rule="evenodd" d="M10.5 8.02493C10.9142 8.02493 11.25 8.36071 11.25 8.77493V14.8499C11.25 15.2641 10.9142 15.5999 10.5 15.5999C10.0858 15.5999 9.75 15.2641 9.75 14.8499V8.77493C9.75 8.36071 10.0858 8.02493 10.5 8.02493Z" fill="#2F6FE4"/>
<path fill-rule="evenodd" clip-rule="evenodd" d="M13.5 6.29993C13.9142 6.29993 14.25 6.63571 14.25 7.04993V13.1249C14.25 13.5391 13.9142 13.8749 13.5 13.8749C13.0858 13.8749 12.75 13.5391 12.75 13.1249V7.04993C12.75 6.63571 13.0858 6.29993 13.5 6.29993Z" fill="#2F6FE4"/>
</g>
<defs>
<clipPath id="clip0_3631_6328">
<rect width="18" height="18" fill="white"/>
</clipPath>
</defs>
</svg>
