<svg width="20" height="20" viewBox="0 0 20 20" fill="none" xmlns="http://www.w3.org/2000/svg">
<path fill-rule="evenodd" clip-rule="evenodd" d="M8.983 1.37706C9.43624 1.45698 9.73887 1.8892 9.65895 2.34245L9.51415 3.16356L11.1559 3.45308L11.301 2.63193C11.381 2.17871 11.8134 1.87621 12.2666 1.95627C12.7198 2.03633 13.0223 2.46864 12.9422 2.92186L12.7851 3.8116C13.6136 4.11179 14.2507 4.62074 14.6768 5.26182C15.224 6.08519 15.385 7.06922 15.2247 7.97817C15.0644 8.88711 14.5766 9.75672 13.7808 10.3432C13.647 10.4419 13.506 10.5314 13.3583 10.611C13.4696 10.7362 13.5712 10.8683 13.663 11.0065C14.2101 11.8299 14.3709 12.8139 14.2106 13.7228C14.0503 14.6317 13.5624 15.5013 12.7667 16.0879C12.1474 16.5444 11.3751 16.8048 10.4945 16.8038L10.3382 17.6936C10.2586 18.1469 9.82659 18.4498 9.37329 18.3702C8.91999 18.2906 8.61706 17.8585 8.69667 17.4052L8.84096 16.5837L7.19871 16.294L7.05395 17.115C6.97402 17.5682 6.5418 17.8708 6.08856 17.7909C5.63532 17.711 5.33268 17.2788 5.41261 16.8255L5.55738 16.0045L4.73851 15.8601C4.28527 15.7801 3.98266 15.3479 4.06261 14.8946C4.14257 14.4414 4.5748 14.1388 5.02804 14.2187L5.84682 14.3632L7.58337 4.51547L6.76356 4.3709C6.31032 4.29098 6.00768 3.85876 6.08761 3.40551C6.16753 2.95227 6.59975 2.64963 7.053 2.72956L7.87281 2.87413L8.01761 2.05301C8.09753 1.59977 8.52975 1.29713 8.983 1.37706ZM9.22472 4.8049L8.50115 8.90813L10.9645 9.34203C11.7866 9.48712 12.3841 9.30225 12.792 9.00162C13.212 8.69202 13.4904 8.21595 13.5833 7.68875C13.6763 7.16156 13.5775 6.61897 13.2887 6.18434C13.0097 5.76457 12.5155 5.38826 11.7011 5.24161C11.6963 5.24085 11.6915 5.24004 11.6866 5.23919C11.6816 5.23829 11.6765 5.23735 11.6715 5.23637L9.22472 4.8049ZM8.21171 10.5495L7.48814 14.6527L9.95045 15.0871C9.95041 15.087 9.95048 15.0871 9.95045 15.0871C10.7726 15.2319 11.3699 15.047 11.7778 14.7463C12.1979 14.4366 12.4763 13.9605 12.5693 13.4333C12.6623 12.9061 12.5636 12.3634 12.2748 11.9288C11.9944 11.5066 11.4965 11.1285 10.6743 10.9834C10.6692 10.9825 10.6642 10.9815 10.6591 10.9806L8.21171 10.5495Z" fill="#303136"/>
</svg>
