<svg width="20" height="20" viewBox="0 0 20 20" fill="none" xmlns="http://www.w3.org/2000/svg">
<path fill-rule="evenodd" clip-rule="evenodd" d="M1.6665 4.99998C1.6665 4.53974 2.0396 4.16665 2.49984 4.16665H17.4998C17.9601 4.16665 18.3332 4.53974 18.3332 4.99998C18.3332 5.46022 17.9601 5.83331 17.4998 5.83331H2.49984C2.0396 5.83331 1.6665 5.46022 1.6665 4.99998Z" fill="#51525C"/>
<path fill-rule="evenodd" clip-rule="evenodd" d="M4.1665 4.16665C4.62674 4.16665 4.99984 4.53974 4.99984 4.99998V16.6666C4.99984 16.8123 5.08105 17.0277 5.27659 17.2232C5.47214 17.4188 5.68753 17.5 5.83317 17.5H14.1665C14.3121 17.5 14.5275 17.4188 14.7231 17.2232C14.9186 17.0277 14.9998 16.8123 14.9998 16.6666V4.99998C14.9998 4.53974 15.3729 4.16665 15.8332 4.16665C16.2934 4.16665 16.6665 4.53974 16.6665 4.99998V16.6666C16.6665 17.3543 16.331 17.9723 15.9016 18.4017C15.4721 18.8312 14.8542 19.1666 14.1665 19.1666H5.83317C5.14548 19.1666 4.52754 18.8312 4.09808 18.4017C3.66863 17.9723 3.33317 17.3543 3.33317 16.6666V4.99998C3.33317 4.53974 3.70627 4.16665 4.1665 4.16665Z" fill="#51525C"/>
<path fill-rule="evenodd" clip-rule="evenodd" d="M7.77659 2.77674C7.58105 2.97228 7.49984 3.18767 7.49984 3.33331V4.99998C7.49984 5.46022 7.12674 5.83331 6.6665 5.83331C6.20627 5.83331 5.83317 5.46022 5.83317 4.99998V3.33331C5.83317 2.64562 6.16863 2.02768 6.59808 1.59822C7.02754 1.16877 7.64548 0.833313 8.33317 0.833313H11.6665C12.3542 0.833313 12.9721 1.16877 13.4016 1.59822C13.831 2.02768 14.1665 2.64562 14.1665 3.33331V4.99998C14.1665 5.46022 13.7934 5.83331 13.3332 5.83331C12.8729 5.83331 12.4998 5.46022 12.4998 4.99998V3.33331C12.4998 3.18767 12.4186 2.97228 12.2231 2.77674C12.0275 2.58119 11.8121 2.49998 11.6665 2.49998H8.33317C8.18753 2.49998 7.97214 2.58119 7.77659 2.77674Z" fill="#51525C"/>
<path fill-rule="evenodd" clip-rule="evenodd" d="M8.33317 8.33331C8.79341 8.33331 9.1665 8.70641 9.1665 9.16665V14.1666C9.1665 14.6269 8.79341 15 8.33317 15C7.87293 15 7.49984 14.6269 7.49984 14.1666V9.16665C7.49984 8.70641 7.87293 8.33331 8.33317 8.33331Z" fill="#51525C"/>
<path fill-rule="evenodd" clip-rule="evenodd" d="M11.6665 8.33331C12.1267 8.33331 12.4998 8.70641 12.4998 9.16665V14.1666C12.4998 14.6269 12.1267 15 11.6665 15C11.2063 15 10.8332 14.6269 10.8332 14.1666V9.16665C10.8332 8.70641 11.2063 8.33331 11.6665 8.33331Z" fill="#51525C"/>
</svg>
