<svg width="32" height="32" viewBox="0 0 32 32" fill="none" xmlns="http://www.w3.org/2000/svg">
<rect x="0.5" y="0.5" width="31" height="31" rx="7.5" fill="url(#paint0_linear_3114_15300)"/>
<rect x="0.5" y="0.5" width="31" height="31" rx="7.5" stroke="#EBF2FF"/>
<g clip-path="url(#clip0_3114_15300)">
<path fill-rule="evenodd" clip-rule="evenodd" d="M9.90901 8.40901C10.331 7.98705 10.9033 7.75 11.5 7.75H17.875C18.0739 7.75 18.2647 7.82902 18.4053 7.96967L22.5303 12.0947C22.671 12.2353 22.75 12.4261 22.75 12.625V22C22.75 22.5967 22.5129 23.169 22.091 23.591C21.669 24.0129 21.0967 24.25 20.5 24.25H11.5C10.9033 24.25 10.331 24.0129 9.90901 23.591C9.48705 23.169 9.25 22.5967 9.25 22V10C9.25 9.40326 9.48705 8.83097 9.90901 8.40901ZM11.5 9.25C11.3011 9.25 11.1103 9.32902 10.9697 9.46967C10.829 9.61032 10.75 9.80109 10.75 10V22C10.75 22.1989 10.829 22.3897 10.9697 22.5303C11.1103 22.671 11.3011 22.75 11.5 22.75H20.5C20.6989 22.75 20.8897 22.671 21.0303 22.5303C21.171 22.3897 21.25 22.1989 21.25 22V12.9357L17.5643 9.25H11.5Z" fill="#2F6FE4"/>
<path fill-rule="evenodd" clip-rule="evenodd" d="M17.5 7.75C17.9142 7.75 18.25 8.08579 18.25 8.5V12.25H22C22.4142 12.25 22.75 12.5858 22.75 13C22.75 13.4142 22.4142 13.75 22 13.75H17.5C17.0858 13.75 16.75 13.4142 16.75 13V8.5C16.75 8.08579 17.0858 7.75 17.5 7.75Z" fill="#2F6FE4"/>
<path fill-rule="evenodd" clip-rule="evenodd" d="M12.25 16.75C12.25 16.3358 12.5858 16 13 16H19C19.4142 16 19.75 16.3358 19.75 16.75C19.75 17.1642 19.4142 17.5 19 17.5H13C12.5858 17.5 12.25 17.1642 12.25 16.75Z" fill="#2F6FE4"/>
<path fill-rule="evenodd" clip-rule="evenodd" d="M12.25 19.75C12.25 19.3358 12.5858 19 13 19H19C19.4142 19 19.75 19.3358 19.75 19.75C19.75 20.1642 19.4142 20.5 19 20.5H13C12.5858 20.5 12.25 20.1642 12.25 19.75Z" fill="#2F6FE4"/>
<path fill-rule="evenodd" clip-rule="evenodd" d="M12.25 13.75C12.25 13.3358 12.5858 13 13 13H14.5C14.9142 13 15.25 13.3358 15.25 13.75C15.25 14.1642 14.9142 14.5 14.5 14.5H13C12.5858 14.5 12.25 14.1642 12.25 13.75Z" fill="#2F6FE4"/>
</g>
<defs>
<linearGradient id="paint0_linear_3114_15300" x1="16" y1="0" x2="16" y2="32" gradientUnits="userSpaceOnUse">
<stop stop-color="#EFF5FF"/>
<stop offset="0.21" stop-color="#FEFEFF"/>
<stop offset="1" stop-color="#E4EEFF"/>
</linearGradient>
<clipPath id="clip0_3114_15300">
<rect width="18" height="18" fill="white" transform="translate(7 7)"/>
</clipPath>
</defs>
</svg>
