<svg width="20" height="20" viewBox="0 0 20 20" fill="none" xmlns="http://www.w3.org/2000/svg">
<path fill-rule="evenodd" clip-rule="evenodd" d="M2.50033 11.6665C2.96056 11.6665 3.33366 12.0396 3.33366 12.4998V15.8332C3.33366 16.0542 3.42146 16.2661 3.57774 16.4224C3.73402 16.5787 3.94598 16.6665 4.16699 16.6665H15.8337C16.0547 16.6665 16.2666 16.5787 16.4229 16.4224C16.5792 16.2661 16.667 16.0542 16.667 15.8332V12.4998C16.667 12.0396 17.0401 11.6665 17.5003 11.6665C17.9606 11.6665 18.3337 12.0396 18.3337 12.4998V15.8332C18.3337 16.4962 18.0703 17.1321 17.6014 17.6009C17.1326 18.0698 16.4967 18.3332 15.8337 18.3332H4.16699C3.50395 18.3332 2.86807 18.0698 2.39923 17.6009C1.93038 17.1321 1.66699 16.4962 1.66699 15.8332V12.4998C1.66699 12.0396 2.04009 11.6665 2.50033 11.6665Z" fill="#51525C"/>
<path fill-rule="evenodd" clip-rule="evenodd" d="M5.2444 7.74392C5.56984 7.41848 6.09748 7.41848 6.42291 7.74392L10.0003 11.3213L13.5777 7.74392C13.9032 7.41848 14.4308 7.41848 14.7562 7.74392C15.0817 8.06935 15.0817 8.59699 14.7562 8.92243L10.5896 13.0891C10.2641 13.4145 9.73651 13.4145 9.41107 13.0891L5.2444 8.92243C4.91897 8.59699 4.91897 8.06935 5.2444 7.74392Z" fill="#51525C"/>
<path fill-rule="evenodd" clip-rule="evenodd" d="M10.0003 1.6665C10.4606 1.6665 10.8337 2.0396 10.8337 2.49984V12.4998C10.8337 12.9601 10.4606 13.3332 10.0003 13.3332C9.54009 13.3332 9.16699 12.9601 9.16699 12.4998V2.49984C9.16699 2.0396 9.54009 1.6665 10.0003 1.6665Z" fill="#51525C"/>
</svg>
