<svg width="20" height="20" viewBox="0 0 20 20" fill="none" xmlns="http://www.w3.org/2000/svg">
<g clip-path="url(#clip0_2067_30223)">
<path fill-rule="evenodd" clip-rule="evenodd" d="M2.59321 10.0002C2.66156 10.1312 2.75181 10.296 2.86453 10.4854C3.16786 10.995 3.62871 11.6737 4.25651 12.3498C5.5126 13.7025 7.39013 15.0002 10 15.0002C12.6099 15.0002 14.4874 13.7025 15.7435 12.3498C16.3713 11.6737 16.8322 10.995 17.1355 10.4854C17.2482 10.296 17.3385 10.1312 17.4068 10.0002C17.3385 9.86911 17.2482 9.70431 17.1355 9.51494C16.8322 9.00534 16.3713 8.32663 15.7435 7.65054C14.4874 6.29782 12.6099 5.00016 10 5.00016C7.39013 5.00016 5.5126 6.29782 4.25651 7.65054C3.62871 8.32663 3.16786 9.00534 2.86453 9.51494C2.75181 9.70431 2.66156 9.86911 2.59321 10.0002ZM18.3333 10.0002C19.0993 9.6719 19.0992 9.67156 19.099 9.6712L19.0977 9.66829L19.0953 9.66255L19.0874 9.64482C19.081 9.63025 19.0719 9.61026 19.0604 9.58521C19.0372 9.53511 19.0038 9.46468 18.9599 9.37683C18.8721 9.20126 18.742 8.95533 18.5677 8.66247C18.2199 8.07831 17.6912 7.2987 16.9648 6.51645C15.5126 4.9525 13.2235 3.3335 10 3.3335C6.77656 3.3335 4.48743 4.9525 3.03518 6.51645C2.30882 7.2987 1.78008 8.07831 1.43237 8.66247C1.25805 8.95533 1.12793 9.20126 1.04014 9.37683C0.996214 9.46468 0.962793 9.53511 0.939653 9.58521C0.928079 9.61026 0.919068 9.63025 0.912592 9.64482L0.904771 9.66255L0.902278 9.66829L0.901384 9.67036L0.901025 9.6712C0.900871 9.67156 0.900725 9.6719 1.66668 10.0002L0.901025 9.6712C0.811187 9.88082 0.810886 10.1188 0.900725 10.3284L1.66668 10.0002C0.900725 10.3284 0.90057 10.3281 0.900725 10.3284L0.901384 10.33L0.902278 10.332L0.904771 10.3378L0.912592 10.3555C0.919068 10.3701 0.928079 10.3901 0.939653 10.4151C0.962793 10.4652 0.996214 10.5356 1.04014 10.6235C1.12793 10.7991 1.25805 11.045 1.43237 11.3379C1.78008 11.922 2.30882 12.7016 3.03518 13.4839C4.48743 15.0478 6.77656 16.6668 10 16.6668C13.2235 16.6668 15.5126 15.0478 16.9648 13.4839C17.6912 12.7016 18.2199 11.922 18.5677 11.3379C18.742 11.045 18.8721 10.7991 18.9599 10.6235C19.0038 10.5356 19.0372 10.4652 19.0604 10.4151C19.0719 10.3901 19.081 10.3701 19.0874 10.3555L19.0953 10.3378L19.0977 10.332L19.099 10.3291C19.0992 10.3288 19.0993 10.3284 18.3333 10.0002ZM18.3333 10.0002L19.099 10.3291C19.1888 10.1195 19.1888 9.88082 19.099 9.6712L18.3333 10.0002Z" fill="#1D57C3"/>
<path fill-rule="evenodd" clip-rule="evenodd" d="M10 8.3335C9.07954 8.3335 8.33335 9.07969 8.33335 10.0002C8.33335 10.9206 9.07954 11.6668 10 11.6668C10.9205 11.6668 11.6667 10.9206 11.6667 10.0002C11.6667 9.07969 10.9205 8.3335 10 8.3335ZM6.66668 10.0002C6.66668 8.15921 8.15906 6.66683 10 6.66683C11.841 6.66683 13.3333 8.15921 13.3333 10.0002C13.3333 11.8411 11.841 13.3335 10 13.3335C8.15906 13.3335 6.66668 11.8411 6.66668 10.0002Z" fill="#1D57C3"/>
</g>
<defs>
<clipPath id="clip0_2067_30223">
<rect width="20" height="20" fill="white"/>
</clipPath>
</defs>
</svg>
