<svg width="20" height="20" viewBox="0 0 20 20" fill="none" xmlns="http://www.w3.org/2000/svg">
<path fill-rule="evenodd" clip-rule="evenodd" d="M1.66666 4.99984C1.66666 4.5396 2.03975 4.1665 2.49999 4.1665H17.5C17.9602 4.1665 18.3333 4.5396 18.3333 4.99984C18.3333 5.46007 17.9602 5.83317 17.5 5.83317H2.49999C2.03975 5.83317 1.66666 5.46007 1.66666 4.99984Z" fill="#1D57C3"/>
<path fill-rule="evenodd" clip-rule="evenodd" d="M4.99999 9.99984C4.99999 9.5396 5.37309 9.1665 5.83332 9.1665H14.1667C14.6269 9.1665 15 9.5396 15 9.99984C15 10.4601 14.6269 10.8332 14.1667 10.8332H5.83332C5.37309 10.8332 4.99999 10.4601 4.99999 9.99984Z" fill="#1D57C3"/>
<path fill-rule="evenodd" clip-rule="evenodd" d="M7.49999 14.9998C7.49999 14.5396 7.87309 14.1665 8.33332 14.1665H11.6667C12.1269 14.1665 12.5 14.5396 12.5 14.9998C12.5 15.4601 12.1269 15.8332 11.6667 15.8332H8.33332C7.87309 15.8332 7.49999 15.4601 7.49999 14.9998Z" fill="#1D57C3"/>
</svg>
