<svg width="20" height="20" viewBox="0 0 20 20" fill="none" xmlns="http://www.w3.org/2000/svg">
<g clip-path="url(#clip0_1738_54165)">
<path fill-rule="evenodd" clip-rule="evenodd" d="M6.9913 3.43146C6.86828 3.36594 6.73079 3.33233 6.59142 3.3337C6.5887 3.33373 6.58597 3.33374 6.58325 3.33374H3.33325C3.11224 3.33374 2.90028 3.42154 2.744 3.57782C2.58772 3.7341 2.49992 3.94606 2.49992 4.16707V15.0004C2.49992 15.2214 2.58772 15.4334 2.744 15.5897C2.90028 15.7459 3.11224 15.8337 3.33325 15.8337H15.3749C15.3768 15.8337 15.3787 15.8337 15.3805 15.8338C15.5662 15.835 15.7471 15.7742 15.8943 15.661C16.0413 15.5479 16.1464 15.389 16.1929 15.2094C16.1929 15.2092 16.193 15.209 16.193 15.2088L17.4764 10.2087C17.5082 10.0855 17.5114 9.95656 17.4856 9.83188C17.4599 9.70721 17.4059 9.59009 17.3279 9.48951C17.2498 9.38894 17.1498 9.30758 17.0354 9.25169C16.921 9.19579 16.7954 9.16685 16.668 9.16707L16.6666 9.16707H7.71122C7.56298 9.17193 7.41867 9.21627 7.29323 9.29558C7.16552 9.37631 7.06217 9.49024 6.99422 9.62518C6.99286 9.62788 6.99149 9.63057 6.9901 9.63326L5.7401 12.0499C5.52866 12.4587 5.02586 12.6187 4.61707 12.4073C4.20828 12.1958 4.04829 11.693 4.25974 11.2842L5.50785 8.87119C5.71172 8.46831 6.02092 8.12812 6.40263 7.88681C6.78574 7.64462 7.22749 7.51113 7.68061 7.50063C7.68705 7.50048 7.69348 7.5004 7.69992 7.5004H15.8333V6.66707C15.8333 6.44606 15.7455 6.2341 15.5892 6.07782C15.4329 5.92154 15.2209 5.83374 14.9999 5.83374H10.0583V4.99886L10.0581 5.83374C9.64423 5.83367 9.23683 5.73085 8.87249 5.53449C8.50968 5.33897 8.20086 5.05679 7.9735 4.71311L7.30088 3.71663C7.2991 3.714 7.29734 3.71135 7.29559 3.7087C7.21894 3.59229 7.11432 3.49697 6.9913 3.43146ZM10.0583 4.16707C10.0583 4.16707 10.0583 4.16707 10.0584 4.16707H14.9999C15.663 4.16707 16.2988 4.43046 16.7677 4.8993C17.2365 5.36815 17.4999 6.00403 17.4999 6.66707V7.64235C17.5909 7.67438 17.6801 7.71172 17.7672 7.75426C18.1103 7.92194 18.4105 8.16601 18.6446 8.46774C18.8787 8.76946 19.0406 9.12082 19.1179 9.49485C19.1951 9.86887 19.1856 10.2556 19.0901 10.6254L17.8071 15.6242L17.8068 15.6254C17.6675 16.1648 17.352 16.6423 16.9104 16.982C16.4697 17.3211 15.9285 17.5035 15.3725 17.5004H3.33325C2.67021 17.5004 2.03433 17.237 1.56548 16.7682C1.09664 16.2993 0.833252 15.6634 0.833252 15.0004V4.16707C0.833252 3.50403 1.09664 2.86815 1.56548 2.39931C2.03433 1.93046 2.67021 1.66707 3.33325 1.66707H6.57958C6.99615 1.66374 7.40697 1.76455 7.77471 1.96039C8.14222 2.15611 8.45501 2.44051 8.6847 2.78774L9.35729 3.78418C9.35906 3.7868 9.36082 3.78943 9.36255 3.79207C9.43843 3.90729 9.54173 4.00187 9.66318 4.06732C9.78459 4.13275 9.92034 4.16703 10.0583 4.16707Z" fill="#1D57C3"/>
</g>
<defs>
<clipPath id="clip0_1738_54165">
<rect width="20" height="20" fill="white"/>
</clipPath>
</defs>
</svg>
