<svg width="16" height="17" viewBox="0 0 16 17" fill="none" xmlns="http://www.w3.org/2000/svg">
<path fill-rule="evenodd" clip-rule="evenodd" d="M5.59294 3.24482C5.49452 3.19241 5.38454 3.16552 5.27304 3.16662C5.27086 3.16664 5.26868 3.16665 5.2665 3.16665H2.6665C2.48969 3.16665 2.32012 3.23689 2.1951 3.36191C2.07008 3.48694 1.99984 3.65651 1.99984 3.83332V12.5C1.99984 12.6768 2.07007 12.8464 2.1951 12.9714C2.32012 13.0964 2.48969 13.1666 2.6665 13.1666H12.2998C12.3013 13.1666 12.3028 13.1667 12.3043 13.1667C12.4529 13.1677 12.5975 13.119 12.7153 13.0284C12.8329 12.938 12.917 12.8108 12.9542 12.6672C12.9542 12.667 12.9543 12.6668 12.9543 12.6667L13.981 8.66665C14.0065 8.56804 14.009 8.46491 13.9884 8.36517C13.9678 8.26543 13.9246 8.17173 13.8622 8.09127C13.7998 8.01081 13.7197 7.94573 13.6282 7.90101C13.5367 7.85629 13.4362 7.83314 13.3343 7.83332L13.3332 7.83332H6.16888C6.05029 7.8372 5.93484 7.87268 5.83448 7.93612C5.73232 8.00071 5.64964 8.09185 5.59528 8.1998C5.59419 8.20196 5.59309 8.20412 5.59198 8.20627L4.59198 10.1396C4.42283 10.4666 4.02059 10.5946 3.69356 10.4255C3.36652 10.2563 3.23854 9.85407 3.40769 9.52704L4.40619 7.59661C4.56928 7.2743 4.81664 7.00216 5.12201 6.80911C5.42849 6.61535 5.78189 6.50856 6.14439 6.50016C6.14954 6.50004 6.15469 6.49998 6.15984 6.49998H12.6665V5.83332C12.6665 5.65651 12.5963 5.48694 12.4712 5.36191C12.3462 5.23689 12.1766 5.16665 11.9998 5.16665H8.0465V4.49875L8.04639 5.16665C7.71529 5.1666 7.38937 5.08434 7.0979 4.92725C6.80765 4.77083 6.56059 4.54509 6.3787 4.27014L5.84061 3.47296C5.83918 3.47086 5.83777 3.46874 5.83637 3.46662C5.77505 3.37349 5.69136 3.29723 5.59294 3.24482ZM8.0465 3.83332C8.04654 3.83332 8.04658 3.83332 8.04661 3.83332H11.9998C12.5303 3.83332 13.039 4.04403 13.4141 4.4191C13.7891 4.79418 13.9998 5.30288 13.9998 5.83332V6.61354C14.0726 6.63916 14.144 6.66903 14.2136 6.70307C14.4881 6.83721 14.7283 7.03247 14.9156 7.27385C15.1029 7.51523 15.2324 7.79632 15.2942 8.09554C15.356 8.39476 15.3484 8.70415 15.272 8.99998L14.2456 12.9991L14.2453 13C14.1339 13.4315 13.8815 13.8135 13.5283 14.0853C13.1756 14.3565 12.7427 14.5024 12.2979 14.5H2.6665C2.13607 14.5 1.62736 14.2893 1.25229 13.9142C0.877218 13.5391 0.666504 13.0304 0.666504 12.5V3.83332C0.666504 3.30288 0.877217 2.79418 1.25229 2.4191C1.62736 2.04403 2.13607 1.83332 2.6665 1.83332H5.26357C5.59682 1.83065 5.92548 1.9113 6.21967 2.06797C6.51368 2.22454 6.76391 2.45206 6.94766 2.72985L7.48574 3.527C7.48715 3.5291 7.48856 3.5312 7.48995 3.53332C7.55065 3.62549 7.63329 3.70116 7.73045 3.75352C7.82758 3.80586 7.93617 3.83328 8.0465 3.83332Z" fill="#A0A0AB"/>
</svg>
