<svg width="18" height="18" viewBox="0 0 18 18" fill="none" xmlns="http://www.w3.org/2000/svg">
<path fill-rule="evenodd" clip-rule="evenodd" d="M8.99736 1.50099L9.00018 1.50098C10.4835 1.50098 11.9336 1.94085 13.167 2.76496C14.4003 3.58907 15.3616 4.76041 15.9293 6.13086C16.4969 7.5013 16.6455 9.0093 16.3561 10.4642C16.0667 11.919 15.3524 13.2554 14.3035 14.3043C13.2546 15.3532 11.9182 16.0675 10.4634 16.3569C9.0085 16.6463 7.5005 16.4977 6.13006 15.9301C4.75961 15.3624 3.58827 14.4011 2.76416 13.1678C1.94005 11.9344 1.50018 10.4843 1.50018 9.00098C1.50018 8.58677 1.83597 8.25098 2.25018 8.25098C2.6644 8.25098 3.00018 8.58677 3.00018 9.00098C3.00018 10.1877 3.35208 11.3477 4.01137 12.3344C4.67065 13.3211 5.60773 14.0901 6.70408 14.5443C7.80044 14.9984 9.00684 15.1172 10.1707 14.8857C11.3346 14.6542 12.4037 14.0827 13.2428 13.2436C14.0819 12.4045 14.6534 11.3354 14.8849 10.1715C15.1164 9.00764 14.9976 7.80124 14.5435 6.70488C14.0893 5.60852 13.3203 4.67145 12.3336 4.01216C11.3473 3.35314 10.1878 3.00126 9.00159 3.00098C7.31066 3.00771 5.68765 3.66687 4.47091 4.84092L2.78051 6.53131C2.48762 6.8242 2.01275 6.8242 1.71985 6.53131C1.42696 6.23842 1.42696 5.76354 1.71985 5.47065L3.41485 3.77565L3.4239 3.76676C4.91978 2.32065 6.91678 1.50881 8.99736 1.50099Z" fill="#51525C"/>
<path fill-rule="evenodd" clip-rule="evenodd" d="M2.25018 1.50098C2.6644 1.50098 3.00018 1.83677 3.00018 2.25098V5.25098H6.00018C6.4144 5.25098 6.75018 5.58677 6.75018 6.00098C6.75018 6.41519 6.4144 6.75098 6.00018 6.75098H2.25018C1.83597 6.75098 1.50018 6.41519 1.50018 6.00098V2.25098C1.50018 1.83677 1.83597 1.50098 2.25018 1.50098Z" fill="#51525C"/>
<path fill-rule="evenodd" clip-rule="evenodd" d="M9.00018 4.50098C9.4144 4.50098 9.75018 4.83677 9.75018 5.25098V8.53746L12.3356 9.83016C12.7061 10.0154 12.8562 10.4659 12.671 10.8364C12.4858 11.2069 12.0353 11.357 11.6648 11.1718L8.66477 9.6718C8.41069 9.54476 8.25018 9.28506 8.25018 9.00098V5.25098C8.25018 4.83677 8.58597 4.50098 9.00018 4.50098Z" fill="#51525C"/>
</svg>
