<svg width="20" height="20" viewBox="0 0 20 20" fill="none" xmlns="http://www.w3.org/2000/svg">
<g clip-path="url(#clip0_1738_54130)">
<path fill-rule="evenodd" clip-rule="evenodd" d="M9.48846 1.00855C9.78939 0.774495 10.2108 0.774495 10.5117 1.00855L18.0117 6.84188C18.2147 6.99976 18.3334 7.24251 18.3334 7.49967V16.6663C18.3334 17.3294 18.07 17.9653 17.6012 18.4341C17.1323 18.9029 16.4965 19.1663 15.8334 19.1663H4.16675C3.50371 19.1663 2.86782 18.9029 2.39898 18.4341C1.93014 17.9653 1.66675 17.3294 1.66675 16.6663V7.49967C1.66675 7.24251 1.78548 6.99976 1.98846 6.84188L9.48846 1.00855ZM3.33341 7.90724V16.6663C3.33341 16.8874 3.42121 17.0993 3.57749 17.2556C3.73377 17.4119 3.94573 17.4997 4.16675 17.4997H15.8334C16.0544 17.4997 16.2664 17.4119 16.4227 17.2556C16.579 17.0993 16.6667 16.8874 16.6667 16.6663V7.90724L10.0001 2.72206L3.33341 7.90724Z" fill="#1D57C3"/>
<path fill-rule="evenodd" clip-rule="evenodd" d="M6.66675 9.99967C6.66675 9.53944 7.03984 9.16634 7.50008 9.16634H12.5001C12.9603 9.16634 13.3334 9.53944 13.3334 9.99967V18.333C13.3334 18.7932 12.9603 19.1663 12.5001 19.1663C12.0398 19.1663 11.6667 18.7932 11.6667 18.333V10.833H8.33341V18.333C8.33341 18.7932 7.96032 19.1663 7.50008 19.1663C7.03984 19.1663 6.66675 18.7932 6.66675 18.333V9.99967Z" fill="#1D57C3"/>
</g>
<defs>
<clipPath id="clip0_1738_54130">
<rect width="20" height="20" fill="white"/>
</clipPath>
</defs>
</svg>
