<svg width="16" height="16" viewBox="0 0 16 16" fill="none" xmlns="http://www.w3.org/2000/svg">
<path fill-rule="evenodd" clip-rule="evenodd" d="M1.52925 4.86209C1.7896 4.60174 2.21171 4.60174 2.47206 4.86209L5.13872 7.52876C5.39907 7.78911 5.39907 8.21122 5.13872 8.47157L2.47206 11.1382C2.21171 11.3986 1.7896 11.3986 1.52925 11.1382C1.2689 10.8779 1.2689 10.4558 1.52925 10.1954L3.72451 8.00016L1.52925 5.8049C1.2689 5.54455 1.2689 5.12244 1.52925 4.86209Z" fill="#A0A0AB"/>
<path fill-rule="evenodd" clip-rule="evenodd" d="M6.66732 8.00016C6.66732 7.63197 6.96579 7.3335 7.33398 7.3335H14.0007C14.3688 7.3335 14.6673 7.63197 14.6673 8.00016C14.6673 8.36835 14.3688 8.66683 14.0007 8.66683H7.33398C6.96579 8.66683 6.66732 8.36835 6.66732 8.00016Z" fill="#A0A0AB"/>
<path fill-rule="evenodd" clip-rule="evenodd" d="M6.66732 4.00016C6.66732 3.63197 6.96579 3.3335 7.33398 3.3335H14.0007C14.3688 3.3335 14.6673 3.63197 14.6673 4.00016C14.6673 4.36835 14.3688 4.66683 14.0007 4.66683H7.33398C6.96579 4.66683 6.66732 4.36835 6.66732 4.00016Z" fill="#A0A0AB"/>
<path fill-rule="evenodd" clip-rule="evenodd" d="M6.66732 12.0002C6.66732 11.632 6.96579 11.3335 7.33398 11.3335H14.0007C14.3688 11.3335 14.6673 11.632 14.6673 12.0002C14.6673 12.3684 14.3688 12.6668 14.0007 12.6668H7.33398C6.96579 12.6668 6.66732 12.3684 6.66732 12.0002Z" fill="#A0A0AB"/>
</svg>
