<svg width="20" height="20" viewBox="0 0 20 20" fill="none" xmlns="http://www.w3.org/2000/svg">
<path fill-rule="evenodd" clip-rule="evenodd" d="M2.50002 1.66602C2.96026 1.66602 3.33335 2.03911 3.33335 2.49935V16.666H17.5C17.9603 16.666 18.3334 17.0391 18.3334 17.4993C18.3334 17.9596 17.9603 18.3327 17.5 18.3327H2.50002C2.03978 18.3327 1.66669 17.9596 1.66669 17.4993V2.49935C1.66669 2.03911 2.03978 1.66602 2.50002 1.66602Z" fill="#1D57C3"/>
<path fill-rule="evenodd" clip-rule="evenodd" d="M15.2441 6.91009C15.5695 6.58466 16.0972 6.58466 16.4226 6.91009C16.748 7.23553 16.748 7.76317 16.4226 8.0886L12.2559 12.2553C11.9305 12.5807 11.4029 12.5807 11.0774 12.2553L8.33335 9.51119L6.42261 11.4219C6.09717 11.7474 5.56954 11.7474 5.2441 11.4219C4.91866 11.0965 4.91866 10.5689 5.2441 10.2434L7.7441 7.74343C8.06954 7.41799 8.59717 7.41799 8.92261 7.74343L11.6667 10.4875L15.2441 6.91009Z" fill="#1D57C3"/>
</svg>
