<svg width="20" height="20" viewBox="0 0 20 20" fill="none" xmlns="http://www.w3.org/2000/svg">
<path fill-rule="evenodd" clip-rule="evenodd" d="M8.08934 11.9104C8.41477 12.2359 8.41477 12.7635 8.08934 13.0889L4.756 16.4223C4.43057 16.7477 3.90293 16.7477 3.57749 16.4223L1.91083 14.7556C1.58539 14.4302 1.58539 13.9025 1.91083 13.5771C2.23626 13.2516 2.7639 13.2516 3.08934 13.5771L4.16675 14.6545L6.91083 11.9104C7.23626 11.585 7.7639 11.585 8.08934 11.9104Z" fill="#1D57C3"/>
<path fill-rule="evenodd" clip-rule="evenodd" d="M8.08934 3.57709C8.41477 3.90252 8.41477 4.43016 8.08934 4.7556L4.756 8.08893C4.43057 8.41437 3.90293 8.41437 3.57749 8.08893L1.91083 6.42226C1.58539 6.09683 1.58539 5.56919 1.91083 5.24375C2.23626 4.91831 2.7639 4.91831 3.08934 5.24375L4.16675 6.32116L6.91083 3.57709C7.23626 3.25165 7.7639 3.25165 8.08934 3.57709Z" fill="#1D57C3"/>
<path fill-rule="evenodd" clip-rule="evenodd" d="M10.0001 4.99967C10.0001 4.53944 10.3732 4.16634 10.8334 4.16634H17.5001C17.9603 4.16634 18.3334 4.53944 18.3334 4.99967C18.3334 5.45991 17.9603 5.83301 17.5001 5.83301H10.8334C10.3732 5.83301 10.0001 5.45991 10.0001 4.99967Z" fill="#1D57C3"/>
<path fill-rule="evenodd" clip-rule="evenodd" d="M10.0001 9.99967C10.0001 9.53944 10.3732 9.16634 10.8334 9.16634H17.5001C17.9603 9.16634 18.3334 9.53944 18.3334 9.99967C18.3334 10.4599 17.9603 10.833 17.5001 10.833H10.8334C10.3732 10.833 10.0001 10.4599 10.0001 9.99967Z" fill="#1D57C3"/>
<path fill-rule="evenodd" clip-rule="evenodd" d="M10.0001 14.9997C10.0001 14.5394 10.3732 14.1663 10.8334 14.1663H17.5001C17.9603 14.1663 18.3334 14.5394 18.3334 14.9997C18.3334 15.4599 17.9603 15.833 17.5001 15.833H10.8334C10.3732 15.833 10.0001 15.4599 10.0001 14.9997Z" fill="#1D57C3"/>
</svg>
