<svg width="42" height="42" viewBox="0 0 42 42" fill="none" xmlns="http://www.w3.org/2000/svg">
<g filter="url(#filter0_i_659_34891)">
<path fill-rule="evenodd" clip-rule="evenodd" d="M22.7398 8.4393C19.9442 8.21402 17.1596 8.99093 14.8844 10.631C12.6092 12.271 10.9919 14.6672 10.3219 17.3907C9.65188 20.1142 9.97289 22.9872 11.2275 25.4957C11.4143 25.8693 11.4451 26.3018 11.313 26.6981L9.31684 32.6866L15.3053 30.6904C15.7016 30.5583 16.1342 30.5891 16.5078 30.7759C19.0162 32.0305 21.8892 32.3515 24.6127 31.6815C27.3362 31.0115 29.7324 29.3942 31.3724 27.119C33.0125 24.8438 33.7894 22.0592 33.5641 19.2636C33.3388 16.468 32.1261 13.8438 30.1429 11.8605C28.1597 9.87734 25.5354 8.66458 22.7398 8.4393ZM13.0427 8.07596C15.9246 5.99855 19.4517 5.01447 22.9928 5.29983C26.5339 5.58518 29.8579 7.12134 32.37 9.63341C34.8821 12.1455 36.4182 15.4695 36.7036 19.0106C36.9889 22.5518 36.0049 26.0789 33.9275 28.9608C31.85 31.8427 28.8149 33.8913 25.3651 34.74C22.1319 35.5354 18.7322 35.2281 15.7023 33.8781L7.32482 36.6706C6.75893 36.8592 6.13504 36.712 5.71325 36.2902C5.29146 35.8684 5.14418 35.2445 5.33281 34.6786L8.12532 26.3011C6.77527 23.2712 6.46802 19.8715 7.26345 16.6383C8.11215 13.1885 10.1607 10.1534 13.0427 8.07596Z" fill="url(#paint0_linear_659_34891)"/>
<path d="M14.8844 10.631C17.1596 8.99093 19.9442 8.21402 22.7398 8.4393C25.5354 8.66458 28.1597 9.87734 30.1429 11.8605C32.1261 13.8438 33.3388 16.468 33.5641 19.2636C33.7894 22.0592 33.0125 24.8438 31.3724 27.119C29.7324 29.3942 27.3362 31.0115 24.6127 31.6815C21.8892 32.3515 19.0162 32.0305 16.5078 30.7759C16.1342 30.5891 15.7016 30.5583 15.3053 30.6904L9.31684 32.6866L11.313 26.6981C11.4451 26.3018 11.4143 25.8693 11.2275 25.4957C9.97289 22.9872 9.65188 20.1142 10.3219 17.3907C10.9919 14.6672 12.6092 12.271 14.8844 10.631Z" fill="url(#paint1_linear_659_34891)"/>
</g>
<g filter="url(#filter1_i_659_34891)">
<path d="M13.6927 19.25C12.6489 19.25 11.8027 20.1001 11.8027 21.1487C11.8027 22.1974 12.6489 23.0475 13.6927 23.0475H13.7116C14.7555 23.0475 15.6016 22.1974 15.6016 21.1487C15.6016 20.1001 14.7555 19.25 13.7116 19.25H13.6927Z" fill="url(#paint2_linear_659_34891)"/>
</g>
<g filter="url(#filter2_i_659_34891)">
<path d="M20.9916 19.25C19.9477 19.25 19.1016 20.1001 19.1016 21.1487C19.1016 22.1974 19.9477 23.0475 20.9916 23.0475H21.0105C22.0543 23.0475 22.9005 22.1974 22.9005 21.1487C22.9005 20.1001 22.0543 19.25 21.0105 19.25H20.9916Z" fill="url(#paint3_linear_659_34891)"/>
</g>
<g filter="url(#filter3_i_659_34891)">
<path d="M28.2904 19.25C27.2466 19.25 26.4004 20.1001 26.4004 21.1487C26.4004 22.1974 27.2466 23.0475 28.2904 23.0475H28.3093C29.3531 23.0475 30.1993 22.1974 30.1993 21.1487C30.1993 20.1001 29.3531 19.25 28.3093 19.25H28.2904Z" fill="url(#paint4_linear_659_34891)"/>
</g>
<defs>
<filter id="filter0_i_659_34891" x="5.25195" y="3.50146" width="33.25" height="33.25" filterUnits="userSpaceOnUse" color-interpolation-filters="sRGB">
<feFlood flood-opacity="0" result="BackgroundImageFix"/>
<feBlend mode="normal" in="SourceGraphic" in2="BackgroundImageFix" result="shape"/>
<feColorMatrix in="SourceAlpha" type="matrix" values="0 0 0 0 0 0 0 0 0 0 0 0 0 0 0 0 0 0 127 0" result="hardAlpha"/>
<feOffset dx="1.75" dy="-1.75"/>
<feGaussianBlur stdDeviation="1.4"/>
<feComposite in2="hardAlpha" operator="arithmetic" k2="-1" k3="1"/>
<feColorMatrix type="matrix" values="0 0 0 0 0.0932688 0 0 0 0 0.153132 0 0 0 0 0.317757 0 0 0 0.5 0"/>
<feBlend mode="normal" in2="shape" result="effect1_innerShadow_659_34891"/>
</filter>
<filter id="filter1_i_659_34891" x="11.8027" y="19.25" width="3.79883" height="3.79736" filterUnits="userSpaceOnUse" color-interpolation-filters="sRGB">
<feFlood flood-opacity="0" result="BackgroundImageFix"/>
<feBlend mode="normal" in="SourceGraphic" in2="BackgroundImageFix" result="shape"/>
<feColorMatrix in="SourceAlpha" type="matrix" values="0 0 0 0 0 0 0 0 0 0 0 0 0 0 0 0 0 0 127 0" result="hardAlpha"/>
<feOffset/>
<feGaussianBlur stdDeviation="0.875"/>
<feComposite in2="hardAlpha" operator="arithmetic" k2="-1" k3="1"/>
<feColorMatrix type="matrix" values="0 0 0 0 0.0304345 0 0 0 0 0.0345348 0 0 0 0 0.276449 0 0 0 0.2 0"/>
<feBlend mode="normal" in2="shape" result="effect1_innerShadow_659_34891"/>
</filter>
<filter id="filter2_i_659_34891" x="19.1016" y="19.25" width="3.79883" height="3.79736" filterUnits="userSpaceOnUse" color-interpolation-filters="sRGB">
<feFlood flood-opacity="0" result="BackgroundImageFix"/>
<feBlend mode="normal" in="SourceGraphic" in2="BackgroundImageFix" result="shape"/>
<feColorMatrix in="SourceAlpha" type="matrix" values="0 0 0 0 0 0 0 0 0 0 0 0 0 0 0 0 0 0 127 0" result="hardAlpha"/>
<feOffset/>
<feGaussianBlur stdDeviation="0.875"/>
<feComposite in2="hardAlpha" operator="arithmetic" k2="-1" k3="1"/>
<feColorMatrix type="matrix" values="0 0 0 0 0.0304345 0 0 0 0 0.0345348 0 0 0 0 0.276449 0 0 0 0.2 0"/>
<feBlend mode="normal" in2="shape" result="effect1_innerShadow_659_34891"/>
</filter>
<filter id="filter3_i_659_34891" x="26.4004" y="19.25" width="3.79883" height="3.79736" filterUnits="userSpaceOnUse" color-interpolation-filters="sRGB">
<feFlood flood-opacity="0" result="BackgroundImageFix"/>
<feBlend mode="normal" in="SourceGraphic" in2="BackgroundImageFix" result="shape"/>
<feColorMatrix in="SourceAlpha" type="matrix" values="0 0 0 0 0 0 0 0 0 0 0 0 0 0 0 0 0 0 127 0" result="hardAlpha"/>
<feOffset/>
<feGaussianBlur stdDeviation="0.875"/>
<feComposite in2="hardAlpha" operator="arithmetic" k2="-1" k3="1"/>
<feColorMatrix type="matrix" values="0 0 0 0 0.0304345 0 0 0 0 0.0345348 0 0 0 0 0.276449 0 0 0 0.2 0"/>
<feBlend mode="normal" in2="shape" result="effect1_innerShadow_659_34891"/>
</filter>
<linearGradient id="paint0_linear_659_34891" x1="23.625" y1="-1.75051" x2="0.693799" y2="35.9296" gradientUnits="userSpaceOnUse">
<stop stop-color="#5586FF"/>
<stop offset="0.557473" stop-color="#4279FF"/>
<stop offset="1" stop-color="#3E29FF"/>
</linearGradient>
<linearGradient id="paint1_linear_659_34891" x1="23.625" y1="-1.75051" x2="0.693799" y2="35.9296" gradientUnits="userSpaceOnUse">
<stop stop-color="#5586FF"/>
<stop offset="0.557473" stop-color="#4279FF"/>
<stop offset="1" stop-color="#3E29FF"/>
</linearGradient>
<linearGradient id="paint2_linear_659_34891" x1="13.7022" y1="19.25" x2="14.5329" y2="23.6127" gradientUnits="userSpaceOnUse">
<stop stop-color="#F6F6F6"/>
<stop offset="0.445588" stop-color="white"/>
<stop offset="1" stop-color="#F4F4F4"/>
</linearGradient>
<linearGradient id="paint3_linear_659_34891" x1="21.001" y1="19.25" x2="21.8317" y2="23.6127" gradientUnits="userSpaceOnUse">
<stop stop-color="#F6F6F6"/>
<stop offset="0.445588" stop-color="white"/>
<stop offset="1" stop-color="#F4F4F4"/>
</linearGradient>
<linearGradient id="paint4_linear_659_34891" x1="28.2998" y1="19.25" x2="29.1305" y2="23.6127" gradientUnits="userSpaceOnUse">
<stop stop-color="#F6F6F6"/>
<stop offset="0.445588" stop-color="white"/>
<stop offset="1" stop-color="#F4F4F4"/>
</linearGradient>
</defs>
</svg>
