<svg width="20" height="20" viewBox="0 0 20 20" fill="none" xmlns="http://www.w3.org/2000/svg">
<g clip-path="url(#clip0_3830_21521)">
<path fill-rule="evenodd" clip-rule="evenodd" d="M10.0006 2.50016C5.85851 2.50016 2.50065 5.85803 2.50065 10.0002C2.50065 14.1423 5.85851 17.5002 10.0006 17.5002C14.1428 17.5002 17.5006 14.1423 17.5006 10.0002C17.5006 5.85803 14.1428 2.50016 10.0006 2.50016ZM0.833984 10.0002C0.833984 4.93755 4.93804 0.833496 10.0006 0.833496C15.0633 0.833496 19.1673 4.93755 19.1673 10.0002C19.1673 15.0628 15.0633 19.1668 10.0006 19.1668C4.93804 19.1668 0.833984 15.0628 0.833984 10.0002Z" fill="#D92D20"/>
<path fill-rule="evenodd" clip-rule="evenodd" d="M5.83398 10.0002C5.83398 9.53992 6.20708 9.16683 6.66732 9.16683H13.334C13.7942 9.16683 14.1673 9.53992 14.1673 10.0002C14.1673 10.4604 13.7942 10.8335 13.334 10.8335H6.66732C6.20708 10.8335 5.83398 10.4604 5.83398 10.0002Z" fill="#D92D20"/>
</g>
<defs>
<clipPath id="clip0_3830_21521">
<rect width="20" height="20" fill="white"/>
</clipPath>
</defs>
</svg>
