<svg width="32" height="32" viewBox="0 0 32 32" fill="none" xmlns="http://www.w3.org/2000/svg">
<g filter="url(#filter0_i_962_49055)">
<g filter="url(#filter1_i_962_49055)">
<path d="M5.97656 9.91665V25.7105C5.97656 27.4473 5.97656 28.3157 6.32527 28.9743C6.60667 29.5057 7.0413 29.9404 7.57277 30.2218C8.23136 30.5705 9.09976 30.5705 10.8366 30.5705H21.1631C22.8999 30.5705 23.7683 30.5705 24.4269 30.2218C24.9584 29.9404 25.393 29.5057 25.6744 28.9743C26.0231 28.3157 26.0231 27.4473 26.0231 25.7105V9.91665C26.0231 8.17984 26.0231 7.31144 25.6744 6.65285C25.393 6.12138 24.9584 5.68674 24.4269 5.40534C23.7683 5.05664 22.8999 5.05664 21.1631 5.05664H10.8366C9.09976 5.05664 8.23136 5.05664 7.57277 5.40534C7.0413 5.68674 6.60667 6.12138 6.32527 6.65285C5.97656 7.31144 5.97656 8.17984 5.97656 9.91665Z" fill="url(#paint0_linear_962_49055)"/>
</g>
<g filter="url(#filter2_i_962_49055)">
<path d="M24.5542 23.4158L19.9485 24.7317L18.6326 29.3374L9.42114 29.3374C8.33099 29.3374 7.44727 28.4537 7.44727 27.3635L7.44726 8.85293C7.44726 7.76278 8.33099 6.87905 9.42114 6.87905L22.5803 6.87905C23.6705 6.87905 24.5542 7.76277 24.5542 8.85292L24.5542 23.4158Z" fill="url(#paint1_linear_962_49055)"/>
</g>
<g filter="url(#filter3_i_962_49055)">
<path d="M24.5544 23.4158L19.9487 23.4158C19.225 23.4158 18.6328 24.0079 18.6328 24.7317L18.6328 29.3374C18.8039 29.3374 18.975 29.2716 19.0933 29.14L24.357 23.8763C24.4887 23.7579 24.5544 23.5868 24.5544 23.4158Z" fill="url(#paint2_linear_962_49055)"/>
</g>
<g filter="url(#filter4_i_962_49055)">
<g filter="url(#filter5_i_962_49055)">
<path d="M16.0105 14.5059H19.9882C20.3767 14.5059 20.6921 14.8212 20.6921 15.2098C20.6921 15.5983 20.3767 15.9137 19.9882 15.9137H16.0105C15.622 15.9137 15.3066 15.5983 15.3066 15.2098C15.3066 14.8212 15.622 14.5059 16.0105 14.5059Z" fill="url(#paint3_linear_962_49055)"/>
</g>
<g filter="url(#filter6_i_962_49055)">
<path d="M18.0105 11.5532H19.9882C20.3767 11.5532 20.6921 11.8686 20.6921 12.2571C20.6921 12.6457 20.3767 12.961 19.9882 12.961H18.0105C17.622 12.961 17.3066 12.6457 17.3066 12.2571C17.3066 11.8686 17.622 11.5532 18.0105 11.5532Z" fill="url(#paint4_linear_962_49055)"/>
</g>
<g filter="url(#filter7_i_962_49055)">
<path d="M12.0105 17.459H19.9882C20.3767 17.459 20.6921 17.7743 20.6921 18.1629C20.6921 18.5514 20.3767 18.8668 19.9882 18.8668H12.0105C11.622 18.8668 11.3066 18.5514 11.3066 18.1629C11.3066 17.7743 11.622 17.459 12.0105 17.459Z" fill="url(#paint5_linear_962_49055)"/>
</g>
<g filter="url(#filter8_i_962_49055)">
<path d="M12.0105 20.4116H19.9882C20.3767 20.4116 20.6921 20.727 20.6921 21.1155C20.6921 21.5041 20.3767 21.8194 19.9882 21.8194H12.0105C11.622 21.8194 11.3066 21.5041 11.3066 21.1155C11.3066 20.727 11.622 20.4116 12.0105 20.4116Z" fill="url(#paint6_linear_962_49055)"/>
</g>
</g>
<g filter="url(#filter9_i_962_49055)">
<path d="M19.0018 3.98163C18.6055 3.81807 18.3052 3.48274 18.1863 3.07042C17.8341 1.86262 16.5694 1.16919 15.3616 1.52137C14.6144 1.73915 14.0303 2.32323 13.8125 3.07042C13.6936 3.48274 13.3933 3.81807 12.997 3.98163L12.0174 4.37345C11.6721 4.51104 11.4447 4.84455 11.4434 5.21632V6.87927C11.4434 7.38271 11.8511 7.79048 12.3546 7.79048H19.6442C20.1477 7.79048 20.5554 7.38271 20.5554 6.87927V5.21632C20.5541 4.84455 20.3267 4.51104 19.9814 4.37345L19.0018 3.98163ZM15.9994 4.60125C15.496 4.60125 15.0882 4.19349 15.0882 3.69004C15.0882 3.1866 15.496 2.77884 15.9994 2.77884C16.5028 2.77884 16.9106 3.1866 16.9106 3.69004C16.9106 4.19349 16.5028 4.60125 15.9994 4.60125Z" fill="url(#paint7_linear_962_49055)"/>
</g>
<g filter="url(#filter10_i_962_49055)">
<path fill-rule="evenodd" clip-rule="evenodd" d="M15.9281 11.4826C16.2285 11.783 16.2285 12.27 15.9281 12.5704L12.8514 15.6471C12.551 15.9474 12.064 15.9474 11.7636 15.6471L10.2253 14.1087C9.92491 13.8083 9.92491 13.3213 10.2253 13.021C10.5257 12.7206 11.0127 12.7206 11.3131 13.021L12.3075 14.0154L14.8403 11.4826C15.1407 11.1822 15.6277 11.1822 15.9281 11.4826Z" fill="url(#paint8_linear_962_49055)"/>
</g>
</g>
<defs>
<filter id="filter0_i_962_49055" x="0" y="0" width="32" height="34.6667" filterUnits="userSpaceOnUse" color-interpolation-filters="sRGB">
<feFlood flood-opacity="0" result="BackgroundImageFix"/>
<feBlend mode="normal" in="SourceGraphic" in2="BackgroundImageFix" result="shape"/>
<feColorMatrix in="SourceAlpha" type="matrix" values="0 0 0 0 0 0 0 0 0 0 0 0 0 0 0 0 0 0 127 0" result="hardAlpha"/>
<feOffset dy="2.66667"/>
<feGaussianBlur stdDeviation="4"/>
<feComposite in2="hardAlpha" operator="arithmetic" k2="-1" k3="1"/>
<feColorMatrix type="matrix" values="0 0 0 0 0.0932688 0 0 0 0 0.153132 0 0 0 0 0.317757 0 0 0 0.1 0"/>
<feBlend mode="normal" in2="shape" result="effect1_innerShadow_962_49055"/>
</filter>
<filter id="filter1_i_962_49055" x="5.97656" y="4.05664" width="21.0469" height="26.5137" filterUnits="userSpaceOnUse" color-interpolation-filters="sRGB">
<feFlood flood-opacity="0" result="BackgroundImageFix"/>
<feBlend mode="normal" in="SourceGraphic" in2="BackgroundImageFix" result="shape"/>
<feColorMatrix in="SourceAlpha" type="matrix" values="0 0 0 0 0 0 0 0 0 0 0 0 0 0 0 0 0 0 127 0" result="hardAlpha"/>
<feOffset dx="1" dy="-1"/>
<feGaussianBlur stdDeviation="0.8"/>
<feComposite in2="hardAlpha" operator="arithmetic" k2="-1" k3="1"/>
<feColorMatrix type="matrix" values="0 0 0 0 0.0932688 0 0 0 0 0.153132 0 0 0 0 0.317757 0 0 0 0.5 0"/>
<feBlend mode="normal" in2="shape" result="effect1_innerShadow_962_49055"/>
</filter>
<filter id="filter2_i_962_49055" x="7.03137" y="6.46301" width="17.5233" height="22.8744" filterUnits="userSpaceOnUse" color-interpolation-filters="sRGB">
<feFlood flood-opacity="0" result="BackgroundImageFix"/>
<feBlend mode="normal" in="SourceGraphic" in2="BackgroundImageFix" result="shape"/>
<feColorMatrix in="SourceAlpha" type="matrix" values="0 0 0 0 0 0 0 0 0 0 0 0 0 0 0 0 0 0 127 0" result="hardAlpha"/>
<feOffset dx="-0.415895" dy="-0.415895"/>
<feGaussianBlur stdDeviation="0.415895"/>
<feComposite in2="hardAlpha" operator="arithmetic" k2="-1" k3="1"/>
<feColorMatrix type="matrix" values="0 0 0 0 0.0304345 0 0 0 0 0.0345348 0 0 0 0 0.276449 0 0 0 0.28 0"/>
<feBlend mode="normal" in2="shape" result="effect1_innerShadow_962_49055"/>
</filter>
<filter id="filter3_i_962_49055" x="18.6328" y="23.4155" width="5.92188" height="5.92188" filterUnits="userSpaceOnUse" color-interpolation-filters="sRGB">
<feFlood flood-opacity="0" result="BackgroundImageFix"/>
<feBlend mode="normal" in="SourceGraphic" in2="BackgroundImageFix" result="shape"/>
<feColorMatrix in="SourceAlpha" type="matrix" values="0 0 0 0 0 0 0 0 0 0 0 0 0 0 0 0 0 0 127 0" result="hardAlpha"/>
<feOffset/>
<feGaussianBlur stdDeviation="0.5"/>
<feComposite in2="hardAlpha" operator="arithmetic" k2="-1" k3="1"/>
<feColorMatrix type="matrix" values="0 0 0 0 0.0304345 0 0 0 0 0.0345348 0 0 0 0 0.276449 0 0 0 0.38 0"/>
<feBlend mode="normal" in2="shape" result="effect1_innerShadow_962_49055"/>
</filter>
<filter id="filter4_i_962_49055" x="11.3066" y="10.7214" width="10.2166" height="11.0979" filterUnits="userSpaceOnUse" color-interpolation-filters="sRGB">
<feFlood flood-opacity="0" result="BackgroundImageFix"/>
<feBlend mode="normal" in="SourceGraphic" in2="BackgroundImageFix" result="shape"/>
<feColorMatrix in="SourceAlpha" type="matrix" values="0 0 0 0 0 0 0 0 0 0 0 0 0 0 0 0 0 0 127 0" result="hardAlpha"/>
<feOffset dx="0.831791" dy="-0.831791"/>
<feGaussianBlur stdDeviation="0.665433"/>
<feComposite in2="hardAlpha" operator="arithmetic" k2="-1" k3="1"/>
<feColorMatrix type="matrix" values="0 0 0 0 0.0932688 0 0 0 0 0.153132 0 0 0 0 0.317757 0 0 0 0.5 0"/>
<feBlend mode="normal" in2="shape" result="effect1_innerShadow_962_49055"/>
</filter>
<filter id="filter5_i_962_49055" x="15.3066" y="14.3059" width="5.38477" height="1.60771" filterUnits="userSpaceOnUse" color-interpolation-filters="sRGB">
<feFlood flood-opacity="0" result="BackgroundImageFix"/>
<feBlend mode="normal" in="SourceGraphic" in2="BackgroundImageFix" result="shape"/>
<feColorMatrix in="SourceAlpha" type="matrix" values="0 0 0 0 0 0 0 0 0 0 0 0 0 0 0 0 0 0 127 0" result="hardAlpha"/>
<feOffset dy="-0.2"/>
<feGaussianBlur stdDeviation="0.3"/>
<feComposite in2="hardAlpha" operator="arithmetic" k2="-1" k3="1"/>
<feColorMatrix type="matrix" values="0 0 0 0 0.0932688 0 0 0 0 0.153132 0 0 0 0 0.317757 0 0 0 0.28 0"/>
<feBlend mode="normal" in2="shape" result="effect1_innerShadow_962_49055"/>
</filter>
<filter id="filter6_i_962_49055" x="17.3066" y="11.3532" width="3.38477" height="1.60771" filterUnits="userSpaceOnUse" color-interpolation-filters="sRGB">
<feFlood flood-opacity="0" result="BackgroundImageFix"/>
<feBlend mode="normal" in="SourceGraphic" in2="BackgroundImageFix" result="shape"/>
<feColorMatrix in="SourceAlpha" type="matrix" values="0 0 0 0 0 0 0 0 0 0 0 0 0 0 0 0 0 0 127 0" result="hardAlpha"/>
<feOffset dy="-0.2"/>
<feGaussianBlur stdDeviation="0.3"/>
<feComposite in2="hardAlpha" operator="arithmetic" k2="-1" k3="1"/>
<feColorMatrix type="matrix" values="0 0 0 0 0.0932688 0 0 0 0 0.153132 0 0 0 0 0.317757 0 0 0 0.28 0"/>
<feBlend mode="normal" in2="shape" result="effect1_innerShadow_962_49055"/>
</filter>
<filter id="filter7_i_962_49055" x="11.3066" y="17.259" width="9.38477" height="1.60771" filterUnits="userSpaceOnUse" color-interpolation-filters="sRGB">
<feFlood flood-opacity="0" result="BackgroundImageFix"/>
<feBlend mode="normal" in="SourceGraphic" in2="BackgroundImageFix" result="shape"/>
<feColorMatrix in="SourceAlpha" type="matrix" values="0 0 0 0 0 0 0 0 0 0 0 0 0 0 0 0 0 0 127 0" result="hardAlpha"/>
<feOffset dy="-0.2"/>
<feGaussianBlur stdDeviation="0.3"/>
<feComposite in2="hardAlpha" operator="arithmetic" k2="-1" k3="1"/>
<feColorMatrix type="matrix" values="0 0 0 0 0.0932688 0 0 0 0 0.153132 0 0 0 0 0.317757 0 0 0 0.28 0"/>
<feBlend mode="normal" in2="shape" result="effect1_innerShadow_962_49055"/>
</filter>
<filter id="filter8_i_962_49055" x="11.3066" y="20.2116" width="9.38477" height="1.60771" filterUnits="userSpaceOnUse" color-interpolation-filters="sRGB">
<feFlood flood-opacity="0" result="BackgroundImageFix"/>
<feBlend mode="normal" in="SourceGraphic" in2="BackgroundImageFix" result="shape"/>
<feColorMatrix in="SourceAlpha" type="matrix" values="0 0 0 0 0 0 0 0 0 0 0 0 0 0 0 0 0 0 127 0" result="hardAlpha"/>
<feOffset dy="-0.2"/>
<feGaussianBlur stdDeviation="0.3"/>
<feComposite in2="hardAlpha" operator="arithmetic" k2="-1" k3="1"/>
<feColorMatrix type="matrix" values="0 0 0 0 0.0932688 0 0 0 0 0.153132 0 0 0 0 0.317757 0 0 0 0.28 0"/>
<feBlend mode="normal" in2="shape" result="effect1_innerShadow_962_49055"/>
</filter>
<filter id="filter9_i_962_49055" x="11.4434" y="0.597897" width="9.94312" height="7.19263" filterUnits="userSpaceOnUse" color-interpolation-filters="sRGB">
<feFlood flood-opacity="0" result="BackgroundImageFix"/>
<feBlend mode="normal" in="SourceGraphic" in2="BackgroundImageFix" result="shape"/>
<feColorMatrix in="SourceAlpha" type="matrix" values="0 0 0 0 0 0 0 0 0 0 0 0 0 0 0 0 0 0 127 0" result="hardAlpha"/>
<feOffset dx="0.831791" dy="-0.831791"/>
<feGaussianBlur stdDeviation="0.665433"/>
<feComposite in2="hardAlpha" operator="arithmetic" k2="-1" k3="1"/>
<feColorMatrix type="matrix" values="0 0 0 0 0.0932688 0 0 0 0 0.153132 0 0 0 0 0.317757 0 0 0 0.5 0"/>
<feBlend mode="normal" in2="shape" result="effect1_innerShadow_962_49055"/>
</filter>
<filter id="filter10_i_962_49055" x="10" y="10.4573" width="6.1543" height="5.41523" filterUnits="userSpaceOnUse" color-interpolation-filters="sRGB">
<feFlood flood-opacity="0" result="BackgroundImageFix"/>
<feBlend mode="normal" in="SourceGraphic" in2="BackgroundImageFix" result="shape"/>
<feColorMatrix in="SourceAlpha" type="matrix" values="0 0 0 0 0 0 0 0 0 0 0 0 0 0 0 0 0 0 127 0" result="hardAlpha"/>
<feOffset dy="-1"/>
<feGaussianBlur stdDeviation="0.4"/>
<feComposite in2="hardAlpha" operator="arithmetic" k2="-1" k3="1"/>
<feColorMatrix type="matrix" values="0 0 0 0 0.0932688 0 0 0 0 0.153132 0 0 0 0 0.317757 0 0 0 0.48 0"/>
<feBlend mode="normal" in2="shape" result="effect1_innerShadow_962_49055"/>
</filter>
<linearGradient id="paint0_linear_962_49055" x1="17.6692" y1="-0.614698" x2="-2.57792" y2="25.5257" gradientUnits="userSpaceOnUse">
<stop stop-color="#5586FF"/>
<stop offset="0.557473" stop-color="#4279FF"/>
<stop offset="1" stop-color="#3E29FF"/>
</linearGradient>
<linearGradient id="paint1_linear_962_49055" x1="7.44726" y1="18.1082" x2="27.3928" y2="21.0021" gradientUnits="userSpaceOnUse">
<stop stop-color="#F6F6F6"/>
<stop offset="0.320133" stop-color="white"/>
<stop offset="1" stop-color="#F4F4F4"/>
</linearGradient>
<linearGradient id="paint2_linear_962_49055" x1="23.501" y1="25.5" x2="18.0292" y2="25.1076" gradientUnits="userSpaceOnUse">
<stop stop-color="#F6F6F6"/>
<stop offset="0.320133" stop-color="white"/>
<stop offset="1" stop-color="#F4F4F4"/>
</linearGradient>
<linearGradient id="paint3_linear_962_49055" x1="20.6921" y1="14.1505" x2="19.9394" y2="17.3827" gradientUnits="userSpaceOnUse">
<stop stop-color="#5586FF"/>
<stop offset="0.557473" stop-color="#4279FF"/>
<stop offset="1" stop-color="#3E29FF"/>
</linearGradient>
<linearGradient id="paint4_linear_962_49055" x1="20.6921" y1="11.1979" x2="19.5821" y2="14.1942" gradientUnits="userSpaceOnUse">
<stop stop-color="#5586FF"/>
<stop offset="0.557473" stop-color="#4279FF"/>
<stop offset="1" stop-color="#3E29FF"/>
</linearGradient>
<linearGradient id="paint5_linear_962_49055" x1="20.6921" y1="17.1036" x2="20.2448" y2="20.4514" gradientUnits="userSpaceOnUse">
<stop stop-color="#5586FF"/>
<stop offset="0.557473" stop-color="#4279FF"/>
<stop offset="1" stop-color="#3E29FF"/>
</linearGradient>
<linearGradient id="paint6_linear_962_49055" x1="20.6921" y1="20.0563" x2="20.2448" y2="23.404" gradientUnits="userSpaceOnUse">
<stop stop-color="#5586FF"/>
<stop offset="0.557473" stop-color="#4279FF"/>
<stop offset="1" stop-color="#3E29FF"/>
</linearGradient>
<linearGradient id="paint7_linear_962_49055" x1="16.4994" y1="-0.499817" x2="14.751" y2="8.82849" gradientUnits="userSpaceOnUse">
<stop stop-color="#5586FF"/>
<stop offset="0.557473" stop-color="#4279FF"/>
<stop offset="1" stop-color="#3E29FF"/>
</linearGradient>
<linearGradient id="paint8_linear_962_49055" x1="13.5891" y1="10.2315" x2="9.83874" y2="17.7423" gradientUnits="userSpaceOnUse">
<stop stop-color="#5586FF"/>
<stop offset="0.557473" stop-color="#4279FF"/>
<stop offset="1" stop-color="#3E29FF"/>
</linearGradient>
</defs>
</svg>
