<svg width="20" height="20" viewBox="0 0 20 20" fill="none" xmlns="http://www.w3.org/2000/svg">
<path fill-rule="evenodd" clip-rule="evenodd" d="M4.1665 3.33366C3.94549 3.33366 3.73353 3.42146 3.57725 3.57774C3.42097 3.73402 3.33317 3.94598 3.33317 4.16699C3.33317 4.38801 3.42097 4.59997 3.57725 4.75625C3.73353 4.91253 3.94549 5.00033 4.1665 5.00033H14.9998V3.33366H4.1665ZM16.6665 5.00033V2.50033C16.6665 2.04009 16.2934 1.66699 15.8332 1.66699H4.1665C3.50346 1.66699 2.86758 1.93038 2.39874 2.39923C1.9299 2.86807 1.6665 3.50395 1.6665 4.16699C1.6665 4.83003 1.9299 5.46592 2.39874 5.93476C2.86758 6.4036 3.50346 6.66699 4.1665 6.66699H16.6665V10.0003C16.6665 10.4606 17.0396 10.8337 17.4998 10.8337C17.9601 10.8337 18.3332 10.4606 18.3332 10.0003V5.83366C18.3332 5.37342 17.9601 5.00033 17.4998 5.00033H16.6665Z" fill="#303136"/>
<path fill-rule="evenodd" clip-rule="evenodd" d="M2.49984 3.33366C2.96007 3.33366 3.33317 3.70675 3.33317 4.16699V15.8337C3.33317 16.0547 3.42097 16.2666 3.57725 16.4229C3.73353 16.5792 3.94549 16.667 4.1665 16.667H16.6665V13.3337C16.6665 12.8734 17.0396 12.5003 17.4998 12.5003C17.9601 12.5003 18.3332 12.8734 18.3332 13.3337V17.5003C18.3332 17.9606 17.9601 18.3337 17.4998 18.3337H4.1665C3.50346 18.3337 2.86758 18.0703 2.39874 17.6014C1.9299 17.1326 1.6665 16.4967 1.6665 15.8337V4.16699C1.6665 3.70675 2.0396 3.33366 2.49984 3.33366Z" fill="#303136"/>
<path fill-rule="evenodd" clip-rule="evenodd" d="M13.2321 9.89923C13.7009 9.43039 14.3368 9.16699 14.9998 9.16699H18.3332C18.7934 9.16699 19.1665 9.54009 19.1665 10.0003V13.3337C19.1665 13.7939 18.7934 14.167 18.3332 14.167H14.9998C14.3368 14.167 13.7009 13.9036 13.2321 13.4348C12.7632 12.9659 12.4998 12.33 12.4998 11.667C12.4998 11.004 12.7632 10.3681 13.2321 9.89923ZM14.9998 10.8337C14.7788 10.8337 14.5669 10.9215 14.4106 11.0777C14.2543 11.234 14.1665 11.446 14.1665 11.667C14.1665 11.888 14.2543 12.1 14.4106 12.2562C14.5669 12.4125 14.7788 12.5003 14.9998 12.5003H17.4998V10.8337H14.9998Z" fill="#303136"/>
</svg>
