<svg width="20" height="20" viewBox="0 0 20 20" fill="none" xmlns="http://www.w3.org/2000/svg">
<path fill-rule="evenodd" clip-rule="evenodd" d="M4.16699 3.33366C3.70675 3.33366 3.33366 3.70675 3.33366 4.16699V15.8337C3.33366 16.2939 3.70675 16.667 4.16699 16.667H15.8337C16.2939 16.667 16.667 16.2939 16.667 15.8337V4.16699C16.667 3.70675 16.2939 3.33366 15.8337 3.33366H4.16699ZM1.66699 4.16699C1.66699 2.78628 2.78628 1.66699 4.16699 1.66699H15.8337C17.2144 1.66699 18.3337 2.78628 18.3337 4.16699V15.8337C18.3337 17.2144 17.2144 18.3337 15.8337 18.3337H4.16699C2.78628 18.3337 1.66699 17.2144 1.66699 15.8337V4.16699Z" fill="#1D57C3"/>
<path fill-rule="evenodd" clip-rule="evenodd" d="M12.5003 1.66699C12.9606 1.66699 13.3337 2.04009 13.3337 2.50033V17.5003C13.3337 17.9606 12.9606 18.3337 12.5003 18.3337C12.0401 18.3337 11.667 17.9606 11.667 17.5003V2.50033C11.667 2.04009 12.0401 1.66699 12.5003 1.66699Z" fill="#1D57C3"/>
<path fill-rule="evenodd" clip-rule="evenodd" d="M6.07774 6.91107C6.40317 6.58563 6.93081 6.58563 7.25625 6.91107L9.75625 9.41107C10.0817 9.73651 10.0817 10.2641 9.75625 10.5896L7.25625 13.0896C6.93081 13.415 6.40317 13.415 6.07774 13.0896C5.7523 12.7641 5.7523 12.2365 6.07774 11.9111L7.98848 10.0003L6.07774 8.08958C5.7523 7.76414 5.7523 7.23651 6.07774 6.91107Z" fill="#1D57C3"/>
</svg>
