<svg width="20" height="20" viewBox="0 0 20 20" fill="none" xmlns="http://www.w3.org/2000/svg">
<g clip-path="url(#clip0_2067_31194)">
<path fill-rule="evenodd" clip-rule="evenodd" d="M1.56548 3.23242C2.03433 2.76358 2.67021 2.50019 3.33325 2.50019H9.16658C9.62682 2.50019 9.99992 2.87328 9.99992 3.33352C9.99992 3.79376 9.62682 4.16686 9.16658 4.16686H3.33325C3.11224 4.16686 2.90028 4.25465 2.744 4.41093C2.58772 4.56721 2.49992 4.77917 2.49992 5.00019V16.6669C2.49992 16.8879 2.58772 17.0998 2.744 17.2561C2.90028 17.4124 3.11224 17.5002 3.33325 17.5002H14.9999C15.2209 17.5002 15.4329 17.4124 15.5892 17.2561C15.7455 17.0998 15.8332 16.8879 15.8332 16.6669V10.8335C15.8332 10.3733 16.2063 10.0002 16.6666 10.0002C17.1268 10.0002 17.4999 10.3733 17.4999 10.8335V16.6669C17.4999 17.3299 17.2365 17.9658 16.7677 18.4346C16.2988 18.9035 15.663 19.1669 14.9999 19.1669H3.33325C2.67021 19.1669 2.03433 18.9035 1.56548 18.4346C1.09664 17.9658 0.833252 17.3299 0.833252 16.6669V5.00019C0.833252 4.33715 1.09664 3.70126 1.56548 3.23242Z" fill="#1D57C3"/>
<path fill-rule="evenodd" clip-rule="evenodd" d="M16.6666 2.39909C16.4188 2.39909 16.1811 2.49754 16.0058 2.67278L8.25239 10.4262L7.81189 12.1882L9.57388 11.7477L17.3273 3.99427C17.5026 3.81903 17.601 3.58135 17.601 3.33352C17.601 3.0857 17.5026 2.84802 17.3273 2.67278C17.1521 2.49754 16.9144 2.39909 16.6666 2.39909ZM14.8273 1.49427C15.3151 1.00647 15.9767 0.732422 16.6666 0.732422C17.3564 0.732422 18.018 1.00647 18.5058 1.49427C18.9936 1.98207 19.2677 2.64367 19.2677 3.33352C19.2677 4.02338 18.9936 4.68498 18.5058 5.17278L10.5892 13.0894C10.4824 13.1962 10.3486 13.272 10.202 13.3086L6.8687 14.142C6.58472 14.213 6.28431 14.1298 6.07733 13.9228C5.87035 13.7158 5.78714 13.4154 5.85813 13.1314L6.69147 9.79808C6.7281 9.65155 6.80386 9.51773 6.91066 9.41093L14.8273 1.49427Z" fill="#1D57C3"/>
</g>
<defs>
<clipPath id="clip0_2067_31194">
<rect width="20" height="20" fill="white"/>
</clipPath>
</defs>
</svg>
