<svg width="18" height="18" viewBox="0 0 18 18" fill="none" xmlns="http://www.w3.org/2000/svg">
<g clip-path="url(#clip0_1310_49383)">
<path fill-rule="evenodd" clip-rule="evenodd" d="M5.83636 2.43136C5.69837 2.31269 5.52194 2.24825 5.33995 2.25004C5.33749 2.25006 5.33503 2.25007 5.33257 2.25007H3.08298C2.97896 2.25021 2.8761 2.27199 2.78095 2.31402C2.68571 2.35609 2.60026 2.41753 2.53007 2.49443C2.45987 2.57133 2.40645 2.66201 2.37322 2.76068C2.34051 2.8578 2.32805 2.96057 2.3366 3.06265C2.57116 5.26132 3.3198 7.37397 4.52203 9.2298C4.52322 9.23164 4.52441 9.23348 4.52558 9.23533C5.61803 10.9545 7.07561 12.4121 8.79481 13.5046C8.79601 13.5053 8.79721 13.5061 8.79841 13.5069L8.80065 13.5083C10.6478 14.7062 12.7498 15.4546 14.9383 15.6936C15.0404 15.7021 15.1432 15.6895 15.2404 15.6566C15.3393 15.6232 15.4301 15.5694 15.5071 15.4988C15.5841 15.4282 15.6454 15.3423 15.6873 15.2466C15.7291 15.1509 15.7505 15.0476 15.7501 14.9431C15.7501 14.9421 15.7501 14.9411 15.7501 14.9401V12.6901C15.7501 12.6839 15.7501 12.6777 15.7503 12.6715C15.7549 12.4876 15.6917 12.3084 15.5728 12.168C15.4544 12.0284 15.2891 11.9368 15.108 11.9106C14.3333 11.8081 13.5726 11.6185 12.8404 11.3452L12.8387 11.3446C12.7045 11.2942 12.5586 11.2832 12.4183 11.3131C12.2787 11.3429 12.1504 11.412 12.0487 11.5121C12.0482 11.5126 12.0478 11.513 12.0474 11.5134L11.0979 12.4629C10.8592 12.7016 10.4903 12.7514 10.1968 12.5845C8.20184 11.4501 6.55 9.7983 5.4156 7.80329C5.24872 7.5098 5.29851 7.14098 5.53724 6.90224L6.48802 5.95146C6.58818 5.8497 6.65721 5.72146 6.687 5.5818C6.71691 5.44156 6.70599 5.29569 6.65553 5.16147L6.6549 5.15978C6.38169 4.42762 6.19204 3.66695 6.08955 2.89224C6.06355 2.71312 5.97364 2.54942 5.83636 2.43136ZM5.32926 0.750073C5.87379 0.745696 6.40148 0.938956 6.81442 1.29408C7.22839 1.65009 7.49878 2.14449 7.57519 2.68511C7.57551 2.68741 7.57583 2.6897 7.57613 2.692C7.66367 3.35575 7.826 4.00747 8.06001 4.63474C8.21103 5.03711 8.24365 5.47433 8.154 5.89467C8.06428 6.31538 7.85583 6.70155 7.55336 7.00743C7.55238 7.00842 7.55139 7.00941 7.5504 7.0104L7.01258 7.54822C7.89447 8.93171 9.06844 10.1057 10.4519 10.9876L10.9897 10.4497C10.9907 10.4488 10.9917 10.4478 10.9927 10.4468C11.2986 10.1443 11.6848 9.93586 12.1055 9.84614C12.5259 9.75648 12.9631 9.78912 13.3656 9.94019C13.9928 10.1742 14.6444 10.3365 15.3081 10.424C15.3104 10.4243 15.3126 10.4246 15.3148 10.4249C15.8613 10.502 16.3604 10.7773 16.7172 11.1984C17.0718 11.6168 17.2612 12.1503 17.2501 12.6984V14.9391C17.2511 15.2517 17.1869 15.5611 17.0616 15.8475C16.9361 16.1346 16.752 16.3923 16.5212 16.6041C16.2903 16.8159 16.0177 16.9772 15.7209 17.0776C15.4241 17.1779 15.1096 17.2152 14.7976 17.187C14.7931 17.1866 14.7886 17.1862 14.7841 17.1857C12.3607 16.9224 10.0329 16.0946 7.98739 14.7687C6.08453 13.559 4.47106 11.9455 3.26132 10.0426C1.9308 7.98778 1.10277 5.64857 0.844265 3.21427C0.843852 3.21038 0.843468 3.20648 0.843116 3.20257C0.815002 2.89147 0.851975 2.57793 0.951678 2.2819C1.05138 1.98587 1.21163 1.71385 1.42223 1.48315C1.63282 1.25245 1.88915 1.06812 2.17488 0.94191C2.46061 0.815699 2.7695 0.750367 3.08187 0.750073L5.32926 0.750073Z" fill="#51525C"/>
</g>
<defs>
<clipPath id="clip0_1310_49383">
<rect width="18" height="18" fill="white"/>
</clipPath>
</defs>
</svg>
