<svg width="21" height="20" viewBox="0 0 21 20" fill="none" xmlns="http://www.w3.org/2000/svg">
<path fill-rule="evenodd" clip-rule="evenodd" d="M7.93046 2.02568C8.11453 2.44751 7.9218 2.93868 7.49998 3.12276C6.37714 3.61275 5.39142 4.37033 4.62901 5.32928C3.8666 6.28823 3.3507 7.41935 3.12643 8.62374C2.90215 9.82812 2.97632 11.0691 3.34245 12.2382C3.70859 13.4073 4.35554 14.4689 5.22674 15.3303C6.09795 16.1916 7.16688 16.8263 8.34009 17.1791C9.5133 17.5319 10.7551 17.5919 11.9568 17.3538C13.1586 17.1158 14.2837 16.587 15.2339 15.8137C16.1841 15.0404 16.9303 14.0461 17.4075 12.9178C17.5867 12.4939 18.0757 12.2955 18.4996 12.4748C18.9235 12.654 19.1218 13.143 18.9425 13.5669C18.3594 14.946 17.4473 16.1612 16.2859 17.1064C15.1246 18.0516 13.7494 18.6978 12.2806 18.9888C10.8118 19.2797 9.2941 19.2063 7.86018 18.7752C6.42626 18.344 5.11978 17.5682 4.05498 16.5155C2.99017 15.4628 2.19946 14.1652 1.75196 12.7363C1.30446 11.3074 1.21381 9.79065 1.48793 8.31862C1.76204 6.84659 2.39258 5.46412 3.32442 4.29207C4.25626 3.12002 5.46102 2.19408 6.83338 1.59521C7.2552 1.41113 7.74638 1.60386 7.93046 2.02568Z" fill="#1D57C3"/>
<path fill-rule="evenodd" clip-rule="evenodd" d="M9.91076 1.07806C10.067 0.921782 10.279 0.833984 10.5 0.833984C11.7038 0.833984 12.8958 1.07109 14.0079 1.53176C15.1201 1.99242 16.1306 2.66764 16.9818 3.51884C17.833 4.37004 18.5082 5.38057 18.9689 6.49272C19.4296 7.60487 19.6667 8.79687 19.6667 10.0007C19.6667 10.4609 19.2936 10.834 18.8333 10.834H10.5C10.0398 10.834 9.66668 10.4609 9.66668 10.0007V1.66732C9.66668 1.4463 9.75448 1.23434 9.91076 1.07806ZM11.3333 2.54709V9.16732H17.9536C17.8754 8.46849 17.6993 7.78273 17.4291 7.13052C17.0522 6.22058 16.4998 5.39379 15.8033 4.69735C15.1069 4.00091 14.2801 3.44846 13.3701 3.07155C12.7179 2.8014 12.0322 2.62522 11.3333 2.54709Z" fill="#1D57C3"/>
</svg>
