<svg width="20" height="20" viewBox="0 0 20 20" fill="none" xmlns="http://www.w3.org/2000/svg">
<g clip-path="url(#clip0_7461_55028)">
<path fill-rule="evenodd" clip-rule="evenodd" d="M4.16671 1.66732C4.16671 1.20708 4.5398 0.833984 5.00004 0.833984H15C15.4603 0.833984 15.8334 1.20708 15.8334 1.66732V7.50065C15.8334 7.96089 15.4603 8.33398 15 8.33398C14.5398 8.33398 14.1667 7.96089 14.1667 7.50065V2.50065H5.83337V7.50065C5.83337 7.96089 5.46028 8.33398 5.00004 8.33398C4.5398 8.33398 4.16671 7.96089 4.16671 7.50065V1.66732Z" fill="#1D57C3"/>
<path fill-rule="evenodd" clip-rule="evenodd" d="M3.33337 8.33398C3.11236 8.33398 2.9004 8.42178 2.74412 8.57806C2.58784 8.73434 2.50004 8.9463 2.50004 9.16732V13.334C2.50004 13.555 2.58784 13.767 2.74412 13.9232C2.9004 14.0795 3.11236 14.1673 3.33337 14.1673H5.00004C5.46028 14.1673 5.83337 14.5404 5.83337 15.0006C5.83337 15.4609 5.46028 15.834 5.00004 15.834H3.33337C2.67033 15.834 2.03445 15.5706 1.56561 15.1017C1.09677 14.6329 0.833374 13.997 0.833374 13.334V9.16732C0.833374 8.50428 1.09677 7.86839 1.56561 7.39955C2.03445 6.93071 2.67033 6.66732 3.33337 6.66732H16.6667C17.3297 6.66732 17.9656 6.93071 18.4345 7.39955C18.9033 7.86839 19.1667 8.50428 19.1667 9.16732V13.334C19.1667 13.997 18.9033 14.6329 18.4345 15.1017C17.9656 15.5706 17.3297 15.834 16.6667 15.834H15C14.5398 15.834 14.1667 15.4609 14.1667 15.0006C14.1667 14.5404 14.5398 14.1673 15 14.1673H16.6667C16.8877 14.1673 17.0997 14.0795 17.256 13.9232C17.4122 13.767 17.5 13.555 17.5 13.334V9.16732C17.5 8.9463 17.4122 8.73434 17.256 8.57806C17.0997 8.42178 16.8877 8.33398 16.6667 8.33398H3.33337Z" fill="#1D57C3"/>
<path fill-rule="evenodd" clip-rule="evenodd" d="M4.16671 11.6673C4.16671 11.2071 4.5398 10.834 5.00004 10.834H15C15.4603 10.834 15.8334 11.2071 15.8334 11.6673V18.334C15.8334 18.7942 15.4603 19.1673 15 19.1673H5.00004C4.5398 19.1673 4.16671 18.7942 4.16671 18.334V11.6673ZM5.83337 12.5007V17.5006H14.1667V12.5007H5.83337Z" fill="#1D57C3"/>
</g>
<defs>
<clipPath id="clip0_7461_55028">
<rect width="20" height="20" fill="white"/>
</clipPath>
</defs>
</svg>
