<svg width="21" height="20" viewBox="0 0 21 20" fill="none" xmlns="http://www.w3.org/2000/svg">
<path fill-rule="evenodd" clip-rule="evenodd" d="M10.1913 3.52464C10.1912 3.52469 10.1915 3.52458 10.1913 3.52464L3.52467 6.1913C3.37027 6.25279 3.23779 6.35904 3.14424 6.4964C3.05095 6.63337 3.00062 6.79504 2.99967 6.96074V16.6671C2.99967 16.8881 3.08747 17.1001 3.24375 17.2564C3.40003 17.4126 3.61199 17.5004 3.83301 17.5004H17.1663C17.3874 17.5004 17.5993 17.4126 17.7556 17.2564C17.9119 17.1001 17.9997 16.8881 17.9997 16.6671V6.96082C17.9987 6.79509 17.9484 6.63339 17.8551 6.4964C17.7616 6.35904 17.6291 6.25279 17.4747 6.1913L10.808 3.52464C10.8079 3.52458 10.8081 3.52469 10.808 3.52464C10.6103 3.446 10.3891 3.446 10.1913 3.52464ZM9.57467 1.97625C10.1687 1.73969 10.8307 1.73969 11.4247 1.97625L11.4258 1.97671L18.0913 4.64291C18.0916 4.64303 18.0919 4.64315 18.0922 4.64327C18.555 4.82779 18.9522 5.14639 19.2326 5.5582C19.5133 5.97027 19.6643 6.45685 19.6663 6.95541L19.6663 6.95878L19.6663 16.6671C19.6663 17.3302 19.4029 17.966 18.9341 18.4349C18.4653 18.9037 17.8294 19.1671 17.1663 19.1671H3.83301C3.16997 19.1671 2.53408 18.9037 2.06524 18.4349C1.5964 17.966 1.33301 17.3302 1.33301 16.6671V6.95541C1.33502 6.45685 1.48606 5.97027 1.76672 5.5582C2.04725 5.1463 2.44448 4.82765 2.90742 4.64315C2.90722 4.64323 2.90762 4.64307 2.90742 4.64315L9.57467 1.97625Z" fill="#303136"/>
<path fill-rule="evenodd" clip-rule="evenodd" d="M4.66634 15.0004C4.66634 14.5402 5.03944 14.1671 5.49967 14.1671H15.4997C15.9599 14.1671 16.333 14.5402 16.333 15.0004C16.333 15.4607 15.9599 15.8338 15.4997 15.8338H5.49967C5.03944 15.8338 4.66634 15.4607 4.66634 15.0004Z" fill="#303136"/>
<path fill-rule="evenodd" clip-rule="evenodd" d="M4.66634 11.6671C4.66634 11.2069 5.03944 10.8338 5.49967 10.8338H15.4997C15.9599 10.8338 16.333 11.2069 16.333 11.6671C16.333 12.1273 15.9599 12.5004 15.4997 12.5004H5.49967C5.03944 12.5004 4.66634 12.1273 4.66634 11.6671Z" fill="#303136"/>
<path fill-rule="evenodd" clip-rule="evenodd" d="M4.66634 8.33378C4.66634 7.87354 5.03944 7.50044 5.49967 7.50044H15.4997C15.9599 7.50044 16.333 7.87354 16.333 8.33378V18.3338C16.333 18.794 15.9599 19.1671 15.4997 19.1671H5.49967C5.03944 19.1671 4.66634 18.794 4.66634 18.3338V8.33378ZM6.33301 9.16711V17.5004H14.6663V9.16711H6.33301Z" fill="#303136"/>
</svg>
