<svg width="20" height="20" viewBox="0 0 20 20" fill="none" xmlns="http://www.w3.org/2000/svg">
<g clip-path="url(#clip0_7818_48227)">
<path fill-rule="evenodd" clip-rule="evenodd" d="M13.3335 2.50065C12.8771 2.50065 12.5002 2.87755 12.5002 3.33398C12.5002 3.79422 12.1271 4.16732 11.6668 4.16732C11.2066 4.16732 10.8335 3.79422 10.8335 3.33398C10.8335 1.95708 11.9566 0.833984 13.3335 0.833984C13.7937 0.833984 14.1668 1.20708 14.1668 1.66732C14.1668 2.12755 13.7937 2.50065 13.3335 2.50065Z" fill="#1D57C3"/>
<path fill-rule="evenodd" clip-rule="evenodd" d="M15.8335 1.66732C15.8335 1.20708 16.2066 0.833984 16.6668 0.833984C18.0437 0.833984 19.1668 1.95708 19.1668 3.33398C19.1668 3.79422 18.7937 4.16732 18.3335 4.16732C17.8733 4.16732 17.5002 3.79422 17.5002 3.33398C17.5002 2.87755 17.1233 2.50065 16.6668 2.50065C16.2066 2.50065 15.8335 2.12755 15.8335 1.66732Z" fill="#1D57C3"/>
<path fill-rule="evenodd" clip-rule="evenodd" d="M18.3335 5.83398C18.7937 5.83398 19.1668 6.20708 19.1668 6.66732C19.1668 8.04422 18.0437 9.16732 16.6668 9.16732C16.2066 9.16732 15.8335 8.79422 15.8335 8.33398C15.8335 7.87375 16.2066 7.50065 16.6668 7.50065C17.1233 7.50065 17.5002 7.12375 17.5002 6.66732C17.5002 6.20708 17.8733 5.83398 18.3335 5.83398Z" fill="#1D57C3"/>
<path fill-rule="evenodd" clip-rule="evenodd" d="M11.6668 5.83398C12.1271 5.83398 12.5002 6.20708 12.5002 6.66732C12.5002 7.12375 12.8771 7.50065 13.3335 7.50065C13.7937 7.50065 14.1668 7.87375 14.1668 8.33398C14.1668 8.79422 13.7937 9.16732 13.3335 9.16732C11.9566 9.16732 10.8335 8.04422 10.8335 6.66732C10.8335 6.20708 11.2066 5.83398 11.6668 5.83398Z" fill="#1D57C3"/>
<path fill-rule="evenodd" clip-rule="evenodd" d="M1.91091 5.24473C2.23634 4.91929 2.76398 4.91929 3.08942 5.24473L5.00016 7.15547L6.91091 5.24473C7.23634 4.91929 7.76398 4.91929 8.08942 5.24473C8.41485 5.57017 8.41485 6.0978 8.08942 6.42324L5.58942 8.92324C5.26398 9.24868 4.73634 9.24868 4.41091 8.92324L1.91091 6.42324C1.58547 6.0978 1.58547 5.57017 1.91091 5.24473Z" fill="#1D57C3"/>
<path fill-rule="evenodd" clip-rule="evenodd" d="M7.50016 2.50065C6.54373 2.50065 5.8335 3.21089 5.8335 4.16732V8.33398C5.8335 8.79422 5.4604 9.16732 5.00016 9.16732C4.53992 9.16732 4.16683 8.79422 4.16683 8.33398V4.16732C4.16683 2.29041 5.62326 0.833984 7.50016 0.833984H8.33349C8.79373 0.833984 9.16683 1.20708 9.16683 1.66732C9.16683 2.12755 8.79373 2.50065 8.33349 2.50065H7.50016Z" fill="#1D57C3"/>
<path fill-rule="evenodd" clip-rule="evenodd" d="M3.3335 12.5006C2.87326 12.5006 2.50016 12.8737 2.50016 13.334V16.6673C2.50016 17.1276 2.87326 17.5006 3.3335 17.5006H6.66683C7.12707 17.5006 7.50016 17.1276 7.50016 16.6673V13.334C7.50016 12.8737 7.12707 12.5006 6.66683 12.5006H3.3335ZM0.833496 13.334C0.833496 11.9533 1.95278 10.834 3.3335 10.834H6.66683C8.04754 10.834 9.16683 11.9533 9.16683 13.334V16.6673C9.16683 18.048 8.04754 19.1673 6.66683 19.1673H3.3335C1.95278 19.1673 0.833496 18.048 0.833496 16.6673V13.334Z" fill="#1D57C3"/>
</g>
<defs>
<clipPath id="clip0_7818_48227">
<rect width="20" height="20" fill="white"/>
</clipPath>
</defs>
</svg>
