<svg width="42" height="42" viewBox="0 0 42 42" fill="none" xmlns="http://www.w3.org/2000/svg">
<g filter="url(#filter0_i_1240_68138)">
<g filter="url(#filter1_i_1240_68138)">
<path d="M20.9406 37.6517C19.5341 37.6517 18.3147 37.0793 17.5831 36.1888C17.113 35.6167 16.878 35.3306 16.7804 35.2459C16.6599 35.1414 16.6613 35.1423 16.522 35.0647C16.4091 35.0019 16.286 34.9583 16.0398 34.8713C14.3199 34.2633 12.1258 33.763 9.56225 33.763C8.21399 33.763 6.84808 33.9058 5.5024 34.1874V34.1874C4.56037 34.3845 4.08936 34.4831 3.71693 34.3715C3.32935 34.2555 3.00346 33.9907 2.81046 33.6351C2.625 33.2934 2.625 32.8122 2.625 31.8498V8.41843C2.625 8.09997 2.625 7.94074 2.65635 7.78819C2.68192 7.6638 2.72286 7.54307 2.77824 7.42878C2.84615 7.28863 2.94301 7.16225 3.13673 6.90948L4.40653 5.25262C4.4963 5.1355 4.54118 5.07693 4.79753 4.92572C4.92549 4.85024 5.33193 4.72558 5.4802 4.71634C5.77725 4.69781 5.83809 4.71808 5.95975 4.75863C8.39707 5.57086 15.016 7.94257 19.608 10.5951C20.1702 10.9198 20.4512 11.0822 20.6971 11.1318C20.9198 11.1767 21.08 11.1767 21.3027 11.1318C21.5486 11.0822 21.8297 10.9198 22.3918 10.5951C26.9842 7.94238 33.6037 5.57057 36.0406 4.75848C36.1626 4.71782 36.2236 4.69749 36.5204 4.71588C36.6686 4.72507 37.0746 4.84932 37.2025 4.92466C37.4588 5.07551 37.5038 5.13417 37.594 5.2515L38.8523 6.88927C39.0466 7.14216 39.1437 7.2686 39.2118 7.40887C39.2674 7.52325 39.3085 7.64411 39.3342 7.76865C39.3657 7.92138 39.3657 8.08083 39.3658 8.39973L39.3739 31.8498C39.3742 32.8116 39.3744 33.2925 39.1894 33.634C38.9963 33.9903 38.67 34.2555 38.2818 34.3716C37.9096 34.4829 37.4389 34.3844 36.4975 34.1874V34.1874C35.152 33.9059 33.7862 33.763 32.4378 33.763C29.7483 33.763 27.4574 34.333 25.7774 34.9419C25.5389 35.0284 25.4196 35.0717 25.3102 35.133C25.1757 35.2085 25.176 35.2083 25.0593 35.3089C24.9643 35.3909 24.7364 35.6638 24.2807 36.2098C23.5473 37.0883 22.336 37.6517 20.9406 37.6517Z" fill="url(#paint0_linear_1240_68138)"/>
</g>
<g filter="url(#filter2_i_1240_68138)">
<path d="M5.22767 4.54626C5.10072 4.49686 4.9564 4.53725 4.87353 4.64537L4.24317 5.46787C4.2022 5.52133 4.17999 5.58681 4.17999 5.65416V32.4465C4.17999 32.686 4.45332 32.8514 4.67612 32.7636C5.53986 32.4232 7.57542 31.8496 11.1243 32.0785C15.3656 32.3521 17.9952 33.6594 18.6513 34.0218C18.7527 34.0779 18.8065 34.1881 18.8119 34.3039C18.8353 34.7992 19.0795 36.0988 21.0001 36.0988V10.8932C21.0001 10.767 20.9226 10.6536 20.8049 10.6078L5.22767 4.54626Z" fill="url(#paint1_linear_1240_68138)"/>
<path d="M36.7724 4.54626C36.8994 4.49686 37.0437 4.53725 37.1266 4.64537L37.7569 5.46787C37.7979 5.52133 37.8201 5.58681 37.8201 5.65416V32.4465C37.8201 32.686 37.5468 32.8514 37.324 32.7636C36.4602 32.4232 34.4247 31.8496 30.8758 32.0785C26.6345 32.3521 24.0048 33.6594 23.3488 34.0218C23.2474 34.0779 23.1936 34.1881 23.1882 34.3039C23.1648 34.7992 22.9206 36.0988 21.0001 36.0988V10.8932C21.0001 10.767 21.0775 10.6536 21.1952 10.6078L36.7724 4.54626Z" fill="url(#paint2_linear_1240_68138)"/>
</g>
<g filter="url(#filter3_i_1240_68138)">
<path d="M21.0001 32.2773V35.2638C21.9367 35.2638 22.696 34.7864 22.696 34.1972V33.344C22.696 32.7548 21.9366 32.2773 21.0001 32.2773Z" fill="url(#paint3_linear_1240_68138)"/>
</g>
<g filter="url(#filter4_i_1240_68138)">
<path d="M19.3041 33.344V34.1972C19.3041 34.7864 20.0631 35.2638 21 35.2638V32.2773C20.0631 32.2773 19.3041 32.7548 19.3041 33.344Z" fill="url(#paint4_linear_1240_68138)"/>
</g>
<g filter="url(#filter5_i_1240_68138)">
<path d="M21.0001 9.09651V34.6596C21.0001 34.6596 14.4106 29.8836 5.01337 31.8502V4.46143C5.01337 4.46143 13.2824 3.19729 21.0001 9.09651Z" fill="url(#paint5_linear_1240_68138)"/>
</g>
<g filter="url(#filter6_i_1240_68138)">
<path d="M21.0001 9.09651V34.6596C21.0001 34.6596 27.5896 29.8836 36.9868 31.8502V4.46143C36.9868 4.46143 28.7177 3.19729 21.0001 9.09651Z" fill="url(#paint6_linear_1240_68138)"/>
</g>
<g filter="url(#filter7_i_1240_68138)">
<path d="M34.3956 15.1777C29.4042 15.4258 26.1717 16.5536 24.3381 17.4565C24.1713 17.5384 24.0439 17.6832 23.9838 17.859C23.9238 18.0349 23.9361 18.2274 24.018 18.3942C24.1 18.561 24.2448 18.6884 24.4206 18.7485C24.5965 18.8085 24.789 18.7962 24.9558 18.7143C26.6706 17.8694 29.7124 16.8129 34.4641 16.5774C34.5558 16.5728 34.6458 16.5502 34.7288 16.5108C34.8119 16.4715 34.8863 16.4161 34.948 16.348C35.0096 16.2799 35.0572 16.2003 35.0881 16.1137C35.119 16.0272 35.1325 15.9354 35.1279 15.8437C35.1233 15.7519 35.1007 15.6619 35.0614 15.5789C35.022 15.4959 34.9667 15.4214 34.8985 15.3598C34.8304 15.2981 34.7508 15.2505 34.6643 15.2197C34.5777 15.1888 34.486 15.1752 34.3942 15.1798L34.3956 15.1777Z" fill="url(#paint7_linear_1240_68138)"/>
</g>
<g filter="url(#filter8_i_1240_68138)">
<path d="M34.3957 18.8499C29.4043 19.0973 26.1718 20.2258 24.3382 21.1286C24.1718 21.2106 24.0448 21.3552 23.9852 21.5307C23.9255 21.7063 23.938 21.8983 24.0199 22.0647C24.1018 22.231 24.2464 22.358 24.422 22.4177C24.5975 22.4774 24.7895 22.4649 24.9559 22.383C26.6707 21.5381 29.7125 20.4816 34.4642 20.2461C34.5559 20.2415 34.6459 20.2189 34.7289 20.1795C34.8119 20.1402 34.8864 20.0848 34.948 20.0167C35.0097 19.9486 35.0573 19.869 35.0882 19.7824C35.1191 19.6959 35.1326 19.6041 35.128 19.5124C35.1234 19.4206 35.1008 19.3306 35.0614 19.2476C35.0221 19.1646 34.9668 19.0901 34.8986 19.0285C34.8305 18.9668 34.7509 18.9192 34.6644 18.8883C34.5778 18.8575 34.486 18.8439 34.3943 18.8485L34.3957 18.8499Z" fill="url(#paint8_linear_1240_68138)"/>
</g>
<g filter="url(#filter9_i_1240_68138)">
<path d="M34.3956 22.5238C29.4043 22.7711 26.1717 23.8997 24.3381 24.8025C24.2553 24.8427 24.1813 24.899 24.1203 24.9679C24.0593 25.0369 24.0125 25.1172 23.9827 25.2043C23.9528 25.2914 23.9405 25.3836 23.9464 25.4755C23.9522 25.5673 23.9762 25.6572 24.0169 25.7397C24.0576 25.8223 24.1142 25.8961 24.1835 25.9567C24.2528 26.0173 24.3334 26.0637 24.4206 26.0931C24.5079 26.1225 24.6001 26.1343 24.6919 26.128C24.7838 26.1216 24.8735 26.0972 24.9558 26.0561C26.6706 25.212 29.7124 24.1554 34.4641 23.9199C34.5559 23.9153 34.6459 23.8927 34.7289 23.8534C34.8119 23.814 34.8864 23.7587 34.948 23.6905C35.0096 23.6224 35.0573 23.5428 35.0881 23.4563C35.119 23.3697 35.1326 23.278 35.128 23.1862C35.1234 23.0944 35.1008 23.0045 35.0614 22.9214C35.022 22.8384 34.9667 22.764 34.8986 22.7023C34.8305 22.6407 34.7509 22.5931 34.6643 22.5622C34.5778 22.5313 34.486 22.5178 34.3942 22.5224L34.3956 22.5238Z" fill="url(#paint9_linear_1240_68138)"/>
</g>
<g filter="url(#filter10_i_1240_68138)">
<path d="M34.3956 26.1973C29.4028 26.4446 26.171 27.5725 24.3381 28.4746C24.1713 28.5565 24.0439 28.7013 23.9838 28.8772C23.9238 29.053 23.9361 29.2456 24.018 29.4123C24.1 29.5791 24.2448 29.7066 24.4206 29.7666C24.5965 29.8266 24.789 29.8143 24.9558 29.7324C26.6699 28.8876 29.711 27.8324 34.4641 27.5969C34.6494 27.5877 34.8235 27.5051 34.948 27.3675C35.0725 27.2299 35.1372 27.0485 35.1279 26.8632C35.1187 26.6779 35.0361 26.5038 34.8985 26.3793C34.7609 26.2548 34.5795 26.1901 34.3942 26.1994L34.3956 26.1973Z" fill="url(#paint10_linear_1240_68138)"/>
</g>
<g filter="url(#filter11_i_1240_68138)">
<path d="M24.6471 11.4361C24.7528 11.4362 24.8572 11.4123 24.9524 11.3662C25.8205 10.9504 26.7204 10.6043 27.6434 10.3313C27.7313 10.3049 27.8132 10.2614 27.8843 10.2034C27.9554 10.1453 28.0144 10.0738 28.0578 9.99297C28.1013 9.91212 28.1284 9.8235 28.1377 9.73217C28.1469 9.64083 28.138 9.54858 28.1116 9.46067C28.0852 9.37276 28.0417 9.29091 27.9836 9.21981C27.9256 9.1487 27.8541 9.08973 27.7732 9.04625C27.6924 9.00278 27.6038 8.97566 27.5124 8.96643C27.4211 8.9572 27.3288 8.96606 27.2409 8.99249C26.2464 9.28778 25.277 9.66164 24.3417 10.1105C24.2005 10.1801 24.0869 10.2954 24.0193 10.4376C23.9518 10.5799 23.9343 10.7408 23.9696 10.8942C24.005 11.0477 24.0911 11.1847 24.2141 11.283C24.337 11.3814 24.4896 11.4353 24.6471 11.4361Z" fill="url(#paint11_linear_1240_68138)"/>
</g>
<g filter="url(#filter12_i_1240_68138)">
<path d="M27.2408 12.6605C26.243 12.9544 25.2716 13.3314 24.3367 13.7876C24.1765 13.8732 24.056 14.0178 24.0007 14.1908C23.9453 14.3638 23.9595 14.5515 24.0401 14.7142C24.1208 14.8769 24.2617 15.0018 24.4328 15.0625C24.604 15.1231 24.7921 15.1147 24.9572 15.0391C25.8219 14.6178 26.7204 14.27 27.6433 13.9993C27.8209 13.9459 27.9699 13.8242 28.0577 13.6609C28.1455 13.4977 28.1649 13.3062 28.1115 13.1286C28.0581 12.9511 27.9364 12.802 27.7731 12.7142C27.6098 12.6264 27.4184 12.6071 27.2408 12.6605Z" fill="url(#paint12_linear_1240_68138)"/>
</g>
<g filter="url(#filter13_i_1240_68138)">
<path d="M34.9113 8.02324C34.8431 7.95752 34.7622 7.90655 34.6734 7.87349C34.5847 7.84043 34.4901 7.82599 34.3956 7.83107C32.9589 7.89771 31.528 8.05784 30.1121 8.31043C29.9512 8.33971 29.8057 8.42448 29.7008 8.54999C29.596 8.6755 29.5385 8.8338 29.5384 8.99733V12.6729C29.5384 12.8582 29.612 13.036 29.7431 13.167C29.8741 13.2981 30.0518 13.3717 30.2372 13.3717C30.2805 13.3715 30.3238 13.3676 30.3664 13.3598C31.7188 13.112 33.0869 12.9593 34.4606 12.9028C34.6405 12.8949 34.8105 12.8178 34.9349 12.6876C35.0594 12.5574 35.1288 12.3842 35.1286 12.204V8.52915C35.1285 8.4345 35.1092 8.34085 35.0719 8.25389C35.0345 8.16692 34.9799 8.08845 34.9113 8.02324Z" fill="url(#paint13_linear_1240_68138)"/>
</g>
<g filter="url(#filter14_i_1240_68138)">
<path d="M8.1307 15.1465C13.1221 15.3946 16.3546 16.5224 18.1882 17.4252C18.355 17.5071 18.4824 17.6519 18.5425 17.8278C18.6025 18.0037 18.5902 18.1962 18.5083 18.363C18.4264 18.5298 18.2815 18.6572 18.1057 18.7172C17.9298 18.7772 17.7373 18.7649 17.5705 18.683C15.8557 17.8382 12.8139 16.7816 8.06222 16.5461C7.97046 16.5416 7.8805 16.5189 7.79747 16.4796C7.71445 16.4402 7.63999 16.3849 7.57835 16.3168C7.5167 16.2486 7.46908 16.169 7.43821 16.0825C7.40733 15.996 7.3938 15.9042 7.39838 15.8124C7.40297 15.7207 7.42559 15.6307 7.46495 15.5477C7.5043 15.4646 7.55963 15.3902 7.62776 15.3285C7.69589 15.2669 7.7755 15.2193 7.86203 15.1884C7.94857 15.1575 8.04034 15.144 8.1321 15.1486L8.1307 15.1465Z" fill="url(#paint14_linear_1240_68138)"/>
</g>
<g filter="url(#filter15_i_1240_68138)">
<path d="M8.16678 11.4941C13.1582 11.7422 16.3907 12.87 18.2243 13.7729C18.3911 13.8548 18.5185 13.9996 18.5785 14.1755C18.6386 14.3513 18.6263 14.5438 18.5443 14.7106C18.4624 14.8774 18.3176 15.0048 18.1417 15.0649C17.9659 15.1249 17.7734 15.1126 17.6066 15.0307C15.8918 14.1858 12.85 13.1293 8.0983 12.8938C8.00653 12.8892 7.91657 12.8666 7.83355 12.8272C7.75052 12.7879 7.67606 12.7326 7.61442 12.6644C7.55278 12.5963 7.50516 12.5167 7.47428 12.4301C7.4434 12.3436 7.42987 12.2518 7.43446 12.1601C7.43904 12.0683 7.46166 11.9783 7.50102 11.8953C7.54038 11.8123 7.5957 11.7378 7.66383 11.6762C7.73196 11.6146 7.81157 11.5669 7.8981 11.5361C7.98464 11.5052 8.07641 11.4916 8.16817 11.4962L8.16678 11.4941Z" fill="url(#paint15_linear_1240_68138)"/>
</g>
<g filter="url(#filter16_i_1240_68138)">
<path d="M8.16678 7.79688C13.1582 8.04494 16.3907 9.17277 18.2243 10.0756C18.3911 10.1575 18.5185 10.3023 18.5785 10.4782C18.6386 10.6541 18.6263 10.8466 18.5443 11.0134C18.4624 11.1801 18.3176 11.3076 18.1417 11.3676C17.9659 11.4276 17.7734 11.4153 17.6066 11.3334C15.8918 10.4886 12.85 9.43202 8.0983 9.19653C8.00653 9.19194 7.91657 9.16932 7.83355 9.12997C7.75052 9.09061 7.67606 9.03529 7.61442 8.96716C7.55278 8.89902 7.50516 8.81942 7.47428 8.73288C7.4434 8.64635 7.42987 8.55458 7.43446 8.46281C7.43904 8.37105 7.46166 8.28108 7.50102 8.19806C7.54038 8.11504 7.5957 8.04058 7.66383 7.97893C7.73196 7.91729 7.81157 7.86967 7.8981 7.83879C7.98464 7.80791 8.07641 7.79438 8.16817 7.79897L8.16678 7.79688Z" fill="url(#paint16_linear_1240_68138)"/>
</g>
<g filter="url(#filter17_i_1240_68138)">
<path d="M8.13069 18.8187C13.1221 19.066 16.3546 20.1946 18.1882 21.0974C18.3545 21.1793 18.4815 21.3239 18.5412 21.4995C18.6009 21.675 18.5884 21.8671 18.5065 22.0334C18.4246 22.1997 18.28 22.3267 18.1044 22.3864C17.9289 22.4461 17.7368 22.4336 17.5705 22.3517C15.8557 21.5069 12.8139 20.4503 8.06221 20.2148C7.97044 20.2102 7.88048 20.1876 7.79746 20.1483C7.71443 20.1089 7.63997 20.0536 7.57833 19.9855C7.51668 19.9173 7.46907 19.8377 7.43819 19.7512C7.40731 19.6647 7.39378 19.5729 7.39837 19.4811C7.40295 19.3894 7.42557 19.2994 7.46493 19.2164C7.50429 19.1333 7.55961 19.0589 7.62774 18.9972C7.69587 18.9356 7.77548 18.888 7.86201 18.8571C7.94855 18.8262 8.04032 18.8127 8.13208 18.8173L8.13069 18.8187Z" fill="url(#paint17_linear_1240_68138)"/>
</g>
<g filter="url(#filter18_i_1240_68138)">
<path d="M8.1306 22.4925C13.122 22.7399 16.3545 23.8684 18.1881 24.7712C18.2709 24.8115 18.3449 24.8677 18.4059 24.9367C18.4669 25.0057 18.5137 25.086 18.5436 25.1731C18.5734 25.2602 18.5857 25.3523 18.5799 25.4442C18.574 25.5361 18.55 25.6259 18.5093 25.7085C18.4686 25.7911 18.412 25.8648 18.3427 25.9255C18.2735 25.9861 18.1929 26.0324 18.1056 26.0618C18.0184 26.0912 17.9262 26.1031 17.8343 26.0967C17.7425 26.0904 17.6528 26.066 17.5704 26.0248C15.8556 25.1807 12.8138 24.1242 8.06212 23.8887C7.97036 23.8841 7.88039 23.8615 7.79737 23.8221C7.71435 23.7827 7.63989 23.7274 7.57824 23.6593C7.5166 23.5912 7.46898 23.5116 7.4381 23.425C7.40722 23.3385 7.39369 23.2467 7.39828 23.1549C7.40287 23.0632 7.42549 22.9732 7.46484 22.8902C7.5042 22.8072 7.55952 22.7327 7.62766 22.6711C7.69579 22.6094 7.77539 22.5618 7.86193 22.5309C7.94846 22.5 8.04023 22.4865 8.132 22.4911L8.1306 22.4925Z" fill="url(#paint18_linear_1240_68138)"/>
</g>
<g filter="url(#filter19_i_1240_68138)">
<path d="M8.1307 26.1641C13.1235 26.4114 16.3553 27.5393 18.1882 28.4414C18.355 28.5233 18.4824 28.6681 18.5425 28.844C18.6025 29.0198 18.5902 29.2123 18.5083 29.3791C18.4264 29.5459 18.2815 29.6734 18.1057 29.7334C17.9298 29.7934 17.7373 29.7811 17.5705 29.6992C15.8564 28.8544 12.8153 27.7992 8.06222 27.5637C7.8769 27.5545 7.70284 27.4719 7.57835 27.3343C7.45385 27.1967 7.38912 27.0153 7.39838 26.83C7.40765 26.6447 7.49016 26.4706 7.62776 26.3461C7.76536 26.2216 7.94677 26.1569 8.1321 26.1662L8.1307 26.1641Z" fill="url(#paint19_linear_1240_68138)"/>
</g>
</g>
<defs>
<filter id="filter0_i_1240_68138" x="0" y="0" width="42" height="45.5" filterUnits="userSpaceOnUse" color-interpolation-filters="sRGB">
<feFlood flood-opacity="0" result="BackgroundImageFix"/>
<feBlend mode="normal" in="SourceGraphic" in2="BackgroundImageFix" result="shape"/>
<feColorMatrix in="SourceAlpha" type="matrix" values="0 0 0 0 0 0 0 0 0 0 0 0 0 0 0 0 0 0 127 0" result="hardAlpha"/>
<feOffset dy="3.5"/>
<feGaussianBlur stdDeviation="5.25"/>
<feComposite in2="hardAlpha" operator="arithmetic" k2="-1" k3="1"/>
<feColorMatrix type="matrix" values="0 0 0 0 0.0932688 0 0 0 0 0.153132 0 0 0 0 0.317757 0 0 0 0.1 0"/>
<feBlend mode="normal" in2="shape" result="effect1_innerShadow_1240_68138"/>
</filter>
<filter id="filter1_i_1240_68138" x="2.625" y="3.17773" width="38.2802" height="34.4746" filterUnits="userSpaceOnUse" color-interpolation-filters="sRGB">
<feFlood flood-opacity="0" result="BackgroundImageFix"/>
<feBlend mode="normal" in="SourceGraphic" in2="BackgroundImageFix" result="shape"/>
<feColorMatrix in="SourceAlpha" type="matrix" values="0 0 0 0 0 0 0 0 0 0 0 0 0 0 0 0 0 0 127 0" result="hardAlpha"/>
<feOffset dx="1.53125" dy="-1.53125"/>
<feGaussianBlur stdDeviation="1.225"/>
<feComposite in2="hardAlpha" operator="arithmetic" k2="-1" k3="1"/>
<feColorMatrix type="matrix" values="0 0 0 0 0.0932688 0 0 0 0 0.153132 0 0 0 0 0.317757 0 0 0 0.5 0"/>
<feBlend mode="normal" in2="shape" result="effect1_innerShadow_1240_68138"/>
</filter>
<filter id="filter2_i_1240_68138" x="4.17999" y="4.21914" width="33.6401" height="31.8805" filterUnits="userSpaceOnUse" color-interpolation-filters="sRGB">
<feFlood flood-opacity="0" result="BackgroundImageFix"/>
<feBlend mode="normal" in="SourceGraphic" in2="BackgroundImageFix" result="shape"/>
<feColorMatrix in="SourceAlpha" type="matrix" values="0 0 0 0 0 0 0 0 0 0 0 0 0 0 0 0 0 0 127 0" result="hardAlpha"/>
<feOffset dy="-0.30625"/>
<feGaussianBlur stdDeviation="0.459375"/>
<feComposite in2="hardAlpha" operator="arithmetic" k2="-1" k3="1"/>
<feColorMatrix type="matrix" values="0 0 0 0 0.0932688 0 0 0 0 0.153132 0 0 0 0 0.317757 0 0 0 0.28 0"/>
<feBlend mode="normal" in2="shape" result="effect1_innerShadow_1240_68138"/>
</filter>
<filter id="filter3_i_1240_68138" x="21.0001" y="32.2773" width="1.69592" height="2.98633" filterUnits="userSpaceOnUse" color-interpolation-filters="sRGB">
<feFlood flood-opacity="0" result="BackgroundImageFix"/>
<feBlend mode="normal" in="SourceGraphic" in2="BackgroundImageFix" result="shape"/>
<feColorMatrix in="SourceAlpha" type="matrix" values="0 0 0 0 0 0 0 0 0 0 0 0 0 0 0 0 0 0 127 0" result="hardAlpha"/>
<feOffset/>
<feGaussianBlur stdDeviation="0.765625"/>
<feComposite in2="hardAlpha" operator="arithmetic" k2="-1" k3="1"/>
<feColorMatrix type="matrix" values="0 0 0 0 0.0304345 0 0 0 0 0.0345348 0 0 0 0 0.276449 0 0 0 0.38 0"/>
<feBlend mode="normal" in2="shape" result="effect1_innerShadow_1240_68138"/>
</filter>
<filter id="filter4_i_1240_68138" x="18.6672" y="31.6405" width="2.33276" height="3.62317" filterUnits="userSpaceOnUse" color-interpolation-filters="sRGB">
<feFlood flood-opacity="0" result="BackgroundImageFix"/>
<feBlend mode="normal" in="SourceGraphic" in2="BackgroundImageFix" result="shape"/>
<feColorMatrix in="SourceAlpha" type="matrix" values="0 0 0 0 0 0 0 0 0 0 0 0 0 0 0 0 0 0 127 0" result="hardAlpha"/>
<feOffset dx="-0.63684" dy="-0.63684"/>
<feGaussianBlur stdDeviation="0.63684"/>
<feComposite in2="hardAlpha" operator="arithmetic" k2="-1" k3="1"/>
<feColorMatrix type="matrix" values="0 0 0 0 0.0304345 0 0 0 0 0.0345348 0 0 0 0 0.276449 0 0 0 0.28 0"/>
<feBlend mode="normal" in2="shape" result="effect1_innerShadow_1240_68138"/>
</filter>
<filter id="filter5_i_1240_68138" x="4.37653" y="3.71082" width="16.6235" height="30.9493" filterUnits="userSpaceOnUse" color-interpolation-filters="sRGB">
<feFlood flood-opacity="0" result="BackgroundImageFix"/>
<feBlend mode="normal" in="SourceGraphic" in2="BackgroundImageFix" result="shape"/>
<feColorMatrix in="SourceAlpha" type="matrix" values="0 0 0 0 0 0 0 0 0 0 0 0 0 0 0 0 0 0 127 0" result="hardAlpha"/>
<feOffset dx="-0.63684" dy="-0.63684"/>
<feGaussianBlur stdDeviation="0.63684"/>
<feComposite in2="hardAlpha" operator="arithmetic" k2="-1" k3="1"/>
<feColorMatrix type="matrix" values="0 0 0 0 0.0304345 0 0 0 0 0.0345348 0 0 0 0 0.276449 0 0 0 0.28 0"/>
<feBlend mode="normal" in2="shape" result="effect1_innerShadow_1240_68138"/>
</filter>
<filter id="filter6_i_1240_68138" x="21.0001" y="4.34766" width="15.9867" height="30.3125" filterUnits="userSpaceOnUse" color-interpolation-filters="sRGB">
<feFlood flood-opacity="0" result="BackgroundImageFix"/>
<feBlend mode="normal" in="SourceGraphic" in2="BackgroundImageFix" result="shape"/>
<feColorMatrix in="SourceAlpha" type="matrix" values="0 0 0 0 0 0 0 0 0 0 0 0 0 0 0 0 0 0 127 0" result="hardAlpha"/>
<feOffset/>
<feGaussianBlur stdDeviation="0.765625"/>
<feComposite in2="hardAlpha" operator="arithmetic" k2="-1" k3="1"/>
<feColorMatrix type="matrix" values="0 0 0 0 0.0304345 0 0 0 0 0.0345348 0 0 0 0 0.276449 0 0 0 0.38 0"/>
<feBlend mode="normal" in2="shape" result="effect1_innerShadow_1240_68138"/>
</filter>
<filter id="filter7_i_1240_68138" x="23.9463" y="15.1777" width="11.1825" height="3.60742" filterUnits="userSpaceOnUse" color-interpolation-filters="sRGB">
<feFlood flood-opacity="0" result="BackgroundImageFix"/>
<feBlend mode="normal" in="SourceGraphic" in2="BackgroundImageFix" result="shape"/>
<feColorMatrix in="SourceAlpha" type="matrix" values="0 0 0 0 0 0 0 0 0 0 0 0 0 0 0 0 0 0 127 0" result="hardAlpha"/>
<feOffset/>
<feGaussianBlur stdDeviation="0.680556"/>
<feComposite in2="hardAlpha" operator="arithmetic" k2="-1" k3="1"/>
<feColorMatrix type="matrix" values="0 0 0 0 0.0932688 0 0 0 0 0.153132 0 0 0 0 0.317757 0 0 0 0.38 0"/>
<feBlend mode="normal" in2="shape" result="effect1_innerShadow_1240_68138"/>
</filter>
<filter id="filter8_i_1240_68138" x="23.9479" y="18.8477" width="11.1809" height="3.60742" filterUnits="userSpaceOnUse" color-interpolation-filters="sRGB">
<feFlood flood-opacity="0" result="BackgroundImageFix"/>
<feBlend mode="normal" in="SourceGraphic" in2="BackgroundImageFix" result="shape"/>
<feColorMatrix in="SourceAlpha" type="matrix" values="0 0 0 0 0 0 0 0 0 0 0 0 0 0 0 0 0 0 127 0" result="hardAlpha"/>
<feOffset/>
<feGaussianBlur stdDeviation="0.680556"/>
<feComposite in2="hardAlpha" operator="arithmetic" k2="-1" k3="1"/>
<feColorMatrix type="matrix" values="0 0 0 0 0.0932688 0 0 0 0 0.153132 0 0 0 0 0.317757 0 0 0 0.38 0"/>
<feBlend mode="normal" in2="shape" result="effect1_innerShadow_1240_68138"/>
</filter>
<filter id="filter9_i_1240_68138" x="23.9449" y="22.5215" width="11.1839" height="3.60742" filterUnits="userSpaceOnUse" color-interpolation-filters="sRGB">
<feFlood flood-opacity="0" result="BackgroundImageFix"/>
<feBlend mode="normal" in="SourceGraphic" in2="BackgroundImageFix" result="shape"/>
<feColorMatrix in="SourceAlpha" type="matrix" values="0 0 0 0 0 0 0 0 0 0 0 0 0 0 0 0 0 0 127 0" result="hardAlpha"/>
<feOffset/>
<feGaussianBlur stdDeviation="0.680556"/>
<feComposite in2="hardAlpha" operator="arithmetic" k2="-1" k3="1"/>
<feColorMatrix type="matrix" values="0 0 0 0 0.0932688 0 0 0 0 0.153132 0 0 0 0 0.317757 0 0 0 0.38 0"/>
<feBlend mode="normal" in2="shape" result="effect1_innerShadow_1240_68138"/>
</filter>
<filter id="filter10_i_1240_68138" x="23.9463" y="26.1973" width="11.1825" height="3.60742" filterUnits="userSpaceOnUse" color-interpolation-filters="sRGB">
<feFlood flood-opacity="0" result="BackgroundImageFix"/>
<feBlend mode="normal" in="SourceGraphic" in2="BackgroundImageFix" result="shape"/>
<feColorMatrix in="SourceAlpha" type="matrix" values="0 0 0 0 0 0 0 0 0 0 0 0 0 0 0 0 0 0 127 0" result="hardAlpha"/>
<feOffset/>
<feGaussianBlur stdDeviation="0.680556"/>
<feComposite in2="hardAlpha" operator="arithmetic" k2="-1" k3="1"/>
<feColorMatrix type="matrix" values="0 0 0 0 0.0932688 0 0 0 0 0.153132 0 0 0 0 0.317757 0 0 0 0.38 0"/>
<feBlend mode="normal" in2="shape" result="effect1_innerShadow_1240_68138"/>
</filter>
<filter id="filter11_i_1240_68138" x="23.9518" y="8.96289" width="4.18939" height="2.47266" filterUnits="userSpaceOnUse" color-interpolation-filters="sRGB">
<feFlood flood-opacity="0" result="BackgroundImageFix"/>
<feBlend mode="normal" in="SourceGraphic" in2="BackgroundImageFix" result="shape"/>
<feColorMatrix in="SourceAlpha" type="matrix" values="0 0 0 0 0 0 0 0 0 0 0 0 0 0 0 0 0 0 127 0" result="hardAlpha"/>
<feOffset/>
<feGaussianBlur stdDeviation="0.680556"/>
<feComposite in2="hardAlpha" operator="arithmetic" k2="-1" k3="1"/>
<feColorMatrix type="matrix" values="0 0 0 0 0.0932688 0 0 0 0 0.153132 0 0 0 0 0.317757 0 0 0 0.38 0"/>
<feBlend mode="normal" in2="shape" result="effect1_innerShadow_1240_68138"/>
</filter>
<filter id="filter12_i_1240_68138" x="23.9674" y="12.6309" width="4.17371" height="2.47266" filterUnits="userSpaceOnUse" color-interpolation-filters="sRGB">
<feFlood flood-opacity="0" result="BackgroundImageFix"/>
<feBlend mode="normal" in="SourceGraphic" in2="BackgroundImageFix" result="shape"/>
<feColorMatrix in="SourceAlpha" type="matrix" values="0 0 0 0 0 0 0 0 0 0 0 0 0 0 0 0 0 0 127 0" result="hardAlpha"/>
<feOffset/>
<feGaussianBlur stdDeviation="0.680556"/>
<feComposite in2="hardAlpha" operator="arithmetic" k2="-1" k3="1"/>
<feColorMatrix type="matrix" values="0 0 0 0 0.0932688 0 0 0 0 0.153132 0 0 0 0 0.317757 0 0 0 0.38 0"/>
<feBlend mode="normal" in2="shape" result="effect1_innerShadow_1240_68138"/>
</filter>
<filter id="filter13_i_1240_68138" x="29.5384" y="7.52383" width="5.59021" height="5.84727" filterUnits="userSpaceOnUse" color-interpolation-filters="sRGB">
<feFlood flood-opacity="0" result="BackgroundImageFix"/>
<feBlend mode="normal" in="SourceGraphic" in2="BackgroundImageFix" result="shape"/>
<feColorMatrix in="SourceAlpha" type="matrix" values="0 0 0 0 0 0 0 0 0 0 0 0 0 0 0 0 0 0 127 0" result="hardAlpha"/>
<feOffset dy="-0.30625"/>
<feGaussianBlur stdDeviation="0.459375"/>
<feComposite in2="hardAlpha" operator="arithmetic" k2="-1" k3="1"/>
<feColorMatrix type="matrix" values="0 0 0 0 0.0932688 0 0 0 0 0.153132 0 0 0 0 0.317757 0 0 0 0.28 0"/>
<feBlend mode="normal" in2="shape" result="effect1_innerShadow_1240_68138"/>
</filter>
<filter id="filter14_i_1240_68138" x="7.39752" y="15.1465" width="11.1825" height="3.60742" filterUnits="userSpaceOnUse" color-interpolation-filters="sRGB">
<feFlood flood-opacity="0" result="BackgroundImageFix"/>
<feBlend mode="normal" in="SourceGraphic" in2="BackgroundImageFix" result="shape"/>
<feColorMatrix in="SourceAlpha" type="matrix" values="0 0 0 0 0 0 0 0 0 0 0 0 0 0 0 0 0 0 127 0" result="hardAlpha"/>
<feOffset/>
<feGaussianBlur stdDeviation="0.680556"/>
<feComposite in2="hardAlpha" operator="arithmetic" k2="-1" k3="1"/>
<feColorMatrix type="matrix" values="0 0 0 0 0.0932688 0 0 0 0 0.153132 0 0 0 0 0.317757 0 0 0 0.38 0"/>
<feBlend mode="normal" in2="shape" result="effect1_innerShadow_1240_68138"/>
</filter>
<filter id="filter15_i_1240_68138" x="7.43359" y="11.4941" width="11.1825" height="3.60742" filterUnits="userSpaceOnUse" color-interpolation-filters="sRGB">
<feFlood flood-opacity="0" result="BackgroundImageFix"/>
<feBlend mode="normal" in="SourceGraphic" in2="BackgroundImageFix" result="shape"/>
<feColorMatrix in="SourceAlpha" type="matrix" values="0 0 0 0 0 0 0 0 0 0 0 0 0 0 0 0 0 0 127 0" result="hardAlpha"/>
<feOffset/>
<feGaussianBlur stdDeviation="0.680556"/>
<feComposite in2="hardAlpha" operator="arithmetic" k2="-1" k3="1"/>
<feColorMatrix type="matrix" values="0 0 0 0 0.0932688 0 0 0 0 0.153132 0 0 0 0 0.317757 0 0 0 0.38 0"/>
<feBlend mode="normal" in2="shape" result="effect1_innerShadow_1240_68138"/>
</filter>
<filter id="filter16_i_1240_68138" x="7.43359" y="7.79688" width="11.1825" height="3.60742" filterUnits="userSpaceOnUse" color-interpolation-filters="sRGB">
<feFlood flood-opacity="0" result="BackgroundImageFix"/>
<feBlend mode="normal" in="SourceGraphic" in2="BackgroundImageFix" result="shape"/>
<feColorMatrix in="SourceAlpha" type="matrix" values="0 0 0 0 0 0 0 0 0 0 0 0 0 0 0 0 0 0 127 0" result="hardAlpha"/>
<feOffset/>
<feGaussianBlur stdDeviation="0.680556"/>
<feComposite in2="hardAlpha" operator="arithmetic" k2="-1" k3="1"/>
<feColorMatrix type="matrix" values="0 0 0 0 0.0932688 0 0 0 0 0.153132 0 0 0 0 0.317757 0 0 0 0.38 0"/>
<feBlend mode="normal" in2="shape" result="effect1_innerShadow_1240_68138"/>
</filter>
<filter id="filter17_i_1240_68138" x="7.39752" y="18.8164" width="11.1809" height="3.60742" filterUnits="userSpaceOnUse" color-interpolation-filters="sRGB">
<feFlood flood-opacity="0" result="BackgroundImageFix"/>
<feBlend mode="normal" in="SourceGraphic" in2="BackgroundImageFix" result="shape"/>
<feColorMatrix in="SourceAlpha" type="matrix" values="0 0 0 0 0 0 0 0 0 0 0 0 0 0 0 0 0 0 127 0" result="hardAlpha"/>
<feOffset/>
<feGaussianBlur stdDeviation="0.680556"/>
<feComposite in2="hardAlpha" operator="arithmetic" k2="-1" k3="1"/>
<feColorMatrix type="matrix" values="0 0 0 0 0.0932688 0 0 0 0 0.153132 0 0 0 0 0.317757 0 0 0 0.38 0"/>
<feBlend mode="normal" in2="shape" result="effect1_innerShadow_1240_68138"/>
</filter>
<filter id="filter18_i_1240_68138" x="7.3974" y="22.4902" width="11.1839" height="3.60742" filterUnits="userSpaceOnUse" color-interpolation-filters="sRGB">
<feFlood flood-opacity="0" result="BackgroundImageFix"/>
<feBlend mode="normal" in="SourceGraphic" in2="BackgroundImageFix" result="shape"/>
<feColorMatrix in="SourceAlpha" type="matrix" values="0 0 0 0 0 0 0 0 0 0 0 0 0 0 0 0 0 0 127 0" result="hardAlpha"/>
<feOffset/>
<feGaussianBlur stdDeviation="0.680556"/>
<feComposite in2="hardAlpha" operator="arithmetic" k2="-1" k3="1"/>
<feColorMatrix type="matrix" values="0 0 0 0 0.0932688 0 0 0 0 0.153132 0 0 0 0 0.317757 0 0 0 0.38 0"/>
<feBlend mode="normal" in2="shape" result="effect1_innerShadow_1240_68138"/>
</filter>
<filter id="filter19_i_1240_68138" x="7.39752" y="26.1641" width="11.1825" height="3.60742" filterUnits="userSpaceOnUse" color-interpolation-filters="sRGB">
<feFlood flood-opacity="0" result="BackgroundImageFix"/>
<feBlend mode="normal" in="SourceGraphic" in2="BackgroundImageFix" result="shape"/>
<feColorMatrix in="SourceAlpha" type="matrix" values="0 0 0 0 0 0 0 0 0 0 0 0 0 0 0 0 0 0 127 0" result="hardAlpha"/>
<feOffset/>
<feGaussianBlur stdDeviation="0.680556"/>
<feComposite in2="hardAlpha" operator="arithmetic" k2="-1" k3="1"/>
<feColorMatrix type="matrix" values="0 0 0 0 0.0932688 0 0 0 0 0.153132 0 0 0 0 0.317757 0 0 0 0.38 0"/>
<feBlend mode="normal" in2="shape" result="effect1_innerShadow_1240_68138"/>
</filter>
<linearGradient id="paint0_linear_1240_68138" x1="24.0602" y1="-2.91687" x2="1.09414" y2="38.8671" gradientUnits="userSpaceOnUse">
<stop stop-color="#5586FF"/>
<stop offset="0.557473" stop-color="#4279FF"/>
<stop offset="1" stop-color="#3E29FF"/>
</linearGradient>
<linearGradient id="paint1_linear_1240_68138" x1="8.86756" y1="31.2577" x2="24.2174" y2="44.2385" gradientUnits="userSpaceOnUse">
<stop stop-color="#5586FF"/>
<stop offset="0.57076" stop-color="#4279FF"/>
<stop offset="1" stop-color="#3E29FF"/>
</linearGradient>
<linearGradient id="paint2_linear_1240_68138" x1="8.86756" y1="31.2577" x2="24.2174" y2="44.2385" gradientUnits="userSpaceOnUse">
<stop stop-color="#5586FF"/>
<stop offset="0.57076" stop-color="#4279FF"/>
<stop offset="1" stop-color="#3E29FF"/>
</linearGradient>
<linearGradient id="paint3_linear_1240_68138" x1="22.3943" y1="34.2127" x2="20.8217" y2="34.2767" gradientUnits="userSpaceOnUse">
<stop stop-color="#F6F6F6"/>
<stop offset="0.320133" stop-color="white"/>
<stop offset="1" stop-color="#F4F4F4"/>
</linearGradient>
<linearGradient id="paint4_linear_1240_68138" x1="19.3041" y1="33.7706" x2="21.2997" y2="33.5547" gradientUnits="userSpaceOnUse">
<stop stop-color="#F6F6F6"/>
<stop offset="0.320133" stop-color="white"/>
<stop offset="1" stop-color="#F4F4F4"/>
</linearGradient>
<linearGradient id="paint5_linear_1240_68138" x1="5.01337" y1="19.5036" x2="23.855" y2="17.6108" gradientUnits="userSpaceOnUse">
<stop stop-color="#F6F6F6"/>
<stop offset="0.320133" stop-color="white"/>
<stop offset="1" stop-color="#F4F4F4"/>
</linearGradient>
<linearGradient id="paint6_linear_1240_68138" x1="34.1427" y1="23.9909" x2="19.3156" y2="24.5517" gradientUnits="userSpaceOnUse">
<stop stop-color="#F6F6F6"/>
<stop offset="0.320133" stop-color="white"/>
<stop offset="1" stop-color="#F4F4F4"/>
</linearGradient>
<linearGradient id="paint7_linear_1240_68138" x1="35.1288" y1="14.267" x2="32.81" y2="22.334" gradientUnits="userSpaceOnUse">
<stop stop-color="#5586FF"/>
<stop offset="0.557473" stop-color="#4279FF"/>
<stop offset="1" stop-color="#3E29FF"/>
</linearGradient>
<linearGradient id="paint8_linear_1240_68138" x1="35.1289" y1="17.9372" x2="32.8111" y2="26.002" gradientUnits="userSpaceOnUse">
<stop stop-color="#5586FF"/>
<stop offset="0.557473" stop-color="#4279FF"/>
<stop offset="1" stop-color="#3E29FF"/>
</linearGradient>
<linearGradient id="paint9_linear_1240_68138" x1="35.1288" y1="21.6108" x2="32.8104" y2="29.6778" gradientUnits="userSpaceOnUse">
<stop stop-color="#5586FF"/>
<stop offset="0.557473" stop-color="#4279FF"/>
<stop offset="1" stop-color="#3E29FF"/>
</linearGradient>
<linearGradient id="paint10_linear_1240_68138" x1="35.1288" y1="25.2869" x2="32.8117" y2="33.3512" gradientUnits="userSpaceOnUse">
<stop stop-color="#5586FF"/>
<stop offset="0.557473" stop-color="#4279FF"/>
<stop offset="1" stop-color="#3E29FF"/>
</linearGradient>
<linearGradient id="paint11_linear_1240_68138" x1="28.1412" y1="8.33864" x2="25.6751" y2="13.028" gradientUnits="userSpaceOnUse">
<stop stop-color="#5586FF"/>
<stop offset="0.557473" stop-color="#4279FF"/>
<stop offset="1" stop-color="#3E29FF"/>
</linearGradient>
<linearGradient id="paint12_linear_1240_68138" x1="28.1411" y1="12.007" x2="25.6721" y2="16.6871" gradientUnits="userSpaceOnUse">
<stop stop-color="#5586FF"/>
<stop offset="0.557473" stop-color="#4279FF"/>
<stop offset="1" stop-color="#3E29FF"/>
</linearGradient>
<linearGradient id="paint13_linear_1240_68138" x1="32.8643" y1="4.2468" x2="33.0357" y2="12.8134" gradientUnits="userSpaceOnUse">
<stop stop-color="#5586FF"/>
<stop offset="0.733973" stop-color="#4279FF"/>
<stop offset="1" stop-color="#3E29FF"/>
</linearGradient>
<linearGradient id="paint14_linear_1240_68138" x1="7.39751" y1="14.2357" x2="9.71626" y2="22.3028" gradientUnits="userSpaceOnUse">
<stop stop-color="#5586FF"/>
<stop offset="0.405" stop-color="#4279FF"/>
<stop offset="1" stop-color="#3E29FF"/>
</linearGradient>
<linearGradient id="paint15_linear_1240_68138" x1="7.43358" y1="10.5834" x2="9.75233" y2="18.6504" gradientUnits="userSpaceOnUse">
<stop stop-color="#5586FF"/>
<stop offset="0.405" stop-color="#4279FF"/>
<stop offset="1" stop-color="#3E29FF"/>
</linearGradient>
<linearGradient id="paint16_linear_1240_68138" x1="7.43358" y1="6.88613" x2="9.75233" y2="14.9532" gradientUnits="userSpaceOnUse">
<stop stop-color="#5586FF"/>
<stop offset="0.405" stop-color="#4279FF"/>
<stop offset="1" stop-color="#3E29FF"/>
</linearGradient>
<linearGradient id="paint17_linear_1240_68138" x1="7.39749" y1="17.9059" x2="9.71528" y2="25.9708" gradientUnits="userSpaceOnUse">
<stop stop-color="#5586FF"/>
<stop offset="0.405" stop-color="#4279FF"/>
<stop offset="1" stop-color="#3E29FF"/>
</linearGradient>
<linearGradient id="paint18_linear_1240_68138" x1="7.39741" y1="21.5795" x2="9.71581" y2="29.6465" gradientUnits="userSpaceOnUse">
<stop stop-color="#5586FF"/>
<stop offset="0.405" stop-color="#4279FF"/>
<stop offset="1" stop-color="#3E29FF"/>
</linearGradient>
<linearGradient id="paint19_linear_1240_68138" x1="7.39751" y1="25.2537" x2="11.5157" y2="35.5589" gradientUnits="userSpaceOnUse">
<stop stop-color="#5586FF"/>
<stop offset="0.431655" stop-color="#4279FF"/>
<stop offset="1" stop-color="#3E29FF"/>
</linearGradient>
</defs>
</svg>
