<svg width="32" height="32" viewBox="0 0 32 32" fill="none" xmlns="http://www.w3.org/2000/svg">
<g filter="url(#filter0_i_852_33304)">
<g filter="url(#filter1_i_852_33304)">
<path fill-rule="evenodd" clip-rule="evenodd" d="M3 25.1C3 27.2539 4.74609 29 6.9 29H25.1C27.2539 29 29 27.2539 29 25.1V6.9C29 4.74609 27.2539 3 25.1 3H6.9C4.74609 3 3 4.74609 3 6.9V25.1Z" fill="url(#paint0_linear_852_33304)"/>
</g>
<g filter="url(#filter2_i_852_33304)">
<path fill-rule="evenodd" clip-rule="evenodd" d="M16.1154 9.2876C16.1154 8.76983 16.5351 8.3501 17.0529 8.3501H24.5529C25.0706 8.3501 25.4904 8.76983 25.4904 9.2876C25.4904 9.80536 25.0706 10.2251 24.5529 10.2251H17.0529C16.5351 10.2251 16.1154 9.80536 16.1154 9.2876Z" fill="url(#paint1_linear_852_33304)"/>
<path fill-rule="evenodd" clip-rule="evenodd" d="M16.1154 13.7626C16.1154 13.2448 16.5351 12.8251 17.0529 12.8251H24.5529C25.0706 12.8251 25.4904 13.2448 25.4904 13.7626C25.4904 14.2804 25.0706 14.7001 24.5529 14.7001H17.0529C16.5351 14.7001 16.1154 14.2804 16.1154 13.7626Z" fill="url(#paint2_linear_852_33304)"/>
<path fill-rule="evenodd" clip-rule="evenodd" d="M16.1154 18.2376C16.1154 17.7198 16.5351 17.3001 17.0529 17.3001H24.5529C25.0706 17.3001 25.4904 17.7198 25.4904 18.2376C25.4904 18.7554 25.0706 19.1751 24.5529 19.1751H17.0529C16.5351 19.1751 16.1154 18.7554 16.1154 18.2376Z" fill="url(#paint3_linear_852_33304)"/>
<path fill-rule="evenodd" clip-rule="evenodd" d="M16.1154 22.7126C16.1154 22.1948 16.5351 21.7751 17.0529 21.7751H24.5529C25.0706 21.7751 25.4904 22.1948 25.4904 22.7126C25.4904 23.2304 25.0706 23.6501 24.5529 23.6501H17.0529C16.5351 23.6501 16.1154 23.2304 16.1154 22.7126Z" fill="url(#paint4_linear_852_33304)"/>
</g>
<g filter="url(#filter3_i_852_33304)">
<path fill-rule="evenodd" clip-rule="evenodd" d="M6.76746 19.5557C6.76746 18.6113 7.53305 17.8457 8.47746 17.8457H11.8975C12.8419 17.8457 13.6075 18.6113 13.6075 19.5557V22.9757C13.6075 23.9201 12.8419 24.6857 11.8975 24.6857H8.47746C7.53305 24.6857 6.76746 23.9201 6.76746 22.9757V19.5557ZM11.8975 19.5557H8.47746V22.9757H11.8975V19.5557Z" fill="url(#paint5_linear_852_33304)"/>
</g>
<g filter="url(#filter4_i_852_33304)">
<path fill-rule="evenodd" clip-rule="evenodd" d="M6.76746 9.04545C6.76746 8.10104 7.53305 7.33545 8.47746 7.33545H11.8975C12.8419 7.33545 13.6075 8.10104 13.6075 9.04545V12.4654C13.6075 13.4099 12.8419 14.1754 11.8975 14.1754H8.47746C7.53305 14.1754 6.76746 13.4099 6.76746 12.4654V9.04545ZM11.8975 9.04545H8.47746V12.4654H11.8975V9.04545Z" fill="url(#paint6_linear_852_33304)"/>
</g>
</g>
<defs>
<filter id="filter0_i_852_33304" x="0" y="0" width="32" height="34.6667" filterUnits="userSpaceOnUse" color-interpolation-filters="sRGB">
<feFlood flood-opacity="0" result="BackgroundImageFix"/>
<feBlend mode="normal" in="SourceGraphic" in2="BackgroundImageFix" result="shape"/>
<feColorMatrix in="SourceAlpha" type="matrix" values="0 0 0 0 0 0 0 0 0 0 0 0 0 0 0 0 0 0 127 0" result="hardAlpha"/>
<feOffset dy="2.66667"/>
<feGaussianBlur stdDeviation="4"/>
<feComposite in2="hardAlpha" operator="arithmetic" k2="-1" k3="1"/>
<feColorMatrix type="matrix" values="0 0 0 0 0.0932688 0 0 0 0 0.153132 0 0 0 0 0.317757 0 0 0 0.1 0"/>
<feBlend mode="normal" in2="shape" result="effect1_innerShadow_852_33304"/>
</filter>
<filter id="filter1_i_852_33304" x="3" y="2" width="27" height="27" filterUnits="userSpaceOnUse" color-interpolation-filters="sRGB">
<feFlood flood-opacity="0" result="BackgroundImageFix"/>
<feBlend mode="normal" in="SourceGraphic" in2="BackgroundImageFix" result="shape"/>
<feColorMatrix in="SourceAlpha" type="matrix" values="0 0 0 0 0 0 0 0 0 0 0 0 0 0 0 0 0 0 127 0" result="hardAlpha"/>
<feOffset dx="1" dy="-1"/>
<feGaussianBlur stdDeviation="0.8"/>
<feComposite in2="hardAlpha" operator="arithmetic" k2="-1" k3="1"/>
<feColorMatrix type="matrix" values="0 0 0 0 0.0932688 0 0 0 0 0.153132 0 0 0 0 0.317757 0 0 0 0.5 0"/>
<feBlend mode="normal" in2="shape" result="effect1_innerShadow_852_33304"/>
</filter>
<filter id="filter2_i_852_33304" x="15.6654" y="7.9001" width="9.825" height="15.7498" filterUnits="userSpaceOnUse" color-interpolation-filters="sRGB">
<feFlood flood-opacity="0" result="BackgroundImageFix"/>
<feBlend mode="normal" in="SourceGraphic" in2="BackgroundImageFix" result="shape"/>
<feColorMatrix in="SourceAlpha" type="matrix" values="0 0 0 0 0 0 0 0 0 0 0 0 0 0 0 0 0 0 127 0" result="hardAlpha"/>
<feOffset dx="-0.45" dy="-0.45"/>
<feGaussianBlur stdDeviation="0.45"/>
<feComposite in2="hardAlpha" operator="arithmetic" k2="-1" k3="1"/>
<feColorMatrix type="matrix" values="0 0 0 0 0.0304345 0 0 0 0 0.0345348 0 0 0 0 0.276449 0 0 0 0.28 0"/>
<feBlend mode="normal" in2="shape" result="effect1_innerShadow_852_33304"/>
</filter>
<filter id="filter3_i_852_33304" x="6.33996" y="17.4182" width="7.26747" height="7.26734" filterUnits="userSpaceOnUse" color-interpolation-filters="sRGB">
<feFlood flood-opacity="0" result="BackgroundImageFix"/>
<feBlend mode="normal" in="SourceGraphic" in2="BackgroundImageFix" result="shape"/>
<feColorMatrix in="SourceAlpha" type="matrix" values="0 0 0 0 0 0 0 0 0 0 0 0 0 0 0 0 0 0 127 0" result="hardAlpha"/>
<feOffset dx="-0.4275" dy="-0.4275"/>
<feGaussianBlur stdDeviation="0.4275"/>
<feComposite in2="hardAlpha" operator="arithmetic" k2="-1" k3="1"/>
<feColorMatrix type="matrix" values="0 0 0 0 0.0304345 0 0 0 0 0.0345348 0 0 0 0 0.276449 0 0 0 0.28 0"/>
<feBlend mode="normal" in2="shape" result="effect1_innerShadow_852_33304"/>
</filter>
<filter id="filter4_i_852_33304" x="6.33996" y="6.90795" width="7.26747" height="7.26734" filterUnits="userSpaceOnUse" color-interpolation-filters="sRGB">
<feFlood flood-opacity="0" result="BackgroundImageFix"/>
<feBlend mode="normal" in="SourceGraphic" in2="BackgroundImageFix" result="shape"/>
<feColorMatrix in="SourceAlpha" type="matrix" values="0 0 0 0 0 0 0 0 0 0 0 0 0 0 0 0 0 0 127 0" result="hardAlpha"/>
<feOffset dx="-0.4275" dy="-0.4275"/>
<feGaussianBlur stdDeviation="0.4275"/>
<feComposite in2="hardAlpha" operator="arithmetic" k2="-1" k3="1"/>
<feColorMatrix type="matrix" values="0 0 0 0 0.0304345 0 0 0 0 0.0345348 0 0 0 0 0.276449 0 0 0 0.28 0"/>
<feBlend mode="normal" in2="shape" result="effect1_innerShadow_852_33304"/>
</filter>
<linearGradient id="paint0_linear_852_33304" x1="18.1651" y1="34.7794" x2="-5.82798" y2="-3.809" gradientUnits="userSpaceOnUse">
<stop stop-color="#5586FF"/>
<stop offset="0.557473" stop-color="#4279FF"/>
<stop offset="1" stop-color="#3E29FF"/>
</linearGradient>
<linearGradient id="paint1_linear_852_33304" x1="6.66244" y1="29.7142" x2="27.7864" y2="24.6847" gradientUnits="userSpaceOnUse">
<stop stop-color="#F6F6F6"/>
<stop offset="0.320133" stop-color="white"/>
<stop offset="1" stop-color="#F4F4F4"/>
</linearGradient>
<linearGradient id="paint2_linear_852_33304" x1="6.66244" y1="29.7142" x2="27.7864" y2="24.6847" gradientUnits="userSpaceOnUse">
<stop stop-color="#F6F6F6"/>
<stop offset="0.320133" stop-color="white"/>
<stop offset="1" stop-color="#F4F4F4"/>
</linearGradient>
<linearGradient id="paint3_linear_852_33304" x1="6.66244" y1="29.7142" x2="27.7864" y2="24.6847" gradientUnits="userSpaceOnUse">
<stop stop-color="#F6F6F6"/>
<stop offset="0.320133" stop-color="white"/>
<stop offset="1" stop-color="#F4F4F4"/>
</linearGradient>
<linearGradient id="paint4_linear_852_33304" x1="6.66244" y1="29.7142" x2="27.7864" y2="24.6847" gradientUnits="userSpaceOnUse">
<stop stop-color="#F6F6F6"/>
<stop offset="0.320133" stop-color="white"/>
<stop offset="1" stop-color="#F4F4F4"/>
</linearGradient>
<linearGradient id="paint5_linear_852_33304" x1="-0.0725463" y1="21.2657" x2="14.5846" y2="16.38" gradientUnits="userSpaceOnUse">
<stop stop-color="#F6F6F6"/>
<stop offset="0.320133" stop-color="white"/>
<stop offset="1" stop-color="#F4F4F4"/>
</linearGradient>
<linearGradient id="paint6_linear_852_33304" x1="-0.0725463" y1="10.7554" x2="14.5846" y2="5.86973" gradientUnits="userSpaceOnUse">
<stop stop-color="#F6F6F6"/>
<stop offset="0.320133" stop-color="white"/>
<stop offset="1" stop-color="#F4F4F4"/>
</linearGradient>
</defs>
</svg>
