<svg width="20" height="20" viewBox="0 0 20 20" fill="none" xmlns="http://www.w3.org/2000/svg">
<path fill-rule="evenodd" clip-rule="evenodd" d="M9.9967 1.667L9.99984 1.66699C11.648 1.667 13.2592 2.15574 14.6296 3.07142C16 3.9871 17.0681 5.28858 17.6988 6.8113C18.3296 8.33402 18.4946 10.0096 18.173 11.6261C17.8515 13.2426 17.0578 14.7275 15.8924 15.8929C14.727 17.0583 13.2421 17.852 11.6256 18.1735C10.0091 18.4951 8.33353 18.3301 6.81081 17.6993C5.28809 17.0686 3.9866 16.0005 3.07092 14.6301C2.15525 13.2597 1.6665 11.6485 1.6665 10.0003C1.6665 9.54009 2.0396 9.167 2.49984 9.167C2.96007 9.167 3.33317 9.54009 3.33317 10.0003C3.33317 11.3189 3.72416 12.6078 4.45671 13.7041C5.18925 14.8005 6.23044 15.6549 7.44861 16.1595C8.66679 16.6641 10.0072 16.7961 11.3004 16.5389C12.5936 16.2817 13.7815 15.6467 14.7139 14.7144C15.6462 13.782 16.2812 12.5941 16.5384 11.3009C16.7956 10.0077 16.6636 8.66728 16.159 7.44911C15.6545 6.23093 14.8 5.18974 13.7036 4.4572C12.6077 3.72495 11.3194 3.33397 10.0014 3.33366C8.12259 3.34114 6.31925 4.07354 4.96731 5.37804L3.08909 7.25625C2.76366 7.58169 2.23602 7.58169 1.91058 7.25625C1.58514 6.93082 1.58514 6.40318 1.91058 6.07774L3.79392 4.19441L3.80397 4.18453C5.46605 2.57774 7.68495 1.6757 9.9967 1.667Z" fill="#1D57C3"/>
<path fill-rule="evenodd" clip-rule="evenodd" d="M2.49984 1.667C2.96007 1.667 3.33317 2.04009 3.33317 2.50033V5.83366H6.6665C7.12674 5.83366 7.49984 6.20676 7.49984 6.667C7.49984 7.12724 7.12674 7.50033 6.6665 7.50033H2.49984C2.0396 7.50033 1.6665 7.12724 1.6665 6.667V2.50033C1.6665 2.04009 2.0396 1.667 2.49984 1.667Z" fill="#1D57C3"/>
</svg>
