<svg width="20" height="20" viewBox="0 0 20 20" fill="none" xmlns="http://www.w3.org/2000/svg">
<path fill-rule="evenodd" clip-rule="evenodd" d="M9.16669 3.33317C5.94503 3.33317 3.33335 5.94484 3.33335 9.1665C3.33335 12.3882 5.94503 14.9998 9.16669 14.9998C12.3883 14.9998 15 12.3882 15 9.1665C15 5.94484 12.3883 3.33317 9.16669 3.33317ZM1.66669 9.1665C1.66669 5.02437 5.02455 1.6665 9.16669 1.6665C13.3088 1.6665 16.6667 5.02437 16.6667 9.1665C16.6667 13.3086 13.3088 16.6665 9.16669 16.6665C5.02455 16.6665 1.66669 13.3086 1.66669 9.1665Z" fill="#1D57C3"/>
<path fill-rule="evenodd" clip-rule="evenodd" d="M13.3274 13.3272C13.6529 13.0018 14.1805 13.0018 14.5059 13.3272L18.0893 16.9106C18.4147 17.236 18.4147 17.7637 18.0893 18.0891C17.7638 18.4145 17.2362 18.4145 16.9108 18.0891L13.3274 14.5058C13.002 14.1803 13.002 13.6527 13.3274 13.3272Z" fill="#1D57C3"/>
</svg>
