<svg width="20" height="20" viewBox="0 0 20 20" fill="none" xmlns="http://www.w3.org/2000/svg">
<g clip-path="url(#clip0_4274_34456)">
<path fill-rule="evenodd" clip-rule="evenodd" d="M18.9225 1.0776C19.1489 1.30396 19.2256 1.63999 19.1198 1.94214L13.2865 18.6088C13.1736 18.9313 12.8753 19.1522 12.5339 19.1662C12.1925 19.1801 11.8772 18.9842 11.7384 18.672L8.53525 11.4649L1.32814 8.26169C1.01591 8.12292 0.820021 7.80762 0.833949 7.46622C0.847877 7.12482 1.0688 6.82651 1.3913 6.71364L18.058 0.880304C18.3601 0.77455 18.6961 0.851232 18.9225 1.0776ZM3.92582 7.59236L9.50504 10.072C9.69356 10.1558 9.84431 10.3065 9.9281 10.4951L12.4078 16.0743L16.9749 3.02516L3.92582 7.59236Z" fill="#1D57C3"/>
<path fill-rule="evenodd" clip-rule="evenodd" d="M18.9225 1.0776C19.2479 1.40303 19.2479 1.93067 18.9225 2.25611L9.75585 11.4228C9.43041 11.7482 8.90277 11.7482 8.57733 11.4228C8.2519 11.0973 8.2519 10.5697 8.57733 10.2443L17.744 1.0776C18.0694 0.75216 18.5971 0.75216 18.9225 1.0776Z" fill="#1D57C3"/>
</g>
<defs>
<clipPath id="clip0_4274_34456">
<rect width="20" height="20" fill="white"/>
</clipPath>
</defs>
</svg>
