<svg width="21" height="20" viewBox="0 0 21 20" fill="none" xmlns="http://www.w3.org/2000/svg">
<g clip-path="url(#clip0_10309_46855)">
<path fill-rule="evenodd" clip-rule="evenodd" d="M19.2957 1.07613C19.5342 1.31458 19.5979 1.66157 19.4869 1.95804C19.4465 2.06621 19.3827 2.16765 19.2957 2.25464L16.7136 4.83679L10.5338 11.0166L10.1291 11.4213C9.80363 11.7467 9.27599 11.7467 8.95055 11.4213C8.88248 11.3532 8.82865 11.2763 8.78906 11.1943C8.63936 10.884 8.69319 10.5002 8.95055 10.2428L9.35525 9.8381L18.1172 1.07613C18.4427 0.750695 18.9703 0.750695 19.2957 1.07613Z" fill="white"/>
<path fill-rule="evenodd" clip-rule="evenodd" d="M19.493 1.94068C19.5988 1.63852 19.5221 1.3025 19.2957 1.07613C19.0694 0.849767 18.7333 0.773085 18.4312 0.878839L10.1291 3.78552C9.6602 3.94962 9.43812 4.48489 9.65311 4.93271C9.83684 5.31544 10.2789 5.49886 10.6796 5.35861L17.3482 3.0237L16.7136 4.83679L19.2957 2.25464C19.3827 2.16765 19.4465 2.06621 19.4869 1.95804L19.493 1.94068ZM10.5338 11.0166L10.3013 10.4936C10.2175 10.3051 10.0668 10.1543 9.87826 10.0705L9.35525 9.8381L8.95055 10.2428C8.69319 10.5002 8.63936 10.884 8.78906 11.1943C8.82865 11.2763 8.88248 11.3532 8.95055 11.4213C9.27599 11.7467 9.80363 11.7467 10.1291 11.4213L10.5338 11.0166Z" fill="white"/>
<path fill-rule="evenodd" clip-rule="evenodd" d="M13.6597 18.6073C13.5468 18.9298 13.2485 19.1508 12.9071 19.1647C12.5657 19.1786 12.2504 18.9827 12.1116 18.6705L8.90847 11.4634L8.95055 11.4213C9.27599 11.7467 9.80363 11.7467 10.1291 11.4213L10.5338 11.0166L12.781 16.0728L16.7136 4.83679L19.2957 2.25464C19.3827 2.16765 19.4465 2.06621 19.4869 1.95804L13.6597 18.6073Z" fill="white"/>
<path d="M8.90847 11.4634L8.95055 11.4213C8.88248 11.3532 8.82865 11.2763 8.78906 11.1943L8.90847 11.4634Z" fill="white"/>
<path fill-rule="evenodd" clip-rule="evenodd" d="M5.07659 5.65369C4.15611 5.65369 3.40992 6.39988 3.40992 7.32036C3.40992 8.24083 4.15611 8.98702 5.07659 8.98702C5.99706 8.98702 6.74325 8.24083 6.74325 7.32036C6.74325 6.39988 5.99706 5.65369 5.07659 5.65369ZM1.74325 7.32036C1.74325 5.47941 3.23564 3.98702 5.07659 3.98702C6.91754 3.98702 8.40992 5.47941 8.40992 7.32036C8.40992 9.1613 6.91754 10.6537 5.07659 10.6537C3.23564 10.6537 1.74325 9.1613 1.74325 7.32036Z" fill="white"/>
<path fill-rule="evenodd" clip-rule="evenodd" d="M6.61935 7.9735C6.76489 7.53688 7.23682 7.30091 7.67344 7.44645L8.42344 7.69645C8.86006 7.84199 9.09603 8.31393 8.95049 8.75055C8.80495 9.18716 8.33302 9.42313 7.8964 9.27759L7.1464 9.02759C6.70978 8.88205 6.47381 8.41012 6.61935 7.9735Z" fill="white"/>
<path fill-rule="evenodd" clip-rule="evenodd" d="M1.20268 5.89017C1.34822 5.45355 1.82016 5.21758 2.25678 5.36312L3.00678 5.61312C3.4434 5.75866 3.67936 6.23059 3.53382 6.66721C3.38828 7.10383 2.91635 7.3398 2.47973 7.19426L1.72973 6.94426C1.29311 6.79872 1.05714 6.32679 1.20268 5.89017Z" fill="white"/>
<path fill-rule="evenodd" clip-rule="evenodd" d="M4.42344 8.86312C4.86006 9.00866 5.09603 9.48059 4.95049 9.91721L4.70049 10.6672C4.55495 11.1038 4.08302 11.3398 3.6464 11.1943C3.20978 11.0487 2.97381 10.5768 3.11935 10.1402L3.36935 9.39017C3.51489 8.95355 3.98682 8.71758 4.42344 8.86312Z" fill="white"/>
<path fill-rule="evenodd" clip-rule="evenodd" d="M5.76709 8.79662C6.19441 8.6257 6.67939 8.83354 6.85032 9.26086L7.18365 10.0942C7.35458 10.5215 7.14673 11.0065 6.71941 11.1774C6.29209 11.3483 5.80712 11.1405 5.63619 10.7132L5.30286 9.87985C5.13193 9.45253 5.33978 8.96755 5.76709 8.79662Z" fill="white"/>
<path fill-rule="evenodd" clip-rule="evenodd" d="M3.43376 3.46329C3.86108 3.29236 4.34606 3.50021 4.51698 3.92753L4.85032 4.76086C5.02125 5.18818 4.8134 5.67316 4.38608 5.84409C3.95876 6.01501 3.47378 5.80717 3.30286 5.37985L3.01631 5.02806C2.84538 4.60074 3.00644 3.63422 3.43376 3.46329Z" fill="white"/>
<path fill-rule="evenodd" clip-rule="evenodd" d="M3.60032 8.01086C3.77125 8.43818 3.5634 8.92316 3.13608 9.09409L2.30275 9.42742C1.87543 9.59835 1.39045 9.3905 1.21952 8.96318C1.0486 8.53586 1.25644 8.05089 1.68376 7.87996L2.51709 7.54663C2.94441 7.3757 3.42939 7.58354 3.60032 8.01086Z" fill="white"/>
<path fill-rule="evenodd" clip-rule="evenodd" d="M8.93365 5.67753C9.10458 6.10485 8.89673 6.58982 8.46941 6.76075L7.63608 7.09409C7.20876 7.26501 6.72378 7.05717 6.55286 6.62985C6.38193 6.20253 6.58977 5.71755 7.01709 5.54663L7.85043 5.21329C8.27775 5.04236 8.76272 5.25021 8.93365 5.67753Z" fill="white"/>
<path fill-rule="evenodd" clip-rule="evenodd" d="M6.50678 3.44645C6.9434 3.59199 7.17936 4.06393 7.03382 4.50055L6.78382 5.25055C6.63828 5.68716 6.16635 5.92313 5.72973 5.77759C5.29311 5.63205 5.05714 5.16012 5.20268 4.7235L5.45268 3.9735C5.59822 3.53688 6.07016 3.30091 6.50678 3.44645Z" fill="white"/>
</g>
<defs>
<clipPath id="clip0_10309_46855">
<rect width="20" height="20" fill="white" transform="translate(0.373047)"/>
</clipPath>
</defs>
</svg>
