<svg width="20" height="20" viewBox="0 0 20 20" fill="none" xmlns="http://www.w3.org/2000/svg">
<g clip-path="url(#clip0_3400_2315)">
<path fill-rule="evenodd" clip-rule="evenodd" d="M18.9228 1.07711C19.1491 1.30347 19.2258 1.6395 19.1201 1.94166L13.2867 18.6083C13.1738 18.9308 12.8755 19.1517 12.5341 19.1657C12.1927 19.1796 11.8774 18.9837 11.7387 18.6715L8.5355 11.4644L1.32838 8.26121C1.01615 8.12244 0.820265 7.80713 0.834193 7.46573C0.848121 7.12433 1.06904 6.82602 1.39154 6.71315L18.0582 0.879816C18.3604 0.774061 18.6964 0.850744 18.9228 1.07711ZM3.92606 7.59187L9.50528 10.0715C9.69381 10.1553 9.84455 10.3061 9.92834 10.4946L12.408 16.0738L16.9752 3.02467L3.92606 7.59187Z" fill="#303136"/>
<path fill-rule="evenodd" clip-rule="evenodd" d="M18.9228 1.07711C19.2482 1.40255 19.2482 1.93018 18.9228 2.25562L9.75609 11.4223C9.43065 11.7477 8.90302 11.7477 8.57758 11.4223C8.25214 11.0969 8.25214 10.5692 8.57758 10.2438L17.7442 1.07711C18.0697 0.751672 18.5973 0.751672 18.9228 1.07711Z" fill="#303136"/>
</g>
<defs>
<clipPath id="clip0_3400_2315">
<rect width="20" height="20" fill="white"/>
</clipPath>
</defs>
</svg>
