<svg width="20" height="21" viewBox="0 0 20 21" fill="none" xmlns="http://www.w3.org/2000/svg">
<path fill-rule="evenodd" clip-rule="evenodd" d="M1.66666 5.4987C1.66666 5.03846 2.03975 4.66536 2.49999 4.66536H17.5C17.9602 4.66536 18.3333 5.03846 18.3333 5.4987C18.3333 5.95893 17.9602 6.33203 17.5 6.33203H2.49999C2.03975 6.33203 1.66666 5.95893 1.66666 5.4987Z" fill="#51525C"/>
<path fill-rule="evenodd" clip-rule="evenodd" d="M4.16666 4.66536C4.62689 4.66536 4.99999 5.03846 4.99999 5.4987V17.1654C4.99999 17.311 5.0812 17.5264 5.27675 17.7219C5.47229 17.9175 5.68768 17.9987 5.83332 17.9987H14.1667C14.3123 17.9987 14.5277 17.9175 14.7232 17.7219C14.9188 17.5264 15 17.311 15 17.1654V5.4987C15 5.03846 15.3731 4.66536 15.8333 4.66536C16.2936 4.66536 16.6667 5.03846 16.6667 5.4987V17.1654C16.6667 17.8531 16.3312 18.471 15.9017 18.9005C15.4723 19.3299 14.8544 19.6654 14.1667 19.6654H5.83332C5.14563 19.6654 4.52769 19.3299 4.09823 18.9005C3.66878 18.471 3.33332 17.8531 3.33332 17.1654V5.4987C3.33332 5.03846 3.70642 4.66536 4.16666 4.66536Z" fill="#51525C"/>
<path fill-rule="evenodd" clip-rule="evenodd" d="M7.77675 3.27545C7.5812 3.471 7.49999 3.68639 7.49999 3.83203V5.4987C7.49999 5.95893 7.12689 6.33203 6.66666 6.33203C6.20642 6.33203 5.83332 5.95893 5.83332 5.4987V3.83203C5.83332 3.14434 6.16878 2.5264 6.59823 2.09694C7.02769 1.66749 7.64563 1.33203 8.33332 1.33203H11.6667C12.3544 1.33203 12.9723 1.66749 13.4017 2.09694C13.8312 2.5264 14.1667 3.14434 14.1667 3.83203V5.4987C14.1667 5.95893 13.7936 6.33203 13.3333 6.33203C12.8731 6.33203 12.5 5.95893 12.5 5.4987V3.83203C12.5 3.68639 12.4188 3.471 12.2232 3.27545C12.0277 3.07991 11.8123 2.9987 11.6667 2.9987H8.33332C8.18768 2.9987 7.97229 3.07991 7.77675 3.27545Z" fill="#51525C"/>
<path fill-rule="evenodd" clip-rule="evenodd" d="M8.33332 8.83203C8.79356 8.83203 9.16666 9.20513 9.16666 9.66536V14.6654C9.16666 15.1256 8.79356 15.4987 8.33332 15.4987C7.87309 15.4987 7.49999 15.1256 7.49999 14.6654V9.66536C7.49999 9.20513 7.87309 8.83203 8.33332 8.83203Z" fill="#51525C"/>
<path fill-rule="evenodd" clip-rule="evenodd" d="M11.6667 8.83203C12.1269 8.83203 12.5 9.20513 12.5 9.66536V14.6654C12.5 15.1256 12.1269 15.4987 11.6667 15.4987C11.2064 15.4987 10.8333 15.1256 10.8333 14.6654V9.66536C10.8333 9.20513 11.2064 8.83203 11.6667 8.83203Z" fill="#51525C"/>
</svg>
