<svg width="21" height="20" viewBox="0 0 21 20" fill="none" xmlns="http://www.w3.org/2000/svg">
<path fill-rule="evenodd" clip-rule="evenodd" d="M2.16602 4.99967C2.16602 4.53944 2.53911 4.16634 2.99935 4.16634H17.9993C18.4596 4.16634 18.8327 4.53944 18.8327 4.99967C18.8327 5.45991 18.4596 5.83301 17.9993 5.83301H2.99935C2.53911 5.83301 2.16602 5.45991 2.16602 4.99967Z" fill="#D92D20"/>
<path fill-rule="evenodd" clip-rule="evenodd" d="M4.66602 4.16634C5.12625 4.16634 5.49935 4.53944 5.49935 4.99967V16.6663C5.49935 16.812 5.58056 17.0274 5.7761 17.2229C5.97165 17.4185 6.18704 17.4997 6.33268 17.4997H14.666C14.8117 17.4997 15.027 17.4185 15.2226 17.2229C15.4181 17.0274 15.4993 16.812 15.4993 16.6663V4.99967C15.4993 4.53944 15.8724 4.16634 16.3327 4.16634C16.7929 4.16634 17.166 4.53944 17.166 4.99967V16.6663C17.166 17.354 16.8306 17.972 16.4011 18.4014C15.9717 18.8309 15.3537 19.1663 14.666 19.1663H6.33268C5.64499 19.1663 5.02705 18.8309 4.59759 18.4014C4.16814 17.972 3.83268 17.354 3.83268 16.6663V4.99967C3.83268 4.53944 4.20578 4.16634 4.66602 4.16634Z" fill="#D92D20"/>
<path fill-rule="evenodd" clip-rule="evenodd" d="M8.2761 2.77643C8.08056 2.97197 7.99935 3.18737 7.99935 3.33301V4.99967C7.99935 5.45991 7.62625 5.83301 7.16602 5.83301C6.70578 5.83301 6.33268 5.45991 6.33268 4.99967V3.33301C6.33268 2.64531 6.66814 2.02737 7.09759 1.59792C7.52705 1.16846 8.14499 0.833008 8.83268 0.833008H12.166C12.8537 0.833008 13.4717 1.16846 13.9011 1.59792C14.3306 2.02737 14.666 2.64531 14.666 3.33301V4.99967C14.666 5.45991 14.2929 5.83301 13.8327 5.83301C13.3724 5.83301 12.9993 5.45991 12.9993 4.99967V3.33301C12.9993 3.18737 12.9181 2.97197 12.7226 2.77643C12.527 2.58088 12.3117 2.49967 12.166 2.49967H8.83268C8.68704 2.49967 8.47165 2.58088 8.2761 2.77643Z" fill="#D92D20"/>
<path fill-rule="evenodd" clip-rule="evenodd" d="M8.83268 8.33301C9.29292 8.33301 9.66602 8.7061 9.66602 9.16634V14.1663C9.66602 14.6266 9.29292 14.9997 8.83268 14.9997C8.37245 14.9997 7.99935 14.6266 7.99935 14.1663V9.16634C7.99935 8.7061 8.37245 8.33301 8.83268 8.33301Z" fill="#D92D20"/>
<path fill-rule="evenodd" clip-rule="evenodd" d="M12.166 8.33301C12.6263 8.33301 12.9993 8.7061 12.9993 9.16634V14.1663C12.9993 14.6266 12.6263 14.9997 12.166 14.9997C11.7058 14.9997 11.3327 14.6266 11.3327 14.1663V9.16634C11.3327 8.7061 11.7058 8.33301 12.166 8.33301Z" fill="#D92D20"/>
</svg>
