<svg width="20" height="20" viewBox="0 0 20 20" fill="none" xmlns="http://www.w3.org/2000/svg">
<path fill-rule="evenodd" clip-rule="evenodd" d="M4.16699 3.33317C3.70675 3.33317 3.33366 3.70627 3.33366 4.1665V15.8332C3.33366 16.2934 3.70675 16.6665 4.16699 16.6665H15.8337C16.2939 16.6665 16.667 16.2934 16.667 15.8332V4.1665C16.667 3.70627 16.2939 3.33317 15.8337 3.33317H4.16699ZM1.66699 4.1665C1.66699 2.78579 2.78628 1.6665 4.16699 1.6665H15.8337C17.2144 1.6665 18.3337 2.78579 18.3337 4.1665V15.8332C18.3337 17.2139 17.2144 18.3332 15.8337 18.3332H4.16699C2.78628 18.3332 1.66699 17.2139 1.66699 15.8332V4.1665Z" fill="#51525C"/>
<path fill-rule="evenodd" clip-rule="evenodd" d="M10.0003 6.6665C9.07985 6.6665 8.33366 7.4127 8.33366 8.33317C8.33366 9.25365 9.07985 9.99984 10.0003 9.99984C10.9208 9.99984 11.667 9.25365 11.667 8.33317C11.667 7.4127 10.9208 6.6665 10.0003 6.6665ZM6.66699 8.33317C6.66699 6.49222 8.15938 4.99984 10.0003 4.99984C11.8413 4.99984 13.3337 6.49222 13.3337 8.33317C13.3337 10.1741 11.8413 11.6665 10.0003 11.6665C8.15938 11.6665 6.66699 10.1741 6.66699 8.33317Z" fill="#51525C"/>
<path fill-rule="evenodd" clip-rule="evenodd" d="M7.50033 14.9998C7.27931 14.9998 7.06735 15.0876 6.91107 15.2439C6.75479 15.4002 6.66699 15.6122 6.66699 15.8332V17.4998C6.66699 17.9601 6.2939 18.3332 5.83366 18.3332C5.37342 18.3332 5.00033 17.9601 5.00033 17.4998V15.8332C5.00033 15.1701 5.26372 14.5342 5.73256 14.0654C6.2014 13.5966 6.83728 13.3332 7.50033 13.3332H12.5003C13.1634 13.3332 13.7993 13.5966 14.2681 14.0654C14.7369 14.5342 15.0003 15.1701 15.0003 15.8332V17.4998C15.0003 17.9601 14.6272 18.3332 14.167 18.3332C13.7068 18.3332 13.3337 17.9601 13.3337 17.4998V15.8332C13.3337 15.6122 13.2459 15.4002 13.0896 15.2439C12.9333 15.0876 12.7213 14.9998 12.5003 14.9998H7.50033Z" fill="#51525C"/>
</svg>
