<svg width="20" height="20" viewBox="0 0 20 20" fill="none" xmlns="http://www.w3.org/2000/svg">
<path fill-rule="evenodd" clip-rule="evenodd" d="M4.16675 3.33317C3.70651 3.33317 3.33341 3.70627 3.33341 4.1665V15.8332C3.33341 16.2934 3.70651 16.6665 4.16675 16.6665H15.8334C16.2937 16.6665 16.6667 16.2934 16.6667 15.8332V4.1665C16.6667 3.70627 16.2937 3.33317 15.8334 3.33317H4.16675ZM1.66675 4.1665C1.66675 2.78579 2.78604 1.6665 4.16675 1.6665H15.8334C17.2141 1.6665 18.3334 2.78579 18.3334 4.1665V15.8332C18.3334 17.2139 17.2141 18.3332 15.8334 18.3332H4.16675C2.78604 18.3332 1.66675 17.2139 1.66675 15.8332V4.1665Z" fill="white"/>
<path fill-rule="evenodd" clip-rule="evenodd" d="M10.0001 6.6665C9.07961 6.6665 8.33341 7.4127 8.33341 8.33317C8.33341 9.25364 9.07961 9.99984 10.0001 9.99984C10.9206 9.99984 11.6667 9.25364 11.6667 8.33317C11.6667 7.4127 10.9206 6.6665 10.0001 6.6665ZM6.66675 8.33317C6.66675 6.49222 8.15913 4.99984 10.0001 4.99984C11.841 4.99984 13.3334 6.49222 13.3334 8.33317C13.3334 10.1741 11.841 11.6665 10.0001 11.6665C8.15913 11.6665 6.66675 10.1741 6.66675 8.33317Z" fill="white"/>
<path fill-rule="evenodd" clip-rule="evenodd" d="M7.50008 14.9998C7.27907 14.9998 7.06711 15.0876 6.91083 15.2439C6.75455 15.4002 6.66675 15.6122 6.66675 15.8332V17.4998C6.66675 17.9601 6.29365 18.3332 5.83341 18.3332C5.37318 18.3332 5.00008 17.9601 5.00008 17.4998V15.8332C5.00008 15.1701 5.26347 14.5342 5.73231 14.0654C6.20116 13.5966 6.83704 13.3332 7.50008 13.3332H12.5001C13.1631 13.3332 13.799 13.5966 14.2678 14.0654C14.7367 14.5342 15.0001 15.1701 15.0001 15.8332V17.4998C15.0001 17.9601 14.627 18.3332 14.1667 18.3332C13.7065 18.3332 13.3334 17.9601 13.3334 17.4998V15.8332C13.3334 15.6122 13.2456 15.4002 13.0893 15.2439C12.9331 15.0876 12.7211 14.9998 12.5001 14.9998H7.50008Z" fill="white"/>
</svg>
