<svg width="16" height="17" viewBox="0 0 16 17" fill="none" xmlns="http://www.w3.org/2000/svg">
<path fill-rule="evenodd" clip-rule="evenodd" d="M3.33398 3.16683C3.15717 3.16683 2.9876 3.23707 2.86258 3.36209C2.73756 3.48712 2.66732 3.65669 2.66732 3.8335V12.8907L4.19591 11.3621C4.32094 11.2371 4.49051 11.1668 4.66732 11.1668H12.6673C12.8441 11.1668 13.0137 11.0966 13.1387 10.9716C13.2637 10.8465 13.334 10.677 13.334 10.5002V3.8335C13.334 3.65669 13.2637 3.48712 13.1387 3.36209C13.0137 3.23707 12.8441 3.16683 12.6673 3.16683H3.33398ZM1.91977 2.41928C2.29484 2.04421 2.80355 1.8335 3.33398 1.8335H12.6673C13.1978 1.8335 13.7065 2.04421 14.0815 2.41928C14.4566 2.79436 14.6673 3.30306 14.6673 3.8335V10.5002C14.6673 11.0306 14.4566 11.5393 14.0815 11.9144C13.7065 12.2894 13.1978 12.5002 12.6673 12.5002H4.94346L2.47206 14.9716C2.28139 15.1622 1.99465 15.2193 1.74553 15.1161C1.49641 15.0129 1.33398 14.7698 1.33398 14.5002V3.8335C1.33398 3.30306 1.5447 2.79436 1.91977 2.41928Z" fill="#A0A0AB"/>
</svg>
